**ABCDEFGHIJKLMNOPQRSTUVWXYZabcdefghijklmnopqrstuvwxyz**************************
**PARASOLID !"#$%&'()*+,-./:;<=>?@[\]^_`{|}~0123456789**************************
**PART1;
MC=AMD64;
MC_MODEL=Intel64 Family 6 Model 60 Stepping 3, GenuineIntel;
MC_ID=unknown;
OS=Windows_NT;
OS_RELEASE=unknown;
FRU=Parasolid Version 30.0, build 298, 12-15-2017;
APPL=SOLIDWORKS 2018-2018134;
SITE=;
USER=unknown;
FORMAT=text;
GUISE=transmit;
KEY=1690-20-8319;
FILE=1690-20-8319.x_t;
DATE=Sat Mar 28 17:18:44 2020;
**PART2;
SCH=SCH_3000298_30000;
USFLD_SIZE=0;
**PART3;
**END_OF_HEADER*****************************************************************
T51 : TRANSMIT FILE created by modeller version 300029823 SCH_3000298_30000_1300
6205 0 12 33 CCCCCCI4 mesh1006 0 I8 polyline1008 0 CCCCCCCDI5 owner1040 0 CCCCCC
I13 boundary_mesh1006 0 I17 boundary_polyline1008 0 CCCA16 index_map_offset0 0 1
 dA9 index_map82 0 A17 node_id_index_map82 0 A20 schema_embedding_map82 0 A5 chi
ld12 0 A14 lowest_node_id0 0 1 dZ1 1909 2 3 0 0 0 0 0 0 1e3 1e-8 0 4 0 1 0 1 1 5
 6 7 8 0 0 9 10 11 0 0 0 0 0 0 81 255 2 2 1691 12 1 0 0 0 0 13 0 70 11 CI9 list_
type0 0 1 uI10 notransmit0 0 1 lCCCDCCDI12 finger_index0 0 1 dI12 finger_block10
12 0 CZ3 0 4 T1 0 0 3 20 1 14 14 13 255 5 174 0 1 0 15 0 0 16 0 51 255 6 1622 0
 17 18 0 0 +.029205649925751 -.0466050427788061 .0475 0 0 -1 .0015 -1 0 0 31 255
 7 1627 0 19 20 0 0 +.029205649925751 -.0466050427788061 .0185 0 0 1 1 0 0 .0015
 29 255 8 1290 0 11 21 0 .029205649925751 -.0466050427788062 .02 19 8 CCCCCCCA5
 owner12 0 Z9 52 0 1 16 0 22 V0 16 255 10 1318 0 ?23 0 24 25 0 0 1 18 255 11 128
8 0 26 0 27 8 ?1 17 255 26 0 28 29 30 11 31 32 0 33 +18 27 1280 0 34 11 35 21 ?1
 17 34 0 36 37 33 27 38 39 0 40 +18 35 1269 0 41 27 42 43 ?1 29 21 1282 0 27 43
 8 -.0534670745406243 .01289464772947284 .02 29 43 1271 0 35 44 21 .028409132200
5032 -.045333996157566 .0185 29 44 1268 0 42 45 43 -.0520088815986072 .012542975
51866902 .0185 18 42 1266 0 46 35 47 44 ?1 29 45 1265 0 47 48 44 .02840913220050
32 -.045333996157566 .0075 18 47 1263 0 49 42 50 45 ?1 29 48 1262 0 50 51 45 -.0
520088815986072 .01254297551866902 .0075 18 50 1260 0 52 47 53 48 ?1 29 51 1254
 0 53 54 48 -.0534670745406243 .01289464772947284 -.02 18 53 1252 0 55 50 56 51
 ?1 29 54 1245 0 56 57 51 -.0530757642429166 .01434270720715598 -.0075 18 56 124
3 0 58 53 59 54 ?1 29 57 1236 0 59 60 54 -.0530757642429166 .01434270720715598 .
0075 18 59 1234 0 61 56 62 57 ?1 29 60 1233 0 62 63 57 -.0530757642429166 .01434
270720715598 .0185 18 62 1231 0 64 59 65 60 ?1 29 63 1230 0 65 66 60 -.053075764
2429166 .01434270720715598 -.0185 18 65 1228 0 67 62 68 63 ?1 29 66 1222 0 68 69
 63 .029205649925751 -.0466050427788061 -.02 18 68 1220 0 70 65 71 66 ?1 29 69 1
211 0 71 72 66 -.0520088815986072 .01254297551866902 -.0185 18 71 1209 0 73 68 7
4 69 ?1 29 72 1208 0 74 75 69 .0284091322005032 -.045333996157566 -.0185 18 74 1
206 0 76 71 77 72 ?1 29 75 1205 0 77 78 72 .0284091322005032 -.045333996157566 -
.0075 18 77 1203 0 79 74 80 75 ?1 29 78 1202 0 80 81 75 -.0520088815986072 .0125
4297551866902 -.0075 18 80 1200 0 82 77 83 78 ?1 29 81 1193 0 83 84 78 .03045450
054508165 -.0457741564264104 -.0075 18 83 1191 0 85 80 86 81 ?1 29 84 1184 0 86
 87 81 .03045450054508165 -.0457741564264104 .0075 18 86 1182 0 88 83 89 84 ?1 2
9 87 1181 0 89 90 84 .03045450054508165 -.0457741564264104 -.0185 18 89 1179 0 9
1 86 92 87 ?1 29 90 1178 0 92 93 87 .03045450054508165 -.0457741564264104 .0185
 18 92 1176 0 94 89 95 90 ?1 29 93 977 0 95 96 90 .03073156479350295 -.046190593
4725091 -.0185 18 95 975 0 97 92 98 93 ?1 29 96 972 0 98 99 93 .0321168596087332
5 -.0482727389825029 721553709742125e-33 18 98 970 0 100 95 101 96 ?1 29 99 969
 0 101 102 96 .030731564793503 -.0461905934725091 .0185 18 101 967 0 103 98 104
 99 ?1 29 102 937 0 104 105 99 .02948271417417235 -.0470214798249048 .02 18 104
 935 0 106 101 107 102 ?1 29 105 934 0 107 108 102 -.0539499390258777 .013025132
59448632 .02 18 107 932 0 37 104 109 105 ?1 29 108 919 0 109 110 105 .0316663195
6671475 -.0503735466797667 0 18 109 917 0 111 107 112 108 ?1 29 110 916 0 112 11
3 108 -.0578219106214295 .01403127407213446 0 18 112 914 0 114 109 115 110 ?1 29
 113 884 0 115 116 110 .0294827141741723 -.0470214798249048 -.02 18 115 882 0 11
7 112 118 113 ?1 29 116 881 0 118 119 113 -.0539499390258777 .01302513259448632
 -.02 18 118 879 0 120 115 121 116 ?1 29 119 871 0 121 122 116 -.05355862872817
 .01447319207216946 -.0185 18 121 869 0 123 118 124 119 ?1 29 122 864 0 124 125
 119 -.0535586287281701 .01447319207216946 .0185 18 124 862 0 126 121 127 122 ?1
 29 125 861 0 127 128 122 -.0559729050979715 .0151256039513604 721553709742127e-
33 18 127 859 0 129 124 130 125 ?1 29 128 523 0 130 131 125 -.0454879202332438 .
01229223791073254 .0075 18 130 521 0 132 127 133 128 ?1 29 131 475 0 133 134 128
 .02610064897412825 -.03923016853302235 -.0075 18 133 421 0 135 130 136 131 ?1 2
9 134 476 0 136 137 131 .01621326033962185 -.03907974338459495 -.0075 18 136 422
 0 138 133 139 134 ?1 29 137 477 0 139 140 134 -.000161258500196127 -.0474997262
696961 -.0075 18 139 423 0 141 136 142 137 ?1 29 140 478 0 142 143 137 -.0449900
250728579 -.0152363920907662 -.0075 18 142 424 0 144 139 145 140 ?1 29 143 479 0
 145 146 140 -.0422055526233944 .002964368668035315 -.0075 18 145 425 0 147 142
 148 143 ?1 29 146 480 0 148 149 143 -.0454879202332438 .01229223791073254 -.007
5 18 148 426 0 150 145 151 146 ?1 29 149 658 0 151 152 146 .02610064897412825 -.
03923016853302235 .0075 18 151 607 0 153 148 154 149 ?1 29 152 659 0 154 155 149
 .01621326033962185 -.03907974338459495 .0075 18 154 608 0 156 151 157 152 ?1 29
 155 660 0 157 158 152 -.000161258500196127 -.0474997262696961 .0075 18 157 609
 0 159 154 160 155 ?1 29 158 661 0 160 161 155 -.0449900250728579 -.015236392090
7662 .0075 18 160 610 0 162 157 163 158 ?1 29 161 662 0 163 0 158 -.042205552623
39445 .002964368668035315 .0075 18 163 611 0 164 160 0 161 ?1 17 164 0 165 132 1
62 163 166 167 0 168 +15 255 165 621 0 153 169 0 17 132 0 165 61 164 130 168 170
 0 171 +17 162 0 165 164 159 160 172 173 0 166 +17 166 0 174 144 175 160 164 167
 0 176 -16 167 600 0 ?164 173 170 177 0 0 1 17 168 0 178 147 179 163 132 170 0 1
75 -15 178 536 0 168 180 0 17 147 0 178 181 168 145 175 182 0 183 +17 179 0 178
 168 181 130 150 184 0 0 -16 170 601 0 ?132 167 185 186 0 0 1 17 175 0 174 166 1
87 163 147 182 0 0 -15 174 543 0 166 188 0 17 187 0 174 175 144 145 189 190 0 0
 +16 182 533 0 ?147 191 184 192 0 0 1 16 191 540 0 ?144 193 182 194 0 0 1 16 184
 522 0 ?150 182 195 196 0 0 1 30 255 192 168 0 182 196 194 0 +-.0422055526233944
5 .00296436866803532 .02 0 0 -1 30 196 167 0 184 197 192 0 +-.0454879202332438 .
01229223791073254 .02 0 0 -1 30 194 169 0 191 192 198 0 +-.04499002507285785 -.0
152363920907662 .02 0 0 -1 30 198 170 0 193 194 199 0 +-.000161258500196127 -.04
74997262696961 .02 0 0 -1 16 193 547 0 ?141 200 191 198 0 0 1 30 199 171 0 200 1
98 201 0 +.01621326033962185 -.03907974338459495 .02 0 0 -1 16 200 554 0 ?138 20
2 193 199 0 0 1 30 201 172 0 202 199 203 0 +.02610064897412825 -.039230168533022
35 .02 0 0 -1 16 202 561 0 ?135 204 200 201 0 0 1 31 203 327 0 205 201 206 0 +.0
2110524649680565 -.0425537139426052 -.0075 0 0 1 1 0 0 .00254999999315467 16 205
 412 0 ?207 208 209 203 0 0 1 31 206 510 0 210 203 211 0 +.02110524649680565 -.0
425537139426052 .0075 0 0 1 1 0 0 .00254999999315467 16 210 585 0 ?212 213 214 2
06 0 0 1 38 12 CCCCCCCCCCCA17 intersection_data204 0 Z211 865 0 204 206 215 0 +2
16 217 218 219 220 221 16 204 863 0 ?126 222 202 211 0 0 1 30 215 868 0 222 211
 223 0 --.0454879202332438 .01229223791073254 .0185 -.96537298512209 .2608735318
050955 0 50 255 216 158 0 224 225 226 227 +-.0454879202332438 .01229223791073254
 .02 -.2608735318050955 -.96537298512209 0 .96537298512209 -.2608735318050955 0
 59 255 217 866 0 1 228 229 230 +1 231 40 255 14 218 0 1 14 .0003966589917766955
 .3651310366544555 ??-.0559729050979715 .0151256039513604 721553709742127e-33 -.
0556939197294011 .01505021350689745 .00925 -.0551759152831298 .0149102327414605
 .0139172704157146 -.0546736947006983 .01477451726246606 .01626274436907325 -.05
44154623738018 .01470473492943836 .0170720841478208 -.0541958139621156 .01464537
9159394 .01761000607158225 -.0540153861060654 .0145966219921962 .017962818169889
7 -.0538721663709803 .01455791960597694 .01818958018077365 -.0537626427425656 .0
145283229462392 .01833106486344755 -.0536824935651699 .01450666416843962 .018415
64655930005 -.0536270042874478 .0144916692555098 .01846316459667055 -.0535913264
938753 .01448202801615496 .0184874576194149 -.0535706207548339 .0144764326873487
8 .01849799222573045 -.0535586287281748 .01447319207217074 .0185000000000129 41
 3 CI8 term_use0 0 1 cCZ1 219 L?-.0559729050979715 .0151256039513604 72155370974
2127e-33 41 1 220 L?-.0535586287281748 .01447319207217074 .0185000000000129 204
 2 17 INTERSECTION_DATA17 Intersection data7 uv_type0 0 1 u6 values0 1 1 fT28 22
1 2 -.01086107134373736 -.02 -.01057207903416378 -.01075 -.01003549425889598 -.0
0608272958428539 -.00951525949971843 -.00373725563092675 -.00924776462377279 -.0
02927915852179185 -.00902023763154147 -.00238999392841774 -.00883333799913944 -.
00203718183011032 -.00868498110776965 -.00181041981922636 -.00857152897051011 -.
00166893513655244 -.0084885049180134 -.001584353440699935 -.00843102529244139 -.
001536835403329475 -.00839406777019632 -.001512542380585105 -.00837261933590145
 -.00150200777426955 -.00836019716660121 -.001499999999987088 50 228 164 0 232 2
33 217 234 +.03295849197836285 -.0495377412334487 .02 -.832567079553768 -.553924
234930473 0 .553924234930473 -.832567079553768 0 59 229 873 0 1 217 235 236 +1 2
37 141 255 230 211 230 230 217 56 255 231 1052 0 238 239 240 241 +R216 242 243 .
0015 .0015 1 1 0 0 0 0 14 255 238 1018 244 ?245 246 247 5 231 +0 0 245 246 22 60
 255 239 1053 0 1 248 231 249 +UF250 .0015 ?50 240 1051 0 1 231 251 252 +-.04587
92305309514 .0108441784330494 .02 -.2608735318050955 -.96537298512209 0 .9653729
8512209 -.2608735318050955 0 141 241 217 253 253 231 68 255 242 808 0 254 250 25
5 256 +257 0 0 0 0 0 1 ????.553924234930473 -.832567079553768 0 .026514901470679
05 38 243 1057 0 1 258 259 260 +240 251 261 262 263 264 31 258 1058 0 265 266 24
3 0 +-.0539499390258777 .01302513259448632 .0185 -.96537298512209 .2608735318050
95 0 -.260873531805095 -.965372985122091 0 .0015 31 259 1121 0 267 243 268 0 +.0
2948271417417235 -.0470214798249048 .0185 -.553924234930476 .832567079553766 0 -
.832567079553766 -.553924234930476 0 .0015 141 260 231 260 260 243 60 251 1050 0
 1 240 269 270 +UF242 .0015 ?40 18 261 -.01250135101222782 .999512312841299 18 .
0003966589917767015 .3651310366542095 ??-.0563642153956792 .01367754447367728 -.
01250745073533952 -.0563642153956792 .01367754447367728 -721553709742126e-33 -.0
560852300271088 .0136021540292143 .00925 -.0555672255808374 .0134621732637774 .0
139172704157146 -.0550650049984059 .01332645778478294 .01626274436907325 -.05480
67726715094 .01325667545175524 .0170720841478208 -.0545871242598232 .01319731968
171086 .01761000607158225 -.054406696403773 .0131485625145131 .0179628181698897
 -.054263476668688 .01310986012829382 .01818958018077365 -.0541539530402732 .013
08026346855608 .01833106486344755 -.0540738038628776 .01305860469075644 .0184156
4655930005 -.0540183145851554 .0130436097778267 .01846316459667055 -.05398263679
1583 .01303396853847184 .0184874576194149 -.0539619310525415 .01302837320966566
 .01849799222573045 -.0539499390258777 .01302513259448632 .0185 -.05382443847964
93 .01299121847917272 .0185 -.0533224362947358 .0128555620179183 .0185 -.0513144
275550817 .0123129361729007 .0185 41 1 262 L?-.0563642153956792 .013677544473677
28 -.01250745073533952 41 1 263 L?-.0513144275550817 .0123129361729007 .0185 204
 72 264 4 -.0108610713437374 -.0325074507353395 -.312686268383488 3.887256672456
71 -.01086107134373736 -.02 -1202390301471132e-46 3.88725667245671 -.01057207903
416378 -.01075 .2706516867836835 3.88738617853847 -.01003549425889598 -.00608272
958428539 .460058017385258 3.887630109149255 -.00951525949971843 -.0037372556309
2675 .592684778867202 3.887871017113895 -.0092477646237728 -.002927915852179185
 .653730444283312 3.887996617296975 -.00902023763154147 -.00238999392841774 .704
715872535027 3.88810439221829 -.00883333799913944 -.00203718183011032 .747803949
106824 3.888193578034225 -.00868498110776965 -.00181041981922636 .78474579903607
4 3.88826479680987 -.00857152897051011 -.00166893513655244 .816970250007219 3.88
831951539594 -.00848850491801341 -.001584353440699935 .845689502018138 3.8883596
99728795 -.00843102529244138 -.001536835403329475 .872074889148659 3.88838759066
1585 -.00839406777019632 -.001512542380585105 .897777263845773 3.88840555410507
 -.00837261933590145 -.00150200777426955 .928951578400591 3.88841599022028 -.008
36019716659627 -.0015 1 3.888422038133875 -.00823019503460941 -.0015 1.016244316
392884 3.888485494306025 -.00771018650666201 -.0015 1.081221299965676 3.88874232
5872 -.00563015239487247 -.0015 1.341124488943018 3.889820249502915 51 269 1049
 0 246 251 271 0 +-.0003913102977076355 -.001448059477683106 .0185 -.96537298512
209 .2608735318050955 0 .0015 -.2608735318050955 -.96537298512209 0 141 270 243
 270 270 251 14 246 1016 272 ?238 273 274 5 269 +0 0 238 273 22 51 271 1116 0 27
5 269 276 0 +-.001248850619330618 -.000830886352395688 .0185 -.553924234930473 .
832567079553768 0 .0015 -.832567079553768 -.553924234930473 0 14 275 1082 277 ?2
78 279 28 5 271 +0 0 278 279 22 56 276 1115 0 279 271 280 281 +R228 242 282 .001
5 .0015 1 1 0 0 0 0 14 279 1080 283 ?275 284 285 5 276 +0 0 275 284 22 50 280 11
14 0 1 276 286 287 +.0317096413590322 -.0503686275858444 .02 -.832567079553768 -
.553924234930473 0 .553924234930473 -.832567079553768 0 141 281 288 289 289 276
 38 282 1119 0 1 268 290 291 +280 286 292 293 294 295 31 268 1120 0 296 259 282
 0 +.0308680089894026 -.0491036253348986 721553709742127e-33 2665465453736945e-3
1 -4006285785181025e-31 1 0 -1 -4006285785181025e-31 .0015 31 290 1118 0 297 282
 298 0 +.0294827141741723 -.0470214798249048 -.0185 .553924234930475 -.832567079
553767 0 .832567079553767 .553924234930475 0 .0015 141 291 276 291 291 282 60 28
6 1113 0 1 280 299 300 +UF242 .0015 ?40 10 292 -.002685452720991965 .98366618335
5525 10 .0014325161573257 .3819407519306315 ??.0279704762126689 -.04474853442225
91 .0185 .0294827141741723 -.0470214798249048 .0185 .02949029768232495 -.0470328
780971544 .01849749475512145 .0295168227731953 -.0470727462163813 .0184697883452
0685 .02960612926600905 -.047206976931014 .01831806923546845 .02984169969916625
 -.0475610473529148 .01763489922074905 .03032666578138025 -.0482899679692915 .01
473614781824634 .0308568514980136 -.0490868552435484 .00272585878389796 .0308680
0898940255 -.0491036253348986 -721553709742126e-33 .0308680089894026 -.049103625
3348986 -.01250745073533952 41 1 293 L?.0279704762126689 -.0447485344222591 .018
5 41 1 294 L?.0308680089894026 -.0491036253348986 -.01250745073533952 204 40 295
 4 -.0067503187450043 -.0015 1.34112448894311 6.25475677734027 -.004020273973279
78 -.0015 1 6.25615498870931 -.004006583458089415 -.00150250524487855 .925615409
513805 6.2561616539833 -.00395869768383058 -.00153021165479315 .877424114116637
 6.25618494150805 -.0037974725790562 -.00168193076453153 .813446071275463 6.2562
6305341396 -.00337219702997908 -.00236510077925096 .707417427874117 6.2564669435
847 -.00249668725511818 -.00526385218175367 .501610036298255 6.25687711820925 -.
00153954242699933 -.01727414121610205 .0712609268265919 6.25731136971367 -.00151
9399796138675 -.02 1044116337130504e-27 6.25732035438648 -.00151939979613867 -.0
3250745073533955 -.312686268383488 6.25732035438648 56 299 1112 0 284 286 301 30
2 +R228 250 298 .0015 .0015 1 1 0 0 0 0 141 300 282 300 300 286 14 284 1078 303
 ?279 304 305 5 299 +0 0 279 304 22 50 301 1111 0 1 299 306 307 +.03170964135903
22 -.0503686275858444 .02 -.832567079553768 -.553924234930473 0 .553924234930473
 -.832567079553768 0 141 302 235 308 308 299 68 250 809 0 273 0 242 309 +310 0 0
 0 0 0 1 ????.553924234930474 -.832567079553768 0 .02651490147067895 38 298 1117
 0 1 290 311 312 +301 306 313 314 315 316 30 311 1185 0 317 298 318 0 +.03045450
054508165 -.0457741564264104 .0185 0 0 1 141 312 299 312 312 298 60 306 1110 0 1
 301 319 320 +UF250 .0015 ?40 18 313 -.01250135101222776 .999512312841299 18 .00
0396658991776717 .365131036654154 ??.0308680089894026 -.0491036253348986 .012507
45073533946 .0308680089894026 -.0491036253348986 721553709742127e-33 .0307079291
454213 -.0488630198517034 -.00925 .0304107018343057 -.0484162770324257 -.0139172
704157146 .030122531193344 -.0479831466982949 -.01626274436907325 .0299743592988
38 -.0477604392706332 -.0170720841478208 .02984832658374025 -.0475710077871916 -
.01761000607158225 .0297447983478532 -.0474154013060729 -.0179628181698897 .0296
6261987030455 -.0472918842422935 -.01818958018077365 .02959977598197175 -.047197
4277277062 -.01833106486344755 .02955378694721175 -.0471283046347863 -.018415646
55930005 .02952194758959265 -.0470804489907899 -.01846316459667055 .029501475922
35815 -.0470496793744268 -.0184874576194149 .02948959511480085 -.047031822114124
9 -.01849799222573045 .0294827141741723 -.0470214798249048 -.0185 .0293719293271
857 -.0468549664089932 -.0185 .02892878993923915 -.0461889127453471 -.0185 .0271
5623238745325 -.04352469809076225 -.0185 41 1 314 L?.0308680089894026 -.04910362
53348986 .01250745073533946 41 1 315 L?.02715623238745325 -.04352469809076225 -.
0185 204 72 316 4 -.00151939979613867 -.00749254926466053 1.312686268383486 6.25
732035438648 -.001519399796138675 -.02 1 6.25732035438648 -.00180839210571226 -.
02925 .729348313216316 6.25719084830471 -.00234497688098007 -.0339172704157146 .
539941982614742 6.25694691769393 -.00286521164015761 -.03626274436907325 .407315
2211327985 6.25670600972929 -.003132706516103245 -.03707208414782085 .3462695557
16688 6.25658040954621 -.003360233508334575 -.03761000607158225 .295284127464973
5 6.25647263462489 -.00354713314073661 -.0379628181698897 .2521960508931745 6.25
638344880896 -.0036954900321064 -.03818958018077365 .2152542009639245 6.25631223
003331 -.00380894216936595 -.0383310648634476 .1830297499927785 6.25625751144725
 -.003891966221862655 -.0384156465593001 .1543104979818585 6.25621732711439 -.00
394944584743467 -.03846316459667055 .127925110851338 6.2561894361816 -.003986403
369679745 -.0384874576194149 .1022227361542228 6.25617147273812 -.00400785180397
461 -.03849799222573045 .0710484215993987 6.25616103662291 -.004020273973279785
 -.0385 -1910058533823965e-30 6.25615498870931 -.004220273973280745 -.0385 -.024
9908345571504 6.25605724190557 -.00502027397328457 -.0385 -.1249535002205614 6.2
5565908332107 -.00822027397329986 -.0385 -.524792521176276 6.25394231944063 51 3
19 1109 0 304 306 321 0 +.0317096413590322 -.0503686275858444 -.0185 .5539242349
30473 -.832567079553768 0 .0015 .832567079553768 .553924234930473 0 141 320 298
 320 320 306 14 304 1076 322 ?284 323 324 5 319 +0 0 284 323 22 51 321 1567 0 32
5 319 326 0 +.029205649925751 -.0466050427788061 -.0475 0 0 1 .0015 1 0 0 14 325
 1535 327 ?17 328 329 5 321 +0 0 17 328 22 53 255 326 1566 0 328 321 330 0 +.029
205649925751 -.0466050427788061 -.0185 .0015 .531011816831848 -.84736441416013 0
 .84736441416013 .531011816831848 0 14 328 1533 331 ?325 332 333 5 326 +0 0 325
 332 22 54 255 330 1565 0 332 326 334 0 +0 0 -.0185 0 0 -1 .0549999999999988 .00
15 -1 0 0 14 332 1531 335 ?328 336 337 5 330 +0 0 328 336 22 53 334 1564 0 336 3
30 338 0 +-.0534670745406243 .01289464772947284 -.0185 .0015 -.972128628011371 .
234448140535875 0 -.234448140535875 -.972128628011371 0 14 336 1529 339 ?332 278
 340 5 334 +0 0 332 278 22 51 338 1563 0 278 334 341 0 +-.0534670745406243 .0128
9464772947284 -.0475 0 0 1 .0015 1 0 0 14 278 1527 342 ?336 275 343 5 338 +0 0 3
36 275 22 51 341 1626 0 344 338 345 0 +-.0534670745406243 .01289464772947284 .04
75 0 0 -1 .0015 -1 0 0 14 344 1594 346 ?0 347 348 5 341 +0 0 0 347 22 53 345 162
5 0 347 341 349 0 +-.0534670745406243 .01289464772947284 .0185 .0015 .9721286280
11371 -.234448140535875 0 .234448140535875 .972128628011371 0 14 347 1592 350 ?3
44 351 352 5 345 +0 0 344 351 22 54 349 1624 0 351 345 18 0 +0 0 .0185 0 0 -1 .0
549999999999988 .0015 -1 0 0 14 351 1590 353 ?347 354 355 5 349 +0 0 347 354 22
 53 18 1623 0 354 349 6 0 +.029205649925751 -.0466050427788061 .0185 .0015 -.531
011816831848 .84736441416013 0 -.84736441416013 -.531011816831848 0 14 354 1588
 356 ?351 17 357 5 18 +0 0 351 17 22 81 1 356 1889 358 354 359 0 353 360 361 14
 17 1586 360 ?354 325 362 5 6 +0 0 354 325 22 15 357 1589 0 31 354 0 13 22 53 0
 0 0 0 0 0 9 15 14 15 740 363 ?364 0 36 5 365 -0 0 364 0 22 81 1 363 1891 358 15
 366 0 360 367 368 14 364 728 367 ?232 15 369 5 225 +0 0 232 15 22 15 36 578 0 3
3 15 0 50 365 2 0 15 370 225 0 +0 0 .02 0 0 -1 -1 0 0 51 370 227 0 371 372 365 0
 --.0470531614240744 .0065 .02 0 0 -1 .00255 -1 0 0 50 225 117 0 364 365 216 0 +
0 0 -.02 0 0 -1 -1 0 0 14 371 516 373 ?374 224 375 5 370 +0 0 374 224 22 51 372
 265 0 374 376 370 0 -.02110524649680565 -.0425537139426052 .02 0 0 -1 .00254999
999315467 -1 0 0 14 374 511 377 ?378 371 379 5 372 +0 0 378 371 22 51 376 458 0
 378 380 372 0 +0 0 -.0475 0 0 1 .0534999999999988 1 0 0 14 378 430 381 ?382 374
 383 5 376 -0 0 382 374 22 50 380 459 0 382 384 376 0 +0 0 -.0075 0 0 1 1 0 0 14
 382 434 385 ?386 378 387 5 380 -0 0 386 378 22 51 384 641 0 386 255 380 0 -0 0
 .0475 0 0 -1 .0534999999999988 -1 0 0 14 386 613 388 ?169 382 389 5 384 +0 0 16
9 382 22 50 255 642 0 169 242 384 0 +0 0 .0075 0 0 1 1 0 0 14 169 617 390 ?254 3
86 391 5 255 +0 0 254 386 22 81 1 390 1898 358 169 392 0 388 393 394 14 254 778
 393 ?273 169 395 5 242 -0 0 273 169 22 15 391 619 0 396 169 397 17 396 0 391 39
6 396 0 212 210 0 0 -15 397 620 0 398 169 165 17 398 0 397 398 398 0 399 213 0 0
 -17 399 0 400 399 399 0 398 213 0 0 +16 213 586 0 ?399 185 210 401 0 0 1 16 185
 602 0 ?61 170 213 402 0 0 1 31 401 653 0 213 403 402 0 +-.0470531614240744 .006
5 .0075 0 0 1 1 0 0 .00255 31 403 654 0 214 404 401 0 +0 0 .0075 0 0 1 1 0 0 .05
34999999999988 30 402 652 0 185 401 186 0 +-.0454879202332438 .01229223791073254
 .0075 -.96537298512209 .2608735318050955 0 31 186 651 0 170 402 177 0 +-.047053
1614240744 .0065 .0075 0 0 1 1 0 0 .006 31 177 650 0 167 186 405 0 --.0260468566
21128 -.00882106910518036 .0075 0 0 1 1 0 0 .02 31 405 649 0 173 177 406 0 -0 0
 .0075 0 0 1 1 0 0 .0474999999999994 16 173 599 0 ?162 407 167 405 0 0 1 31 406
 648 0 407 405 408 0 --93360184324074e-18 -.02749984152456065 .0075 0 0 1 1 0 0
 .02 16 407 598 0 ?159 409 173 406 0 0 1 31 408 647 0 409 406 410 0 +.0211052464
9680565 -.0425537139426052 .0075 0 0 1 1 0 0 .006 16 409 597 0 ?156 411 407 408
 0 0 1 30 410 646 0 411 408 412 0 +.03295849197836285 -.0495377412334487 .0075 -
.553924234930473 .832567079553768 0 16 411 596 0 ?153 209 409 410 0 0 1 31 412 4
71 0 209 410 413 0 +0 0 -.0075 0 0 1 1 0 0 .0534999999999988 16 209 1201 0 ?414
 205 411 412 0 0 1 31 413 470 0 208 412 415 0 +-.0470531614240744 .0065 -.0075 0
 0 1 1 0 0 .00255 16 208 411 0 ?416 417 205 413 0 0 1 30 415 469 0 417 413 418 0
 +-.0454879202332438 .01229223791073254 -.0075 -.96537298512209 .260873531805095
5 0 16 417 410 0 ?58 419 208 415 0 0 1 31 418 468 0 419 415 420 0 +-.04705316142
40744 .0065 -.0075 0 0 1 1 0 0 .006 16 419 409 0 ?181 190 417 418 0 0 1 31 420 4
67 0 190 418 421 0 --.026046856621128 -.00882106910518036 -.0075 0 0 1 1 0 0 .02
 16 190 408 0 ?187 422 419 420 0 0 1 31 421 466 0 422 420 423 0 -0 0 -.0075 0 0
 1 1 0 0 .0474999999999994 16 422 407 0 ?424 425 190 421 0 0 1 31 423 465 0 425
 421 426 0 --93360184324074e-18 -.02749984152456065 -.0075 0 0 1 1 0 0 .02 16 42
5 406 0 ?427 428 422 423 0 0 1 31 426 464 0 428 423 197 0 +.02110524649680565 -.
0425537139426052 -.0075 0 0 1 1 0 0 .006 16 428 405 0 ?429 195 425 426 0 0 1 30
 197 463 0 195 426 196 0 +.03295849197836285 -.0495377412334487 -.0075 -.5539242
34930473 .832567079553768 0 16 195 404 0 ?430 184 428 197 0 0 1 17 430 0 431 432
 433 133 85 195 0 0 +15 431 968 0 434 232 0 17 432 0 431 88 430 151 135 202 0 0
 -17 433 0 431 430 434 83 435 436 0 0 +17 85 0 437 79 438 83 430 195 0 439 -15 4
37 438 0 440 382 0 17 79 0 437 440 85 77 439 441 0 414 +17 438 0 437 85 442 133
 429 428 0 430 -17 439 0 329 435 443 83 79 441 0 433 -15 329 1536 0 444 325 0 17
 435 0 329 444 439 89 433 436 0 0 -17 443 0 329 439 444 77 76 445 0 0 -16 441 13
06 0 ?79 446 39 447 0 0 1 16 446 1310 0 ?448 24 441 449 0 0 1 16 39 1301 0 ?34 4
41 450 451 0 0 1 31 447 1506 0 441 451 449 0 +.029205649925751 -.046605042778806
1 -.0075 0 0 1 1 0 0 .0015 31 451 1303 0 39 452 447 0 +0 0 .02 0 0 -1 -1 0 0 .05
49999999999988 31 449 1507 0 446 447 453 0 +-.0534670745406243 .0128946477294728
4 -.0075 0 0 1 1 0 0 .0015 31 453 1508 0 24 449 25 0 --.0534670745406243 .012894
64772947284 .0075 0 0 1 1 0 0 .0015 16 24 1314 0 ?52 10 446 453 0 0 1 31 25 1509
 0 10 453 454 0 -.029205649925751 -.0466050427788061 .0075 0 0 1 1 0 0 .0015 31
 454 1571 0 455 25 456 0 +.029205649925751 -.0466050427788061 -.0185 0 0 1 1 0 0
 .0015 16 455 1550 0 ?444 457 19 454 0 0 1 31 456 1570 0 457 454 458 0 +.0292056
49925751 -.0466050427788061 -.0185 .84736441416013 .531011816831847 0 -.53101181
6831847 .84736441416013 0 .0015 16 457 1547 0 ?459 460 455 456 0 0 1 31 458 1569
 0 460 456 461 0 +-.0534670745406243 .01289464772947284 -.0185 -.234448140535876
 -.972128628011371 0 .972128628011371 -.234448140535876 0 .0015 16 460 1545 0 ?4
62 463 457 458 0 0 1 31 461 1568 0 463 458 464 0 +-.0534670745406243 .0128946477
2947284 -.0185 0 0 -1 -1 0 0 .0015 16 463 1542 0 ?465 267 460 461 0 0 1 31 464 1
630 0 466 461 467 0 +-.0534670745406243 .01289464772947284 .0185 0 0 -1 -1 0 0 .
0015 16 466 1611 0 ?46 468 0 464 0 0 1 31 467 1629 0 468 464 20 0 +-.05346707454
06243 .01289464772947284 .0185 .234448140535875 .972128628011371 0 -.97212862801
1371 .234448140535875 0 .0015 16 468 1606 0 ?469 470 466 467 0 0 1 31 20 1628 0
 470 467 7 0 +.029205649925751 -.0466050427788062 .0185 -.84736441416013 -.53101
1816831848 992998366420521e-30 .531011816831848 -.84736441416013 0 .0015 16 470
 1604 0 ?471 19 468 20 0 0 1 17 471 0 355 472 38 35 473 470 0 0 +16 19 1601 0 ?4
74 455 470 7 0 0 1 17 474 0 357 473 31 35 475 19 0 471 +17 473 0 357 31 474 11 4
71 470 0 38 -17 31 0 357 474 473 92 26 32 0 0 -17 475 0 362 476 477 92 474 19 0
 31 -15 362 1587 0 475 17 0 17 476 0 362 478 475 86 94 317 0 0 -17 477 0 362 475
 478 35 49 479 0 474 -17 478 0 362 477 476 47 23 10 0 0 -17 49 0 389 480 41 47 4
77 479 0 481 +16 479 1273 0 ?49 482 483 484 0 0 1 16 482 1275 0 ?485 486 479 487
 0 0 1 16 483 1270 0 ?41 479 488 489 0 0 1 30 484 1274 0 479 489 487 0 +.0284091
322005032 -.0453339961575659 .0475 0 0 -1 31 489 1272 0 483 490 484 0 -0 0 .0185
 0 0 -1 -1 0 0 .0534999999999988 30 487 1277 0 482 484 491 0 --.0520088815986072
 .01254297551866902 .0475 0 0 -1 31 491 1285 0 486 487 492 0 +-.0534670745406243
 .01289464772947284 .0185 -.96537298512209 .2608735318050955 0 -.260873531805095
5 -.96537298512209 0 .0015 16 486 1283 0 ?64 32 482 491 0 0 1 31 492 1293 0 32 4
91 452 0 -.029205649925751 -.0466050427788062 .0185 -.553924234930473 .832567079
553768 0 -.832567079553768 -.553924234930473 0 .0015 16 32 1291 0 ?26 450 486 49
2 0 0 1 31 452 1298 0 450 492 451 0 -0 0 -.02 0 0 -1 -1 0 0 .0549999999999988 16
 450 1296 0 ?70 39 32 452 0 0 1 17 70 0 369 117 493 68 494 450 0 495 +15 369 726
 0 493 364 0 17 117 0 369 496 70 115 495 497 0 498 +17 493 0 369 70 496 53 499 5
00 0 501 +17 494 0 337 462 502 53 70 450 0 0 -17 495 0 324 91 503 68 117 497 0 5
02 -15 324 1077 0 495 304 0 17 91 0 324 504 495 89 505 506 0 434 +17 503 0 324 4
95 504 115 507 297 0 508 -16 497 1221 0 ?117 500 509 510 0 0 1 17 502 0 337 494
 511 68 459 457 0 505 -15 337 1532 0 502 332 0 17 511 0 337 502 462 74 73 512 0
 459 -17 459 0 333 513 505 74 502 457 0 444 +17 505 0 333 459 513 68 91 506 0 0
 -15 333 1534 0 505 328 0 17 513 0 333 505 459 89 444 455 0 435 -16 506 1223 0 ?
91 514 445 515 0 0 1 16 514 1238 0 ?516 517 506 518 0 0 1 16 445 1215 0 ?76 506
 519 520 0 0 1 31 515 1225 0 506 520 518 0 +.029205649925751 -.0466050427788061
 -.0185 .553924234930473 -.832567079553768 0 .832567079553768 .553924234930473 0
 .0015 30 520 1217 0 445 521 515 0 -.0284091322005032 -.0453339961575659 -.0475
 0 0 1 30 518 1240 0 514 515 522 0 --.0530757642429166 .01434270720715598 .0075
 0 0 1 30 522 1249 0 517 518 490 0 --.0530757642429166 .01434270720715598 .02 0
 0 1 16 517 1247 0 ?67 488 514 522 0 0 1 31 490 1257 0 488 522 489 0 --.05346707
45406243 .01289464772947284 -.0185 .96537298512209 -.2608735318050955 0 .2608735
318050955 .96537298512209 0 .0015 16 488 1255 0 ?55 483 517 490 0 0 1 17 55 0 52
3 499 524 53 525 488 0 493 +15 523 1023 0 524 323 0 17 499 0 523 526 55 118 493
 500 0 527 -17 524 0 523 55 526 65 123 509 0 528 -17 525 0 340 465 501 65 55 488
 0 0 -15 340 1530 0 525 336 0 17 465 0 340 501 525 71 528 463 0 462 +17 501 0 34
0 525 465 53 462 460 0 494 -17 462 0 337 511 494 71 501 460 0 0 +17 528 0 343 52
9 530 65 465 463 0 525 -15 343 1528 0 528 278 0 17 529 0 343 531 528 56 67 517 0
 0 -17 530 0 343 528 531 71 82 519 0 465 -17 531 0 343 530 529 80 448 446 0 0 -1
7 82 0 383 414 73 80 530 519 0 440 +16 519 1213 0 ?82 445 512 521 0 0 1 16 512 1
210 0 ?73 519 436 532 0 0 1 30 521 1214 0 519 532 520 0 +-.0520088815986072 .012
54297551866902 -.0475 0 0 1 31 532 1212 0 512 318 521 0 +0 0 -.0185 0 0 -1 -1 0
 0 .0534999999999988 30 318 1197 0 436 311 532 0 +.03045450054508165 -.045774156
4264104 .02 0 0 1 16 436 1195 0 ?433 512 317 318 0 0 1 16 317 1183 0 ?94 436 533
 311 0 0 1 17 94 0 431 103 88 92 476 317 0 30 +16 533 993 0 ?114 317 534 535 0 0
 1 17 114 0 395 536 537 112 538 533 0 539 +16 534 987 0 ?106 533 540 541 0 0 1 3
8 535 995 0 533 541 542 0 +242 543 544 545 546 547 38 541 989 0 534 548 535 0 +2
42 549 550 551 552 553 31 542 1061 0 554 535 555 0 +-.0539499390258777 .01302513
259448632 -.0185 .965372985122089 -.260873531805099 0 .260873531805099 .96537298
5122089 0 .0015 59 543 996 0 1 549 556 557 +0 231 40 7 544 0 1 7 .00134360156183
5766 .3442181682360725 ??-.0539499973262623 .01302514677423068 .019999999998875
 -.0544527752148082 .01314684437602864 .01991046661724335 -.0548988418077685 .01
3256367539189 .0196588020565348 -.0554645608518928 .0134004457275373 .0190404353
046996 -.0563493020529775 .01363428994829774 .01707218731433985 -.05758060805388
43 .0139659844492907 .00874839907832945 -.0578219106214295 .01403127407213446 0
 41 2 545 TF-.0539499390258777 .01302513259448632 .02 -.0539499973262623 .013025
14677423068 .019999999998875 41 1 546 L?-.0578219106214295 .01403127407213446 0
 204 16 547 2 1 3.888422038133875 .999992499982584 3.88842203630737 .93309208463
9905 3.88841662309445 .869386458691066 3.8883851811333 .780960654755773 3.888257
846538485 .617389709648306 3.887921054345145 .249946637842662 3.887367125267125
 -2753859641317895e-32 3.88725667245671 59 549 990 0 1 558 543 559 +0 276 51 556
 1056 0 323 543 237 0 +-.0458792305309514 .0108441784330494 -.0185 .965372985122
09 -.2608735318050955 0 .0015 .2608735318050955 .96537298512209 0 141 557 535 55
7 557 543 14 323 1022 560 ?304 245 523 5 556 +0 0 304 245 22 56 237 1055 0 245 5
56 248 561 +R216 250 266 .0015 .0015 1 1 0 0 0 0 14 245 1020 562 ?323 238 563 5
 237 +0 0 323 238 22 50 248 1054 0 1 237 239 564 +-.0458792305309514 .0108441784
330494 .02 -.2608735318050955 -.96537298512209 0 .96537298512209 -.2608735318050
955 0 141 561 229 565 565 237 38 266 1059 0 1 555 258 566 +248 239 567 568 569 5
70 31 555 1060 0 571 542 266 0 +-.0563642153956792 .0136775444736773 -7215537097
42127e-33 -2375829688049725e-31 1060782450866788e-30 -1 0 1 1060782450866788e-30
 .0015 141 566 237 566 566 266 40 10 567 -.002067477524181005 .98451310674815 10
 .00140978971716296 .378156441667351 ??-.0519226557571116 .012477298177693 -.018
5 -.0539499390258777 .01302513259448632 -.0185 -.0539628616468113 .0130286246849
1676 -.01849761634663575 -.0540081500793802 .01304086301511266 -.018470676967059
3 -.0541608838470113 .01308213638613286 -.0183229657976471 -.0545658530391575 .0
131915715423426 -.01765560328574715 -.055402871386743 .01341775969540414 -.01482
73224580676 -.0563388613365229 .0136706930255224 -.00309613184172724 -.056364215
3956792 .01367754447367726 721553709742127e-33 -.0563642153956792 .0136775444736
7728 .01250745073533946 41 1 568 L?-.0519226557571116 .012477298177693 -.0185 41
 1 569 L?-.0563642153956792 .01367754447367728 .01250745073533946 204 40 570 4 -
.00626019716658622 -.0385 -.262400339359702 3.88948488307868 -.00836019716659626
 -.0385 3253832848435485e-30 3.888422038133875 -.00837358330970655 -.03849761634
663575 .0736317738468595 3.888415521008755 -.0084204961954686 -.0384706769670593
 .121797611569773 3.888392705964015 -.00857870837872315 -.0383229657976471 .1852
44872316688 3.88831604612609 -.00899820343233191 -.03765560328574715 .2903045884
11859 3.888114875753525 -.00986524483548412 -.0348273224580676 .493511759646437
 3.8877084636155 -.01083480785848662 -.02309613184172725 .91862113821565 3.88726
8388588955 -.01086107134373736 -.02 .999999999997904 3.88725667245671 -.01086107
13437374 -.00749254926466053 1.312686268383486 3.88725667245671 16 571 1033 0 ?5
72 265 554 555 0 0 1 17 572 0 563 573 574 127 575 571 0 0 +16 265 1030 0 ?576 57
7 571 258 0 0 1 16 554 1038 0 ?526 571 297 542 0 0 1 17 526 0 523 524 499 121 52
7 554 0 573 +16 297 1090 0 ?507 554 296 290 0 0 1 17 507 0 305 578 508 95 503 29
7 0 0 +16 296 1093 0 ?579 297 267 268 0 0 1 17 579 0 285 580 581 98 582 296 0 0
 +16 267 1096 0 ?583 296 463 259 0 0 1 17 583 0 28 30 29 101 584 267 0 0 +15 28
 1083 0 30 275 0 17 30 0 28 26 583 92 103 540 0 475 -17 29 0 28 583 26 104 33 58
5 0 0 -17 584 0 285 581 580 104 583 267 0 29 -15 285 1081 0 579 279 0 17 581 0 2
85 579 584 109 106 534 0 0 -17 580 0 285 584 579 101 100 586 0 583 -17 100 0 431
 97 103 98 580 586 0 578 +16 586 971 0 ?100 587 588 589 0 0 1 16 587 976 0 ?97 5
90 586 591 0 0 1 16 588 1281 0 ?37 586 585 592 0 0 1 38 589 973 0 586 592 591 0
 +228 288 593 594 595 596 30 592 951 0 588 597 589 0 +-.0003913102977076355 -.00
1448059477683106 .02 -.96537298512209 .2608735318050955 0 38 591 978 0 587 589 5
98 0 +228 558 599 600 601 602 59 288 974 0 1 603 558 604 +1 276 40 9 593 0 1 9 .
0014325161573257 .3819407519308785 ??.030731564793503 -.0461905934725091 .0185 .
0307391483016556 -.0462019917447587 .01849749475512145 .030765673392526 -.046241
8598639856 .01846978834520685 .0308549798853397 -.0463760905786183 .018318069235
46845 .0310905503184969 -.0467301610005191 .01763489922074905 .03157551640071085
 -.0474590816168958 .01473614781824634 .03210570211734425 -.0482559688911527 .00
272585878389796 .0321129177171323 -.0482668141845411 .001644693252738295 .032116
85960873325 -.0482727389825029 745512817256862e-33 41 1 594 L?.030731564793503 -
.0461905934725091 .0185 41 1 595 L?.03211685960873325 -.0482727389825029 7455128
17256862e-33 204 18 596 2 -.00402027397327978 -.0015 -.00400658345808941 -.00150
250524487855 -.003958697683830575 -.00153021165479315 -.003797472579056195 -.001
68193076453153 -.00337219702997908 -.00236510077925096 -.002496687255118175 -.00
526385218175367 -.00153954242699933 -.01727414121610205 -.00152651609716394 -.01
83553067472617 -.001519399796138685 -.02 59 603 929 0 1 235 288 605 +0 237 59 55
8 979 0 1 288 549 606 +1 299 141 604 589 604 604 288 141 606 591 606 606 558 59
 235 923 0 1 229 603 607 +0 299 141 605 608 605 605 603 38 608 928 0 609 610 597
 0 +250 603 611 612 613 614 16 609 926 0 ?120 585 615 608 0 0 1 38 610 922 0 615
 616 608 0 +250 235 617 618 619 620 30 597 946 0 585 608 592 0 +-.00124885061933
0614 -.000830886352395686 .02 -.553924234930473 .832567079553768 0 40 8 611 0 1
 8 .001435268798685902 .3782484037080795 ??-.0578219106214295 .01403127407213446
 3113255933127235e-53 -.0577963319644278 .0140243500408602 -.003122704088467665
 -.0568309532407113 .01376362009329136 -.01512892286181355 -.0558756738079836 .0
1350822735210726 -.0183144649189404 -.055255664974482 .01334657217457 -.01931368
67456075 -.0548390366680858 .01324148973845864 -.01970330683631795 -.05450137488
2977 .0131586416378312 -.0198915672376033 -.0539499973262623 .01302514677423066
 -.019999999998875 41 1 612 L?-.0578219106214295 .01403127407213446 311325593312
7235e-53 41 2 613 TF-.0539499390258777 .01302513259448632 -.02 -.053949997326262
3 .01302514677423066 -.019999999998875 204 18 614 2 1 3.88725667245671 .91862113
821565 3.887268388588955 .493511759646437 3.8877084636155 .290304588411859 3.888
114875753525 .185244872316688 3.88831604612609 .121797611569773 3.88839270596401
5 .0736317738468595 3.888415521008755 750001741259165e-20 3.88842203630737 89402
6816018343e-30 3.888422038133875 16 585 944 0 ?33 588 609 597 0 0 1 17 33 0 36 3
4 621 11 29 585 0 473 +17 621 0 36 33 37 104 537 577 0 584 +17 37 0 36 621 34 10
7 40 588 0 537 +17 537 0 395 114 106 107 621 577 0 622 -16 577 933 0 ?621 623 26
5 624 0 0 1 16 623 880 0 ?498 625 577 626 0 0 1 31 624 823 0 577 310 626 0 +0 0
 .02 0 0 1 1 0 0 .0554999999999988 134 255 310 824 0 1 257 624 627 +628 629 31 6
26 819 0 623 624 404 0 +0 0 -.02 0 0 1 1 0 0 .0554999999999988 31 404 818 0 625
 626 403 0 +0 0 0 0 0 1 1 0 0 .0595 16 625 915 0 ?536 214 623 404 0 0 1 17 536 0
 395 106 114 109 539 625 0 582 +16 214 1261 0 ?481 210 625 403 0 0 1 17 481 0 16
5 23 52 47 480 214 0 478 +17 23 0 165 153 481 86 478 10 0 476 +17 52 0 165 481 6
1 50 630 24 0 480 +17 480 0 389 485 49 50 481 214 0 631 -15 389 1267 0 480 386 0
 17 485 0 389 41 480 42 631 482 0 0 +17 631 0 348 630 46 50 485 482 0 0 -15 348
 1595 0 630 344 0 17 630 0 348 632 631 59 52 24 0 0 -17 46 0 348 631 632 42 633
 466 0 469 +17 632 0 348 46 630 62 516 514 0 633 -17 633 0 352 634 469 62 46 466
 0 0 -17 469 0 352 633 634 42 635 468 0 472 +15 352 1593 0 634 347 0 17 634 0 35
2 469 633 27 64 486 0 0 -17 635 0 355 38 472 27 469 468 0 634 -17 472 0 355 635
 471 42 41 483 0 485 -15 355 1591 0 635 351 0 17 41 0 389 49 485 35 472 483 0 47
7 +17 38 0 355 471 635 11 34 39 0 0 -17 64 0 274 636 40 62 634 486 0 637 +15 274
 1017 0 40 246 0 17 636 0 274 622 64 124 637 222 0 576 -17 40 0 274 64 622 27 37
 588 0 635 -17 637 0 638 516 126 62 636 222 0 632 +15 638 860 0 58 224 0 17 516
 0 638 171 637 59 632 514 0 630 +17 126 0 638 637 129 124 639 204 0 636 +16 222
 867 0 ?637 640 204 215 0 0 1 16 640 870 0 ?129 509 222 223 0 0 1 17 129 0 638 1
26 123 127 573 640 0 639 +16 509 1229 0 ?123 497 640 641 0 0 1 38 223 872 0 640
 215 641 0 +216 229 642 643 644 645 30 641 876 0 509 223 510 0 +-.05357820067427
49 .01447848101518252 -.0185 -.96537298512209 .2608735318050955 0 40 9 642 0 1 9
 .001409789717162962 .378156441667314 ??-.05355862872817 .01447319207216946 -.01
85 -.0535715513491037 .0144766841625999 -.01849761634663575 -.0536168397816725 .
0144889224927958 -.0184706769670593 -.0537695735493036 .014530195863816 -.018322
9657976471 -.0541745427414499 .0146396310200257 -.01765560328574715 -.0550115610
890354 .01486581917308726 -.0148273224580676 -.0559475510388153 .015118752503205
55 -.00309613184172724 -.0559625092689592 .01512279467797875 -.00201305056451463
5 -.0559729050979715 .0151256039513604 509493202746655e-33 41 1 643 L?-.05355862
872817 .01447319207216946 -.0185 41 1 644 L?-.0559729050979715 .0151256039513604
 509493202746655e-33 204 18 645 2 -.00836019716659626 -.0385 -.00837358330970655
 -.03849761634663575 -.0084204961954686 -.0384706769670593 -.00857870837872315 -
.0383229657976471 -.00899820343233191 -.03765560328574715 -.00986524483548411 -.
0348273224580676 -.01083480785848662 -.02309613184172725 -.010850302626182 -.022
01305056451465 -.01086107134373736 -.02 30 510 893 0 497 641 616 0 -.02949394441
931 -.0470383592676288 -.02 -.553924234930473 .832567079553768 0 30 616 898 0 50
0 510 610 0 --.0520387650017383 .0125086744738892 -.02 -.96537298512209 .2608735
318050955 0 16 500 896 0 ?493 615 497 616 0 0 1 16 615 920 0 ?111 609 500 610 0
 0 1 17 111 0 646 539 498 109 508 615 0 536 +15 646 783 0 539 273 0 17 539 0 646
 120 111 112 536 625 0 575 -17 498 0 646 111 120 115 496 623 0 503 +17 508 0 305
 507 582 115 111 615 0 0 -15 305 1079 0 507 284 0 17 582 0 305 508 578 109 579 2
96 0 581 -17 578 0 305 582 507 98 97 587 0 579 -17 97 0 431 434 100 95 578 587 0
 504 +17 434 0 431 433 97 89 504 590 0 513 +17 504 0 324 503 91 95 434 590 0 507
 -16 590 980 0 ?434 540 587 598 0 0 1 16 540 1177 0 ?103 534 590 548 0 0 1 30 59
8 981 0 590 591 548 0 +.0296349465687797 -.04454233875612555 -.0185 -.5539242349
30473 .832567079553768 0 30 548 984 0 540 598 541 0 -.03295849197836285 -.049537
7412334487 .0185 -.553924234930473 .832567079553768 0 17 103 0 431 100 94 101 30
 540 0 580 +17 120 0 646 498 539 118 574 609 0 496 +17 496 0 369 493 117 118 498
 623 0 499 -17 574 0 563 572 527 112 120 609 0 0 -15 563 1021 0 572 245 0 17 527
 0 563 574 573 118 526 554 0 0 -17 573 0 563 527 572 121 129 640 0 0 -17 575 0 2
47 538 639 112 572 571 0 574 -15 247 1019 0 576 238 0 17 538 0 247 576 575 107 1
14 533 0 0 -17 639 0 247 575 576 127 126 204 0 572 -17 576 0 247 639 538 124 622
 265 0 0 +17 622 0 274 40 636 107 576 265 0 538 -14 273 781 647 ?246 254 646 5 2
50 -0 0 246 254 22 81 1 647 1902 358 273 648 0 562 649 650 80 255 1 358 651 652
 9000 1 1 1 1 1 1 1 1 0 FFFFTFTFFFFFFF1 81 1 648 1784 653 273 0 647 654 655 656
 81 1 562 1901 358 245 657 0 560 647 658 81 1 649 1903 358 232 659 0 647 660 661
 82 255 1 650 382140875 14 232 575 649 ?662 364 431 5 228 -0 0 662 364 22 81 1 6
59 1770 653 232 0 649 663 664 665 81 1 660 1904 358 662 664 0 649 666 667 82 1 6
61 330105292 14 662 565 660 ?668 232 669 5 233 -0 0 668 232 22 81 1 664 1771 653
 662 0 660 659 670 671 81 1 666 1905 358 668 670 0 660 672 673 82 1 667 32905671
2 14 668 558 666 ?674 662 675 5 676 -0 0 674 662 22 81 1 670 1772 653 668 0 666
 664 677 678 81 1 672 1906 358 674 677 0 666 679 680 82 1 673 328335816 14 674 5
51 672 ?188 668 681 5 682 -0 0 188 668 22 81 1 677 1773 653 674 0 672 670 683 68
4 81 1 679 1907 358 188 683 0 672 685 686 82 1 680 327614920 14 188 544 679 ?180
 674 174 5 687 -0 0 180 674 22 81 1 683 1774 653 188 0 679 677 688 689 81 1 685
 1908 358 180 688 0 679 690 691 82 1 686 326894024 14 180 537 685 ?224 188 178 5
 226 -0 0 224 188 22 81 1 688 1775 653 180 0 685 683 692 693 81 1 690 1909 358 2
24 692 0 685 0 694 82 1 691 326173128 14 224 530 690 ?371 180 638 5 216 -0 0 371
 180 22 81 1 692 1776 653 224 0 690 688 695 696 82 1 694 324207052 80 1 653 0 69
7 8001 0 0 0 0 3 5 0 0 0 FFFFTFTFFFFFFF2 81 1 695 1777 653 371 0 373 692 698 699
 83 255 3 696 1 1 1 81 1 373 1893 358 371 695 0 367 377 700 81 1 698 1778 653 37
4 0 377 695 701 702 83 3 699 1 1 1 81 1 377 1894 358 374 698 0 373 381 703 81 1
 701 1779 653 378 0 381 698 704 705 83 3 702 1 1 1 81 1 381 1895 358 378 701 0 3
77 385 706 81 1 704 1780 653 382 0 385 701 707 708 83 3 705 1 1 1 81 1 385 1896
 358 382 704 0 381 388 709 81 1 707 1781 653 386 0 388 704 392 710 83 3 708 1 1
 1 81 1 388 1897 358 386 707 0 385 390 711 81 1 392 1782 653 169 0 390 707 654 7
12 83 3 710 1 1 1 81 1 654 1783 653 254 0 393 392 648 713 83 3 712 1 1 1 81 1 39
3 1899 358 254 654 0 390 560 714 83 3 713 1 1 1 81 1 560 1900 358 323 715 0 393
 562 716 82 1 714 383320523 81 1 715 1788 653 323 0 560 657 717 718 82 1 716 391
905740 81 1 657 1787 653 245 0 562 719 715 720 81 1 717 1789 653 304 0 322 715 7
21 722 83 3 718 1 1 1 81 1 322 1880 358 304 717 0 303 327 723 81 1 721 1790 653
 284 0 303 717 724 725 83 3 722 1 1 1 81 1 303 1879 358 284 721 0 283 322 726 81
 1 724 1791 653 279 0 283 721 727 728 83 3 725 1 1 1 81 1 283 1878 358 279 724 0
 277 303 729 81 1 727 1792 653 275 0 277 724 730 731 83 3 728 1 1 1 81 1 277 187
7 358 275 727 0 272 283 732 81 1 730 1793 653 278 0 342 727 733 734 83 3 731 1 1
 1 81 1 342 1885 358 278 730 0 339 346 735 81 1 733 1794 653 336 0 339 730 736 7
37 83 3 734 1 1 1 81 1 339 1884 358 336 733 0 335 342 738 81 1 736 1795 653 332
 0 335 733 739 740 83 3 737 1 1 1 81 1 335 1883 358 332 736 0 331 339 741 81 1 7
39 1796 653 328 0 331 736 742 743 83 3 740 1 1 1 81 1 331 1882 358 328 739 0 327
 335 744 81 1 742 1797 653 325 0 327 739 745 746 83 3 743 1 1 1 81 1 327 1881 35
8 325 742 0 322 331 747 81 1 745 1798 653 17 0 360 742 359 748 83 3 746 1 1 1 81
 1 360 1890 358 17 745 0 356 363 749 81 1 359 1799 653 354 0 356 745 750 751 83
 3 748 1 1 1 81 1 750 1800 653 351 0 353 359 752 753 83 3 751 1 1 1 81 1 353 188
8 358 351 750 0 350 356 754 81 1 752 1801 653 347 0 350 750 755 756 83 3 753 1 1
 1 81 1 350 1887 358 347 752 0 346 353 757 81 1 755 1802 653 344 0 346 752 0 758
 83 3 756 1 1 1 81 1 346 1886 358 344 755 0 342 350 759 83 3 758 1 1 1 82 1 759
 430506444 82 1 757 432013772 82 1 754 432800204 82 1 749 434700748 82 1 747 424
739276 82 1 744 426246604 82 1 741 427033036 82 1 738 428212684 82 1 735 4289335
80 81 1 272 1876 358 246 655 0 244 277 760 82 1 732 397607372 81 1 655 1785 653
 246 0 272 648 719 761 81 1 244 1875 358 238 719 0 0 272 762 82 1 760 395903436
 81 1 719 1786 653 238 0 244 655 657 763 82 1 762 394592715 83 3 763 1 1 1 83 3
 761 1 1 1 82 1 729 399114699 82 1 726 400294347 82 1 723 401605068 83 3 720 1 1
 1 82 1 711 325386700 82 1 709 299303372 82 1 706 302449100 82 1 703 317915592 8
1 1 367 1892 358 364 663 0 363 373 764 82 1 700 322765256 81 1 663 1769 653 364
 0 367 366 659 765 82 1 764 384500172 81 1 366 1768 653 15 0 363 0 663 766 83 3
 765 1 1 1 83 3 766 1 1 1 79 255 15 697 SDL/TYSA_COLOUR83 3 693 1 1 1 51 226 159
 0 180 216 687 0 --.0470531614240744 .0065 .02 0 0 -1 .006 -1 0 0 51 687 160 0 1
88 226 682 0 +-.026046856621128 -.00882106910518036 .02 0 0 -1 .02 -1 0 0 51 682
 161 0 674 687 676 0 +0 0 .02 0 0 -1 .0474999999999994 -1 0 0 51 676 162 0 668 6
82 233 0 +-93360184324074e-18 -.02749984152456065 .02 0 0 -1 .02 -1 0 0 51 233 1
63 0 662 676 228 0 -.02110524649680565 -.0425537139426052 .02 0 0 -1 .006 -1 0 0
 83 3 689 1 1 1 83 3 684 1 1 1 15 681 550 0 172 674 0 17 172 0 681 141 176 157 1
62 173 0 767 -17 141 0 681 424 172 139 767 193 0 768 +17 176 0 681 172 424 160 1
44 191 0 0 -17 767 0 675 769 427 157 141 193 0 0 -15 675 557 0 769 668 0 17 769
 0 675 138 767 154 159 407 0 770 -17 427 0 675 767 138 139 442 425 0 0 +17 138 0
 675 427 769 136 770 200 0 442 +17 442 0 437 438 768 136 427 425 0 429 -17 768 0
 437 442 189 139 424 422 0 427 -17 429 0 669 770 135 136 438 428 0 0 +15 669 564
 0 771 662 0 17 770 0 669 771 429 154 138 200 0 0 -17 135 0 669 429 771 133 432
 202 0 438 +17 771 0 669 135 770 151 156 409 0 432 -17 156 0 165 159 153 154 771
 409 0 769 +17 159 0 165 162 156 157 769 407 0 172 +17 153 0 165 156 23 151 88 4
11 0 771 +17 88 0 431 94 432 86 153 411 0 23 -17 189 0 437 768 183 142 187 190 0
 424 -17 424 0 681 176 141 142 768 422 0 0 +17 183 0 437 189 772 145 181 419 0 1
87 -17 772 0 437 183 448 148 58 417 0 181 -17 181 0 178 179 147 148 183 419 0 0
 +17 448 0 437 772 440 56 531 446 0 529 +17 58 0 638 67 150 56 772 417 0 448 +17
 67 0 638 123 58 65 529 517 0 524 +17 150 0 638 58 171 148 179 184 0 772 +17 171
 0 638 150 516 130 61 185 0 179 -17 61 0 165 52 132 59 171 185 0 516 +17 123 0 6
38 129 67 121 524 509 0 526 +17 440 0 437 448 79 80 414 209 0 531 -17 414 0 383
 76 82 77 440 209 0 443 +15 383 1207 0 414 378 0 17 76 0 383 73 414 74 443 445 0
 511 +17 73 0 383 82 76 71 511 512 0 530 +17 144 0 174 187 166 142 176 191 0 189
 +83 3 678 1 1 1 83 3 671 1 1 1 83 3 665 1 1 1 82 1 658 393413067 83 3 656 1 1 1
 79 14 652 SWEntUnchanged15 395 780 0 537 254 0 17 106 0 395 537 536 104 581 534
 0 621 +134 257 825 0 1 0 310 773 +774 775 141 627 250 627 627 310 136 255 628 2
 3 3 2 5 FFF1 776 777 778 135 255 629 2 0 45 255 9 776 .03074279503864065 -.0462
074729152331 -.02 .03295849197836285 -.0495377412334487 -.02 .03295849197836285
 -.0495377412334487 0 127 255 2 777 3 3 128 255 2 778 0 1 141 773 242 773 773 25
7 136 774 2 3 3 2 5 FFF1 779 780 781 135 775 2 0 45 9 779 .03295849197836285 -.0
495377412334487 0 .03295849197836285 -.0495377412334487 .02 .03074279503864065 -
.0462074729152331 .02 127 2 780 3 3 128 2 781 0 1 40 7 617 0 1 7 .00134360156183
577 .34421816823607 ??.02948274613321645 -.047021530605014 -.019999999998875 .02
975780140700825 -.0474596407599447 -.01991046661724335 .03000330376491215 -.0478
478408641275 -.0196588020565348 .03031956813649825 -.0483385275345271 -.01904043
53046996 .0308222575206649 -.049103219299571 -.0170721873143398 .031527783872811
05 -.0501654661053019 -.00874839907832926 .03166631956671475 -.0503735466797667
 0 41 2 618 TF.02948271417417235 -.0470214798249048 -.02 .02948274613321645 -.04
7021530605014 -.019999999998875 41 1 619 L?.03166631956671475 -.0503735466797667
 0 204 16 620 2 1930476452867455e-30 6.25615498870931 750001741541085e-20 6.2561
5499053582 .0669079153600944 6.25616040374874 .1306135413089356 6.25619184570988
 .2190393452442285 6.2563191803047 .382610290351696 6.25665597249804 .7500533621
57345 6.25720990157606 1 6.25732035438648 141 607 610 607 607 235 40 14 599 0 1
 14 .0003966589917767115 .3651310366543115 ??.03211685960873325 -.04827273898250
29 721553709742125e-33 .0319567797647519 -.0480321334993077 -.00925 .03165955245
363635 -.04758539068003 -.0139172704157146 .0313713818126747 -.0471522603458992
 -.01626274436907325 .03122320991816865 -.0469295529182375 -.0170720841478208 .0
310971772030709 -.0467401214347958 -.01761000607158225 .0309936489671838 -.04658
45149536772 -.0179628181698897 .03091147048963515 -.0464609978898978 -.018189580
18077365 .0308486266013024 -.0463665413753105 -.01833106486344755 .0308026375665
4235 -.0462974182823906 -.01841564655930005 .0307707982089233 -.0462495626383942
 -.01846316459667055 .03075032654168875 -.0462187930220311 -.0184874576194149 .0
307384457341315 -.0462009357617292 -.01849799222573045 .0307315647935057 -.04619
05934725132 -.0185000000000129 41 1 600 L?.03211685960873325 -.0482727389825029
 721553709742125e-33 41 1 601 L?.0307315647935057 -.0461905934725132 -.018500000
0000129 204 28 602 2 -.001519399796138675 -.02 -.001808392105712255 -.02925 -.00
234497688098007 -.0339172704157146 -.00286521164015761 -.03626274436907325 -.003
132706516103245 -.03707208414782085 -.00336023350833457 -.03761000607158225 -.00
3547133140736605 -.0379628181698897 -.0036954900321064 -.03818958018077365 -.003
80894216936595 -.0383310648634476 -.00389196622186265 -.0384156465593001 -.00394
9445847434665 -.03846316459667055 -.00398640336967974 -.0384874576194149 -.00400
785180397461 -.03849799222573045 -.004020273973274855 -.0385000000000129 141 565
 603 561 561 237 141 564 266 564 564 248 141 559 541 559 559 549 40 8 550 0 1 8
 .001457602225008784 .3820337775142565 ??.03166631956671475 -.0503735466797667 -
524064748743069e-51 .03165505668567485 -.0503566342585558 .00274887467921998 .03
110872674122925 -.0495352647313355 .01503214888162745 .0305594158418516 -.048704
927620873 .01828790876976405 .0302067779253517 -.0481647112957622 .0193039526335
488 .02997313811282635 -.0478004673651697 .01969950304399815 .0297873904163084 -
.0475066992328892 .019889338653964 .02948274613321645 -.047021530605014 .0199999
99998875 41 1 551 L?.03166631956671475 -.0503735466797667 -524064748743069e-51 4
1 2 552 TF.0294827141741723 -.0470214798249048 .02 .02948274613321645 -.04702153
0605014 .019999999998875 204 18 553 2 -2620323743715345e-50 6.25732035438648 .07
12609268265919 6.25731136971367 .501610036298255 6.25687711820925 .7074174278741
17 6.2564669435847 .813446071275463 6.25626305341396 .877424114116637 6.25618494
150805 .925615409513805 6.2561616539833 .999992499982583 6.25615499053582 1 6.25
615498870931 17 444 0 329 443 435 74 513 455 0 0 +17 416 0 387 416 416 0 782 208
 0 0 +15 387 436 0 416 382 783 17 782 0 375 782 782 0 416 208 0 0 -15 375 332 0
 782 371 400 15 400 514 0 399 371 0 15 783 437 0 207 382 437 17 207 0 783 207 20
7 0 784 205 0 0 +17 784 0 379 784 784 0 207 205 0 0 -15 379 326 0 784 374 785 15
 785 508 0 212 374 0 17 212 0 785 212 212 0 396 210 0 0 +82 1 394 322306508 82 1
 368 385679820 82 1 361 433979852 141 309 237 786 787 250 141 786 608 788 309 25
0 141 787 239 309 789 250 141 789 299 787 790 250 141 790 306 789 788 250 141 78
8 610 790 786 250 141 308 558 302 302 299 141 307 298 307 307 301 141 289 549 28
1 281 276 141 287 282 287 287 280 141 256 231 791 792 242 141 791 535 793 256 24
2 141 792 251 256 794 242 141 794 276 792 795 242 141 795 286 794 793 242 141 79
3 541 795 791 242 141 253 543 241 241 231 141 252 243 252 252 240 141 249 266 24
9 249 239 141 236 223 236 236 229 141 234 276 796 797 228 141 796 591 798 234 22
8 141 797 299 234 798 228 141 798 589 797 796 228 141 227 237 799 800 216 141 79
9 223 801 227 216 141 800 231 227 801 216 141 801 211 800 799 216 19 16 175 0 1
 0 9 5 S0 74 4 CI16 index_map_offset0 0 1 dCCZ20 14 3 0 0 690 2 755 0 0 0 0 0 0
 0 0 0 0 0 0 0 0 0 0 0 80 2 12 802 803 8004 0 0 0 0 3 5 0 0 0 FFTFFFFFFFFFFF2 3
 83 1 13 1150 79 16 803 SDL/TYSA_DENSITY1 0 
