**ABCDEFGHIJKLMNOPQRSTUVWXYZabcdefghijklmnopqrstuvwxyz**************************
**PARASOLID !"#$%&'()*+,-./:;<=>?@[\]^_`{|}~0123456789**************************
**PART1;
MC=AMD64;
MC_MODEL=Intel64 Family 6 Model 60 Stepping 3, GenuineIntel;
MC_ID=unknown;
OS=Windows_NT;
OS_RELEASE=unknown;
FRU=Parasolid Version 30.0, build 298, 12-15-2017;
APPL=SOLIDWORKS 2018-2018134;
SITE=;
USER=unknown;
FORMAT=text;
GUISE=transmit;
KEY=1690-20-8318;
FILE=1690-20-8318.x_t;
DATE=Sat Mar 28 17:18:27 2020;
**PART2;
SCH=SCH_3000298_30000;
USFLD_SIZE=0;
**PART3;
**END_OF_HEADER*****************************************************************
T51 : TRANSMIT FILE created by modeller version 300029823 SCH_3000298_30000_1300
6205 0 12 33 CCCCCCI4 mesh1006 0 I8 polyline1008 0 CCCCCCCDI5 owner1040 0 CCCCCC
I13 boundary_mesh1006 0 I17 boundary_polyline1008 0 CCCA16 index_map_offset0 0 1
 dA9 index_map82 0 A17 node_id_index_map82 0 A20 schema_embedding_map82 0 A5 chi
ld12 0 A14 lowest_node_id0 0 1 dZ1 1909 2 3 0 0 0 0 0 0 1e3 1e-8 0 4 0 1 0 1 1 5
 6 7 8 0 0 9 10 11 0 0 0 0 0 0 81 255 2 2 1690 12 1 0 0 0 0 13 0 70 11 CI9 list_
type0 0 1 uI10 notransmit0 0 1 lCCCDCCDI12 finger_index0 0 1 dI12 finger_block10
12 0 CZ3 0 4 T1 0 0 3 20 1 14 14 13 255 5 174 0 1 0 15 0 0 16 0 51 255 6 1622 0
 17 18 0 0 +.029205649925751 -.0466050427788061 .0475 0 0 -1 .0015 -1 0 0 31 255
 7 1627 0 19 20 0 0 +.029205649925751 -.0466050427788061 .0185 0 0 1 1 0 0 .0015
 29 255 8 1290 0 11 21 0 .029205649925751 -.0466050427788062 .02 19 8 CCCCCCCA5
 owner12 0 Z9 52 0 1 16 0 22 V0 16 255 10 1318 0 ?23 0 24 25 0 0 1 18 255 11 128
8 0 26 0 27 8 ?1 17 255 26 0 28 29 30 11 31 32 0 33 +18 27 1280 0 34 11 35 21 ?1
 17 34 0 36 37 33 27 38 39 0 40 +18 35 1269 0 41 27 42 43 ?1 29 21 1282 0 27 43
 8 -.0534670745406243 .01289464772947284 .02 29 43 1271 0 35 44 21 .028409132200
5032 -.045333996157566 .0185 29 44 1268 0 42 45 43 -.0520088815986072 .012542975
51866902 .0185 18 42 1266 0 46 35 47 44 ?1 29 45 1265 0 47 48 44 .02840913220050
32 -.045333996157566 .0075 18 47 1263 0 49 42 50 45 ?1 29 48 1262 0 50 51 45 -.0
520088815986072 .01254297551866902 .0075 18 50 1260 0 52 47 53 48 ?1 29 51 1254
 0 53 54 48 -.0534670745406243 .01289464772947284 -.02 18 53 1252 0 55 50 56 51
 ?1 29 54 1245 0 56 57 51 -.0530757642429166 .01434270720715598 -.0075 18 56 124
3 0 58 53 59 54 ?1 29 57 1236 0 59 60 54 -.0530757642429166 .01434270720715598 .
0075 18 59 1234 0 61 56 62 57 ?1 29 60 1233 0 62 63 57 -.0530757642429166 .01434
270720715598 .0185 18 62 1231 0 64 59 65 60 ?1 29 63 1230 0 65 66 60 -.053075764
2429166 .01434270720715598 -.0185 18 65 1228 0 67 62 68 63 ?1 29 66 1222 0 68 69
 63 .029205649925751 -.0466050427788061 -.02 18 68 1220 0 70 65 71 66 ?1 29 69 1
211 0 71 72 66 -.0520088815986072 .01254297551866902 -.0185 18 71 1209 0 73 68 7
4 69 ?1 29 72 1208 0 74 75 69 .0284091322005032 -.0453339961575659 -.0185 18 74
 1206 0 76 71 77 72 ?1 29 75 1205 0 77 78 72 .0284091322005032 -.045333996157566
 -.0075 18 77 1203 0 79 74 80 75 ?1 29 78 1202 0 80 81 75 -.0520088815986072 .01
254297551866902 -.0075 18 80 1200 0 82 77 83 78 ?1 29 81 1193 0 83 84 78 .030454
50054508165 -.0457741564264104 -.0075 18 83 1191 0 85 80 86 81 ?1 29 84 1184 0 8
6 87 81 .03045450054508165 -.0457741564264104 .0075 18 86 1182 0 88 83 89 84 ?1
 29 87 1181 0 89 90 84 .03045450054508165 -.0457741564264104 -.0185 18 89 1179 0
 91 86 92 87 ?1 29 90 1178 0 92 93 87 .03045450054508165 -.0457741564264104 .018
5 18 92 1176 0 94 89 95 90 ?1 29 93 977 0 95 96 90 .03073156479350295 -.04619059
34725091 -.0185 18 95 975 0 97 92 98 93 ?1 29 96 972 0 98 99 93 .034333250049884
1 -.0516040496570963 -1154835807210346e-33 18 98 970 0 100 95 101 96 ?1 29 99 96
9 0 101 102 96 .030731564793503 -.0461905934725091 .0185 18 101 967 0 103 98 104
 99 ?1 29 102 937 0 104 105 99 .0294827141741723 -.0470214798249048 .02 18 104 9
35 0 106 101 107 102 ?1 29 105 934 0 107 108 102 -.0539499390258777 .01302513259
448632 .02 18 107 932 0 37 104 109 105 ?1 29 108 919 0 109 110 105 .033884828449
03455 -.053703523171012 0 18 109 917 0 111 107 112 108 ?1 29 110 916 0 112 113 1
08 -.0616840187682813 .01507752727055225 0 18 112 914 0 114 109 115 110 ?1 29 11
3 884 0 115 116 110 .02948271417417235 -.0470214798249048 -.02 18 115 882 0 117
 112 118 113 ?1 29 116 881 0 118 119 113 -.0539499390258777 .01302513259448632 -
.02 18 118 879 0 120 115 121 116 ?1 29 119 871 0 121 122 116 -.05355862872817 .0
1447319207216944 -.0185 18 121 869 0 123 118 124 119 ?1 29 122 864 0 124 125 119
 -.05355862872817 .01447319207216946 .0185 18 124 862 0 126 121 127 122 ?1 29 12
5 861 0 127 128 122 -.0598356056650237 .01616942468672625 -115483580721034e-32 1
8 127 859 0 129 124 130 125 ?1 29 128 523 0 130 131 125 -.0454879202332438 .0122
9223791073254 .0075 18 130 521 0 132 127 133 128 ?1 29 131 475 0 133 134 128 .02
610064897412825 -.03923016853302235 -.0075 18 133 421 0 135 130 136 131 ?1 29 13
4 476 0 136 137 131 .01621326033962185 -.03907974338459495 -.0075 18 136 422 0 1
38 133 139 134 ?1 29 137 477 0 139 140 134 -.000161258500196127 -.04749972626969
61 -.0075 18 139 423 0 141 136 142 137 ?1 29 140 478 0 142 143 137 -.04499002507
28579 -.0152363920907662 -.0075 18 142 424 0 144 139 145 140 ?1 29 143 479 0 145
 146 140 -.0422055526233944 .002964368668035315 -.0075 18 145 425 0 147 142 148
 143 ?1 29 146 480 0 148 149 143 -.0454879202332438 .01229223791073254 -.0075 18
 148 426 0 150 145 151 146 ?1 29 149 658 0 151 152 146 .02610064897412825 -.0392
3016853302235 .0075 18 151 607 0 153 148 154 149 ?1 29 152 659 0 154 155 149 .01
621326033962185 -.03907974338459495 .0075 18 154 608 0 156 151 157 152 ?1 29 155
 660 0 157 158 152 -.000161258500196127 -.0474997262696961 .0075 18 157 609 0 15
9 154 160 155 ?1 29 158 661 0 160 161 155 -.0449900250728579 -.0152363920907662
 .0075 18 160 610 0 162 157 163 158 ?1 29 161 662 0 163 0 158 -.0422055526233944
5 .002964368668035315 .0075 18 163 611 0 164 160 0 161 ?1 17 164 0 165 132 162 1
63 166 167 0 168 +15 255 165 621 0 153 169 0 17 132 0 165 61 164 130 168 170 0 1
71 +17 162 0 165 164 159 160 172 173 0 166 +17 166 0 174 144 175 160 164 167 0 1
76 -16 167 600 0 ?164 173 170 177 0 0 1 17 168 0 178 147 179 163 132 170 0 175 -
15 178 536 0 168 180 0 17 147 0 178 181 168 145 175 182 0 183 +17 179 0 178 168
 181 130 150 184 0 0 -16 170 601 0 ?132 167 185 186 0 0 1 17 175 0 174 166 187 1
63 147 182 0 0 -15 174 543 0 166 188 0 17 187 0 174 175 144 145 189 190 0 0 +16
 182 533 0 ?147 191 184 192 0 0 1 16 191 540 0 ?144 193 182 194 0 0 1 16 184 522
 0 ?150 182 195 196 0 0 1 30 255 192 168 0 182 196 194 0 +-.04220555262339445 .0
0296436866803532 .02 0 0 -1 30 196 167 0 184 197 192 0 +-.0454879202332438 .0122
9223791073254 .02 0 0 -1 30 194 169 0 191 192 198 0 +-.04499002507285785 -.01523
63920907662 .02 0 0 -1 30 198 170 0 193 194 199 0 +-.000161258500196127 -.047499
7262696961 .02 0 0 -1 16 193 547 0 ?141 200 191 198 0 0 1 30 199 171 0 200 198 2
01 0 +.01621326033962185 -.03907974338459495 .02 0 0 -1 16 200 554 0 ?138 202 19
3 199 0 0 1 30 201 172 0 202 199 203 0 +.02610064897412825 -.03923016853302235 .
02 0 0 -1 16 202 561 0 ?135 204 200 201 0 0 1 31 203 327 0 205 201 206 0 +.02110
524649680565 -.0425537139426052 -.0075 0 0 1 1 0 0 .00254999999315467 16 205 412
 0 ?207 208 209 203 0 0 1 31 206 510 0 210 203 211 0 +.02110524649680565 -.04255
37139426052 .0075 0 0 1 1 0 0 .00254999999315467 16 210 585 0 ?212 213 214 206 0
 0 1 38 12 CCCCCCCCCCCA17 intersection_data204 0 Z211 865 0 204 206 215 0 +216 2
17 218 219 220 221 16 204 863 0 ?126 222 202 211 0 0 1 30 215 868 0 222 211 223
 0 --.0454879202332438 .01229223791073254 .0185 -.96537298512209 .26087353180509
55 0 50 255 216 158 0 224 225 226 227 +-.0454879202332438 .01229223791073254 .02
 -.2608735318050955 -.96537298512209 0 .96537298512209 -.2608735318050955 0 59 2
55 217 866 0 1 228 229 230 +1 231 40 255 6 218 0 1 6 .00327576784928517 .3955599
919507965 ??-.0598356056650237 .01616942468672625 -115483580721034e-32 -.0581294
05313635 .0157083567694615 .01411697794068938 -.0568323228456484 .01535784511263
975 .0166901914279227 -.0558438353404854 .0150907253251677 .0177348562917408 -.0
545583742756459 .014743354129629 .01837682866549735 -.05355862872817 .0144731920
7216946 .0185 41 3 CI8 term_use0 0 1 cCZ1 219 L?-.0598356056650237 .016169424686
72625 -115483580721034e-32 41 1 220 L?-.05355862872817 .01447319207216946 .0185
 204 2 17 INTERSECTION_DATA17 Intersection data7 uv_type0 0 1 u6 values0 1 1 fT1
2 221 2 -.01486232332259156 -.02 -.01309492318017622 -.00588302205931062 -.01175
13155922526 -.00330980857207728 -.01072737197626462 -.002265143708259215 -.00939
580264021471 -.00162317133450265 -.00836019716659626 -.0015 50 228 164 0 232 233
 217 234 +.03517418891808475 -.0528680095516637 .02 -.832567079553768 -.55392423
4930473 0 .553924234930474 -.832567079553768 0 59 229 873 0 1 217 235 236 +1 237
 141 255 230 211 230 230 217 56 255 231 1052 0 238 239 240 241 +R216 242 243 .00
15 .0015 1 1 0 0 0 0 14 255 238 1018 244 ?245 246 247 5 231 +0 0 245 246 22 60 2
55 239 1053 0 1 248 231 249 +UF250 .0015 ?50 240 1051 0 1 231 251 252 +-.0458792
305309514 .0108441784330494 .02 -.2608735318050955 -.96537298512209 0 .965372985
12209 -.2608735318050955 0 141 241 217 253 253 231 68 255 242 808 0 254 250 255
 256 +257 0 0 0 0 0 1 ????.553924234930473 -.832567079553768 0 .0156169779406894
 38 243 1057 0 1 258 259 260 +240 251 261 262 263 264 31 258 1058 0 265 266 243
 0 +-.0539499390258777 .01302513259448632 .0185 -.965372985122091 .2608735318050
95 0 -.260873531805095 -.965372985122091 0 .0015 31 259 1121 0 267 243 268 0 +.0
294827141741723 -.0470214798249048 .0185 -.553924234930466 .832567079553773 0 -.
832567079553773 -.553924234930466 0 .0015 141 260 231 260 260 243 60 251 1050 0
 1 240 269 270 +UF242 .0015 ?40 8 261 -.0140076253867081 .992253826956399 8 .003
275767849285175 .395559991950723 ??-.0602269159627313 .01472136520904312 -.01411
697794068938 -.0602269159627313 .01472136520904312 1154835807210338e-33 -.058520
7156113426 .0142602972917784 .01411697794068938 -.0572236331433561 .013909785634
9566 .0166901914279227 -.056235145638193 .01364266584748458 .0177348562917408 -.
0549496845733535 .01329529465194588 .01837682866549735 -.0539499390258777 .01302
513259448632 .0185 -.0465763083371319 .01103255033908344 .0185 41 1 262 L?-.0602
269159627313 .01472136520904312 -.01411697794068938 41 1 263 L?-.046576308337131
9 .01103255033908344 .0185 204 32 264 4 -.01486232332259156 -.0341169779406894 -
.3529244485172345 3.885587628865255 -.01486232332259158 -.02 236086299242417e-45
 3.885587628865255 -.01309492318017622 -.00588302205931062 .482354585926892 3.88
6297531916575 -.0117513155922526 -.00330980857207728 .653041443541447 3.88686571
3416085 -.01072737197626462 -.002265143708259215 .769222685023257 3.887316426398
955 -.00939580264021471 -.00162317133450265 .90807035010423 3.887926960352485 -.
00836019716659626 -.0015 1 3.888422038133875 -.000722081327034794 -.0015 1.47718
0030890344 3.892734911586295 51 269 1049 0 246 251 271 0 +-.0003913102977076355
 -.001448059477683106 .0185 -.96537298512209 .2608735318050955 0 .0015 -.2608735
318050955 -.96537298512209 0 141 270 243 270 270 251 14 246 1016 272 ?238 273 27
4 5 269 +0 0 238 273 22 51 271 1116 0 275 269 276 0 +-.00124885061933062 -.00083
088635239569 .0185 -.553924234930474 .832567079553768 0 .0015 -.832567079553768
 -.553924234930473 0 14 275 1082 277 ?278 279 28 5 271 +0 0 278 279 22 56 276 11
15 0 279 271 280 281 +R228 242 282 .0015 .0015 1 1 0 0 0 0 14 279 1080 283 ?275
 284 285 5 276 +0 0 275 284 22 50 280 1114 0 1 276 286 287 +.0339253382987541 -.
0536988959040595 .02 -.832567079553768 -.553924234930473 0 .553924234930474 -.83
2567079553768 0 141 281 288 289 289 276 38 282 1119 0 1 268 290 291 +280 286 292
 293 294 295 31 268 1120 0 296 259 282 0 +.0330843994305534 -.052434936009492 -1
154835807210338e-33 -4265858918811775e-31 641173192624318e-30 1 0 -1 64117319262
4318e-30 .0015 31 290 1118 0 297 282 298 0 +.0294827141741723 -.0470214798249048
 -.0185 .553924234930476 -.832567079553766 0 .832567079553766 .553924234930476 0
 .0015 141 291 276 291 291 282 60 286 1113 0 1 280 299 300 +UF242 .0015 ?40 9 29
2 -.00754765990213809 .988157296992681 9 .00202295051274183 .3495819083662325 ??
.02525177670143285 -.0406622360270677 .0185 .0294827141741723 -.0470214798249048
 .0185 .0302067451675524 -.0481097231832056 .0182970301650453 .0308510451627076
 -.0490781281228995 .0176550683588334 .0315011570963159 -.0500552686049641 .0163
3176967621515 .03227146027606915 -.0512130606427484 .01323791294267072 .03307490
31171234 -.0524206627254571 .00179394654529954 .0330843994305534 -.0524349360094
92 1154835807210338e-33 .0330843994305535 -.0524349360094919 -.01411697794068938
 41 1 293 L?.02525177670143285 -.0406622360270677 .0185 41 1 294 L?.033084399430
5535 -.0524349360094919 -.01411697794068938 204 36 295 4 -.01565838981284135 -.0
015 1.477180030890346 6.25184211525689 -.00802027397327981 -.0015 1 6.2561549887
0931 -.00671318006454153 -.0017029698349547 .881418556321574 6.2567768679914 -.0
0555002461019311 -.002344931641166585 .757820331008983 6.25730669163937 -.004376
37685728359 -.00366823032378486 .623118113130877 6.25782017879914 -.002985747722
14561 -.00676208705732928 .438058520491476 6.25840283287876 -.00153529152184045
 -.01820605345470045 .0466720153889343 6.2589827063371 -.001518147817284485 -.02
 749587960495591e-27 6.25898939797793 -.001518147817284495 -.0341169779406894 -.
3529244485172345 6.25898939797793 56 299 1112 0 284 286 301 302 +R228 250 298 .0
015 .0015 1 1 0 0 0 0 141 300 282 300 300 286 14 284 1078 303 ?279 304 305 5 299
 +0 0 279 304 22 50 301 1111 0 1 299 306 307 +.0339253382987541 -.05369889590405
95 .02 -.832567079553768 -.553924234930473 0 .553924234930474 -.832567079553768
 0 141 302 235 308 308 299 68 250 809 0 273 0 242 309 +310 0 0 0 0 0 1 ????.5539
24234930473 -.832567079553768 0 .0156169779406894 38 298 1117 0 1 290 311 312 +3
01 306 313 314 315 316 30 311 1185 0 317 298 318 0 +.03045450054508165 -.0457741
564264104 .0185 0 0 1 141 312 299 312 312 298 60 306 1110 0 1 301 319 320 +UF250
 .0015 ?40 8 313 -.01400762538670812 .992253826956399 8 .003275767849285195 .395
5599919507265 ??.03308439943055345 -.052434936009492 .0141169779406894 .03308439
94305534 -.052434936009492 -1154835807210338e-33 .03210539365885 -.0509634568345
183 -.0141169779406894 .0313611368536626 -.0498448133889745 -.01669019142792275
 .0307939496695645 -.0489923116429836 -.0177348562917408 .0300563611438362 -.047
8836908496452 -.01837682866549735 .02948271417417235 -.0470214798249048 -.0185 .
0254652607034029 -.04098310978712985 -.0185 41 1 314 L?.03308439943055345 -.0524
34936009492 .0141169779406894 41 1 315 L?.0254652607034029 -.04098310978712985 -
.0185 204 32 316 4 -.001518147817284495 -.00588302205931061 1.352924448517234 6.
25898939797793 -.001518147817284485 -.02 1 6.25898939797793 -.00328554795969984
 -.0341169779406894 .517645414073107 6.25827949492661 -.00462915554762347 -.0366
9019142792275 .346958556458552 6.2577113134271 -.00565309916361146 -.03773485629
17408 .230777314976742 6.25726060044423 -.00698466849966137 -.03837682866549735
 .091929649895767 6.2566500664907 -.00802027397327981 -.0385 -1926191484116415e-
30 6.25615498870931 -.0152729869210598 -.0385 -.45310408652564 6.25209243018784
 51 319 1109 0 304 306 321 0 +.0339253382987541 -.0536988959040595 -.0185 .55392
4234930474 -.832567079553768 0 .0015 .832567079553768 .553924234930473 0 141 320
 298 320 320 306 14 304 1076 322 ?284 323 324 5 319 +0 0 284 323 22 51 321 1567
 0 325 319 326 0 +.029205649925751 -.0466050427788061 -.0475 0 0 1 .0015 1 0 0 1
4 325 1535 327 ?17 328 329 5 321 +0 0 17 328 22 53 255 326 1566 0 328 321 330 0
 +.029205649925751 -.0466050427788061 -.0185 .0015 .531011816831848 -.8473644141
6013 0 .84736441416013 .531011816831848 0 14 328 1533 331 ?325 332 333 5 326 +0
 0 325 332 22 54 255 330 1565 0 332 326 334 0 +0 0 -.0185 0 0 -1 .05499999999999
88 .0015 -1 0 0 14 332 1531 335 ?328 336 337 5 330 +0 0 328 336 22 53 334 1564 0
 336 330 338 0 +-.0534670745406243 .01289464772947284 -.0185 .0015 -.97212862801
1371 .234448140535875 0 -.234448140535875 -.972128628011371 0 14 336 1529 339 ?3
32 278 340 5 334 +0 0 332 278 22 51 338 1563 0 278 334 341 0 +-.0534670745406243
 .01289464772947284 -.0475 0 0 1 .0015 1 0 0 14 278 1527 342 ?336 275 343 5 338
 +0 0 336 275 22 51 341 1626 0 344 338 345 0 +-.0534670745406243 .01289464772947
284 .0475 0 0 -1 .0015 -1 0 0 14 344 1594 346 ?0 347 348 5 341 +0 0 0 347 22 53
 345 1625 0 347 341 349 0 +-.0534670745406243 .01289464772947284 .0185 .0015 .97
2128628011371 -.234448140535875 0 .234448140535875 .972128628011371 0 14 347 159
2 350 ?344 351 352 5 345 +0 0 344 351 22 54 349 1624 0 351 345 18 0 +0 0 .0185 0
 0 -1 .0549999999999988 .0015 -1 0 0 14 351 1590 353 ?347 354 355 5 349 +0 0 347
 354 22 53 18 1623 0 354 349 6 0 +.029205649925751 -.0466050427788061 .0185 .001
5 -.531011816831848 .84736441416013 0 -.84736441416013 -.531011816831848 0 14 35
4 1588 356 ?351 17 357 5 18 +0 0 351 17 22 81 1 356 1889 358 354 359 0 353 360 3
61 14 17 1586 360 ?354 325 362 5 6 +0 0 354 325 22 15 357 1589 0 31 354 0 13 22
 53 0 0 0 0 0 0 9 15 14 15 740 363 ?364 0 36 5 365 -0 0 364 0 22 81 1 363 1891 3
58 15 366 0 360 367 368 14 364 728 367 ?232 15 369 5 225 +0 0 232 15 22 15 36 57
8 0 33 15 0 50 365 2 0 15 370 225 0 +0 0 .02 0 0 -1 -1 0 0 51 370 227 0 371 372
 365 0 --.0470531614240744 .0065 .02 0 0 -1 .00255 -1 0 0 50 225 117 0 364 365 2
16 0 +0 0 -.02 0 0 -1 -1 0 0 14 371 516 373 ?374 224 375 5 370 +0 0 374 224 22 5
1 372 265 0 374 376 370 0 -.02110524649680565 -.0425537139426052 .02 0 0 -1 .002
54999999315467 -1 0 0 14 374 511 377 ?378 371 379 5 372 +0 0 378 371 22 51 376 4
58 0 378 380 372 0 +0 0 -.0475 0 0 1 .0534999999999988 1 0 0 14 378 430 381 ?382
 374 383 5 376 -0 0 382 374 22 50 380 459 0 382 384 376 0 +0 0 -.0075 0 0 1 1 0
 0 14 382 434 385 ?386 378 387 5 380 -0 0 386 378 22 51 384 641 0 386 255 380 0
 -0 0 .0475 0 0 -1 .0534999999999988 -1 0 0 14 386 613 388 ?169 382 389 5 384 +0
 0 169 382 22 50 255 642 0 169 242 384 0 +0 0 .0075 0 0 1 1 0 0 14 169 617 390 ?
254 386 391 5 255 +0 0 254 386 22 81 1 390 1898 358 169 392 0 388 393 394 14 254
 778 393 ?273 169 395 5 242 -0 0 273 169 22 15 391 619 0 396 169 397 17 396 0 39
1 396 396 0 212 210 0 0 -15 397 620 0 398 169 165 17 398 0 397 398 398 0 399 213
 0 0 -17 399 0 400 399 399 0 398 213 0 0 +16 213 586 0 ?399 185 210 401 0 0 1 16
 185 602 0 ?61 170 213 402 0 0 1 31 401 653 0 213 403 402 0 +-.0470531614240744
 .0065 .0075 0 0 1 1 0 0 .00255 31 403 654 0 214 404 401 0 +0 0 .0075 0 0 1 1 0
 0 .0534999999999988 30 402 652 0 185 401 186 0 +-.0454879202332438 .01229223791
073254 .0075 -.96537298512209 .2608735318050955 0 31 186 651 0 170 402 177 0 +-.
0470531614240744 .0065 .0075 0 0 1 1 0 0 .006 31 177 650 0 167 186 405 0 --.0260
46856621128 -.00882106910518036 .0075 0 0 1 1 0 0 .02 31 405 649 0 173 177 406 0
 -0 0 .0075 0 0 1 1 0 0 .0474999999999994 16 173 599 0 ?162 407 167 405 0 0 1 31
 406 648 0 407 405 408 0 --93360184324074e-18 -.02749984152456065 .0075 0 0 1 1
 0 0 .02 16 407 598 0 ?159 409 173 406 0 0 1 31 408 647 0 409 406 410 0 +.021105
24649680565 -.0425537139426052 .0075 0 0 1 1 0 0 .006 16 409 597 0 ?156 411 407
 408 0 0 1 30 410 646 0 411 408 412 0 +.03517418891808475 -.0528680095516637 .00
75 -.553924234930474 .832567079553768 0 16 411 596 0 ?153 209 409 410 0 0 1 31 4
12 471 0 209 410 413 0 +0 0 -.0075 0 0 1 1 0 0 .0534999999999988 16 209 1201 0 ?
414 205 411 412 0 0 1 31 413 470 0 208 412 415 0 +-.0470531614240744 .0065 -.007
5 0 0 1 1 0 0 .00255 16 208 411 0 ?416 417 205 413 0 0 1 30 415 469 0 417 413 41
8 0 +-.0454879202332438 .01229223791073254 -.0075 -.96537298512209 .260873531805
0955 0 16 417 410 0 ?58 419 208 415 0 0 1 31 418 468 0 419 415 420 0 +-.04705316
14240744 .0065 -.0075 0 0 1 1 0 0 .006 16 419 409 0 ?181 190 417 418 0 0 1 31 42
0 467 0 190 418 421 0 --.026046856621128 -.00882106910518036 -.0075 0 0 1 1 0 0
 .02 16 190 408 0 ?187 422 419 420 0 0 1 31 421 466 0 422 420 423 0 -0 0 -.0075
 0 0 1 1 0 0 .0474999999999994 16 422 407 0 ?424 425 190 421 0 0 1 31 423 465 0
 425 421 426 0 --93360184324074e-18 -.02749984152456065 -.0075 0 0 1 1 0 0 .02 1
6 425 406 0 ?427 428 422 423 0 0 1 31 426 464 0 428 423 197 0 +.0211052464968056
5 -.0425537139426052 -.0075 0 0 1 1 0 0 .006 16 428 405 0 ?429 195 425 426 0 0 1
 30 197 463 0 195 426 196 0 +.03517418891808475 -.0528680095516637 -.0075 -.5539
24234930474 .832567079553768 0 16 195 404 0 ?430 184 428 197 0 0 1 17 430 0 431
 432 433 133 85 195 0 0 +15 431 968 0 434 232 0 17 432 0 431 88 430 151 135 202
 0 0 -17 433 0 431 430 434 83 435 436 0 0 +17 85 0 437 79 438 83 430 195 0 439 -
15 437 438 0 440 382 0 17 79 0 437 440 85 77 439 441 0 414 +17 438 0 437 85 442
 133 429 428 0 430 -17 439 0 329 435 443 83 79 441 0 433 -15 329 1536 0 444 325
 0 17 435 0 329 444 439 89 433 436 0 0 -17 443 0 329 439 444 77 76 445 0 0 -16 4
41 1306 0 ?79 446 39 447 0 0 1 16 446 1310 0 ?448 24 441 449 0 0 1 16 39 1301 0
 ?34 441 450 451 0 0 1 31 447 1506 0 441 451 449 0 +.029205649925751 -.046605042
7788061 -.0075 0 0 1 1 0 0 .0015 31 451 1303 0 39 452 447 0 +0 0 .02 0 0 -1 -1 0
 0 .0549999999999988 31 449 1507 0 446 447 453 0 +-.0534670745406243 .0128946477
2947284 -.0075 0 0 1 1 0 0 .0015 31 453 1508 0 24 449 25 0 --.0534670745406243 .
01289464772947284 .0075 0 0 1 1 0 0 .0015 16 24 1314 0 ?52 10 446 453 0 0 1 31 2
5 1509 0 10 453 454 0 -.029205649925751 -.0466050427788061 .0075 0 0 1 1 0 0 .00
15 31 454 1571 0 455 25 456 0 +.029205649925751 -.0466050427788061 -.0185 0 0 1
 1 0 0 .0015 16 455 1550 0 ?444 457 19 454 0 0 1 31 456 1570 0 457 454 458 0 +.0
29205649925751 -.0466050427788061 -.0185 .847364414160131 .531011816831845 0 -.5
31011816831845 .847364414160131 0 .0015 16 457 1547 0 ?459 460 455 456 0 0 1 31
 458 1569 0 460 456 461 0 +-.0534670745406243 .01289464772947284 -.0185 -.234448
140535876 -.972128628011371 0 .972128628011371 -.234448140535876 0 .0015 16 460
 1545 0 ?462 463 457 458 0 0 1 31 461 1568 0 463 458 464 0 +-.0534670745406243 .
01289464772947284 -.0185 0 0 -1 -1 0 0 .0015 16 463 1542 0 ?465 267 460 461 0 0
 1 31 464 1630 0 466 461 467 0 +-.0534670745406243 .01289464772947284 .0185 0 0
 -1 -1 0 0 .0015 16 466 1611 0 ?46 468 0 464 0 0 1 31 467 1629 0 468 464 20 0 +-
.0534670745406243 .01289464772947284 .0185 .234448140535876 .972128628011371 0 -
.972128628011371 .234448140535876 0 .0015 16 468 1606 0 ?469 470 466 467 0 0 1 3
1 20 1628 0 470 467 7 0 +.029205649925751 -.0466050427788062 .0185 -.84736441416
0131 -.531011816831846 -470426372970472e-30 .531011816831846 -.847364414160131 0
 .0015 16 470 1604 0 ?471 19 468 20 0 0 1 17 471 0 355 472 38 35 473 470 0 0 +16
 19 1601 0 ?474 455 470 7 0 0 1 17 474 0 357 473 31 35 475 19 0 471 +17 473 0 35
7 31 474 11 471 470 0 38 -17 31 0 357 474 473 92 26 32 0 0 -17 475 0 362 476 477
 92 474 19 0 31 -15 362 1587 0 475 17 0 17 476 0 362 478 475 86 94 317 0 0 -17 4
77 0 362 475 478 35 49 479 0 474 -17 478 0 362 477 476 47 23 10 0 0 -17 49 0 389
 480 41 47 477 479 0 481 +16 479 1273 0 ?49 482 483 484 0 0 1 16 482 1275 0 ?485
 486 479 487 0 0 1 16 483 1270 0 ?41 479 488 489 0 0 1 30 484 1274 0 479 489 487
 0 +.0284091322005032 -.0453339961575659 .0475 0 0 -1 31 489 1272 0 483 490 484
 0 -0 0 .0185 0 0 -1 -1 0 0 .0534999999999988 30 487 1277 0 482 484 491 0 --.052
0088815986072 .01254297551866902 .0475 0 0 -1 31 491 1285 0 486 487 492 0 +-.053
4670745406243 .01289464772947284 .0185 -.96537298512209 .2608735318050955 0 -.26
08735318050955 -.96537298512209 0 .0015 16 486 1283 0 ?64 32 482 491 0 0 1 31 49
2 1293 0 32 491 452 0 -.029205649925751 -.0466050427788061 .0185 -.5539242349304
74 .832567079553768 0 -.832567079553768 -.553924234930473 0 .0015 16 32 1291 0 ?
26 450 486 492 0 0 1 31 452 1298 0 450 492 451 0 -0 0 -.02 0 0 -1 -1 0 0 .054999
9999999988 16 450 1296 0 ?70 39 32 452 0 0 1 17 70 0 369 117 493 68 494 450 0 49
5 +15 369 726 0 493 364 0 17 117 0 369 496 70 115 495 497 0 498 +17 493 0 369 70
 496 53 499 500 0 501 +17 494 0 337 462 502 53 70 450 0 0 -17 495 0 324 91 503 6
8 117 497 0 502 -15 324 1077 0 495 304 0 17 91 0 324 504 495 89 505 506 0 434 +1
7 503 0 324 495 504 115 507 297 0 508 -16 497 1221 0 ?117 500 509 510 0 0 1 17 5
02 0 337 494 511 68 459 457 0 505 -15 337 1532 0 502 332 0 17 511 0 337 502 462
 74 73 512 0 459 -17 459 0 333 513 505 74 502 457 0 444 +17 505 0 333 459 513 68
 91 506 0 0 -15 333 1534 0 505 328 0 17 513 0 333 505 459 89 444 455 0 435 -16 5
06 1223 0 ?91 514 445 515 0 0 1 16 514 1238 0 ?516 517 506 518 0 0 1 16 445 1215
 0 ?76 506 519 520 0 0 1 31 515 1225 0 506 520 518 0 +.029205649925751 -.0466050
427788061 -.0185 .553924234930474 -.832567079553768 0 .832567079553768 .55392423
4930473 0 .0015 30 520 1217 0 445 521 515 0 -.0284091322005032 -.045333996157565
9 -.0475 0 0 1 30 518 1240 0 514 515 522 0 --.0530757642429166 .0143427072071559
8 .0075 0 0 1 30 522 1249 0 517 518 490 0 --.0530757642429166 .01434270720715598
 .02 0 0 1 16 517 1247 0 ?67 488 514 522 0 0 1 31 490 1257 0 488 522 489 0 --.05
34670745406243 .01289464772947284 -.0185 .96537298512209 -.2608735318050955 0 .2
608735318050955 .96537298512209 0 .0015 16 488 1255 0 ?55 483 517 490 0 0 1 17 5
5 0 523 499 524 53 525 488 0 493 +15 523 1023 0 524 323 0 17 499 0 523 526 55 11
8 493 500 0 527 -17 524 0 523 55 526 65 123 509 0 528 -17 525 0 340 465 501 65 5
5 488 0 0 -15 340 1530 0 525 336 0 17 465 0 340 501 525 71 528 463 0 462 +17 501
 0 340 525 465 53 462 460 0 494 -17 462 0 337 511 494 71 501 460 0 0 +17 528 0 3
43 529 530 65 465 463 0 525 -15 343 1528 0 528 278 0 17 529 0 343 531 528 56 67
 517 0 0 -17 530 0 343 528 531 71 82 519 0 465 -17 531 0 343 530 529 80 448 446
 0 0 -17 82 0 383 414 73 80 530 519 0 440 +16 519 1213 0 ?82 445 512 521 0 0 1 1
6 512 1210 0 ?73 519 436 532 0 0 1 30 521 1214 0 519 532 520 0 +-.05200888159860
72 .01254297551866902 -.0475 0 0 1 31 532 1212 0 512 318 521 0 +0 0 -.0185 0 0 -
1 -1 0 0 .0534999999999988 30 318 1197 0 436 311 532 0 +.03045450054508165 -.045
7741564264104 .02 0 0 1 16 436 1195 0 ?433 512 317 318 0 0 1 16 317 1183 0 ?94 4
36 533 311 0 0 1 17 94 0 431 103 88 92 476 317 0 30 +16 533 993 0 ?114 317 534 5
35 0 0 1 17 114 0 395 536 537 112 538 533 0 539 +16 534 987 0 ?106 533 540 541 0
 0 1 38 535 995 0 533 541 542 0 +242 543 544 545 546 547 38 541 989 0 534 548 53
5 0 +242 549 550 551 552 553 31 542 1061 0 554 535 555 0 +-.0539499390258777 .01
302513259448632 -.0185 .96537298512209 -.260873531805095 0 .260873531805095 .965
372985122091 0 .0015 59 543 996 0 1 549 556 557 +0 231 40 7 544 0 1 7 .000943296
494586581 .395591786331962 ??-.053949997046224 .01302514787975416 .0199999999997
1885 -.0553073948135597 .01338184406675116 .01983097878940085 -.0571098009459561
 .01385485752868536 .0189348366178425 -.0583880694601997 .01419283406552858 .017
59239520200395 -.0598862964310728 .01459306130981662 .01464086450578162 -.061029
7201098666 .01490081456174028 .00994696309305686 -.0616840187682813 .01507752727
055225 0 41 2 545 TF-.0539499390258777 .01302513259448632 .02 -.053949997046224
 .01302514787975416 .01999999999971885 41 1 546 L?-.0616840187682813 .0150775272
7055225 0 204 16 547 2 1 3.888422038133875 .999996250796139 3.88842201576021 .90
807035010423 3.887926960352485 .769222685023257 3.887316426398955 .6530414435414
47 3.886865713416085 .482354585926892 3.886297531916575 .2910205607021055 3.8858
471138381 1524289031255715e-31 3.885587628865255 59 549 990 0 1 558 543 559 +0 2
76 51 556 1056 0 323 543 237 0 +-.0458792305309514 .0108441784330494 -.0185 .965
37298512209 -.2608735318050955 0 .0015 .2608735318050955 .96537298512209 0 141 5
57 535 557 557 543 14 323 1022 560 ?304 245 523 5 556 +0 0 304 245 22 56 237 105
5 0 245 556 248 561 +R216 250 266 .0015 .0015 1 1 0 0 0 0 14 245 1020 562 ?323 2
38 563 5 237 +0 0 323 238 22 50 248 1054 0 1 237 239 564 +-.0458792305309514 .01
08441784330494 .02 -.2608735318050955 -.96537298512209 0 .96537298512209 -.26087
35318050955 0 141 561 229 565 565 237 38 266 1059 0 1 555 258 566 +248 239 567 5
68 569 570 31 555 1060 0 571 542 266 0 +-.0602269159627313 .01472136520904312 11
54835807210338e-33 3777343574765675e-31 -1697087030037735e-30 -1 0 1 -1697087030
037735e-30 .0015 141 566 237 566 566 266 40 9 567 -.00716616954104315 .988067443
5401 9 .002036990907873245 .350433947376427 ??-.0469483658772457 .01113309175263
04 -.0185 -.0539499390258777 .01302513259448632 -.0185 -.0552159446861951 .01336
724634013922 -.0182955739571173 -.0563415389228597 .01367141659186944 -.01764935
760170745 -.0574754577618872 .01397783640770884 -.01631953287034855 -.0588193695
65169 .0143410027941313 -.01320715167693234 -.0602125502893782 .0147174831613764
 -.00167414295892729 -.0602269159627313 .01472136520904312 -1154835807210338e-33
 -.0602269159627313 .01472136520904312 .0141169779406894 41 1 568 L?-.0469483658
772457 .0111330917526304 -.0185 41 1 569 L?-.0602269159627313 .01472136520904312
 .0141169779406894 204 36 570 4 -.00110748421881627 -.0385 -.45310408652564 3.89
248459665534 -.00836019716659625 -.0385 -393391027670369e-30 3.888422038133875 -
.00967161325118586 -.0382955739571173 .119013955381328 3.88779814993176 -.010837
58148730988 -.03764935760170745 .2429713449819615 3.887267150772895 -.0120121729
2140116 -.03631953287034855 .3778496004894135 3.886753384117925 -.01340428956853
504 -.03320715167693235 .563416345697306 3.886170278549655 -.01484744236613796 -
.0216741429589273 .956519400952895 3.88559343708375 -.01486232332259158 -.02 .99
9999999999479 3.885587628865255 -.01486232332259156 -.00588302205931061 1.352924
448517234 3.885587628865255 16 571 1033 0 ?572 265 554 555 0 0 1 17 572 0 563 57
3 574 127 575 571 0 0 +16 265 1030 0 ?576 577 571 258 0 0 1 16 554 1038 0 ?526 5
71 297 542 0 0 1 17 526 0 523 524 499 121 527 554 0 573 +16 297 1090 0 ?507 554
 296 290 0 0 1 17 507 0 305 578 508 95 503 297 0 0 +16 296 1093 0 ?579 297 267 2
68 0 0 1 17 579 0 285 580 581 98 582 296 0 0 +16 267 1096 0 ?583 296 463 259 0 0
 1 17 583 0 28 30 29 101 584 267 0 0 +15 28 1083 0 30 275 0 17 30 0 28 26 583 92
 103 540 0 475 -17 29 0 28 583 26 104 33 585 0 0 -17 584 0 285 581 580 104 583 2
67 0 29 -15 285 1081 0 579 279 0 17 581 0 285 579 584 109 106 534 0 0 -17 580 0
 285 584 579 101 100 586 0 583 -17 100 0 431 97 103 98 580 586 0 578 +16 586 971
 0 ?100 587 588 589 0 0 1 16 587 976 0 ?97 590 586 591 0 0 1 16 588 1281 0 ?37 5
86 585 592 0 0 1 38 589 973 0 586 592 591 0 +228 288 593 594 595 596 30 592 951
 0 588 597 589 0 +-.000391310297707635 -.001448059477683104 .02 -.96537298512209
 .2608735318050955 0 38 591 978 0 587 589 598 0 +228 558 599 600 601 602 59 288
 974 0 1 603 558 604 +1 276 40 7 593 0 1 7 .002022950512741765 .3495819083662305
 ??.030731564793503 -.0461905934725091 .0185 .0314555957868831 -.047278836830809
8 .0182970301650453 .03209989578203825 -.0482472417705037 .0176550683588334 .032
75000771564655 -.0492243822525685 .01633176967621515 .03352031089539985 -.050382
1742903527 .01323791294267072 .03432375373645405 -.0515897763730614 .00179394654
529954 .0343332500498841 -.0516040496570963 -1157770623494962e-33 41 1 594 L?.03
0731564793503 -.0461905934725091 .0185 41 1 595 L?.0343332500498841 -.0516040496
570963 -1157770623494962e-33 204 14 596 2 -.00802027397327979 -.0015 -.006713180
06454153 -.0017029698349547 -.0055500246101931 -.002344931641166585 -.0043763768
5728358 -.00366823032378486 -.002985747722145605 -.00676208705732928 -.001535291
521840445 -.01820605345470045 -.001518147817284485 -.02 59 603 929 0 1 235 288 6
05 +0 237 59 558 979 0 1 288 549 606 +1 299 141 604 589 604 604 288 141 606 591
 606 606 558 59 235 923 0 1 229 603 607 +0 299 141 605 608 605 605 603 38 608 92
8 0 609 610 597 0 +250 603 611 612 613 614 16 609 926 0 ?120 585 615 608 0 0 1 3
8 610 922 0 615 616 608 0 +250 235 617 618 619 620 30 597 946 0 585 608 592 0 +-
.001248850619330624 -.000830886352395692 .02 -.553924234930474 .832567079553768
 0 40 7 611 0 1 7 .00209633337331763 .350454028128212 ??-.0616840187682813 .0150
7752727055225 -930737366804138e-51 -.0616694143524176 .01507357789931975 -.00170
1412712014295 -.0602113478510016 .01468038699076708 -.01365124042802188 -.058692
6855990216 .01427386208964184 -.0171445935881998 -.0572538086244525 .01389278113
69823 -.01881929851035315 -.055682430115723 .0134801779523035 -.0197167135684898
5 -.053949997046224 .0130251478797542 -.01999999999971885 41 1 612 L?-.061684018
7682813 .01507752727055225 -930737366804138e-51 41 2 613 TF-.0539499390258777 .0
1302513259448632 -.02 -.053949997046224 .0130251478797542 -.01999999999971885 20
4 16 614 2 1 3.885587628865255 .956519400952895 3.88559343708375 .56341634569730
6 3.886170278549655 .3778496004894135 3.886753384117925 .2429713449819615 3.8872
67150772895 .119013955381328 3.88779814993176 3749203860130615e-21 3.88842201576
021 421568584485146e-30 3.888422038133875 16 585 944 0 ?33 588 609 597 0 0 1 17
 33 0 36 34 621 11 29 585 0 473 +17 621 0 36 33 37 104 537 577 0 584 +17 37 0 36
 621 34 107 40 588 0 537 +17 537 0 395 114 106 107 621 577 0 622 -16 577 933 0 ?
621 623 265 624 0 0 1 16 623 880 0 ?498 625 577 626 0 0 1 31 624 823 0 577 310 6
26 0 +0 0 .02 0 0 1 1 0 0 .0554999999999988 134 255 310 824 0 1 257 624 627 +628
 629 31 626 819 0 623 624 404 0 +0 0 -.02 0 0 1 1 0 0 .0554999999999988 31 404 8
18 0 625 626 403 0 +0 0 0 0 0 1 1 0 0 .0635 16 625 915 0 ?536 214 623 404 0 0 1
 17 536 0 395 106 114 109 539 625 0 582 +16 214 1261 0 ?481 210 625 403 0 0 1 17
 481 0 165 23 52 47 480 214 0 478 +17 23 0 165 153 481 86 478 10 0 476 +17 52 0
 165 481 61 50 630 24 0 480 +17 480 0 389 485 49 50 481 214 0 631 -15 389 1267 0
 480 386 0 17 485 0 389 41 480 42 631 482 0 0 +17 631 0 348 630 46 50 485 482 0
 0 -15 348 1595 0 630 344 0 17 630 0 348 632 631 59 52 24 0 0 -17 46 0 348 631 6
32 42 633 466 0 469 +17 632 0 348 46 630 62 516 514 0 633 -17 633 0 352 634 469
 62 46 466 0 0 -17 469 0 352 633 634 42 635 468 0 472 +15 352 1593 0 634 347 0 1
7 634 0 352 469 633 27 64 486 0 0 -17 635 0 355 38 472 27 469 468 0 634 -17 472
 0 355 635 471 42 41 483 0 485 -15 355 1591 0 635 351 0 17 41 0 389 49 485 35 47
2 483 0 477 +17 38 0 355 471 635 11 34 39 0 0 -17 64 0 274 636 40 62 634 486 0 6
37 +15 274 1017 0 40 246 0 17 636 0 274 622 64 124 637 222 0 576 -17 40 0 274 64
 622 27 37 588 0 635 -17 637 0 638 516 126 62 636 222 0 632 +15 638 860 0 58 224
 0 17 516 0 638 171 637 59 632 514 0 630 +17 126 0 638 637 129 124 639 204 0 636
 +16 222 867 0 ?637 640 204 215 0 0 1 16 640 870 0 ?129 509 222 223 0 0 1 17 129
 0 638 126 123 127 573 640 0 639 +16 509 1229 0 ?123 497 640 641 0 0 1 38 223 87
2 0 640 215 641 0 +216 229 642 643 644 645 30 641 876 0 509 223 510 0 +-.0535782
006742749 .01447848101518252 -.0185 -.96537298512209 .2608735318050955 0 40 7 64
2 0 1 7 .002036990907870695 .3504339473764275 ??-.05355862872817 .01447319207216
944 -.0185 -.0548246343884874 .01481530581782236 -.0182955739571173 -.0559502286
25152 .0151194760695526 -.01764935760170745 -.0570841474641796 .015425895885392
 -.01631953287034855 -.0584280592674613 .01578906227181445 -.01320715167693234 -
.0598212399916706 .01616554263905955 -.00167414295892729 -.0598356056650237 .016
16942468672625 -1167671250621822e-33 41 1 643 L?-.05355862872817 .01447319207216
944 -.0185 41 1 644 L?-.0598356056650237 .01616942468672625 -1167671250621822e-3
3 204 14 645 2 -.00836019716659625 -.0385 -.00967161325118585 -.0382955739571173
 -.01083758148730988 -.03764935760170745 -.01201217292140116 -.03631953287034855
 -.01340428956853502 -.03320715167693235 -.01484744236613796 -.0216741429589273
 -.01486232332259156 -.02 30 510 893 0 497 641 616 0 -.02949394441931 -.04703835
92676288 -.02 -.553924234930474 .832567079553768 0 30 616 898 0 500 510 610 0 --
.0520387650017383 .0125086744738892 -.02 -.96537298512209 .2608735318050955 0 16
 500 896 0 ?493 615 497 616 0 0 1 16 615 920 0 ?111 609 500 610 0 0 1 17 111 0 6
46 539 498 109 508 615 0 536 +15 646 783 0 539 273 0 17 539 0 646 120 111 112 53
6 625 0 575 -17 498 0 646 111 120 115 496 623 0 503 +17 508 0 305 507 582 115 11
1 615 0 0 -15 305 1079 0 507 284 0 17 582 0 305 508 578 109 579 296 0 581 -17 57
8 0 305 582 507 98 97 587 0 579 -17 97 0 431 434 100 95 578 587 0 504 +17 434 0
 431 433 97 89 504 590 0 513 +17 504 0 324 503 91 95 434 590 0 507 -16 590 980 0
 ?434 540 587 598 0 0 1 16 540 1177 0 ?103 534 590 548 0 0 1 30 598 981 0 590 59
1 548 0 +.0296349465687797 -.04454233875612555 -.0185 -.553924234930474 .8325670
79553768 0 30 548 984 0 540 598 541 0 -.03517418891808475 -.0528680095516637 .01
85 -.553924234930474 .832567079553768 0 17 103 0 431 100 94 101 30 540 0 580 +17
 120 0 646 498 539 118 574 609 0 496 +17 496 0 369 493 117 118 498 623 0 499 -17
 574 0 563 572 527 112 120 609 0 0 -15 563 1021 0 572 245 0 17 527 0 563 574 573
 118 526 554 0 0 -17 573 0 563 527 572 121 129 640 0 0 -17 575 0 247 538 639 112
 572 571 0 574 -15 247 1019 0 576 238 0 17 538 0 247 576 575 107 114 533 0 0 -17
 639 0 247 575 576 127 126 204 0 572 -17 576 0 247 639 538 124 622 265 0 0 +17 6
22 0 274 40 636 107 576 265 0 538 -14 273 781 647 ?246 254 646 5 250 -0 0 246 25
4 22 81 1 647 1902 358 273 648 0 562 649 650 80 255 1 358 651 652 9000 1 1 1 1 1
 1 1 1 0 FFFFTFTFFFFFFF1 81 1 648 1784 653 273 0 647 654 655 656 81 1 562 1901 3
58 245 657 0 560 647 658 81 1 649 1903 358 232 659 0 647 660 661 82 255 1 650 -8
14808680 14 232 575 649 ?662 364 431 5 228 -0 0 662 364 22 81 1 659 1770 653 232
 0 649 663 664 665 81 1 660 1904 358 662 664 0 649 666 667 82 1 661 -866844263 1
4 662 565 660 ?668 232 669 5 233 -0 0 668 232 22 81 1 664 1771 653 662 0 660 659
 670 671 81 1 666 1905 358 668 670 0 660 672 673 82 1 667 -867892844 14 668 558
 666 ?674 662 675 5 676 -0 0 674 662 22 81 1 670 1772 653 668 0 666 664 677 678
 81 1 672 1906 358 674 677 0 666 679 680 82 1 673 -868613740 14 674 551 672 ?188
 668 681 5 682 -0 0 188 668 22 81 1 677 1773 653 674 0 672 670 683 684 81 1 679
 1907 358 188 683 0 672 685 686 82 1 680 -869334636 14 188 544 679 ?180 674 174
 5 687 -0 0 180 674 22 81 1 683 1774 653 188 0 679 677 688 689 81 1 685 1908 358
 180 688 0 679 690 691 82 1 686 -870055532 14 180 537 685 ?224 188 178 5 226 -0
 0 224 188 22 81 1 688 1775 653 180 0 685 683 692 693 81 1 690 1909 358 224 692
 0 685 0 694 82 1 691 -870776428 14 224 530 690 ?371 180 638 5 216 -0 0 371 180
 22 81 1 692 1776 653 224 0 690 688 695 696 82 1 694 -872742503 80 1 653 0 697 8
001 0 0 0 0 3 5 0 0 0 FFFFTFTFFFFFFF2 81 1 695 1777 653 371 0 373 692 698 699 83
 255 3 696 1 1 1 81 1 373 1893 358 371 695 0 367 377 700 81 1 698 1778 653 374 0
 377 695 701 702 83 3 699 1 1 1 81 1 377 1894 358 374 698 0 373 381 703 81 1 701
 1779 653 378 0 381 698 704 705 83 3 702 1 1 1 81 1 381 1895 358 378 701 0 377 3
85 706 81 1 704 1780 653 382 0 385 701 707 708 83 3 705 1 1 1 81 1 385 1896 358
 382 704 0 381 388 709 81 1 707 1781 653 386 0 388 704 392 710 83 3 708 1 1 1 81
 1 388 1897 358 386 707 0 385 390 711 81 1 392 1782 653 169 0 390 707 654 712 83
 3 710 1 1 1 81 1 654 1783 653 254 0 393 392 648 713 83 3 712 1 1 1 81 1 393 189
9 358 254 654 0 390 560 714 83 3 713 1 1 1 81 1 560 1900 358 323 715 0 393 562 7
16 82 1 714 -813629032 81 1 715 1788 653 323 0 560 657 717 718 82 1 716 -8050438
15 81 1 657 1787 653 245 0 562 719 715 720 81 1 717 1789 653 304 0 322 715 721 7
22 83 3 718 1 1 1 81 1 322 1880 358 304 717 0 303 327 723 81 1 721 1790 653 284
 0 303 717 724 725 83 3 722 1 1 1 81 1 303 1879 358 284 721 0 283 322 726 81 1 7
24 1791 653 279 0 283 721 727 728 83 3 725 1 1 1 81 1 283 1878 358 279 724 0 277
 303 729 81 1 727 1792 653 275 0 277 724 730 731 83 3 728 1 1 1 81 1 277 1877 35
8 275 727 0 272 283 732 81 1 730 1793 653 278 0 342 727 733 734 83 3 731 1 1 1 8
1 1 342 1885 358 278 730 0 339 346 735 81 1 733 1794 653 336 0 339 730 736 737 8
3 3 734 1 1 1 81 1 339 1884 358 336 733 0 335 342 738 81 1 736 1795 653 332 0 33
5 733 739 740 83 3 737 1 1 1 81 1 335 1883 358 332 736 0 331 339 741 81 1 739 17
96 653 328 0 331 736 742 743 83 3 740 1 1 1 81 1 331 1882 358 328 739 0 327 335
 744 81 1 742 1797 653 325 0 327 739 745 746 83 3 743 1 1 1 81 1 327 1881 358 32
5 742 0 322 331 747 81 1 745 1798 653 17 0 360 742 359 748 83 3 746 1 1 1 81 1 3
60 1890 358 17 745 0 356 363 749 81 1 359 1799 653 354 0 356 745 750 751 83 3 74
8 1 1 1 81 1 750 1800 653 351 0 353 359 752 753 83 3 751 1 1 1 81 1 353 1888 358
 351 750 0 350 356 754 81 1 752 1801 653 347 0 350 750 755 756 83 3 753 1 1 1 81
 1 350 1887 358 347 752 0 346 353 757 81 1 755 1802 653 344 0 346 752 0 758 83 3
 756 1 1 1 81 1 346 1886 358 344 755 0 342 350 759 83 3 758 1 1 1 82 1 759 -7664
43111 82 1 757 -764935783 82 1 754 -764149351 82 1 749 -762248807 82 1 747 -7722
10279 82 1 744 -770702951 82 1 741 -769916519 82 1 738 -768736871 82 1 735 -7680
15975 81 1 272 1876 358 246 655 0 244 277 760 82 1 732 -799342183 81 1 655 1785
 653 246 0 272 648 719 761 81 1 244 1875 358 238 719 0 0 272 762 82 1 760 -80104
6119 81 1 719 1786 653 238 0 244 655 657 763 82 1 762 -802356840 83 3 763 1 1 1
 83 3 761 1 1 1 82 1 729 -797834856 82 1 726 -796655208 82 1 723 -795344487 83 3
 720 1 1 1 82 1 711 -871562855 82 1 709 -897646183 82 1 706 -894500455 82 1 703
 -879033964 81 1 367 1892 358 364 663 0 363 373 764 82 1 700 -874184300 81 1 663
 1769 653 364 0 367 366 659 765 82 1 764 -812449383 81 1 366 1768 653 15 0 363 0
 663 766 83 3 765 1 1 1 83 3 766 1 1 1 79 255 15 697 SDL/TYSA_COLOUR83 3 693 1 1
 1 51 226 159 0 180 216 687 0 --.0470531614240744 .0065 .02 0 0 -1 .006 -1 0 0 5
1 687 160 0 188 226 682 0 +-.026046856621128 -.00882106910518036 .02 0 0 -1 .02
 -1 0 0 51 682 161 0 674 687 676 0 +0 0 .02 0 0 -1 .0474999999999994 -1 0 0 51 6
76 162 0 668 682 233 0 +-93360184324074e-18 -.02749984152456065 .02 0 0 -1 .02 -
1 0 0 51 233 163 0 662 676 228 0 -.02110524649680565 -.0425537139426052 .02 0 0
 -1 .006 -1 0 0 83 3 689 1 1 1 83 3 684 1 1 1 15 681 550 0 172 674 0 17 172 0 68
1 141 176 157 162 173 0 767 -17 141 0 681 424 172 139 767 193 0 768 +17 176 0 68
1 172 424 160 144 191 0 0 -17 767 0 675 769 427 157 141 193 0 0 -15 675 557 0 76
9 668 0 17 769 0 675 138 767 154 159 407 0 770 -17 427 0 675 767 138 139 442 425
 0 0 +17 138 0 675 427 769 136 770 200 0 442 +17 442 0 437 438 768 136 427 425 0
 429 -17 768 0 437 442 189 139 424 422 0 427 -17 429 0 669 770 135 136 438 428 0
 0 +15 669 564 0 771 662 0 17 770 0 669 771 429 154 138 200 0 0 -17 135 0 669 42
9 771 133 432 202 0 438 +17 771 0 669 135 770 151 156 409 0 432 -17 156 0 165 15
9 153 154 771 409 0 769 +17 159 0 165 162 156 157 769 407 0 172 +17 153 0 165 15
6 23 151 88 411 0 771 +17 88 0 431 94 432 86 153 411 0 23 -17 189 0 437 768 183
 142 187 190 0 424 -17 424 0 681 176 141 142 768 422 0 0 +17 183 0 437 189 772 1
45 181 419 0 187 -17 772 0 437 183 448 148 58 417 0 181 -17 181 0 178 179 147 14
8 183 419 0 0 +17 448 0 437 772 440 56 531 446 0 529 +17 58 0 638 67 150 56 772
 417 0 448 +17 67 0 638 123 58 65 529 517 0 524 +17 150 0 638 58 171 148 179 184
 0 772 +17 171 0 638 150 516 130 61 185 0 179 -17 61 0 165 52 132 59 171 185 0 5
16 +17 123 0 638 129 67 121 524 509 0 526 +17 440 0 437 448 79 80 414 209 0 531
 -17 414 0 383 76 82 77 440 209 0 443 +15 383 1207 0 414 378 0 17 76 0 383 73 41
4 74 443 445 0 511 +17 73 0 383 82 76 71 511 512 0 530 +17 144 0 174 187 166 142
 176 191 0 189 +83 3 678 1 1 1 83 3 671 1 1 1 83 3 665 1 1 1 82 1 658 -803536488
 83 3 656 1 1 1 79 14 652 SWEntUnchanged15 395 780 0 537 254 0 17 106 0 395 537
 536 104 581 534 0 621 +134 257 825 0 1 0 310 773 +774 775 141 627 250 627 627 3
10 136 255 628 2 3 3 2 5 FFF1 776 777 778 135 255 629 2 0 45 255 9 776 .03074279
50386406 -.0462074729152331 -.02 .03517418891808475 -.0528680095516638 -.02 .035
1741889180847 -.0528680095516637 0 127 255 2 777 3 3 128 255 2 778 0 1 141 773 2
42 773 773 257 136 774 2 3 3 2 5 FFF1 779 780 781 135 775 2 0 45 9 779 .03517418
89180847 -.0528680095516637 0 .03517418891808475 -.0528680095516638 .02 .0307427
950386406 -.0462074729152331 .02 127 2 780 3 3 128 2 781 0 1 40 7 617 0 1 7 .000
94329649458661 .395591786331965 ??.02948274709259445 -.0470215299884123 -.019999
99999971885 .03025202137824815 -.0481954030403298 -.01983097878940085 .031272904
444551 -.0497543152784648 -.0189348366178425 .03199930057525685 -.05085909905606
96 -.01759239520200395 .0328545729765054 -.052152689030901 -.01464086450578164 .
03350949030825765 -.0531392046475369 -.00994696309305685 .03388482844903455 -.05
3703523171012 0 41 2 618 TF.02948271417417235 -.0470214798249048 -.02 .029482747
09259445 -.0470215299884123 -.01999999999971885 41 1 619 L?.03388482844903455 -.
053703523171012 0 204 16 620 2 2303799838443615e-31 6.25615498870931 37492038604
66675e-21 6.25615501108298 .091929649895767 6.2566500664907 .230777314976742 6.2
5726060044423 .346958556458552 6.2577113134271 .517645414073107 6.25827949492661
 .708979439297895 6.25872991300509 1 6.25898939797793 141 607 610 607 607 235 40
 6 599 0 1 6 .003275767849285195 .3955599919507995 ??.0343332500498841 -.0516040
496570963 -1154835807210346e-33 .03335424427818065 -.0501325704821226 -.01411697
79406894 .0326099874729933 -.0490139270365788 -.01669019142792275 .0320428002888
952 -.0481614252905879 -.0177348562917408 .03130521176316685 -.0470528044972495
 -.01837682866549735 .03073156479350295 -.0461905934725091 -.0185 41 1 600 L?.03
43332500498841 -.0516040496570963 -1154835807210346e-33 41 1 601 L?.030731564793
50295 -.0461905934725091 -.0185 204 12 602 2 -.001518147817284485 -.02 -.0032855
4795969983 -.0341169779406894 -.00462915554762347 -.03669019142792275 -.00565309
916361146 -.0377348562917408 -.00698466849966137 -.03837682866549735 -.008020273
97327981 -.0385 141 565 603 561 561 237 141 564 266 564 564 248 141 559 541 559
 559 549 40 7 550 0 1 7 .002082417924161225 .349602207428819 ??.0338848284490345
5 -.053703523171012 -197006075973547e-50 .03387517021614105 -.0536890120699535 .
001823315075148075 .03303489148598675 -.0524245846492734 .01368443547215542 .032
16755332036805 -.0511141707237109 .0171592008669994 .03134932986003565 -.0498708
040302527 .01882698015854805 .03046101758438455 -.0485146981488652 .019718768824
3028 .0294827470925944 -.0470215299884123 .01999999999971885 41 1 551 L?.0338848
2844903455 -.053703523171012 -197006075973547e-50 41 2 552 TF.02948271417417235
 -.0470214798249048 .02 .0294827470925944 -.0470215299884123 .01999999999971885
 204 16 553 2 -1843164194502685e-46 6.25898939797793 .0466720153889343 6.2589827
063371 .438058520491476 6.25840283287876 .623118113130877 6.25782017879914 .7578
20331008983 6.25730669163937 .881418556321574 6.2567768679914 .99999625079614 6.
25615501108298 1 6.25615498870931 17 444 0 329 443 435 74 513 455 0 0 +17 416 0
 387 416 416 0 782 208 0 0 +15 387 436 0 416 382 783 17 782 0 375 782 782 0 416
 208 0 0 -15 375 332 0 782 371 400 15 400 514 0 399 371 0 15 783 437 0 207 382 4
37 17 207 0 783 207 207 0 784 205 0 0 +17 784 0 379 784 784 0 207 205 0 0 -15 37
9 326 0 784 374 785 15 785 508 0 212 374 0 17 212 0 785 212 212 0 396 210 0 0 +8
2 1 394 -874643047 82 1 368 -811269735 82 1 361 -762969703 141 309 237 786 787 2
50 141 786 608 788 309 250 141 787 239 309 789 250 141 789 299 787 790 250 141 7
90 306 789 788 250 141 788 610 790 786 250 141 308 558 302 302 299 141 307 298 3
07 307 301 141 289 549 281 281 276 141 287 282 287 287 280 141 256 231 791 792 2
42 141 791 535 793 256 242 141 792 251 256 794 242 141 794 276 792 795 242 141 7
95 286 794 793 242 141 793 541 795 791 242 141 253 543 241 241 231 141 252 243 2
52 252 240 141 249 266 249 249 239 141 236 223 236 236 229 141 234 276 796 797 2
28 141 796 591 798 234 228 141 797 299 234 798 228 141 798 589 797 796 228 141 2
27 237 799 800 216 141 799 223 801 227 216 141 800 231 227 801 216 141 801 211 8
00 799 216 19 16 175 0 1 0 9 5 S0 74 4 CI16 index_map_offset0 0 1 dCCZ20 14 3 0
 0 690 2 755 0 0 0 0 0 0 0 0 0 0 0 0 0 0 0 0 0 80 2 12 802 803 8004 0 0 0 0 3 5
 0 0 0 FFTFFFFFFFFFFF2 3 83 1 13 1150 79 16 803 SDL/TYSA_DENSITY1 0 
