**ABCDEFGHIJKLMNOPQRSTUVWXYZabcdefghijklmnopqrstuvwxyz**************************
**PARASOLID !"#$%&'()*+,-./:;<=>?@[\]^_`{|}~0123456789**************************
**PART1;
MC=AMD64;
MC_MODEL=Intel64 Family 6 Model 58 Stepping 9, GenuineIntel;
MC_ID=unknown;
OS=Windows_NT;
OS_RELEASE=unknown;
FRU=Parasolid Version 31.0, build 264, 12-10-2018;
APPL=SOLIDWORKS 2019-2019057;
SITE=;
USER=unknown;
FORMAT=text;
GUISE=transmit;
KEY=1690-20-8325;
FILE=1690-20-8325.x_t;
DATE=Sun Apr  5 22:54:02 2020;
**PART2;
SCH=SCH_3100264_31001;
USFLD_SIZE=0;
**PART3;
**END_OF_HEADER*****************************************************************
T51 : TRANSMIT FILE created by modeller version 310026423 SCH_3100264_31001_1300
6215 0 12 34 CCCCCCI4 mesh1006 0 I8 polyline1008 0 CCCCCCCDI5 owner1040 0 CCCCCC
I13 boundary_mesh1006 0 I17 boundary_polyline1008 0 CCCA16 index_map_offset0 0 1
 dA9 index_map82 0 A17 node_id_index_map82 0 A20 schema_embedding_map82 0 A5 chi
ld12 0 A14 lowest_node_id0 0 1 dA16 mesh_offset_data206 0 Z1 596 2 3 0 0 0 0 0 0
 1e3 1e-8 0 4 0 1 0 1 1 5 6 7 8 0 0 9 10 11 0 0 0 0 0 0 0 81 255 2 2 579 12 1 13
 0 0 0 0 14 70 11 CI9 list_type0 0 1 uI10 notransmit0 0 1 lCCCDCCDI12 finger_ind
ex0 0 1 dI12 finger_block1012 0 CZ3 0 4 T1 0 0 9 20 1 15 15 13 255 5 214 0 1 0 1
6 0 0 17 0 51 255 6 203 0 18 19 0 0 --.0785286385602361 -.03175167171056445 .089
 0 0 -1 .0332048743021301 -1 0 0 30 255 7 213 0 10 20 0 0 +-.0671719026923114 -.
000549296354728918 .089 0 0 -1 29 255 8 154 0 21 22 0 -.0477448897619161 -.01930
480514334395 .085 19 8 CCCCCCCA5 owner12 0 Z9 64 0 1 17 0 23 V0 16 255 10 173 0
 ?24 0 25 7 0 0 1 18 255 11 61 0 26 0 27 28 ?1 17 255 26 0 29 30 31 11 32 33 0 3
4 +18 27 58 0 31 11 35 36 ?1 29 28 63 0 11 36 37 -.0477448897619161 -.0193048051
4334395 .089 29 36 60 0 27 38 28 .038262888367509 -.0344702969783485 .089 29 37
 163 0 39 28 40 -.0671719026923114 -.000549296354728918 .085 18 39 142 0 41 42 0
 37 ?1 29 40 162 0 42 37 43 -.0752240235522653 -.00618745207944441 .085 18 42 14
1 0 44 45 39 40 ?1 29 43 161 0 45 40 46 -.0752240235522653 -.1070503154116932 .0
85 18 45 140 0 47 48 42 43 ?1 29 46 160 0 48 43 49 -.0692240235522653 -.11305031
54116932 .085 18 48 139 0 50 51 45 46 ?1 29 49 159 0 51 46 52 .0658833493638774
 -.1130503154116932 .085 18 51 138 0 53 54 48 49 ?1 29 52 158 0 54 49 55 .071879
013250047 -.106822248395048 .085 18 54 137 0 56 57 51 52 ?1 29 55 157 0 57 52 58
 .0689287347523114 -.02926224650079955 .085 18 57 136 0 59 60 54 55 ?1 29 58 156
 0 60 55 22 .0629330708661418 -.02349031351744475 .085 18 60 135 0 61 62 57 58 ?
1 29 22 155 0 62 58 8 .038262888367509 -.0344702969783485 .085 18 62 134 0 63 21
 60 22 ?1 17 63 0 64 65 66 62 67 68 0 69 +18 21 133 0 70 71 62 8 ?1 17 70 0 72 3
4 69 21 73 74 0 75 +18 71 34 0 76 77 21 78 ?1 17 76 0 79 24 80 71 81 82 0 30 -18
 77 37 0 81 83 71 84 ?1 29 78 36 0 71 0 84 -.0671719026923114 -.0005492963547289
18 .089 29 84 39 0 77 78 85 -.0752240235522653 -.00618745207944441 .089 29 85 42
 0 83 84 86 -.0752240235522653 -.1070503154116932 .089 18 83 40 0 87 88 77 85 ?1
 29 86 45 0 88 85 89 -.0692240235522653 -.1130503154116932 .089 18 88 43 0 90 91
 83 86 ?1 29 89 48 0 91 86 92 .0658833493638774 -.1130503154116932 .089 18 91 46
 0 93 94 88 89 ?1 29 92 51 0 94 89 95 .071879013250047 -.106822248395048 .089 18
 94 49 0 96 97 91 92 ?1 29 95 54 0 97 92 38 .0689287347523114 -.0292622465007995
5 .089 18 97 52 0 98 35 94 95 ?1 29 38 57 0 35 95 36 .0629330708661418 -.0234903
1351744475 .089 18 35 55 0 99 27 97 38 ?1 17 99 0 29 31 98 35 100 101 0 102 +15
 255 29 3 0 30 16 103 17 31 0 29 26 99 27 104 105 0 65 +17 98 0 29 99 96 97 106
 107 0 108 +17 100 0 109 110 102 97 99 101 0 0 -16 101 25 0 ?99 105 107 111 0 0
 1 17 102 0 109 100 61 35 66 112 0 104 -15 109 178 0 61 113 0 17 61 0 109 102 11
0 60 114 115 0 66 +17 66 0 64 63 104 60 102 112 0 67 +16 112 166 0 ?66 116 117 1
18 0 0 1 17 104 0 64 66 65 35 31 105 0 0 -15 64 176 0 63 119 0 17 65 0 64 104 63
 27 69 117 0 32 -16 105 28 0 ?31 33 101 120 0 0 1 16 33 31 0 ?26 121 105 122 0 0
 1 31 255 120 29 0 105 111 122 0 +.0629330708661415 -.0566951878195749 .089 0 0
 1 1 0 0 .03320487430213015 31 111 26 0 101 123 120 0 +.0629330708661418 -.02949
03135174447 .089 0 0 1 1 0 0 .006 31 122 32 0 33 120 124 0 +0 0 .089 0 0 -1 1 0
 0 .0515 31 124 153 0 125 122 126 0 +-.0785286385602361 -.03175167171056445 .085
 0 0 1 1 0 0 .0332048743021301 16 125 129 0 ?127 128 129 124 0 0 1 31 126 152 0
 128 124 130 0 +-.0692240235522653 -.00618745207944441 .085 0 0 1 1 0 0 .006 16
 128 125 0 ?44 131 125 126 0 0 1 30 130 151 0 131 126 132 0 +-.0752240235522653
 -.00618745207944441 .085 275181317470636e-30 -1 0 16 131 121 0 ?47 133 128 130
 0 0 1 31 132 150 0 133 130 134 0 +-.0692240235522653 -.1070503154116932 .085 0
 0 1 1 0 0 .006 16 133 117 0 ?50 135 131 132 0 0 1 30 134 149 0 135 132 136 0 +-
.0692240235522653 -.1130503154116932 .085 1 20543346389287e-29 0 16 135 113 0 ?5
3 137 133 134 0 0 1 31 136 148 0 137 134 138 0 +.0658833493638774 -.107050315411
6932 .085 0 0 1 1 0 0 .006 16 137 109 0 ?56 139 135 136 0 0 1 30 138 147 0 139 1
36 140 0 +.071879013250047 -.106822248395048 .085 -.03801116944086445 .999277314
361603 0 16 139 105 0 ?59 115 137 138 0 0 1 31 140 146 0 115 138 141 0 +.0629330
708661418 -.0294903135174447 .085 0 0 1 1 0 0 .006 16 115 101 0 ?61 68 139 140 0
 0 1 31 141 145 0 68 140 142 0 +.0629330708661415 -.0566951878195749 .085 0 0 1
 1 0 0 .03320487430213015 16 68 97 0 ?63 74 115 141 0 0 1 31 142 144 0 74 141 14
3 0 +0 0 .085 0 0 -1 1 0 0 .0515 16 74 93 0 ?70 144 68 142 0 0 1 30 143 204 0 12
1 142 145 0 +-.0477448897619161 -.01930480514334395 .089 0 0 -1 16 121 164 0 ?75
 117 33 143 0 0 1 30 145 205 0 117 143 118 0 +.038262888367509 -.034470296978348
5 .089 0 0 -1 16 117 165 0 ?69 112 121 145 0 0 1 30 118 206 0 112 145 146 0 +.06
29330708661418 -.02349031351744475 .089 0 0 -1 30 146 207 0 116 118 147 0 +.0689
287347523114 -.02926224650079955 .089 0 0 -1 16 116 167 0 ?110 148 112 146 0 0 1
 30 147 208 0 148 146 149 0 +.071879013250047 -.106822248395048 .089 0 0 -1 16 1
48 168 0 ?150 151 116 147 0 0 1 30 149 209 0 151 147 152 0 +.0658833493638774 -.
1130503154116932 .089 0 0 -1 16 151 169 0 ?153 154 148 149 0 0 1 30 152 210 0 15
4 149 155 0 +-.0692240235522653 -.1130503154116932 .089 0 0 -1 16 154 170 0 ?156
 157 151 152 0 0 1 30 155 211 0 157 152 20 0 +-.0752240235522653 -.1070503154116
932 .089 0 0 -1 16 157 171 0 ?158 25 154 155 0 0 1 30 20 212 0 25 155 7 0 +-.075
2240235522653 -.00618745207944441 .089 0 0 -1 16 25 172 0 ?159 10 157 20 0 0 1 1
7 159 0 160 47 161 42 80 25 0 162 +15 160 188 0 47 163 0 17 47 0 160 164 159 45
 162 131 0 158 +17 161 0 160 159 164 77 87 165 0 0 -17 80 0 79 76 44 77 159 25 0
 161 -17 162 0 166 41 167 42 47 131 0 0 -15 166 92 0 168 169 170 17 41 0 166 168
 162 39 44 128 0 24 -17 167 0 166 162 171 45 50 133 0 0 -17 171 0 166 167 172 48
 53 135 0 0 -17 50 0 173 174 158 48 167 133 0 156 +15 173 186 0 50 175 0 17 174
 0 173 176 50 88 156 154 0 177 -17 158 0 173 50 176 45 164 157 0 167 +17 156 0 1
78 53 177 48 174 154 0 171 +15 178 184 0 53 179 0 17 53 0 178 180 156 51 171 135
 0 153 +17 177 0 178 156 180 88 93 181 0 0 -17 180 0 178 177 53 91 153 151 0 182
 -17 93 0 29 96 90 91 177 181 0 180 +16 181 16 0 ?93 183 184 185 0 0 1 16 183 19
 0 ?96 107 181 186 0 0 1 16 184 13 0 ?90 181 165 187 0 0 1 30 185 17 0 181 187 1
86 0 +-.0692240235522653 -.1130503154116932 .089 1 20543346389287e-29 0 31 187 1
4 0 184 188 185 0 +-.0692240235522653 -.1070503154116932 .089 0 0 1 1 0 0 .006 3
1 186 20 0 183 185 123 0 +.0658833493638774 -.1070503154116932 .089 0 0 1 1 0 0
 .006 30 123 23 0 107 186 111 0 +.071879013250047 -.106822248395048 .089 -.03801
116944086445 .999277314361603 0 16 107 22 0 ?98 101 183 123 0 0 1 30 188 11 0 16
5 189 187 0 +-.0752240235522653 -.00618745207944441 .089 275181317470636e-30 -1
 0 16 165 10 0 ?87 184 82 188 0 0 1 31 189 8 0 82 190 188 0 +-.0692240235522653
 -.00618745207944441 .089 0 0 1 1 0 0 .006 16 82 7 0 ?81 165 144 189 0 0 1 31 19
0 5 0 144 191 189 0 +-.0785286385602361 -.03175167171056445 .089 0 0 1 1 0 0 .03
32048743021301 16 144 4 0 ?30 82 74 190 0 0 1 31 191 274 0 192 193 190 0 +.06293
30708661418 -.0294903135174447 .085 0 0 1 1 0 0 .00255 16 192 252 0 ?194 129 195
 191 0 0 1 31 193 275 0 129 196 191 0 +.0629330708661418 -.0294903135174447 .089
 0 0 1 1 0 0 .00255 16 129 255 0 ?197 125 192 193 0 0 1 31 196 312 0 198 199 193
 0 +.0658833493638774 -.1070503154116932 .085 0 0 1 1 0 0 .002549999999999965 16
 198 290 0 ?200 195 201 196 0 0 1 31 199 313 0 195 202 196 0 +.0658833493638774
 -.1070503154116932 .089 0 0 1 1 0 0 .002549999999999965 16 195 293 0 ?203 192 1
98 199 0 0 1 31 202 350 0 204 205 199 0 +-.0692240235522653 -.1070503154116932 .
085 0 0 1 1 0 0 .00255 16 204 328 0 ?206 201 207 202 0 0 1 31 205 351 0 201 208
 202 0 +-.0692240235522653 -.1070503154116932 .089 0 0 1 1 0 0 .00255 16 201 331
 0 ?209 198 204 205 0 0 1 31 208 388 0 210 211 205 0 +-.0692240235522653 -.00618
745207944441 .085 0 0 1 1 0 0 .00255 16 210 366 0 ?212 207 213 208 0 0 1 31 211
 389 0 207 214 208 0 +-.0692240235522653 -.00618745207944441 .089 0 0 1 1 0 0 .0
0255 16 207 369 0 ?215 204 210 211 0 0 1 31 214 426 0 216 217 211 0 +0 -.0695 .0
85 0 0 1 1 0 0 .00255 16 216 404 0 ?218 213 0 214 0 0 1 31 217 427 0 213 0 214 0
 +0 -.0695 .089 0 0 1 1 0 0 .00255 16 213 407 0 ?219 210 216 217 0 0 1 17 219 0
 220 219 219 0 221 213 0 0 +15 220 413 0 219 222 223 17 221 0 224 221 221 0 219
 213 0 0 -15 224 398 0 221 16 0 14 255 16 401 225 ?169 0 226 5 227 +0 0 169 0 23
 81 1 225 580 228 16 229 0 0 230 231 14 169 395 230 ?18 16 166 5 232 -0 0 18 16
 23 15 226 360 0 233 16 234 50 255 227 2 0 16 235 232 0 +-.0785286385602361 -.03
175167171056445 .089 0 0 1 1 0 0 13 23 65 0 0 0 0 0 0 9 16 51 235 271 0 236 237
 227 0 -.0629330708661418 -.0294903135174447 .089 0 0 -1 .00255 -1 0 0 50 232 14
3 0 169 227 238 0 +-.0785286385602361 -.03175167171056445 .085 0 0 1 1 0 0 51 23
8 194 0 239 232 240 0 +0 0 .089 0 0 -1 .0515 -1 0 0 14 239 175 241 ?236 119 72 5
 238 -0 0 236 119 23 51 240 195 0 119 238 242 0 -.0629330708661415 -.05669518781
95749 .089 0 0 -1 .03320487430213015 -1 0 0 14 119 177 243 ?239 113 64 5 240 -0
 0 239 113 23 51 242 196 0 113 240 244 0 -.0629330708661418 -.0294903135174447 .
089 0 0 -1 .006 -1 0 0 14 113 179 245 ?119 246 109 5 242 -0 0 119 246 23 50 244
 197 0 246 242 247 0 +.071879013250047 -.106822248395048 .089 -.999277314361603
 -.03801116944086445 0 .03801116944086445 -.999277314361603 0 14 246 181 248 ?11
3 249 250 5 244 -0 0 113 249 23 51 247 198 0 249 244 251 0 -.0658833493638774 -.
1070503154116932 .089 0 0 -1 .006 -1 0 0 14 249 183 252 ?246 179 253 5 247 -0 0
 246 179 23 50 251 199 0 179 247 254 0 +-.0692240235522653 -.1130503154116932 .0
89 -20543346389287e-29 1 0 -1 -20543346389287e-29 0 14 179 185 255 ?249 175 178
 5 251 -0 0 249 175 23 51 254 200 0 175 251 256 0 --.0692240235522653 -.10705031
54116932 .089 0 0 -1 .006 -1 0 0 14 175 187 257 ?179 163 173 5 254 -0 0 179 163
 23 50 256 201 0 163 254 19 0 +-.0752240235522653 -.00618745207944441 .089 1 275
181317470636e-30 0 -275181317470636e-30 1 0 14 163 189 258 ?175 259 160 5 256 -0
 0 175 259 23 51 19 202 0 259 256 6 0 --.0692240235522653 -.00618745207944441 .0
89 0 0 -1 .006 -1 0 0 14 259 191 260 ?163 18 79 5 19 -0 0 163 18 23 81 1 260 590
 228 259 261 0 258 262 263 14 18 193 262 ?259 169 264 5 6 -0 0 259 169 23 15 79
 190 0 44 259 0 17 44 0 79 80 24 42 41 128 0 159 +17 24 0 79 44 76 39 265 10 0 1
27 +17 265 0 264 266 127 71 24 10 0 0 -17 127 0 264 265 75 39 168 125 0 0 +15 26
4 192 0 127 18 0 17 75 0 264 127 266 21 34 121 0 168 +17 168 0 166 73 41 21 127
 125 0 0 -17 73 0 166 67 168 62 70 74 0 0 -17 67 0 166 114 73 60 63 68 0 0 -17 1
14 0 166 267 67 57 61 115 0 0 -17 267 0 166 172 114 54 59 139 0 0 -17 172 0 166
 171 267 51 56 137 0 0 -17 59 0 250 108 150 57 267 139 0 110 +15 250 180 0 59 24
6 0 17 108 0 250 106 59 97 110 116 0 100 -17 150 0 250 59 106 54 268 148 0 267 +
17 110 0 109 61 100 57 108 116 0 114 +17 106 0 250 150 108 94 98 107 0 0 -17 268
 0 253 182 56 94 150 148 0 106 -15 253 182 0 56 249 0 17 182 0 253 153 268 91 96
 183 0 0 -17 56 0 253 268 153 54 172 137 0 150 +17 153 0 253 56 182 51 180 151 0
 172 +17 96 0 29 98 93 94 182 183 0 268 +17 266 0 264 75 265 11 30 144 0 0 -17 3
4 0 72 32 70 11 75 121 0 266 -15 72 174 0 70 239 0 17 32 0 72 69 34 27 26 33 0 0
 -17 69 0 72 70 32 62 65 117 0 73 +17 30 0 29 81 26 71 266 144 0 265 +17 81 0 29
 87 30 77 76 82 0 80 +17 87 0 29 90 81 83 161 165 0 164 +17 90 0 29 93 87 88 176
 184 0 174 +17 164 0 160 161 47 83 158 157 0 176 -17 176 0 173 158 174 83 90 184
 0 0 -81 1 262 591 228 18 269 0 260 270 271 80 255 1 228 272 273 9000 1 1 1 1 1
 1 1 1 0 FFFFTFTFFFFFFF1 81 1 269 528 274 18 0 262 275 261 276 81 1 270 592 228
 236 277 0 262 278 279 82 255 1 271 676594073 14 236 258 270 ?280 239 281 5 235
 +0 0 280 239 23 81 1 277 538 274 236 0 270 282 283 284 81 1 278 593 228 280 283
 0 270 285 286 82 1 279 683016601 14 280 296 278 ?287 236 288 5 237 +0 0 287 236
 23 81 1 283 539 274 280 0 278 277 289 290 81 1 285 594 228 287 289 0 278 291 29
2 82 1 286 687079833 14 287 334 285 ?293 280 294 5 295 +0 0 293 280 23 81 1 289
 540 274 287 0 285 283 296 297 81 1 291 595 228 293 296 0 285 298 299 82 1 292 6
91143065 14 293 372 291 ?222 287 300 5 301 +0 0 222 287 23 81 1 296 541 274 293
 0 291 289 302 303 81 1 298 596 228 222 302 0 291 0 304 82 1 299 695206297 14 22
2 410 298 ?0 293 220 5 305 +0 0 0 293 23 81 1 302 542 274 222 0 298 296 0 306 82
 1 304 699269529 80 1 274 0 307 8001 0 0 0 0 3 5 0 0 0 FFFFTFTFFFFFFF2 83 255 3
 306 0 0 0 79 255 15 307 SDL/TYSA_COLOUR51 305 423 0 222 0 301 0 -0 -.0695 .089
 0 0 -1 .00255 -1 0 0 51 301 385 0 293 305 295 0 --.0692240235522653 -.006187452
07944441 .089 0 0 -1 .00255 -1 0 0 51 295 347 0 287 301 237 0 --.069224023552265
3 -.1070503154116932 .089 0 0 -1 .00255 -1 0 0 51 237 309 0 280 295 235 0 -.0658
833493638774 -.1070503154116932 .089 0 0 -1 .002549999999999965 -1 0 0 83 3 303
 0 0 0 15 300 375 0 215 293 308 17 215 0 300 215 215 0 233 207 0 0 +15 308 376 0
 309 293 0 17 309 0 308 309 309 0 212 210 0 0 -17 212 0 310 212 212 0 309 210 0
 0 +15 310 355 0 212 169 311 15 311 393 0 218 169 0 17 218 0 311 218 218 0 312 2
16 0 0 +17 312 0 223 312 312 0 218 216 0 0 -15 223 414 0 312 222 0 17 233 0 226
 233 233 0 215 207 0 0 -83 3 297 0 0 0 15 294 337 0 209 287 313 17 209 0 294 209
 209 0 314 201 0 0 +15 313 338 0 315 287 0 17 315 0 313 315 315 0 206 204 0 0 -1
7 206 0 316 206 206 0 315 204 0 0 +15 316 317 0 206 169 310 17 314 0 317 314 314
 0 209 201 0 0 -15 317 322 0 314 16 224 83 3 290 0 0 0 15 288 299 0 203 280 318
 17 203 0 288 203 203 0 319 195 0 0 +15 318 300 0 320 280 0 17 320 0 318 320 320
 0 200 198 0 0 -17 200 0 321 200 200 0 320 198 0 0 +15 321 279 0 200 169 316 17
 319 0 234 319 319 0 203 195 0 0 -15 234 284 0 319 16 29 81 1 282 537 274 239 0
 241 322 277 323 83 3 284 0 0 0 81 1 241 582 228 239 282 0 230 243 324 81 1 322
 536 274 119 0 243 325 282 326 83 3 323 0 0 0 81 1 243 583 228 119 322 0 241 245
 327 81 1 325 535 274 113 0 245 328 322 329 83 3 326 0 0 0 81 1 245 584 228 113
 325 0 243 248 330 81 1 328 534 274 246 0 248 331 325 332 83 3 329 0 0 0 81 1 24
8 585 228 246 328 0 245 252 333 81 1 331 533 274 249 0 252 334 328 335 83 3 332
 0 0 0 81 1 252 586 228 249 331 0 248 255 336 81 1 334 532 274 179 0 255 337 331
 338 83 3 335 0 0 0 81 1 255 587 228 179 334 0 252 257 339 81 1 337 531 274 175
 0 257 340 334 341 83 3 338 0 0 0 81 1 257 588 228 175 337 0 255 258 342 81 1 34
0 530 274 163 0 258 261 337 343 83 3 341 0 0 0 81 1 258 589 228 163 340 0 257 26
0 344 81 1 261 529 274 259 0 260 269 340 345 83 3 343 0 0 0 83 3 345 0 0 0 82 1
 344 676069785 82 1 342 675807641 82 1 339 675545497 82 1 336 675283353 82 1 333
 675021209 82 1 330 674759065 82 1 327 674496921 81 1 230 581 228 169 275 0 225
 241 346 82 1 324 674234777 81 1 275 527 274 169 0 230 229 269 347 82 1 346 7062
16345 81 1 229 526 274 16 0 225 0 275 348 83 3 347 0 0 0 83 3 348 0 0 0 15 281 2
61 0 197 236 349 17 197 0 281 197 197 0 350 129 0 0 +15 349 262 0 351 236 0 17 3
51 0 349 351 351 0 194 192 0 0 -17 194 0 170 194 194 0 351 192 0 0 +15 170 241 0
 194 169 321 17 350 0 103 350 350 0 197 129 0 0 -15 103 246 0 350 16 317 83 3 27
6 0 0 0 79 14 273 SWEntUnchanged82 1 263 676331929 82 1 231 706740633 19 17 215
 0 1 0 9 5 S0 74 4 CI16 index_map_offset0 0 1 dCCZ20 15 9 0 0 352 353 298 354 35
5 356 302 13 2 0 0 0 0 0 0 0 0 0 0 0 81 2 352 238 357 1 0 353 0 0 0 358 81 2 353
 483 359 1 352 354 0 0 0 360 81 1 354 501 361 1 353 355 0 0 362 81 2 355 520 363
 1 354 356 0 0 0 364 81 2 356 523 365 1 355 13 0 0 0 0 81 2 13 578 366 1 356 2 0
 0 367 0 80 2 366 368 369 8004 0 0 0 0 3 5 0 0 0 FFTFFFFFFFFFFF2 3 83 1 367 1070
 79 16 369 SDL/TYSA_DENSITY80 2 365 370 371 9000 0 0 0 0 3 5 0 0 0 FFTFFFFFFFFFF
F9 1 79 16 371 BODY_RECIPE_200180 2 363 372 373 9000 0 0 0 0 3 5 0 0 0 FFTFFFFFF
FFFFF9 1 82 1 364 1 79 24 373 BODY_IN_LIGHTWEIGHT_PERM80 1 361 374 375 9000 1 1
 1 1 1 1 1 1 0 FFTFFFFFFFFFFF1 82 1 362 2697036 79 10 375 BODY_MATCH80 2 359 376
 377 9000 0 0 0 0 3 5 0 0 0 FFTFFFFFFFFFFF9 1 82 1 360 79 79 30 377 LAST_BODY_MO
DIFYING_FEATURE_ID80 2 357 378 379 9000 0 0 0 0 3 5 0 0 0 FFTFFFFFFFFFFT9 1 82 1
 358 126 79 19 379 ENT_TIME_STAMP_200180 2 12 380 381 9000 0 0 0 0 3 5 0 0 0 FFT
FFFFFFFFFFF9 1 82 1 14 101 79 12 381 ATOM_ID_20011 0 
