**ABCDEFGHIJKLMNOPQRSTUVWXYZabcdefghijklmnopqrstuvwxyz**************************
**PARASOLID !"#$%&'()*+,-./:;<=>?@[\]^_`{|}~0123456789**************************
**PART1;
MC=AMD64;
MC_MODEL=Intel64 Family 6 Model 58 Stepping 9, GenuineIntel;
MC_ID=unknown;
OS=Windows_NT;
OS_RELEASE=unknown;
FRU=Parasolid Version 31.0, build 264, 12-10-2018;
APPL=SOLIDWORKS 2019-2019057;
SITE=;
USER=unknown;
FORMAT=text;
GUISE=transmit;
KEY=1690-20-8342;
FILE=1690-20-8342.x_t;
DATE=Sun Apr  5 22:58:31 2020;
**PART2;
SCH=SCH_3100264_31001;
USFLD_SIZE=0;
**PART3;
**END_OF_HEADER*****************************************************************
T51 : TRANSMIT FILE created by modeller version 310026423 SCH_3100264_31001_1300
6215 0 12 34 CCCCCCI4 mesh1006 0 I8 polyline1008 0 CCCCCCCDI5 owner1040 0 CCCCCC
I13 boundary_mesh1006 0 I17 boundary_polyline1008 0 CCCA16 index_map_offset0 0 1
 dA9 index_map82 0 A17 node_id_index_map82 0 A20 schema_embedding_map82 0 A5 chi
ld12 0 A14 lowest_node_id0 0 1 dA16 mesh_offset_data206 0 Z1 1367 2 3 0 0 0 0 0
 0 1e3 1e-8 0 4 0 1 0 1 1 5 6 7 8 0 0 9 10 11 0 0 0 0 0 0 0 81 255 2 2 1335 12 1
 13 0 0 0 0 14 70 11 CI9 list_type0 0 1 uI10 notransmit0 0 1 lCCCDCCDI12 finger_
index0 0 1 dI12 finger_block1012 0 CZ3 0 4 T1 0 0 9 20 1 15 15 13 255 5 29 0 1 0
 16 0 0 17 0 54 255 6 1014 0 18 19 0 0 +0 0 -.011 0 0 -1 .0095 .001 -1 0 0 31 25
5 7 982 0 10 20 0 0 +0 0 -.012 0 0 -1 -1 0 0 .0095 29 255 8 706 0 11 21 0 -.0027
5277674973257 .0065 .0045 19 8 CCCCCCCA5 owner12 0 Z9 7 0 1 17 0 22 V0 16 255 10
 979 0 ?23 0 24 7 0 0 1 18 255 11 704 0 25 0 26 8 ?1 17 255 25 0 27 28 29 11 30
 31 0 32 +18 26 696 0 33 11 34 21 ?1 17 33 0 35 36 32 26 37 38 0 39 +18 34 688 0
 40 26 41 42 ?1 29 21 698 0 26 42 8 -.00425277674973257 .00563397459621556 .0045
 29 42 690 0 34 43 21 -.00700555349946513 .000866025403784436 .0045 29 43 682 0
 41 44 42 -.00700555349946513 -.000866025403784446 .0045 18 41 680 0 45 34 46 43
 ?1 29 44 674 0 46 47 43 -.004252776749732565 -.00563397459621556 .0045 18 46 67
2 0 48 41 49 44 ?1 29 47 666 0 49 50 44 -.00275277674973256 -.0065 .0045 18 49 6
64 0 51 46 52 47 ?1 29 50 658 0 52 53 47 .002752776749732565 -.0065 .0045 18 52
 656 0 54 49 55 50 ?1 29 53 650 0 55 56 50 .00425277674973257 -.0056339745962155
6 .0045 18 55 648 0 57 52 58 53 ?1 29 56 642 0 58 59 53 .00700555349946513 -.000
866025403784438 .0045 18 58 640 0 60 55 61 56 ?1 29 59 634 0 61 62 56 .007005553
49946513 .000866025403784443 .0045 18 61 632 0 63 58 64 59 ?1 29 62 625 0 64 65
 59 .00570552384361939 .00611774281905556 .006 18 64 623 0 66 61 67 62 ?1 29 65
 621 0 67 68 62 .00815088261693164 .00188225718094445 .006 18 67 619 0 69 64 70
 65 ?1 29 68 617 0 70 71 65 .00815088261693164 -.00188225718094445 .006 18 70 61
5 0 72 67 73 68 ?1 29 71 613 0 73 74 68 .0057055238436194 -.00611774281905556 .0
06 18 73 611 0 75 70 76 71 ?1 29 74 609 0 76 77 71 .002445358773312245 -.008 .00
6 18 76 607 0 78 73 79 74 ?1 29 77 605 0 79 80 74 -.00244535877331224 -.008 .006
 18 79 603 0 81 76 82 77 ?1 29 80 601 0 82 83 77 -.00570552384361939 -.006117742
81905556 .006 18 82 599 0 84 79 85 80 ?1 29 83 597 0 85 86 80 -.0081508826169316
3 -.001882257180944455 .006 18 85 595 0 87 82 88 83 ?1 29 86 593 0 88 89 83 -.00
815088261693164 .001882257180944445 .006 18 88 591 0 90 85 91 86 ?1 29 89 589 0
 91 92 86 -.00570552384361939 .00611774281905556 .006 18 91 587 0 93 88 94 89 ?1
 29 92 585 0 94 95 89 .002445358773312245 .008 .006 18 94 583 0 96 91 97 92 ?1 2
9 95 582 0 97 98 92 -.002445358773312255 .008 .006 18 97 580 0 99 94 100 95 ?1 2
9 98 574 0 100 101 95 .002752776749732565 .0065 .0045 18 100 572 0 102 97 103 98
 ?1 29 101 571 0 103 104 98 .004252776749732565 .00563397459621556 .0045 18 103
 569 0 105 100 106 101 ?1 29 104 356 0 106 107 101 .002752776749732565 .0065 0 1
8 106 235 0 108 103 109 104 ?1 29 107 357 0 109 110 104 .004252776749732565 .005
63397459621556 0 18 109 234 0 111 106 112 107 ?1 29 110 358 0 112 113 107 .00700
555349946513 .000866025403784443 0 18 112 233 0 114 109 115 110 ?1 29 113 359 0
 115 116 110 .00700555349946513 -.000866025403784438 0 18 115 232 0 117 112 118
 113 ?1 29 116 360 0 118 119 113 .00425277674973257 -.00563397459621556 0 18 118
 231 0 120 115 121 116 ?1 29 119 361 0 121 122 116 .002752776749732565 -.0065 0
 18 121 230 0 123 118 124 119 ?1 29 122 362 0 124 125 119 -.00275277674973256 -.
0065 0 18 124 229 0 126 121 127 122 ?1 29 125 363 0 127 128 122 -.00425277674973
2565 -.00563397459621556 0 18 127 228 0 129 124 130 125 ?1 29 128 364 0 130 131
 125 -.00700555349946513 -.000866025403784446 0 18 130 227 0 132 127 133 128 ?1
 29 131 365 0 133 134 128 -.00700555349946513 .000866025403784436 0 18 133 225 0
 135 130 136 131 ?1 29 134 366 0 136 137 131 -.00425277674973257 .00563397459621
556 0 18 136 248 0 36 133 138 134 ?1 29 137 525 0 138 0 134 -.00275277674973257
 .0065 0 18 138 482 0 28 136 0 137 ?1 17 28 0 27 139 25 138 32 140 0 141 +15 255
 27 296 0 29 142 0 17 139 0 27 29 28 106 143 144 0 145 -17 32 0 35 33 141 11 28
 140 0 37 -16 140 705 0 ?28 146 144 147 0 0 1 17 141 0 35 32 36 138 148 149 0 14
3 -15 35 252 0 32 150 0 17 36 0 35 141 33 136 39 151 0 152 +17 148 0 153 154 143
 136 141 149 0 0 +16 149 141 0 ?148 155 156 157 0 0 1 17 143 0 153 148 145 138 1
39 144 0 0 +15 153 486 0 143 158 0 17 145 0 153 143 159 106 160 161 0 0 +16 144
 185 0 ?143 140 161 162 0 0 1 16 161 181 0 ?145 144 163 164 0 0 1 30 255 162 331
 0 144 164 147 0 +-.00275277674973257 .0065 0 -1 1575430586720605e-31 0 31 164 3
32 0 161 165 162 0 +.003252776749732565 .00563397459621556 0 0 0 1 -1 0 0 .001 3
0 147 330 0 140 162 166 0 +-.00275277674973257 .0065 .006 0 0 -1 30 166 329 0 14
6 147 167 0 +.002752776749732565 .0065 .006 0 0 -1 16 146 573 0 ?108 168 140 166
 0 0 1 30 167 328 0 168 166 169 0 +.004252776749732565 .00563397459621556 .006 0
 0 -1 16 168 570 0 ?111 170 146 167 0 0 1 30 169 327 0 170 167 171 0 +.007005553
49946513 .000866025403784443 .006 0 0 -1 16 170 633 0 ?114 172 168 169 0 0 1 30
 171 326 0 172 169 173 0 +.00700555349946513 -.000866025403784438 .006 0 0 -1 16
 172 641 0 ?117 174 170 171 0 0 1 30 173 325 0 174 171 175 0 +.00425277674973257
 -.00563397459621556 .006 0 0 -1 16 174 649 0 ?120 176 172 173 0 0 1 30 175 324
 0 176 173 177 0 +.002752776749732565 -.0065 .006 0 0 -1 16 176 657 0 ?123 178 1
74 175 0 0 1 30 177 323 0 178 175 179 0 +-.00275277674973256 -.0065 .006 0 0 -1
 16 178 665 0 ?126 180 176 177 0 0 1 30 179 322 0 180 177 181 0 +-.0042527767497
32565 -.00563397459621556 .006 0 0 -1 16 180 673 0 ?129 182 178 179 0 0 1 30 181
 321 0 182 179 183 0 +-.00700555349946513 -.000866025403784446 .006 0 0 -1 16 18
2 681 0 ?132 184 180 181 0 0 1 30 183 320 0 184 181 185 0 +-.00700555349946513 .
000866025403784436 .006 0 0 -1 16 184 689 0 ?135 151 182 183 0 0 1 30 185 319 0
 151 183 186 0 +-.00425277674973257 .00563397459621556 .006 0 0 -1 16 151 697 0
 ?36 187 184 185 0 0 1 31 186 577 0 187 185 188 0 +.003252776749732565 .00563397
459621556 .0045 0 0 1 1 0 0 .001 16 187 575 0 ?189 190 151 186 0 0 1 30 188 586
 0 190 186 191 0 +1260344469376486e-33 .008 .006 1 -1575430586720605e-31 0 16 19
0 584 0 ?96 192 187 188 0 0 1 31 191 590 0 192 188 193 0 --.00325277674973257 .0
0563397459621556 .006 0 0 1 1 0 0 .0025 16 192 588 0 ?99 194 190 191 0 0 1 30 19
3 594 0 194 191 195 0 +-.00692820323027552 .004 .006 .5 .866025403784439 0 16 19
4 592 0 ?93 196 192 193 0 0 1 31 195 598 0 196 193 197 0 --.00650555349946513 -4
176598806387205e-33 .006 0 0 1 1 0 0 .0025 16 196 596 0 ?90 198 194 195 0 0 1 30
 197 602 0 198 195 199 0 +-.00692820323027552 -.004 .006 -.5 .866025403784439 0
 16 198 600 0 ?87 200 196 197 0 0 1 31 199 606 0 200 197 201 0 --.00325277674973
2565 -.00563397459621556 .006 0 0 1 1 0 0 .0025 16 200 604 0 ?84 202 198 199 0 0
 1 30 201 610 0 202 199 203 0 +378103340812946e-32 -.008 .006 -1 -47262917601618
2e-30 0 16 202 608 0 ?81 204 200 201 0 0 1 31 203 614 0 204 201 205 0 -.00325277
674973257 -.00563397459621556 .006 0 0 1 1 0 0 .0025 16 204 612 0 ?78 206 202 20
3 0 0 1 30 205 618 0 206 203 207 0 +.00692820323027552 -.004 .006 -.5 -.86602540
3784439 0 16 206 616 0 ?75 208 204 205 0 0 1 31 207 622 0 208 205 209 0 -.006505
55349946514 135659221881966e-32 .006 0 0 1 1 0 0 .0025 16 208 620 0 ?72 210 206
 207 0 0 1 30 209 626 0 210 207 211 0 +.00692820323027551 .004 .006 .5 -.8660254
03784439 0 16 210 624 0 ?69 212 208 209 0 0 1 31 211 629 0 212 209 213 0 -.00325
2776749732565 .00563397459621556 .006 0 0 1 1 0 0 .0025 16 212 627 0 ?214 215 21
0 211 0 0 1 30 213 637 0 215 211 216 0 +.004252776749732565 .00563397459621556 .
0045 -.5 .866025403784439 0 16 215 635 0 ?105 217 212 213 0 0 1 31 216 645 0 217
 213 218 0 +.00650555349946514 135659221881966e-32 .0045 0 0 1 1 0 0 .001 16 217
 643 0 ?63 219 215 216 0 0 1 30 218 653 0 219 216 220 0 +.00700555349946513 -.00
0866025403784438 .0045 .5 .866025403784439 0 16 219 651 0 ?60 221 217 218 0 0 1
 31 220 661 0 221 218 222 0 +.00325277674973257 -.00563397459621556 .0045 0 0 1
 1 0 0 .001 16 221 659 0 ?57 223 219 220 0 0 1 30 222 669 0 223 220 224 0 +.0027
52776749732565 -.0065 .0045 1 472629176016182e-30 0 16 223 667 0 ?54 225 221 222
 0 0 1 31 224 677 0 225 222 226 0 +-.003252776749732565 -.00563397459621556 .004
5 0 0 1 1 0 0 .001 16 225 675 0 ?51 227 223 224 0 0 1 30 226 685 0 227 224 228 0
 +-.004252776749732565 -.00563397459621556 .0045 .5 -.866025403784439 0 16 227 6
83 0 ?48 229 225 226 0 0 1 31 228 693 0 229 226 230 0 +-.00650555349946513 -4176
598806387205e-33 .0045 0 0 1 1 0 0 .001 16 229 691 0 ?45 231 227 228 0 0 1 30 23
0 701 0 231 228 232 0 +-.00700555349946513 .000866025403784436 .0045 -.5 -.86602
5403784439 0 16 231 699 0 ?40 38 229 230 0 0 1 31 232 709 0 38 230 233 0 +-.0032
5277674973257 .00563397459621556 .0045 0 0 1 1 0 0 .001 16 38 707 0 ?33 31 231 2
32 0 0 1 30 233 714 0 31 232 234 0 +-.00275277674973257 .0065 .0045 -1 157543058
6720605e-31 0 16 31 712 0 ?25 235 38 233 0 0 1 31 234 720 0 235 233 236 0 +0 0 -
.0105 0 0 -1 -1 0 0 .00295 16 235 717 0 ?237 238 31 234 0 0 1 31 236 726 0 238 2
34 239 0 -0 0 -.012 0 0 -1 -1 0 0 .00445 16 238 723 0 ?240 241 235 236 0 0 1 38
 12 CCCCCCCCCCCA17 intersection_data204 0 Z239 862 0 242 236 243 0 -244 245 246
 247 248 249 16 242 814 0 ?102 250 0 239 0 0 1 38 243 861 0 250 239 251 0 -252 2
45 253 254 255 256 50 255 244 850 0 257 258 245 259 --.00275277674973257 .0065 .
0045 1113997651158838e-31 .707106781186546 -.707106781186549 -1 1575430586720605
e-31 0 52 255 245 849 0 260 244 252 261 -.003252776749732565 .00563397459621556
 .0045 0 0 1 .001 .707106781186549 .707106781186546 1 0 0 40 255 3 246 0 1 3 336
4209523811095e-20 .0498308816888423 ??.002752776749732565 .0065 .0045 .002567734
539611615 .00731837466147115 .00531837466147115 .002445358773312245 .008 .006 41
 3 CI8 term_use0 0 1 cCZ1 247 L?.002752776749732565 .0065 .0045 41 1 248 L?.0024
45358773312245 .008 .006 204 2 17 INTERSECTION_DATA17 Intersection data7 uv_type
0 0 1 u6 values0 1 1 fT12 249 4 -.00550555349946513 -613317366673351e-33 2.09439
51023932 -2168404344971e-31 -.00532051128934418 .001157356545354992 1.9570635094
4748 .000818374661471179 -.00519813552304481 .00212132034355965 1.89965934955718
 .0015 14 255 260 775 262 ?263 257 264 5 245 +0 0 263 257 22 50 252 848 0 265 24
5 266 267 -.004252776749732565 .00563397459621556 .0045 .612372435695793 .353553
390593273 -.707106781186549 -.5 .866025403784439 0 141 255 261 239 268 268 245 1
41 268 243 261 261 245 14 265 771 269 ?257 270 271 5 252 +0 0 257 270 22 52 266
 847 0 270 252 272 273 --.00325277674973257 .00563397459621556 .0045 0 0 1 .001
 .707106781186549 .707106781186546 1 0 0 141 267 243 274 274 252 141 274 275 267
 267 252 38 275 859 0 276 251 277 0 -272 252 278 279 280 281 16 276 806 0 ?282 2
83 284 275 0 0 1 38 251 860 0 284 243 275 0 +244 266 285 286 287 288 38 277 858
 0 283 275 289 0 +266 290 291 292 293 294 52 272 846 0 295 266 290 296 -.0065055
5349946514 135659221881966e-32 .0045 0 0 1 .001 .707106781186549 .70710678118654
6 1 0 0 40 2 278 0 1 2 928538554608302e-19 .0704531037983115 ??.0081508826169316
4 .00188225718094445 .006 .00700555349945624 .000866025403797269 .00449999999999
871 41 1 279 L?.00815088261693164 .00188225718094445 .006 41 1 280 L?.0070055534
9945624 .000866025403797269 .00449999999999871 204 8 281 4 .852461798360585 .001
5 -.00519813552304481 .00212132034355965 1.047197551210718 666025394557842e-29 -
.00550555349944958 -182612778820941e-29 14 295 767 297 ?270 298 299 5 272 +0 0 2
70 298 22 50 290 845 0 298 272 300 301 --.00700555349946513 .000866025403784436
 .0045 -.612372435695793 .3535533905932725 -.707106781186549 -.5 -.8660254037844
39 0 141 296 275 302 302 272 141 302 289 296 296 272 38 289 857 0 303 277 304 0
 -300 272 305 306 307 308 16 303 800 0 ?309 310 283 289 0 0 1 38 304 856 0 310 2
89 311 0 +290 312 313 314 315 316 50 300 844 0 317 290 312 318 -.007005553499465
13 -.000866025403784438 .0045 .612372435695793 -.353553390593273 -.7071067811865
49 .5 .866025403784439 0 40 2 305 0 1 2 928538554608293e-19 .0704531037983103 ??
.00815088261693164 -.00188225718094445 .006 .00700555349945624 -.000866025403797
267 .00449999999999871 41 1 306 L?.00815088261693164 -.00188225718094445 .006 41
 1 307 L?.00700555349945624 -.000866025403797267 .00449999999999871 204 8 308 4
 -.0003074179764203265 .00212132034355965 5.430723508819 .0015 -155581628149221e
-28 -182500866323841e-29 5.23598775596887 666112130731641e-29 14 317 763 319 ?29
8 320 321 5 300 +0 0 298 320 22 52 312 843 0 320 300 322 323 --.0065055534994651
3 -4176598806387205e-33 .0045 0 0 1 .001 .707106781186549 .707106781186546 1 0 0
 141 318 289 324 324 300 141 324 311 318 318 300 38 311 855 0 325 304 326 0 -322
 300 327 328 329 330 16 325 794 0 ?331 332 310 311 0 0 1 38 326 854 0 332 311 33
3 0 +312 334 335 336 337 338 52 322 842 0 339 312 334 340 -.00325277674973257 -.
00563397459621556 .0045 0 0 1 .001 .707106781186549 .707106781186546 1 0 0 40 2
 327 0 1 2 928538554608298e-19 .0704531037983107 ??.0057055238436194 -.006117742
81905556 .006 .00425277674973923 -.00563397459620144 .00449999999999871 41 1 328
 L?.0057055238436194 -.00611774281905556 .006 41 1 329 L?.00425277674973923 -.00
563397459620144 .00449999999999871 204 8 330 4 6.08844955434358 .0015 -.00519813
552304481 .00212132034355965 1412064909435714e-26 666090446688191e-29 -.00550555
349944957 -182594815171173e-29 14 339 759 341 ?320 342 343 5 322 +0 0 320 342 22
 50 334 841 0 342 322 344 345 --.004252776749732565 -.00563397459621556 .0045 -.
612372435695793 -.353553390593273 -.707106781186549 .5 -.866025403784439 0 141 3
40 311 346 346 322 141 346 333 340 340 322 38 333 853 0 347 326 348 0 -344 322 3
49 350 351 352 16 347 788 0 ?353 354 332 333 0 0 1 38 348 852 0 354 333 355 0 +3
34 356 357 358 359 360 50 344 840 0 361 334 356 362 -.002752776749732565 -.0065
 .0045 334199295347652e-30 -.707106781186546 -.707106781186549 1 472629176016182
e-30 0 40 2 349 0 1 2 928538554608335e-19 .070453103798313 ??.002445358773312245
 -.008 .006 .00275277674971701 -.00649999999999871 .00449999999999871 41 1 350 L
?.002445358773312245 -.008 .006 41 1 351 L?.00275277674971701 -.0064999999999987
1 .00449999999999871 204 8 352 4 -.000307417976420323 .00212132034355965 4.38352
5957622405 .0015 -1555960221777395e-29 -182645911795324e-29 4.18879020477227 666
003710514393e-29 14 361 755 363 ?342 364 365 5 344 +0 0 342 364 22 52 356 839 0
 364 344 366 367 --.003252776749732565 -.00563397459621556 .0045 0 0 1 .001 .707
106781186549 .707106781186546 1 0 0 141 362 333 368 368 344 141 368 355 362 362
 344 38 355 851 0 369 348 370 0 -356 344 371 372 373 374 16 369 782 0 ?375 156 3
54 355 0 0 1 31 370 962 0 241 355 376 0 +0 0 .006 0 0 1 1 0 0 .0095 40 2 371 0 1
 2 928538554608332e-19 .0704531037983124 ??-.00244535877331224 -.008 .006 -.0027
52776749717005 -.00649999999999871 .00449999999999871 41 1 372 L?-.0024453587733
1224 -.008 .006 41 1 373 L?-.002752776749717005 -.00649999999999871 .00449999999
999871 204 8 374 4 5.04125200314697 .0015 -.00519813552304481 .00212132034355965
 5.23598775599711 666025394557842e-29 -.00550555349944957 -182645911795323e-29 1
6 241 959 0 ?377 378 238 370 0 0 1 31 376 968 0 378 370 20 0 -0 0 -.011 0 0 -1 -
1 0 0 .0105 16 378 965 0 ?379 24 241 376 0 0 1 31 20 975 0 24 376 7 0 -0 0 .005
 0 0 1 1 0 0 .0105 16 24 972 0 ?380 10 378 20 0 0 1 17 380 0 381 380 380 0 382 2
4 0 0 +15 381 973 0 380 383 384 17 382 0 385 382 382 0 380 24 0 0 -15 385 995 0
 382 386 387 14 386 994 388 ?18 263 385 5 19 +0 0 18 263 22 15 387 996 0 389 386
 0 17 389 0 387 389 389 0 377 241 0 0 -17 377 0 390 377 377 0 389 241 0 0 +15 39
0 960 0 377 16 391 14 16 138 392 ?383 0 390 5 393 +0 0 383 0 22 15 391 581 0 96
 16 0 17 96 0 391 214 99 94 394 190 0 395 +17 214 0 391 69 96 64 395 212 0 0 +17
 99 0 391 96 93 97 396 192 0 397 +17 394 0 398 399 400 97 96 190 0 0 -17 395 0 2
64 102 66 94 214 212 0 400 -15 264 776 0 66 260 0 17 102 0 264 401 395 100 400 2
42 0 30 +17 66 0 264 395 401 64 402 250 0 403 +17 400 0 398 394 30 94 102 242 0
 0 -15 398 774 0 399 257 0 17 30 0 398 400 399 100 25 31 0 189 -17 399 0 398 30
 394 11 397 284 0 0 +17 189 0 404 108 405 100 401 187 0 29 +15 404 292 0 405 406
 0 17 108 0 404 160 189 106 29 146 0 139 +17 405 0 404 189 160 103 111 168 0 402
 -17 401 0 264 66 102 103 189 187 0 0 -17 29 0 27 25 139 100 108 146 0 0 -17 160
 0 404 405 108 109 145 161 0 159 -17 111 0 407 408 105 109 405 168 0 160 +17 402
 0 271 409 403 103 66 250 0 401 -15 271 772 0 282 265 0 17 409 0 271 282 402 61
 105 215 0 0 -17 403 0 271 402 282 64 69 210 0 214 -16 250 812 0 ?66 284 242 243
 0 0 1 16 284 809 0 ?399 276 250 251 0 0 1 17 282 0 271 403 409 67 410 276 0 0 +
17 69 0 391 72 214 67 403 210 0 411 +17 72 0 391 75 69 70 411 208 0 412 +17 411
 0 299 410 309 67 72 208 0 282 -15 299 768 0 309 295 0 17 410 0 299 413 411 61 2
82 276 0 409 -17 309 0 299 411 413 70 414 303 0 0 +17 413 0 299 309 410 58 63 21
7 0 0 -17 414 0 321 415 412 58 309 303 0 413 -15 321 764 0 331 317 0 17 415 0 32
1 331 414 55 60 219 0 0 -17 412 0 321 414 331 70 75 206 0 309 -17 331 0 321 412
 415 73 416 325 0 0 +17 75 0 391 78 72 73 412 206 0 417 +17 78 0 391 81 75 76 41
7 204 0 418 +17 417 0 343 416 353 73 78 204 0 331 -15 343 760 0 353 339 0 17 416
 0 343 419 417 55 331 325 0 415 -17 353 0 343 417 419 76 420 347 0 0 +17 419 0 3
43 353 416 52 57 221 0 0 -17 420 0 365 421 418 52 353 347 0 419 -15 365 756 0 37
5 361 0 17 421 0 365 375 420 49 54 223 0 0 -17 418 0 365 420 375 76 81 202 0 353
 -17 375 0 365 418 421 79 422 369 0 0 +17 81 0 391 84 78 79 418 202 0 423 +17 84
 0 391 87 81 82 423 200 0 424 +17 423 0 425 422 424 79 84 200 0 375 -15 425 754
 0 424 364 0 17 422 0 425 426 423 49 375 369 0 421 -17 424 0 425 423 426 82 427
 354 0 428 -17 426 0 425 424 422 46 51 225 0 427 -17 427 0 429 430 428 46 424 35
4 0 0 +16 354 785 0 ?427 369 347 348 0 0 1 17 428 0 429 427 431 82 87 198 0 0 -1
5 429 758 0 427 342 0 17 431 0 429 428 430 85 432 332 0 433 -17 87 0 391 90 84 8
5 428 198 0 431 +17 90 0 391 93 87 88 433 196 0 434 +17 93 0 391 99 90 91 435 19
4 0 436 +17 433 0 437 432 434 85 90 196 0 0 -17 434 0 437 433 438 88 439 310 0 4
35 -15 437 762 0 432 320 0 17 438 0 437 434 432 34 45 229 0 439 -17 439 0 440 44
1 435 34 434 310 0 0 +16 310 797 0 ?439 325 303 304 0 0 1 17 435 0 440 439 436 8
8 93 194 0 0 -15 440 766 0 439 298 0 17 436 0 440 435 441 91 442 283 0 396 -17 4
41 0 440 436 439 26 40 231 0 442 -17 442 0 443 37 396 26 436 283 0 0 +16 283 803
 0 ?442 303 276 277 0 0 1 17 396 0 443 442 397 91 99 192 0 0 -15 443 770 0 442 2
70 0 17 397 0 443 396 37 97 399 284 0 394 -17 37 0 443 397 442 11 33 38 0 399 -1
4 270 769 444 ?265 295 443 5 266 +0 0 265 295 22 81 1 444 1344 445 270 446 0 392
 447 448 13 22 8 0 0 0 0 0 0 9 16 80 255 1 445 449 450 9000 1 1 1 1 1 1 1 1 0 FF
FFTFTFFFFFFF1 81 1 446 1262 451 270 0 444 452 453 454 81 1 392 1343 445 16 455 0
 388 444 456 81 1 447 1345 445 257 457 0 444 458 459 82 255 1 448 1625882892 14
 257 773 447 ?260 265 398 5 244 +0 0 260 265 22 81 1 457 1264 451 257 0 447 453
 460 461 81 1 458 1346 445 263 462 0 447 463 464 82 1 459 1623589132 14 263 894
 458 ?386 260 465 5 366 +0 0 386 260 22 81 1 462 1266 451 263 0 458 460 466 467
 81 1 463 1347 445 18 468 0 458 469 470 82 1 464 1635778828 14 18 1007 463 ?0 38
6 471 5 6 +0 0 0 386 22 81 1 468 1268 451 18 0 463 466 0 472 81 1 469 1348 445 2
98 473 0 463 474 475 82 1 470 1660682509 14 298 765 469 ?295 317 440 5 290 +0 0
 295 317 22 81 1 473 1260 451 298 0 469 476 452 477 81 1 474 1349 445 320 478 0
 469 479 480 82 1 475 1628111116 14 320 761 474 ?317 339 437 5 312 +0 0 317 339
 22 81 1 478 1258 451 320 0 474 481 476 482 81 1 479 1350 445 342 483 0 474 484
 485 82 1 480 1630339340 14 342 757 479 ?339 361 429 5 334 +0 0 339 361 22 81 1
 483 1256 451 342 0 479 486 481 487 81 1 484 1351 445 364 488 0 479 489 490 82 1
 485 1632567564 14 364 753 484 ?361 491 425 5 356 +0 0 361 491 22 81 1 488 1254
 451 364 0 484 492 486 493 81 1 489 1352 445 491 492 0 484 494 495 82 1 490 1634
730252 14 491 500 489 ?364 496 497 5 498 +0 0 364 496 22 81 1 492 1253 451 491 0
 489 499 488 500 81 1 494 1353 445 496 499 0 489 501 502 82 1 495 1603404044 14
 496 487 494 ?491 158 503 5 504 +0 0 491 158 22 81 1 499 1252 451 496 0 494 505
 492 506 81 1 501 1354 445 158 505 0 494 507 508 82 1 502 1609761037 14 158 483
 501 ?496 142 509 5 510 -0 0 496 142 22 81 1 505 1251 451 158 0 501 511 499 512
 81 1 507 1355 445 383 513 0 501 514 515 82 1 508 1615003915 14 383 25 507 ?150
 16 381 5 258 -0 0 150 16 22 81 1 513 1238 451 383 0 507 455 516 517 81 1 514 13
56 445 142 511 0 507 518 519 82 1 515 1570767117 14 142 293 514 ?158 406 27 5 52
0 +0 0 158 406 22 81 1 511 1250 451 142 0 514 521 505 522 81 1 518 1357 445 406
 521 0 514 523 524 82 1 519 1560936716 14 406 289 518 ?142 525 404 5 526 +0 0 14
2 525 22 81 1 521 1249 451 406 0 518 527 511 528 81 1 523 1358 445 525 527 0 518
 529 530 82 1 524 1561198860 14 525 285 523 ?406 531 407 5 532 +0 0 406 531 22 8
1 1 527 1248 451 525 0 523 533 521 534 81 1 529 1359 445 531 533 0 523 535 536 8
2 1 530 1561461004 14 531 281 529 ?525 537 538 5 539 +0 0 525 537 22 81 1 533 12
47 451 531 0 529 540 527 541 81 1 535 1360 445 537 540 0 529 542 543 82 1 536 15
61723148 14 537 277 535 ?531 544 545 5 546 +0 0 531 544 22 81 1 540 1246 451 537
 0 535 547 533 548 81 1 542 1361 445 544 547 0 535 549 550 82 1 543 1561985292 1
4 544 273 542 ?537 551 552 5 553 +0 0 537 551 22 81 1 547 1245 451 544 0 542 554
 540 555 81 1 549 1362 445 551 554 0 542 556 557 82 1 550 1562247436 14 551 269
 549 ?544 558 559 5 560 +0 0 544 558 22 81 1 554 1244 451 551 0 549 561 547 562
 81 1 556 1363 445 558 561 0 549 563 564 82 1 557 1562509580 14 558 265 556 ?551
 565 566 5 567 +0 0 551 565 22 81 1 561 1243 451 558 0 556 568 554 569 81 1 563
 1364 445 565 568 0 556 570 571 82 1 564 1562771724 14 565 261 563 ?558 572 573
 5 574 +0 0 558 572 22 81 1 568 1242 451 565 0 563 575 561 576 81 1 570 1365 445
 572 575 0 563 577 578 82 1 571 1563033868 14 572 257 570 ?565 579 580 5 581 +0
 0 565 579 22 81 1 575 1241 451 572 0 570 582 568 583 81 1 577 1366 445 579 582
 0 570 584 585 82 1 578 1563296012 14 579 253 577 ?572 150 586 5 587 +0 0 572 15
0 22 81 1 582 1240 451 579 0 577 516 575 588 81 1 584 1367 445 150 516 0 577 0 5
89 82 1 585 1563558156 14 150 249 584 ?579 383 35 5 590 +0 0 579 383 22 81 1 516
 1239 451 150 0 584 513 582 591 82 1 589 1563820300 80 1 451 0 592 8001 0 0 0 0
 3 5 0 0 0 FFFFTFTFFFFFFF2 83 255 3 591 1 1 1 79 255 15 592 SDL/TYSA_COLOUR51 25
5 590 305 0 150 587 393 0 --.00325277674973257 .00563397459621556 .006 0 0 -1 .0
01 -1 0 0 50 587 306 0 579 581 590 0 +-.00700555349946513 .000866025403784436 .0
06 .866025403784439 -.5 0 .5 .866025403784439 0 50 393 2 0 16 590 258 0 +0 0 .00
6 0 0 1 1 0 0 51 258 28 0 383 393 244 0 -0 0 .006 0 0 -1 .0105 -1 0 0 51 581 307
 0 572 574 587 0 --.00650555349946513 -4176598806387205e-33 .006 0 0 -1 .001 -1
 0 0 50 574 308 0 565 567 581 0 +-.004252776749732565 -.00563397459621556 .006 .
866025403784439 .5 0 -.5 .866025403784439 0 51 567 309 0 558 560 574 0 --.003252
776749732565 -.00563397459621556 .006 0 0 -1 .001 -1 0 0 50 560 310 0 551 553 56
7 0 +.002752776749732565 -.0065 .006 -472629176016182e-30 1 0 -1 -47262917601618
2e-30 0 51 553 311 0 544 546 560 0 -.00325277674973257 -.00563397459621556 .006
 0 0 -1 .001 -1 0 0 50 546 312 0 537 539 553 0 +.00700555349946513 -.00086602540
3784438 .006 -.866025403784439 .5 0 -.5 -.866025403784439 0 51 539 313 0 531 532
 546 0 -.00650555349946514 135659221881966e-32 .006 0 0 -1 .001 -1 0 0 50 532 31
4 0 525 526 539 0 +.004252776749732565 .00563397459621556 .006 -.866025403784439
 -.5 0 .5 -.866025403784439 0 51 526 315 0 406 520 532 0 -.003252776749732565 .0
0563397459621556 .006 0 0 -1 .001 -1 0 0 50 520 316 0 142 510 526 0 +-.002752776
74973257 .0065 .006 -1575430586720605e-31 -1 0 1 -1575430586720605e-31 0 50 510
 508 0 158 504 520 0 +0 0 0 0 0 -1 -1 0 0 50 504 509 0 496 498 510 0 +0 0 -.012
 0 0 -1 -1 0 0 51 498 510 0 491 0 504 0 -0 0 -.012 0 0 1 .00295 1 0 0 83 3 588 1
 1 1 15 586 256 0 39 579 0 17 39 0 586 40 152 26 36 151 0 441 -17 40 0 586 135 3
9 34 441 231 0 593 +17 152 0 586 39 135 136 154 155 0 148 -17 135 0 586 152 40 1
33 593 184 0 594 +17 154 0 153 595 148 133 152 155 0 0 +16 155 145 0 ?154 596 14
9 597 0 0 1 16 596 149 0 ?595 598 155 599 0 0 1 30 597 341 0 155 157 599 0 +-.00
700555349946513 .000866025403784436 0 -.5 -.866025403784439 0 31 157 342 0 149 6
00 597 0 +-.00325277674973257 .00563397459621556 0 0 0 1 -1 0 0 .001 31 599 340
 0 596 597 601 0 +-.00650555349946513 -4176598806387205e-33 0 0 0 1 -1 0 0 .001
 30 601 339 0 598 599 602 0 +-.004252776749732565 -.00563397459621556 0 .5 -.866
025403784439 0 16 598 153 0 ?603 604 596 601 0 0 1 31 602 338 0 604 601 605 0 +-
.003252776749732565 -.00563397459621556 0 0 0 1 -1 0 0 .001 16 604 157 0 ?606 60
7 598 602 0 0 1 30 605 337 0 607 602 608 0 +.002752776749732565 -.0065 0 1 47262
9176016182e-30 0 16 607 161 0 ?609 610 604 605 0 0 1 31 608 336 0 610 605 611 0
 +.00325277674973257 -.00563397459621556 0 0 0 1 -1 0 0 .001 16 610 165 0 ?612 6
13 607 608 0 0 1 30 611 335 0 613 608 614 0 +.00700555349946513 -.00086602540378
4438 0 .5 .866025403784439 0 16 613 169 0 ?615 616 610 611 0 0 1 31 614 334 0 61
6 611 165 0 +.00650555349946514 135659221881966e-32 0 0 0 1 -1 0 0 .001 16 616 1
73 0 ?617 163 613 614 0 0 1 30 165 333 0 163 614 164 0 +.004252776749732565 .005
63397459621556 0 -.5 .866025403784439 0 16 163 177 0 ?159 161 616 165 0 0 1 17 1
59 0 153 145 617 109 408 163 0 0 +17 617 0 153 159 615 112 618 616 0 0 +17 408 0
 407 619 111 112 159 163 0 617 -15 407 288 0 619 525 0 17 619 0 407 105 408 61 1
14 170 0 410 -17 105 0 407 111 619 103 409 215 0 405 +17 114 0 538 618 63 112 61
9 170 0 408 +15 538 284 0 620 531 0 17 618 0 538 620 114 115 617 616 0 615 -17 6
3 0 538 114 620 61 413 217 0 619 +17 620 0 538 63 618 58 117 172 0 414 -17 117 0
 545 621 60 115 620 172 0 618 +15 545 280 0 622 537 0 17 621 0 545 622 117 118 6
15 613 0 612 -17 60 0 545 117 622 58 415 219 0 620 +17 622 0 545 60 621 55 120 1
74 0 416 -17 120 0 552 623 57 118 622 174 0 621 +15 552 276 0 624 544 0 17 623 0
 552 624 120 121 612 610 0 609 -17 57 0 552 120 624 55 419 221 0 622 +17 624 0 5
52 57 623 52 123 176 0 420 -17 123 0 559 625 54 121 624 176 0 623 +15 559 272 0
 626 551 0 17 625 0 559 626 123 124 609 607 0 606 -17 54 0 559 123 626 52 421 22
3 0 624 +17 626 0 559 54 625 49 126 178 0 422 -17 126 0 566 627 51 124 626 178 0
 625 +15 566 268 0 628 558 0 17 627 0 566 628 126 127 606 604 0 603 -17 51 0 566
 126 628 49 426 225 0 626 +17 628 0 566 51 627 46 129 180 0 426 -17 129 0 573 62
9 48 127 628 180 0 627 +15 573 264 0 630 565 0 17 629 0 573 630 129 130 603 598
 0 595 -17 48 0 573 129 630 46 430 227 0 628 +17 630 0 573 48 629 41 132 182 0 4
30 -17 430 0 429 431 427 41 48 227 0 432 -17 432 0 437 438 433 41 431 332 0 0 +1
6 332 791 0 ?432 347 325 326 0 0 1 17 132 0 580 594 45 130 630 182 0 629 +15 580
 260 0 593 572 0 17 594 0 580 593 132 133 595 596 0 154 -17 45 0 580 132 593 41
 438 229 0 630 +17 593 0 580 45 594 34 135 184 0 438 -17 595 0 153 603 154 130 5
94 596 0 0 +17 603 0 153 606 595 127 629 598 0 0 +17 606 0 153 609 603 124 627 6
04 0 0 +17 609 0 153 612 606 121 625 607 0 0 +17 612 0 153 615 609 118 623 610 0
 0 +17 615 0 153 617 612 115 621 613 0 0 +31 600 513 0 156 0 157 0 +0 0 0 0 0 -1
 -1 0 0 .00295 16 156 447 0 ?631 149 369 600 0 0 1 17 631 0 509 631 631 0 632 15
6 0 0 +15 509 485 0 631 158 153 17 632 0 633 632 632 0 631 156 0 0 -15 633 504 0
 632 491 0 83 3 583 1 1 1 83 3 576 1 1 1 83 3 569 1 1 1 83 3 562 1 1 1 83 3 555
 1 1 1 83 3 548 1 1 1 83 3 541 1 1 1 83 3 534 1 1 1 83 3 528 1 1 1 83 3 522 1 1
 1 81 1 455 1237 451 16 0 392 0 513 634 83 3 517 1 1 1 83 3 634 1 1 1 83 3 512 1
 1 1 83 3 506 1 1 1 15 503 980 0 23 496 635 17 23 0 503 23 23 0 636 10 0 0 +15 6
35 724 0 240 496 0 17 240 0 635 240 240 0 637 238 0 0 +17 637 0 465 637 637 0 24
0 238 0 0 -15 465 895 0 637 263 638 15 638 896 0 639 263 0 17 639 0 638 639 639
 0 237 235 0 0 -17 237 0 497 237 237 0 639 235 0 0 +15 497 718 0 237 491 633 17
 636 0 640 636 636 0 23 10 0 0 -15 640 1009 0 636 18 0 83 3 500 1 1 1 81 1 486 1
255 451 361 0 363 488 483 641 83 3 493 1 1 1 81 1 363 1341 445 361 486 0 341 388
 642 83 3 641 1 1 1 81 1 341 1340 445 339 481 0 319 363 643 81 1 388 1342 445 38
6 466 0 363 392 644 82 1 642 1633681676 81 1 466 1267 451 386 0 388 462 468 645
 82 1 644 1659437325 83 3 645 1 1 1 81 1 481 1257 451 339 0 341 483 478 646 81 1
 319 1339 445 317 476 0 297 341 647 82 1 643 1631453452 81 1 476 1259 451 317 0
 319 478 473 648 81 1 297 1338 445 295 452 0 269 319 649 82 1 647 1629225228 81
 1 452 1261 451 295 0 297 473 446 650 81 1 269 1337 445 265 453 0 262 297 651 82
 1 649 1626997004 81 1 453 1263 451 265 0 269 446 457 652 81 1 262 1336 445 260
 460 0 0 269 653 82 1 651 1624768780 81 1 460 1265 451 260 0 262 457 462 654 82
 1 653 1621819660 83 3 654 1 1 1 83 3 652 1 1 1 83 3 650 1 1 1 83 3 648 1 1 1 83
 3 646 1 1 1 83 3 487 1 1 1 83 3 482 1 1 1 83 3 477 1 1 1 83 3 472 1 1 1 15 471
 1008 0 655 18 640 17 655 0 471 655 655 0 379 378 0 0 -17 379 0 384 379 379 0 65
5 378 0 0 +15 384 966 0 379 383 0 83 3 467 1 1 1 52 366 901 0 263 356 19 0 -0 0
 -.0105 0 0 -1 .00295 .707106781186549 .707106781186546 -1 0 0 54 19 1001 0 386
 366 6 0 +0 0 .005 0 0 1 .0095 .001 1 0 0 83 3 461 1 1 1 82 1 456 1581908237 83
 3 454 1 1 1 79 14 450 SWEntUnchanged141 367 348 656 656 356 141 656 355 367 367
 356 40 2 357 0 1 2 928538554608326e-19 .0704531037983116 ??-.00570552384361939
 -.00611774281905556 .006 -.004252776749739225 -.00563397459620144 .004499999999
99871 41 1 358 L?-.00570552384361939 -.00611774281905556 .006 41 1 359 L?-.00425
2776749739225 -.00563397459620144 .00449999999999871 204 8 360 4 -.0003074179764
203225 .00212132034355965 3.336328406425805 .0015 -155587587502966e-28 -18254930
8111612e-29 3.141592653575675 666068762644742e-29 141 345 326 657 657 334 141 65
7 348 345 345 334 40 2 335 0 1 2 928538554608304e-19 .0704531037983123 ??-.00815
088261693163 -.001882257180944455 .006 -.00700555349945623 -.000866025403797274
 .00449999999999871 41 1 336 L?-.00815088261693163 -.001882257180944455 .006 41
 1 337 L?-.00700555349945623 -.000866025403797274 .00449999999999871 204 8 338 4
 3.99405445195038 .0015 -.0051981355230448 .00212132034355965 4.188790204800515
 666133814775091e-29 -.00550555349944957 -1824863949539245e-30 141 323 304 658 6
58 312 141 658 326 323 323 312 40 2 313 0 1 2 928538554608312e-19 .0704531037983
12 ??-.00815088261693164 .00188225718094444 .006 -.00700555349945624 .0008660254
03797264 .00449999999999871 41 1 314 L?-.00815088261693164 .00188225718094444 .0
06 41 1 315 L?-.00700555349945624 .000866025403797264 .00449999999999871 204 8 3
16 4 -.00030741797642032 .00212132034355965 2.28913085522921 .0015 -155573177629
603e-28 -182535365425717e-29 2.094395102379075 666112130731641e-29 141 301 277 6
59 659 290 141 659 304 301 301 290 40 2 291 0 1 2 928538554608317e-19 .070453103
7983123 ??-.00570552384361939 .00611774281905556 .006 -.00425277674973923 .00563
397459620144 .00449999999999871 41 1 292 L?-.00570552384361939 .0061177428190555
6 .006 41 1 293 L?-.00425277674973923 .00563397459620144 .00449999999999871 204
 8 294 4 2.94685690075378 .0015 -.00519813552304482 .00212132034355965 3.1415926
5360391 66619886690544e-28 -.00550555349944958 -1824033791738075e-30 40 2 285 0
 1 2 928538554608317e-19 .0704531037983118 ??-.002445358773312255 .008 .006 -.00
2752776749717015 .00649999999999871 .00449999999999871 41 1 286 L?-.002445358773
312255 .008 .006 41 1 287 L?-.002752776749717015 .00649999999999871 .00449999999
999871 204 8 288 4 -.000307417976420317 .00212132034355965 1.241933304032614 .00
15 -1555700013256e-26 -1825232483219885e-30 1.04719755118248 666090446688192e-29
 141 273 251 660 660 266 141 660 277 273 273 266 141 259 239 661 661 244 141 661
 251 259 259 244 40 2 253 0 1 2 928538554608345e-19 .0704531037983121 ??.0057055
2384361939 .00611774281905556 .006 .00425277674973923 .00563397459620144 .004499
99999999871 41 1 254 L?.00570552384361939 .00611774281905556 .006 41 1 255 L?.00
425277674973923 .00563397459620144 .00449999999999871 204 8 256 4 -.000307417976
4203205 .00212132034355965 .194735752836014 .0015 -155587587502966e-28 -18254930
8111612e-29 6.28318530716547 666090446688191e-29 19 17 30 0 1 0 9 5 S0 74 4 CI16
 index_map_offset0 0 1 dCCZ20 15 9 0 0 584 662 663 664 665 666 13 468 2 0 0 0 0
 0 0 0 0 0 0 0 81 2 662 532 667 1 0 663 0 0 0 668 81 2 663 538 669 1 662 664 0 0
 0 670 81 1 664 1024 671 1 663 665 0 0 672 81 2 665 1027 673 1 664 666 0 0 674 0
 81 2 666 1060 675 1 665 13 0 0 0 676 81 2 13 1234 677 1 666 2 0 0 0 0 80 2 677
 678 679 9000 0 0 0 0 3 5 0 0 0 FFTFFFFFFFFFFF9 1 79 16 679 BODY_RECIPE_200180 2
 675 680 681 9000 0 0 0 0 3 5 0 0 0 FFTFFFFFFFFFFF9 1 82 1 676 1 79 24 681 BODY_
IN_LIGHTWEIGHT_PERM80 2 673 682 683 8004 0 0 0 0 3 5 0 0 0 FFTFFFFFFFFFFF2 3 83
 1 674 1150 79 16 683 SDL/TYSA_DENSITY80 1 671 684 685 9000 1 1 1 1 1 1 1 1 0 FF
TFFFFFFFFFFF1 82 1 672 2776448 79 10 685 BODY_MATCH80 2 669 686 687 9000 0 0 0 0
 3 5 0 0 0 FFTFFFFFFFFFFF9 1 82 1 670 54 79 30 687 LAST_BODY_MODIFYING_FEATURE_I
D80 2 667 688 689 9000 0 0 0 0 3 5 0 0 0 FFTFFFFFFFFFFT9 1 82 1 668 175 79 19 68
9 ENT_TIME_STAMP_200180 2 12 690 691 9000 0 0 0 0 3 5 0 0 0 FFTFFFFFFFFFFF9 1 82
 1 14 102 79 12 691 ATOM_ID_20011 0 
