**ABCDEFGHIJKLMNOPQRSTUVWXYZabcdefghijklmnopqrstuvwxyz**************************
**PARASOLID !"#$%&'()*+,-./:;<=>?@[\]^_`{|}~0123456789**************************
**PART1;
MC=AMD64;
MC_MODEL=Intel64 Family 6 Model 58 Stepping 9, GenuineIntel;
MC_ID=unknown;
OS=Windows_NT;
OS_RELEASE=unknown;
FRU=Parasolid Version 31.0, build 264, 12-10-2018;
APPL=SOLIDWORKS 2019-2019057;
SITE=;
USER=unknown;
FORMAT=text;
GUISE=transmit;
KEY=1690-20-8395;
FILE=1690-20-8395.x_t;
DATE=Sun Apr  5 22:56:58 2020;
**PART2;
SCH=SCH_3100264_31001;
USFLD_SIZE=0;
**PART3;
**END_OF_HEADER*****************************************************************
T51 : TRANSMIT FILE created by modeller version 310026423 SCH_3100264_31001_1300
6215 0 12 34 CCCCCCI4 mesh1006 0 I8 polyline1008 0 CCCCCCCDI5 owner1040 0 CCCCCC
I13 boundary_mesh1006 0 I17 boundary_polyline1008 0 CCCA16 index_map_offset0 0 1
 dA9 index_map82 0 A17 node_id_index_map82 0 A20 schema_embedding_map82 0 A5 chi
ld12 0 A14 lowest_node_id0 0 1 dA16 mesh_offset_data206 0 Z1 549 2 3 0 0 0 0 0 0
 1e3 1e-8 0 4 0 1 0 1 1 5 6 7 8 0 0 9 10 11 0 0 0 0 0 0 0 81 255 2 2 533 12 1 13
 0 0 0 0 14 70 11 CI9 list_type0 0 1 uI10 notransmit0 0 1 lCCCDCCDI12 finger_ind
ex0 0 1 dI12 finger_block1012 0 CZ3 0 4 T1 0 0 9 20 1 15 15 13 255 5 214 0 1 0 1
6 0 0 17 0 51 255 6 203 0 18 19 0 0 -.13779852098193 -.0517025 .002 0 0 -1 .0073
025 -1 0 0 30 255 7 213 0 10 20 0 0 +.1409086460610784 -.0450954107587341 .002 0
 0 -1 29 255 8 154 0 21 22 0 .1450934887468154 -.0520340894438584 -.002 19 8 CCC
CCCCA5 owner12 0 Z9 64 0 1 17 0 23 V0 16 255 10 173 0 ?24 0 25 7 0 0 1 18 255 11
 61 0 26 0 27 28 ?1 17 255 26 0 29 30 31 11 32 33 0 34 +18 27 58 0 31 11 35 36 ?
1 29 28 63 0 11 36 37 .1450934887468154 -.0520340894438584 .002 29 36 60 0 27 38
 28 .1275317497622324 -.0835227559456924 .002 29 37 163 0 39 28 40 .140908646061
0784 -.0450954107587341 -.002 18 39 142 0 41 42 0 37 ?1 29 40 162 0 42 37 43 .11
3316494495517 -.0321070827010862 -.002 18 42 141 0 44 45 39 40 ?1 29 43 161 0 45
 40 46 .0962805474683429 -.0321070827010862 -.002 18 45 140 0 47 48 42 43 ?1 29
 46 160 0 48 43 49 .0686883959027814 -.0450954107587341 -.002 18 48 139 0 50 51
 45 46 ?1 29 49 159 0 51 46 52 .0645035532170442 -.0520340894438585 -.002 18 51
 138 0 53 54 48 49 ?1 29 52 158 0 54 49 55 .0820652922016273 -.0835227559456924
 -.002 18 54 137 0 56 57 51 52 ?1 29 55 157 0 57 52 58 .1006829159735894 -.09622
4900288264 -.002 18 57 136 0 59 60 54 55 ?1 29 58 156 0 60 55 22 .10891412599027
02 -.096224900288264 -.002 18 60 135 0 61 62 57 58 ?1 29 22 155 0 62 58 8 .12753
17497622324 -.0835227559456924 -.002 18 62 134 0 63 21 60 22 ?1 17 63 0 64 65 66
 62 67 68 0 69 +18 21 133 0 70 71 62 8 ?1 17 70 0 72 34 69 21 73 74 0 75 +18 71
 34 0 76 77 21 78 ?1 17 76 0 79 24 80 71 81 82 0 30 -18 77 37 0 81 83 71 84 ?1 2
9 78 36 0 71 0 84 .1409086460610784 -.0450954107587341 .002 29 84 39 0 77 78 85
 .113316494495517 -.0321070827010862 .002 29 85 42 0 83 84 86 .0962805474683429
 -.0321070827010862 .002 18 83 40 0 87 88 77 85 ?1 29 86 45 0 88 85 89 .06868839
59027814 -.0450954107587341 .002 18 88 43 0 90 91 83 86 ?1 29 89 48 0 91 86 92 .
0645035532170442 -.0520340894438585 .002 18 91 46 0 93 94 88 89 ?1 29 92 51 0 94
 89 95 .0820652922016273 -.0835227559456924 .002 18 94 49 0 96 97 91 92 ?1 29 95
 54 0 97 92 38 .1006829159735894 -.096224900288264 .002 18 97 52 0 98 35 94 95 ?
1 29 38 57 0 35 95 36 .1089141259902702 -.096224900288264 .002 18 35 55 0 99 27
 97 38 ?1 17 99 0 29 31 98 35 100 101 0 102 +15 255 29 3 0 30 16 103 17 31 0 29
 26 99 27 104 105 0 65 +17 98 0 29 99 96 97 106 107 0 108 +17 100 0 109 110 102
 97 99 101 0 0 -16 101 25 0 ?99 105 107 111 0 0 1 17 102 0 109 100 61 35 66 112
 0 104 -15 109 178 0 61 113 0 17 61 0 109 102 110 60 114 115 0 66 +17 66 0 64 63
 104 60 102 112 0 67 +16 112 166 0 ?66 116 117 118 0 0 1 17 104 0 64 66 65 35 31
 105 0 0 -15 64 176 0 63 119 0 17 65 0 64 104 63 27 69 117 0 32 -16 105 28 0 ?31
 33 101 120 0 0 1 16 33 31 0 ?26 121 105 122 0 0 1 30 120 29 0 105 111 122 0 +.1
089141259902702 -.096224900288264 .002 .826055691016293 .563588498232172 0 31 25
5 111 26 0 101 123 120 0 +.10479852098193 -.0901926286046177 .002 0 0 1 1 0 0 .0
073024999999999 31 122 32 0 33 120 124 0 +.10479852098193 -.0502025 .002 0 0 1 -
1 0 0 .04033657331831775 31 124 153 0 125 122 126 0 +.13779852098193 -.0517025 -
.002 0 0 1 -1 0 0 .0073025 16 125 129 0 ?127 128 129 124 0 0 1 30 126 152 0 128
 124 130 0 +.113316494495517 -.0321070827010862 -.002 -.904770864945693 .4258986
75679349 0 16 128 125 0 ?44 131 125 126 0 0 1 31 130 151 0 131 126 132 0 +.10479
852098193 -.0502025 -.002 0 0 1 -1 0 0 .02 16 131 121 0 ?47 133 128 130 0 0 1 30
 132 150 0 133 130 134 0 +.0962805474683429 -.0321070827010862 -.002 -.904770864
945693 -.425898675679349 0 16 133 117 0 ?50 135 131 132 0 0 1 31 134 149 0 135 1
32 136 0 +.0717985209819299 -.0517025 -.002 0 0 1 1 0 0 .0073025 16 135 113 0 ?5
3 137 133 134 0 0 1 31 136 148 0 137 134 138 0 +.10479852098193 -.0502025 -.002
 0 0 1 1 0 0 .04033657331831775 16 137 109 0 ?56 139 135 136 0 0 1 30 138 147 0
 139 136 140 0 +.1006829159735894 -.096224900288264 -.002 .826055691016293 -.563
588498232172 0 16 139 105 0 ?59 115 137 138 0 0 1 31 140 146 0 115 138 141 0 +.1
0479852098193 -.0901926286046177 -.002 0 0 1 1 0 0 .0073024999999999 16 115 101
 0 ?61 68 139 140 0 0 1 30 141 145 0 68 140 142 0 +.1089141259902702 -.096224900
288264 -.002 .826055691016293 .563588498232172 0 16 68 97 0 ?63 74 115 141 0 0 1
 31 142 144 0 74 141 143 0 +.10479852098193 -.0502025 -.002 0 0 1 -1 0 0 .040336
57331831775 16 74 93 0 ?70 144 68 142 0 0 1 30 143 204 0 121 142 145 0 +.1450934
887468154 -.0520340894438584 .002 0 0 -1 16 121 164 0 ?75 117 33 143 0 0 1 30 14
5 205 0 117 143 118 0 +.1275317497622324 -.0835227559456924 .002 0 0 -1 16 117 1
65 0 ?69 112 121 145 0 0 1 30 118 206 0 112 145 146 0 +.1089141259902702 -.09622
4900288264 .002 0 0 -1 30 146 207 0 116 118 147 0 +.1006829159735894 -.096224900
288264 .002 0 0 -1 16 116 167 0 ?110 148 112 146 0 0 1 30 147 208 0 148 146 149
 0 +.0820652922016273 -.0835227559456924 .002 0 0 -1 16 148 168 0 ?150 151 116 1
47 0 0 1 30 149 209 0 151 147 152 0 +.0645035532170442 -.0520340894438585 .002 0
 0 -1 16 151 169 0 ?153 154 148 149 0 0 1 30 152 210 0 154 149 155 0 +.068688395
9027814 -.0450954107587341 .002 0 0 -1 16 154 170 0 ?156 157 151 152 0 0 1 30 15
5 211 0 157 152 20 0 +.0962805474683429 -.0321070827010862 .002 0 0 -1 16 157 17
1 0 ?158 25 154 155 0 0 1 30 20 212 0 25 155 7 0 +.113316494495517 -.03210708270
10862 .002 0 0 -1 16 25 172 0 ?159 10 157 20 0 0 1 17 159 0 160 47 161 42 80 25
 0 162 +15 160 188 0 47 163 0 17 47 0 160 164 159 45 162 131 0 158 +17 161 0 160
 159 164 77 87 165 0 0 -17 80 0 79 76 44 77 159 25 0 161 -17 162 0 166 41 167 42
 47 131 0 0 -15 166 92 0 168 169 170 17 41 0 166 168 162 39 44 128 0 24 -17 167
 0 166 162 171 45 50 133 0 0 -17 171 0 166 167 172 48 53 135 0 0 -17 50 0 173 17
4 158 48 167 133 0 156 +15 173 186 0 50 175 0 17 174 0 173 176 50 88 156 154 0 1
77 -17 158 0 173 50 176 45 164 157 0 167 +17 156 0 178 53 177 48 174 154 0 171 +
15 178 184 0 53 179 0 17 53 0 178 180 156 51 171 135 0 153 +17 177 0 178 156 180
 88 93 181 0 0 -17 180 0 178 177 53 91 153 151 0 182 -17 93 0 29 96 90 91 177 18
1 0 180 +16 181 16 0 ?93 183 184 185 0 0 1 16 183 19 0 ?96 107 181 186 0 0 1 16
 184 13 0 ?90 181 165 187 0 0 1 31 185 17 0 181 187 186 0 +.0717985209819299 -.0
517025 .002 0 0 1 1 0 0 .0073025 30 187 14 0 184 188 185 0 +.0962805474683429 -.
0321070827010862 .002 -.904770864945693 -.425898675679349 0 31 186 20 0 183 185
 123 0 +.10479852098193 -.0502025 .002 0 0 1 1 0 0 .04033657331831775 30 123 23
 0 107 186 111 0 +.1006829159735894 -.096224900288264 .002 .826055691016293 -.56
3588498232172 0 16 107 22 0 ?98 101 183 123 0 0 1 31 188 11 0 165 189 187 0 +.10
479852098193 -.0502025 .002 0 0 1 -1 0 0 .02 16 165 10 0 ?87 184 82 188 0 0 1 30
 189 8 0 82 190 188 0 +.113316494495517 -.0321070827010862 .002 -.90477086494569
3 .425898675679349 0 16 82 7 0 ?81 165 144 189 0 0 1 31 190 5 0 144 191 189 0 +.
13779852098193 -.0517025 .002 0 0 1 -1 0 0 .0073025 16 144 4 0 ?30 82 74 190 0 0
 1 31 191 274 0 192 193 190 0 +.0717985209819299 -.0517025 -.002 0 0 1 1 0 0 .00
25 16 192 252 0 ?194 129 195 191 0 0 1 31 193 275 0 129 196 191 0 +.071798520981
9299 -.0517025 .002 0 0 1 1 0 0 .0025 16 129 255 0 ?197 125 192 193 0 0 1 31 196
 312 0 198 199 193 0 +.10479852098193 -.0901926286046175 -.002 0 0 1 1 0 0 .0025
 16 198 290 0 ?200 195 201 196 0 0 1 31 199 313 0 195 202 196 0 +.10479852098193
 -.0901926286046175 .002 0 0 1 1 0 0 .0025 16 195 293 0 ?203 192 198 199 0 0 1 3
1 202 350 0 204 205 199 0 +.13779852098193 -.0517025 -.002 0 0 1 1 0 0 .0025 16
 204 328 0 ?206 201 207 202 0 0 1 31 205 351 0 201 208 202 0 +.13779852098193 -.
0517025 .002 0 0 1 1 0 0 .0025 16 201 331 0 ?209 198 204 205 0 0 1 31 208 388 0
 210 211 205 0 +.10479852098193 -.0502025 -.002 0 0 1 1 0 0 .015 16 210 366 0 ?2
12 207 0 208 0 0 1 31 211 389 0 207 0 208 0 +.10479852098193 -.0502025 .002 0 0
 1 1 0 0 .015 16 207 369 0 ?213 204 210 211 0 0 1 17 213 0 214 213 213 0 215 207
 0 0 +15 214 375 0 213 216 217 17 215 0 218 215 215 0 213 207 0 0 -15 218 361 0
 215 16 0 14 255 16 363 219 ?169 0 29 5 220 -0 0 169 0 23 81 1 219 534 221 16 22
2 0 0 223 224 14 169 357 223 ?18 16 225 5 226 +0 0 18 16 23 50 255 220 2 0 16 22
7 226 0 +.13779852098193 -.0517025 .002 0 0 -1 -1 0 0 13 23 65 0 0 0 0 0 0 9 16
 51 227 271 0 228 229 220 0 -.0717985209819299 -.0517025 .002 0 0 -1 .0025 -1 0
 0 50 226 143 0 169 220 230 0 +.13779852098193 -.0517025 -.002 0 0 -1 -1 0 0 51
 230 194 0 231 226 232 0 -.10479852098193 -.0502025 .002 0 0 -1 .040336573318317
75 -1 0 0 14 231 175 233 ?228 119 72 5 230 -0 0 228 119 23 50 232 195 0 119 230
 234 0 +.1089141259902702 -.096224900288264 .002 -.563588498232172 .826055691016
293 0 -.826055691016293 -.563588498232172 0 14 119 177 235 ?231 113 64 5 232 -0
 0 231 113 23 51 234 196 0 113 232 236 0 -.10479852098193 -.0901926286046177 .00
2 0 0 -1 .0073024999999999 -1 0 0 14 113 179 237 ?119 238 109 5 234 -0 0 119 238
 23 50 236 197 0 238 234 239 0 +.1006829159735894 -.096224900288264 .002 .563588
498232172 .826055691016293 0 -.826055691016293 .563588498232172 0 14 238 181 240
 ?113 241 242 5 236 -0 0 113 241 23 51 239 198 0 241 236 243 0 -.10479852098193
 -.0502025 .002 0 0 -1 .04033657331831775 -1 0 0 14 241 183 244 ?238 179 245 5 2
39 -0 0 238 179 23 51 243 199 0 179 239 246 0 -.0717985209819299 -.0517025 .002
 0 0 -1 .0073025 -1 0 0 14 179 185 247 ?241 175 178 5 243 -0 0 241 175 23 50 246
 200 0 175 243 248 0 +.0962805474683429 -.0321070827010862 .002 .425898675679349
 -.904770864945693 0 .904770864945693 .425898675679349 0 14 175 187 249 ?179 163
 173 5 246 -0 0 179 163 23 51 248 201 0 163 246 19 0 -.10479852098193 -.0502025
 .002 0 0 -1 .02 -1 0 0 14 163 189 250 ?175 251 160 5 248 -0 0 175 251 23 50 19
 202 0 251 248 6 0 +.113316494495517 -.0321070827010862 .002 -.425898675679349 -
.904770864945693 0 .904770864945693 -.425898675679349 0 14 251 191 252 ?163 18 7
9 5 19 -0 0 163 18 23 81 1 252 544 221 251 253 0 250 254 255 14 18 193 254 ?251
 169 256 5 6 -0 0 251 169 23 15 79 190 0 44 251 0 17 44 0 79 80 24 42 41 128 0 1
59 +17 24 0 79 44 76 39 257 10 0 127 +17 257 0 256 258 127 71 24 10 0 0 -17 127
 0 256 257 75 39 168 125 0 0 +15 256 192 0 127 18 0 17 75 0 256 127 258 21 34 12
1 0 168 +17 168 0 166 73 41 21 127 125 0 0 -17 73 0 166 67 168 62 70 74 0 0 -17
 67 0 166 114 73 60 63 68 0 0 -17 114 0 166 259 67 57 61 115 0 0 -17 259 0 166 1
72 114 54 59 139 0 0 -17 172 0 166 171 259 51 56 137 0 0 -17 59 0 242 108 150 57
 259 139 0 110 +15 242 180 0 59 238 0 17 108 0 242 106 59 97 110 116 0 100 -17 1
50 0 242 59 106 54 260 148 0 259 +17 110 0 109 61 100 57 108 116 0 114 +17 106 0
 242 150 108 94 98 107 0 0 -17 260 0 245 182 56 94 150 148 0 106 -15 245 182 0 5
6 241 0 17 182 0 245 153 260 91 96 183 0 0 -17 56 0 245 260 153 54 172 137 0 150
 +17 153 0 245 56 182 51 180 151 0 172 +17 96 0 29 98 93 94 182 183 0 260 +17 25
8 0 256 75 257 11 30 144 0 0 -17 34 0 72 32 70 11 75 121 0 258 -15 72 174 0 70 2
31 0 17 32 0 72 69 34 27 26 33 0 0 -17 69 0 72 70 32 62 65 117 0 73 +17 30 0 29
 81 26 71 258 144 0 257 +17 81 0 29 87 30 77 76 82 0 80 +17 87 0 29 90 81 83 161
 165 0 164 +17 90 0 29 93 87 88 176 184 0 174 +17 164 0 160 161 47 83 158 157 0
 176 -17 176 0 173 158 174 83 90 184 0 0 -81 1 254 545 221 18 261 0 252 262 263
 80 255 1 221 264 265 9000 1 1 1 1 1 1 1 1 0 FFFFTFTFFFFFFF1 81 1 261 485 266 18
 0 254 267 253 268 81 1 262 546 221 228 269 0 254 270 271 82 255 1 263 139755564
5 14 228 258 262 ?272 231 273 5 227 +0 0 272 231 23 81 1 269 495 266 228 0 262 2
74 275 276 81 1 270 547 221 272 275 0 262 277 278 82 1 271 1361772989 14 272 296
 270 ?279 228 280 5 229 +0 0 279 228 23 81 1 275 496 266 272 0 270 269 281 282 8
1 1 277 548 221 279 281 0 270 283 284 82 1 278 1365901757 14 279 334 277 ?216 27
2 285 5 286 +0 0 216 272 23 81 1 281 497 266 279 0 277 275 287 288 81 1 283 549
 221 216 287 0 277 0 289 82 1 284 1369964989 14 216 372 283 ?0 279 214 5 290 +0
 0 0 279 23 81 1 287 498 266 216 0 283 281 0 291 82 1 289 1374028221 80 1 266 0
 292 8001 0 0 0 0 3 5 0 0 0 FFFFTFTFFFFFFF2 83 255 3 291 0 0 0 79 255 15 292 SDL
/TYSA_COLOUR51 290 385 0 216 0 286 0 -.10479852098193 -.0502025 .002 0 0 -1 .015
 -1 0 0 51 286 347 0 279 290 229 0 -.13779852098193 -.0517025 .002 0 0 -1 .0025
 -1 0 0 51 229 309 0 272 286 227 0 -.10479852098193 -.0901926286046175 .002 0 0
 -1 .0025 -1 0 0 83 3 288 0 0 0 15 285 337 0 209 279 293 17 209 0 285 209 209 0
 294 201 0 0 +15 293 338 0 295 279 0 17 295 0 293 295 295 0 206 204 0 0 -17 206
 0 225 206 206 0 295 204 0 0 +15 225 316 0 206 169 296 15 296 240 0 194 169 166
 17 194 0 296 194 194 0 297 192 0 0 +17 297 0 298 297 297 0 194 192 0 0 -15 298
 262 0 297 228 0 17 294 0 299 294 294 0 209 201 0 0 -15 299 323 0 294 16 218 83
 3 282 0 0 0 15 280 299 0 203 272 300 17 203 0 280 203 203 0 301 195 0 0 +15 300
 300 0 302 272 0 17 302 0 300 302 302 0 200 198 0 0 -17 200 0 170 200 200 0 302
 198 0 0 +15 170 278 0 200 169 303 15 303 354 0 212 169 0 17 212 0 303 212 212 0
 304 210 0 0 +17 304 0 217 304 304 0 212 210 0 0 -15 217 376 0 304 216 0 17 301
 0 305 301 301 0 203 195 0 0 -15 305 285 0 301 16 299 81 1 274 494 266 231 0 233
 306 269 307 83 3 276 0 0 0 81 1 233 536 221 231 274 0 223 235 308 81 1 306 493
 266 119 0 235 309 274 310 83 3 307 0 0 0 81 1 235 537 221 119 306 0 233 237 311
 81 1 309 492 266 113 0 237 312 306 313 83 3 310 0 0 0 81 1 237 538 221 113 309
 0 235 240 314 81 1 312 491 266 238 0 240 315 309 316 83 3 313 0 0 0 81 1 240 53
9 221 238 312 0 237 244 317 81 1 315 490 266 241 0 244 318 312 319 83 3 316 0 0
 0 81 1 244 540 221 241 315 0 240 247 320 81 1 318 489 266 179 0 247 321 315 322
 83 3 319 0 0 0 81 1 247 541 221 179 318 0 244 249 323 81 1 321 488 266 175 0 24
9 324 318 325 83 3 322 0 0 0 81 1 249 542 221 175 321 0 247 250 326 81 1 324 487
 266 163 0 250 253 321 327 83 3 325 0 0 0 81 1 250 543 221 163 324 0 249 252 328
 81 1 253 486 266 251 0 252 261 324 329 83 3 327 0 0 0 83 3 329 0 0 0 82 1 328 1
397031357 82 1 326 1396769213 82 1 323 1396507069 82 1 320 1396244925 82 1 317 1
395982781 82 1 314 1395720637 82 1 311 1395458493 81 1 223 535 221 169 267 0 219
 233 330 82 1 308 1395196349 81 1 267 484 266 169 0 223 222 261 331 82 1 330 140
5485501 81 1 222 483 266 16 0 219 0 267 332 83 3 331 0 0 0 83 3 332 0 0 0 15 273
 261 0 197 228 298 17 197 0 273 197 197 0 333 129 0 0 +17 333 0 103 333 333 0 19
7 129 0 0 -15 103 247 0 333 16 305 83 3 268 0 0 0 79 14 265 SWEntUnchanged82 1 2
55 1397293501 82 1 224 1406009789 19 17 215 0 1 0 9 5 S0 74 4 CI16 index_map_off
set0 0 1 dCCZ20 15 9 0 0 334 335 283 336 337 338 287 13 2 0 0 0 0 0 0 0 0 0 0 0
 81 2 334 238 339 1 0 335 0 0 0 340 81 2 335 442 341 1 334 336 0 0 0 342 81 1 33
6 459 343 1 335 337 0 0 344 81 2 337 477 345 1 336 338 0 0 0 346 81 2 338 480 34
7 1 337 13 0 0 0 0 81 2 13 532 348 1 338 2 0 0 349 0 80 2 348 350 351 8004 0 0 0
 0 3 5 0 0 0 FFTFFFFFFFFFFF2 3 83 1 349 1070 79 16 351 SDL/TYSA_DENSITY80 2 347
 352 353 9000 0 0 0 0 3 5 0 0 0 FFTFFFFFFFFFFF9 1 79 16 353 BODY_RECIPE_200180 2
 345 354 355 9000 0 0 0 0 3 5 0 0 0 FFTFFFFFFFFFFF9 1 82 1 346 1 79 24 355 BODY_
IN_LIGHTWEIGHT_PERM80 1 343 356 357 9000 1 1 1 1 1 1 1 1 0 FFTFFFFFFFFFFF1 82 1
 344 2708037 79 10 357 BODY_MATCH80 2 341 358 359 9000 0 0 0 0 3 5 0 0 0 FFTFFFF
FFFFFFF9 1 82 1 342 77 79 30 359 LAST_BODY_MODIFYING_FEATURE_ID80 2 339 360 361
 9000 0 0 0 0 3 5 0 0 0 FFTFFFFFFFFFFT9 1 82 1 340 121 79 19 361 ENT_TIME_STAMP_
200180 2 12 362 363 9000 0 0 0 0 3 5 0 0 0 FFTFFFFFFFFFFF9 1 82 1 14 101 79 12 3
63 ATOM_ID_20011 0 
