**ABCDEFGHIJKLMNOPQRSTUVWXYZabcdefghijklmnopqrstuvwxyz**************************
**PARASOLID !"#$%&'()*+,-./:;<=>?@[\]^_`{|}~0123456789**************************
**PART1;
MC=AMD64;
MC_MODEL=Intel64 Family 6 Model 58 Stepping 9, GenuineIntel;
MC_ID=unknown;
OS=Windows_NT;
OS_RELEASE=unknown;
FRU=Parasolid Version 31.0, build 264, 12-10-2018;
APPL=SOLIDWORKS 2019-2019057;
SITE=;
USER=unknown;
FORMAT=text;
GUISE=transmit;
KEY=1690-20-8326;
FILE=1690-20-8326.x_t;
DATE=Sun Apr  5 23:00:44 2020;
**PART2;
SCH=SCH_3100264_31001;
USFLD_SIZE=0;
**PART3;
**END_OF_HEADER*****************************************************************
T51 : TRANSMIT FILE created by modeller version 310026423 SCH_3100264_31001_1300
6215 0 12 34 CCCCCCI4 mesh1006 0 I8 polyline1008 0 CCCCCCCDI5 owner1040 0 CCCCCC
I13 boundary_mesh1006 0 I17 boundary_polyline1008 0 CCCA16 index_map_offset0 0 1
 dA9 index_map82 0 A17 node_id_index_map82 0 A20 schema_embedding_map82 0 A5 chi
ld12 0 A14 lowest_node_id0 0 1 dA16 mesh_offset_data206 0 Z1 124 2 3 0 0 0 0 0 0
 1e3 1e-8 0 4 0 1 0 1 1 5 6 7 0 0 0 8 9 0 0 0 0 0 0 0 0 81 255 2 2 120 10 1 11 0
 0 0 0 12 70 11 CI9 list_type0 0 1 uI10 notransmit0 0 1 lCCCDCCDI12 finger_index
0 0 1 dI12 finger_block1012 0 CZ3 0 4 T1 0 0 9 20 1 13 13 13 255 5 29 0 1 0 14 0
 0 15 0 51 255 6 28 0 14 16 0 0 +-.0692240235522653 -.00618745207944441 .056 0 0
 1 .006 1 0 0 31 255 7 23 0 17 18 0 0 +-.0692240235522653 -.00618745207944441 .0
85 0 0 1 1 0 0 .006 19 8 CCCCCCCA5 owner12 0 Z8 7 0 1 15 0 19 V0 16 255 9 4 0 ?2
0 0 17 18 0 0 1 17 255 20 0 21 20 20 0 22 9 0 0 +16 17 18 0 ?23 9 24 7 0 0 1 31
 18 5 0 9 25 7 0 +-.0692240235522653 -.00618745207944441 .056 0 0 1 1 0 0 .006 3
1 25 71 0 26 27 18 0 +-.0692240235522653 -.00618745207944441 .085 0 0 1 1 0 0 .0
0255 16 26 52 0 ?28 24 0 25 0 0 1 31 27 72 0 24 0 25 0 +-.0692240235522653 -.006
18745207944441 .056 0 0 1 1 0 0 .00255 16 24 49 0 ?29 17 26 27 0 0 1 17 29 0 30
 29 29 0 31 24 0 0 +15 255 30 43 0 29 32 33 17 31 0 34 31 31 0 29 24 0 0 -15 34
 58 0 31 35 36 14 255 35 55 37 ?0 38 34 5 39 -0 0 0 38 19 15 36 59 0 28 35 0 17
 28 0 36 28 28 0 40 26 0 0 +17 40 0 41 40 40 0 28 26 0 0 -15 41 38 0 40 38 42 14
 38 16 43 ?35 32 41 5 16 +0 0 35 32 19 15 42 17 0 23 38 0 17 23 0 42 23 23 0 44
 17 0 0 +17 44 0 45 44 44 0 23 17 0 0 -15 45 26 0 44 14 0 14 14 25 46 ?32 0 21 5
 6 +0 0 32 0 19 81 1 46 123 47 14 48 0 43 49 50 14 32 1 49 ?38 14 30 5 51 -0 0 3
8 14 19 15 21 24 0 20 14 45 13 19 8 0 0 0 0 0 0 8 14 81 1 49 124 47 32 52 0 46 0
 53 50 255 51 2 0 32 39 16 0 +-.0692240235522653 -.00618745207944441 .056 0 0 1
 1 0 0 51 39 68 0 35 0 51 0 +-.0692240235522653 -.00618745207944441 .056 0 0 1 .
00255 1 0 0 50 16 22 0 38 51 6 0 +-.0692240235522653 -.00618745207944441 .085 0
 0 1 1 0 0 80 255 1 47 54 55 9000 1 1 1 1 1 1 1 1 0 FFFFTFTFFFFFFF1 81 1 52 107
 56 32 0 49 48 57 58 82 255 1 53 544014694 80 1 56 0 59 8001 0 0 0 0 3 5 0 0 0 F
FFFTFTFFFFFFF2 81 1 48 106 56 14 0 46 0 52 60 81 1 57 108 56 38 0 43 52 61 62 83
 255 3 58 .898039215686275 .917647058823529 .929411764705882 81 1 43 122 47 38 5
7 0 37 46 63 81 1 61 109 56 35 0 37 57 0 64 83 3 62 .898039215686275 .9176470588
23529 .929411764705882 81 1 37 121 47 35 61 0 0 43 65 83 3 64 .898039215686275 .
917647058823529 .929411764705882 82 1 65 549978470 82 1 63 545718630 83 3 60 .89
8039215686275 .917647058823529 .929411764705882 79 255 15 59 SDL/TYSA_COLOUR79 1
4 55 SWEntUnchanged82 1 50 545980774 15 33 3 0 22 32 0 17 22 0 33 22 22 0 20 9 0
 0 -19 15 30 0 1 0 8 5 S0 74 4 CI16 index_map_offset0 0 1 dCCZ20 13 9 0 0 66 67
 49 68 69 70 61 11 2 0 0 0 0 0 0 0 0 0 0 0 81 2 66 35 71 1 0 67 0 0 0 72 81 2 67
 89 73 1 66 68 0 0 0 74 81 1 68 94 75 1 67 69 0 0 76 81 2 69 100 77 1 68 70 0 0
 0 78 81 2 70 103 79 1 69 11 0 0 0 0 81 2 11 119 80 1 70 2 0 0 81 0 80 2 80 82 8
3 8004 0 0 0 0 3 5 0 0 0 FFTFFFFFFFFFFF2 3 83 1 81 27e2 79 16 83 SDL/TYSA_DENSIT
Y80 2 79 84 85 9000 0 0 0 0 3 5 0 0 0 FFTFFFFFFFFFFF9 1 79 16 85 BODY_RECIPE_200
180 2 77 86 87 9000 0 0 0 0 3 5 0 0 0 FFTFFFFFFFFFFF9 1 82 1 78 1 79 24 87 BODY_
IN_LIGHTWEIGHT_PERM80 1 75 88 89 9000 1 1 1 1 1 1 1 1 0 FFTFFFFFFFFFFF1 82 1 76
 2695275 79 10 89 BODY_MATCH80 2 73 90 91 9000 0 0 0 0 3 5 0 0 0 FFTFFFFFFFFFFF9
 1 82 1 74 72 79 30 91 LAST_BODY_MODIFYING_FEATURE_ID80 2 71 92 93 9000 0 0 0 0
 3 5 0 0 0 FFTFFFFFFFFFFT9 1 82 1 72 115 79 19 93 ENT_TIME_STAMP_200180 2 10 94
 95 9000 0 0 0 0 3 5 0 0 0 FFTFFFFFFFFFFF9 1 82 1 12 101 79 12 95 ATOM_ID_20011
 0 
