**ABCDEFGHIJKLMNOPQRSTUVWXYZabcdefghijklmnopqrstuvwxyz**************************
**PARASOLID !"#$%&'()*+,-./:;<=>?@[\]^_`{|}~0123456789**************************
**PART1;
MC=AMD64;
MC_MODEL=Intel64 Family 6 Model 58 Stepping 9, GenuineIntel;
MC_ID=unknown;
OS=Windows_NT;
OS_RELEASE=unknown;
FRU=Parasolid Version 31.0, build 264, 12-10-2018;
APPL=SOLIDWORKS 2019-2019057;
SITE=;
USER=unknown;
FORMAT=text;
GUISE=transmit;
KEY=1690-20-8321;
FILE=1690-20-8321.x_t;
DATE=Sun Apr  5 22:54:47 2020;
**PART2;
SCH=SCH_3100264_31001;
USFLD_SIZE=0;
**PART3;
**END_OF_HEADER*****************************************************************
T51 : TRANSMIT FILE created by modeller version 310026423 SCH_3100264_31001_1300
6215 0 12 34 CCCCCCI4 mesh1006 0 I8 polyline1008 0 CCCCCCCDI5 owner1040 0 CCCCCC
I13 boundary_mesh1006 0 I17 boundary_polyline1008 0 CCCA16 index_map_offset0 0 1
 dA9 index_map82 0 A17 node_id_index_map82 0 A20 schema_embedding_map82 0 A5 chi
ld12 0 A14 lowest_node_id0 0 1 dA16 mesh_offset_data206 0 Z1 982 2 3 0 0 0 0 0 0
 1e3 1e-8 0 4 0 1 0 1 1 5 6 7 8 0 0 9 10 11 0 0 0 0 0 0 0 81 255 2 2 954 12 1 13
 0 0 0 0 14 70 11 CI9 list_type0 0 1 uI10 notransmit0 0 1 lCCCDCCDI12 finger_ind
ex0 0 1 dI12 finger_block1012 0 CZ3 0 4 T1 0 0 10 20 1 15 15 13 255 5 610 0 1 0
 16 0 0 17 0 51 255 6 598 0 18 19 0 0 --.0692240235522653 -.00618745207944441 .0
54 0 0 -1 .00255 -1 0 0 30 255 7 609 0 10 20 0 0 +-.05934293386184 -.01177566136
865732 .054 0 0 -1 29 255 8 469 0 21 22 0 .0517366036566949 -.0313619808377925 .
05 19 8 CCCCCCCA5 owner12 0 Z9 169 0 1 17 0 23 V0 16 255 10 490 0 ?24 0 25 7 0 0
 1 18 255 11 164 0 26 0 27 28 ?1 17 255 26 0 29 30 31 11 32 33 0 34 +18 27 161 0
 35 11 36 37 ?1 29 28 166 0 11 37 38 .0517366036566949 -.0313619808377925 .054 2
9 37 163 0 27 39 28 .0608790285346891 -.0238528575219978 .054 29 38 479 0 40 28
 41 -.05934293386184 -.01177566136865732 .05 18 40 441 0 24 42 0 38 ?1 29 41 478
 0 42 38 43 -.0653657316230625 -.00159250013311805 .05 18 42 440 0 44 45 40 41 ?
1 29 43 477 0 45 41 46 -.0752240235522653 -.00618745207944441 .05 18 45 439 0 47
 48 42 43 ?1 29 46 476 0 48 43 49 -.0752240235522653 -.1070503154116932 .05 18 4
8 438 0 50 51 45 46 ?1 29 49 475 0 51 46 52 -.0692240235522653 -.113050315411693
2 .05 18 51 437 0 53 54 48 49 ?1 29 52 474 0 54 49 55 .1973997955860745 -.113050
3154116932 .05 18 54 436 0 56 57 51 52 ?1 29 55 473 0 57 52 58 .2048038979777165
 -.106745835287762 .05 18 57 435 0 59 60 54 55 ?1 29 58 472 0 60 55 61 .22141376
7676301 -.003877469464716165 .05 18 60 434 0 62 63 57 58 ?1 29 61 471 0 63 58 22
 .1890723656339765 .02285518618154115 .05 18 63 433 0 64 65 60 61 ?1 29 22 470 0
 65 61 8 .0608790285346891 -.0238528575219978 .05 18 65 432 0 66 21 63 22 ?1 17
 66 0 67 68 32 65 35 69 0 70 +18 21 431 0 71 72 65 8 ?1 17 71 0 73 74 75 21 34 7
6 0 68 +18 72 134 0 77 78 21 79 ?1 17 77 0 73 75 74 72 24 10 0 80 -18 78 137 0 8
1 82 72 83 ?1 29 79 136 0 72 0 83 -.05934293386184 -.01177566136865732 .054 29 8
3 139 0 78 79 84 -.0653657316230625 -.00159250013311805 .054 29 84 142 0 82 83 8
5 -.0752240235522653 -.00618745207944441 .054 18 82 140 0 86 87 78 84 ?1 29 85 1
45 0 87 84 88 -.0752240235522653 -.1070503154116932 .054 18 87 143 0 89 90 82 85
 ?1 29 88 148 0 90 85 91 -.0692240235522653 -.1130503154116932 .054 18 90 146 0
 92 93 87 88 ?1 29 91 151 0 93 88 94 .1973997955860745 -.1130503154116932 .054 1
8 93 149 0 95 96 90 91 ?1 29 94 154 0 96 91 97 .2048038979777165 -.1067458352877
62 .054 18 96 152 0 98 99 93 94 ?1 29 97 157 0 99 94 39 .221413767676301 -.00387
7469464716165 .054 18 99 155 0 100 36 96 97 ?1 29 39 160 0 36 97 37 .18907236563
39765 .02285518618154115 .054 18 36 158 0 101 27 99 39 ?1 17 101 0 29 31 102 36
 100 103 0 104 +15 255 29 19 0 30 105 0 17 31 0 29 26 101 27 106 107 0 0 -17 102
 0 29 101 108 99 98 109 0 110 +17 100 0 111 112 104 99 101 103 0 102 -16 103 120
 0 ?101 107 109 113 0 0 1 17 104 0 111 100 114 36 64 115 0 106 -15 111 495 0 114
 116 0 17 114 0 111 104 112 63 62 117 0 118 +17 64 0 119 120 106 63 104 115 0 11
4 +16 115 482 0 ?64 121 69 122 0 0 1 17 106 0 119 64 35 36 31 107 0 0 +15 119 49
3 0 120 123 0 17 35 0 119 106 120 27 66 69 0 32 -16 107 125 0 ?106 33 103 124 0
 0 1 16 33 129 0 ?26 76 107 125 0 0 1 30 124 126 0 107 113 125 0 +.0148072223729
2194 -.04063940809005185 .054 .939575999241157 .342340388575438 0 31 255 113 121
 0 103 126 124 0 +.1973997955860745 -2523458731219835e-41 .054 0 0 1 1 0 0 .0243
25 31 125 130 0 33 124 127 0 +.0669823041454086 -.0406037039659378 .054 0 0 1 1
 0 0 .01782809102985685 31 127 468 0 128 125 129 0 +-.0692240235522653 -.0061874
5207944441 .05 0 0 1 1 0 0 .00255 16 128 426 0 ?130 131 0 127 0 0 1 31 129 467 0
 131 127 132 0 +.10479852098193 -.0502025 .05 0 0 1 1 0 0 .014325 16 131 421 0 ?
133 134 128 129 0 0 1 31 132 466 0 134 129 135 0 +.1973997955860745 -25234587312
19835e-41 .05 0 0 1 1 0 0 .014325 16 134 416 0 ?136 137 131 132 0 0 1 31 135 465
 0 137 132 138 0 +.0629330708661418 -.0294903135174447 .05 0 0 1 1 0 0 .00255 16
 137 411 0 ?139 140 134 135 0 0 1 31 138 464 0 140 135 141 0 +.0717985209819299
 -.0517025 .05 0 0 1 1 0 0 .0025 16 140 406 0 ?142 143 137 138 0 0 1 31 141 463
 0 143 138 144 0 +.10479852098193 -.0901926286046175 .05 0 0 1 1 0 0 .0025 16 14
3 401 0 ?145 146 140 141 0 0 1 31 144 462 0 146 141 147 0 +.13779852098193 -.051
7025 .05 0 0 1 1 0 0 .0025 16 146 396 0 ?148 149 143 144 0 0 1 31 147 461 0 149
 144 150 0 +0 -.0695 .05 0 0 1 1 0 0 .00255 16 149 391 0 ?151 152 146 147 0 0 1
 31 150 460 0 152 147 153 0 +.1973997955860745 -.1055503154116932 .05 0 0 1 1 0
 0 .00255 16 152 386 0 ?154 155 149 150 0 0 1 31 153 459 0 155 150 156 0 +-.0692
240235522653 -.1070503154116932 .05 0 0 1 1 0 0 .00255 16 155 381 0 ?157 158 152
 153 0 0 1 31 156 458 0 158 153 159 0 +.0658833493638774 -.1070503154116932 .05
 0 0 1 1 0 0 .00255 16 158 376 0 ?160 161 155 156 0 0 1 31 159 457 0 161 156 162
 0 +.207615015318571 -.0164044174177815 .05 0 0 1 1 0 0 .00255 16 161 371 0 ?163
 164 158 159 0 0 1 31 162 456 0 164 159 165 0 +.2154335271503275 -.0069455130025
3986 .05 0 0 1 1 0 0 .00255 16 164 366 0 ?166 167 161 162 0 0 1 31 165 455 0 167
 162 168 0 +.179366064021821 .00694551300253977 .05 0 0 1 1 0 0 .00255 16 167 36
1 0 ?169 170 164 165 0 0 1 31 168 454 0 170 165 171 0 +.1871845758535775 .016404
41741778145 .05 0 0 1 1 0 0 .00255 16 170 356 0 ?172 173 167 168 0 0 1 31 171 45
3 0 173 168 174 0 +0 0 .05 0 0 1 1 0 0 .0605 16 173 350 0 ?175 176 170 171 0 0 1
 31 174 452 0 176 171 177 0 +-.0768300615786607 -.01524570372927215 .05 0 0 1 1
 0 0 .0178280910298568 16 176 344 0 ?178 179 173 174 0 0 1 31 177 451 0 179 174
 180 0 +-.0692240235522653 -.00618745207944441 .05 0 0 1 1 0 0 .006 16 179 338 0
 ?181 182 176 177 0 0 1 30 180 450 0 182 177 183 0 +-.0752240235522653 -10350122
95327724e-32 .05 137590658735318e-30 -1 0 16 182 332 0 ?184 185 179 180 0 0 1 31
 183 449 0 185 180 186 0 +-.0692240235522653 -.1070503154116932 .05 0 0 1 1 0 0
 .006 16 185 326 0 ?187 188 182 183 0 0 1 30 186 448 0 188 183 189 0 +0 -.113050
3154116932 .05 1 0 0 16 188 320 0 ?190 191 185 186 0 0 1 31 189 447 0 191 186 19
2 0 +.1973997955860745 -.1055503154116932 .05 0 0 1 1 0 0 .0075 16 191 314 0 ?19
3 194 188 189 0 0 1 30 192 446 0 194 189 195 0 +.2163979958284745 -.034941184153
04435 .05 .1594026501424935 .987213652218986 0 16 194 308 0 ?196 117 191 192 0 0
 1 31 195 445 0 117 192 197 0 +.1973997955860745 -2523458731219835e-41 .05 0 0 1
 1 0 0 .024325 16 117 302 0 ?114 198 194 195 0 0 1 30 197 444 0 198 195 199 0 +.
01480722237292194 -.04063940809005185 .05 .939575999241157 .342340388575438 0 16
 198 297 0 ?118 200 117 197 0 0 1 31 199 443 0 200 197 201 0 +.0669823041454086
 -.0406037039659378 .05 0 0 1 1 0 0 .01782809102985685 16 200 291 0 ?68 202 198
 199 0 0 1 30 201 599 0 76 199 203 0 +.0517366036566949 -.0313619808377925 .054
 0 0 -1 16 76 480 0 ?71 69 33 201 0 0 1 30 203 600 0 69 201 122 0 +.060879028534
6891 -.0238528575219978 .054 0 0 -1 16 69 481 0 ?66 115 76 203 0 0 1 30 122 601
 0 115 203 204 0 +.1890723656339765 .02285518618154115 .054 0 0 -1 30 204 602 0
 121 122 205 0 +.221413767676301 -.003877469464716165 .054 0 0 -1 16 121 483 0 ?
112 206 115 204 0 0 1 30 205 603 0 206 204 207 0 +.2048038979777165 -.1067458352
87762 .054 0 0 -1 16 206 484 0 ?208 209 121 205 0 0 1 30 207 604 0 209 205 210 0
 +.1973997955860745 -.1130503154116932 .054 0 0 -1 16 209 485 0 ?211 212 206 207
 0 0 1 30 210 605 0 212 207 213 0 +-.0692240235522653 -.1130503154116932 .054 0
 0 -1 16 212 486 0 ?214 215 209 210 0 0 1 30 213 606 0 215 210 216 0 +-.07522402
35522653 -.1070503154116932 .054 0 0 -1 16 215 487 0 ?217 218 212 213 0 0 1 30 2
16 607 0 218 213 20 0 +-.0752240235522653 -.00618745207944441 .054 0 0 -1 16 218
 488 0 ?219 25 215 216 0 0 1 30 20 608 0 25 216 7 0 +-.0653657316230625 -.001592
50013311805 .054 0 0 -1 16 25 489 0 ?220 10 218 20 0 0 1 17 220 0 221 181 81 42
 222 25 0 178 +15 221 507 0 181 223 0 17 181 0 221 224 220 45 44 179 0 0 +17 81
 0 221 220 224 78 225 226 0 227 -17 222 0 228 80 178 78 220 25 0 0 -17 178 0 228
 222 24 42 229 176 0 0 +15 228 509 0 178 230 0 17 24 0 228 178 80 40 77 10 0 229
 +17 229 0 231 175 44 40 178 176 0 74 -15 231 290 0 175 232 0 17 175 0 231 70 22
9 21 74 173 0 0 +17 44 0 231 229 47 42 181 179 0 220 -17 74 0 73 77 71 40 175 17
3 0 0 -15 73 511 0 74 16 0 14 255 16 512 233 ?230 0 73 5 234 +0 0 230 0 23 81 1
 233 955 235 16 236 0 0 237 238 14 230 510 237 ?223 16 228 5 239 -0 0 223 16 23
 51 234 583 0 16 239 240 0 -0 0 .054 0 0 -1 .0605 -1 0 0 13 23 170 0 0 0 0 0 0 9
 16 51 239 582 0 230 241 234 0 --.0768300615786607 -.01524570372927215 .054 0 0
 -1 .0178280910298568 -1 0 0 51 240 584 0 242 234 243 0 -.1871845758535775 .0164
0441741778145 .054 0 0 -1 .00255 -1 0 0 14 242 514 244 ?245 123 246 5 240 +0 0 2
45 123 23 51 243 585 0 245 240 247 0 -.179366064021821 .00694551300253977 .054 0
 0 -1 .00255 -1 0 0 14 245 518 248 ?249 242 250 5 243 +0 0 249 242 23 51 247 586
 0 249 243 251 0 -.2154335271503275 -.00694551300253986 .054 0 0 -1 .00255 -1 0
 0 14 249 522 252 ?253 245 254 5 247 +0 0 253 245 23 51 251 587 0 253 247 255 0
 -.207615015318571 -.0164044174177815 .054 0 0 -1 .00255 -1 0 0 14 253 526 256 ?
257 249 258 5 251 +0 0 257 249 23 51 255 588 0 257 251 259 0 -.0658833493638774
 -.1070503154116932 .054 0 0 -1 .00255 -1 0 0 14 257 530 260 ?261 253 262 5 255
 +0 0 261 253 23 51 259 589 0 261 255 263 0 --.0692240235522653 -.10705031541169
32 .054 0 0 -1 .00255 -1 0 0 14 261 534 264 ?265 257 266 5 259 +0 0 265 257 23 5
1 263 590 0 265 259 267 0 -.1973997955860745 -.1055503154116932 .054 0 0 -1 .002
55 -1 0 0 14 265 538 268 ?269 261 270 5 263 +0 0 269 261 23 51 267 591 0 269 263
 271 0 -0 -.0695 .054 0 0 -1 .00255 -1 0 0 14 269 542 272 ?273 265 274 5 267 +0
 0 273 265 23 51 271 592 0 273 267 275 0 -.13779852098193 -.0517025 .054 0 0 -1
 .0025 -1 0 0 14 273 546 276 ?277 269 278 5 271 +0 0 277 269 23 51 275 593 0 277
 271 279 0 -.10479852098193 -.0901926286046175 .054 0 0 -1 .0025 -1 0 0 14 277 5
50 280 ?281 273 282 5 275 +0 0 281 273 23 51 279 594 0 281 275 283 0 -.071798520
9819299 -.0517025 .054 0 0 -1 .0025 -1 0 0 14 281 554 284 ?285 277 286 5 279 +0
 0 285 277 23 51 283 595 0 285 279 287 0 -.0629330708661418 -.0294903135174447 .
054 0 0 -1 .00255 -1 0 0 14 285 558 288 ?289 281 290 5 283 +0 0 289 281 23 51 28
7 596 0 289 283 19 0 -.1973997955860745 -2523458731219835e-41 .054 0 0 -1 .01432
5 -1 0 0 14 289 562 291 ?292 285 293 5 287 +0 0 292 285 23 51 19 597 0 292 287 6
 0 -.10479852098193 -.0502025 .054 0 0 -1 .014325 -1 0 0 14 292 566 294 ?18 289
 295 5 19 +0 0 18 289 23 81 1 294 970 235 292 296 0 291 297 298 14 18 570 297 ?2
99 292 300 5 6 +0 0 299 292 23 15 295 565 0 301 292 302 17 301 0 295 301 301 0 3
03 304 0 0 +15 302 567 0 305 292 0 17 305 0 302 305 305 0 133 131 0 0 -17 133 0
 306 133 133 0 305 131 0 0 +15 306 276 0 133 232 307 14 232 273 308 ?0 105 309 5
 310 -0 0 0 105 23 15 307 277 0 136 232 311 17 136 0 307 136 136 0 312 134 0 0 +
15 311 278 0 139 232 313 17 139 0 311 139 139 0 314 137 0 0 +15 313 279 0 142 23
2 315 17 142 0 313 142 142 0 316 140 0 0 +15 315 280 0 145 232 317 17 145 0 315
 145 145 0 318 143 0 0 +15 317 281 0 148 232 319 17 148 0 317 148 148 0 320 146
 0 0 +15 319 282 0 151 232 321 17 151 0 319 151 151 0 322 149 0 0 +15 321 283 0
 154 232 323 17 154 0 321 154 154 0 324 152 0 0 +15 323 284 0 157 232 325 17 157
 0 323 157 157 0 326 155 0 0 +15 325 285 0 160 232 327 17 160 0 325 160 160 0 32
8 158 0 0 +15 327 286 0 163 232 329 17 163 0 327 163 163 0 330 161 0 0 +15 329 2
87 0 166 232 331 17 166 0 329 166 166 0 332 164 0 0 +15 331 288 0 169 232 333 17
 169 0 331 169 169 0 334 167 0 0 +15 333 289 0 172 232 231 17 172 0 333 172 172
 0 335 170 0 0 +17 335 0 336 335 335 0 172 170 0 0 -15 336 515 0 335 242 0 17 33
4 0 337 334 334 0 169 167 0 0 -15 337 519 0 334 245 0 17 332 0 338 332 332 0 166
 164 0 0 -15 338 523 0 332 249 0 17 330 0 339 330 330 0 163 161 0 0 -15 339 527
 0 330 253 0 17 328 0 340 328 328 0 160 158 0 0 -15 340 531 0 328 257 0 17 326 0
 341 326 326 0 157 155 0 0 -15 341 535 0 326 261 0 17 324 0 342 324 324 0 154 15
2 0 0 -15 342 539 0 324 265 0 17 322 0 343 322 322 0 151 149 0 0 -15 343 543 0 3
22 269 0 17 320 0 344 320 320 0 148 146 0 0 -15 344 547 0 320 273 0 17 318 0 345
 318 318 0 145 143 0 0 -15 345 551 0 318 277 0 17 316 0 346 316 316 0 142 140 0
 0 -15 346 555 0 316 281 0 17 314 0 347 314 314 0 139 137 0 0 -15 347 559 0 314
 285 0 17 312 0 348 312 312 0 136 134 0 0 -15 348 563 0 312 289 0 81 1 308 972 2
35 232 349 0 297 350 351 14 105 1 350 ?232 299 352 5 353 +0 0 232 299 23 15 309
 275 0 130 232 306 50 255 310 442 0 232 353 354 0 +0 0 .05 0 0 1 1 0 0 50 353 2
 0 105 0 310 0 +0 0 .054 0 0 1 1 0 0 51 354 573 0 299 310 355 0 -.06698230414540
86 -.0406037039659378 .054 0 0 -1 .01782809102985685 -1 0 0 14 299 492 356 ?105
 18 67 5 354 -0 0 105 18 23 50 355 574 0 123 354 357 0 +.01480722237292194 -.040
63940809005185 .054 -.342340388575438 .939575999241157 0 -.939575999241157 -.342
340388575438 0 14 123 494 358 ?242 116 119 5 355 +0 0 242 116 23 51 357 575 0 11
6 355 359 0 -.1973997955860745 -2523458731219835e-41 .054 0 0 -1 .024325 -1 0 0
 14 116 496 360 ?123 361 111 5 357 -0 0 123 361 23 50 359 576 0 361 357 362 0 +.
2163979958284745 -.03494118415304435 .054 -.987213652218986 .1594026501424935 0
 -.1594026501424935 -.987213652218986 0 14 361 498 363 ?116 364 365 5 359 -0 0 1
16 364 23 51 362 577 0 364 359 366 0 -.1973997955860745 -.1055503154116932 .054
 0 0 -1 .0075 -1 0 0 14 364 500 367 ?361 368 369 5 362 -0 0 361 368 23 50 366 57
8 0 368 362 370 0 +0 -.1130503154116932 .054 0 1 0 0 0 1 14 368 502 371 ?364 372
 373 5 366 -0 0 364 372 23 51 370 579 0 372 366 374 0 --.0692240235522653 -.1070
503154116932 .054 0 0 -1 .006 -1 0 0 14 372 504 375 ?368 376 377 5 370 -0 0 368
 376 23 50 374 580 0 376 370 241 0 +-.0752240235522653 -1035012295327724e-32 .05
4 1 137590658735318e-30 0 -137590658735318e-30 1 0 14 376 506 378 ?372 223 379 5
 374 -0 0 372 223 23 51 241 581 0 223 374 239 0 --.0692240235522653 -.0061874520
7944441 .054 0 0 -1 .006 -1 0 0 14 223 508 380 ?376 230 221 5 241 -0 0 376 230 2
3 81 1 380 982 235 223 381 0 378 0 382 80 255 1 235 383 384 9000 1 1 1 1 1 1 1 1
 0 FFFFTFTFFFFFFF1 81 1 381 860 385 223 0 380 386 387 388 81 1 378 981 235 376 3
87 0 375 380 389 82 255 1 382 -78314445 81 1 387 861 385 376 0 378 381 390 391 8
1 1 375 980 235 372 390 0 371 378 392 82 1 389 -78576589 81 1 390 862 385 372 0
 375 387 393 394 81 1 371 979 235 368 393 0 367 375 395 82 1 392 -78838733 81 1
 393 863 385 368 0 371 390 396 397 81 1 367 978 235 364 396 0 363 371 398 82 1 3
95 -79100877 81 1 396 864 385 364 0 367 393 399 400 81 1 363 977 235 361 399 0 3
60 367 401 82 1 398 -79363021 81 1 399 865 385 361 0 363 396 402 403 81 1 360 97
6 235 116 402 0 358 363 404 82 1 401 -79625165 81 1 402 866 385 116 0 360 399 40
5 406 81 1 358 975 235 123 405 0 356 360 407 82 1 404 -79952845 81 1 405 867 385
 123 0 358 402 408 409 81 1 356 974 235 299 410 0 350 358 411 82 1 407 -80149453
 81 1 410 883 385 299 0 356 412 413 414 81 1 350 973 235 105 413 0 308 356 415 8
2 1 411 -80411597 81 1 413 884 385 105 0 350 410 349 416 82 1 415 -120388557 80
 1 385 0 417 8001 0 0 0 0 3 5 0 0 0 FFFFTFTFFFFFFF2 81 1 349 885 385 232 0 308 4
13 0 418 83 255 3 416 0 0 0 83 3 418 0 0 0 79 255 15 417 SDL/TYSA_COLOUR81 1 412
 882 385 18 0 297 296 410 419 83 3 414 0 0 0 81 1 297 971 235 18 412 0 294 308 4
20 81 1 296 881 385 292 0 294 421 412 422 83 3 419 0 0 0 81 1 421 880 385 289 0
 291 423 296 424 83 3 422 0 0 0 81 1 291 969 235 289 421 0 288 294 425 81 1 423
 879 385 285 0 288 426 421 427 83 3 424 0 0 0 81 1 288 968 235 285 423 0 284 291
 428 81 1 426 878 385 281 0 284 429 423 430 83 3 427 0 0 0 81 1 284 967 235 281
 426 0 280 288 431 81 1 429 877 385 277 0 280 432 426 433 83 3 430 0 0 0 81 1 28
0 966 235 277 429 0 276 284 434 81 1 432 876 385 273 0 276 435 429 436 83 3 433
 0 0 0 81 1 276 965 235 273 432 0 272 280 437 81 1 435 875 385 269 0 272 438 432
 439 83 3 436 0 0 0 81 1 272 964 235 269 435 0 268 276 440 81 1 438 874 385 265
 0 268 441 435 442 83 3 439 0 0 0 81 1 268 963 235 265 438 0 264 272 443 81 1 44
1 873 385 261 0 264 444 438 445 83 3 442 0 0 0 81 1 264 962 235 261 441 0 260 26
8 446 81 1 444 872 385 257 0 260 447 441 448 83 3 445 0 0 0 81 1 260 961 235 257
 444 0 256 264 449 81 1 447 871 385 253 0 256 450 444 451 83 3 448 0 0 0 81 1 25
6 960 235 253 447 0 252 260 452 81 1 450 870 385 249 0 252 453 447 454 83 3 451
 0 0 0 81 1 252 959 235 249 450 0 248 256 455 81 1 453 869 385 245 0 248 408 450
 456 83 3 454 0 0 0 81 1 248 958 235 245 453 0 244 252 457 81 1 408 868 385 242
 0 244 405 453 458 83 3 456 0 0 0 81 1 244 957 235 242 408 0 237 248 459 83 3 45
8 0 0 0 81 1 237 956 235 230 386 0 233 244 460 82 1 459 -77528013 81 1 386 859 3
85 230 0 237 236 381 461 82 1 460 -78052301 81 1 236 858 385 16 0 233 0 386 462
 83 3 461 0 0 0 83 3 462 0 0 0 82 1 457 -77265869 82 1 455 -77003725 82 1 452 -7
6741581 82 1 449 -76479437 82 1 446 -76217293 82 1 443 -75955149 82 1 440 -75693
005 82 1 437 -75430861 82 1 434 -75168717 82 1 431 -74906573 82 1 428 -74644429
 82 1 425 -74382285 82 1 420 -73857997 83 3 409 0 0 0 83 3 406 0 0 0 83 3 403 0
 0 0 83 3 400 0 0 0 83 3 397 0 0 0 83 3 394 0 0 0 83 3 391 0 0 0 83 3 388 0 0 0
 79 14 384 SWEntUnchanged15 379 505 0 184 376 0 17 184 0 379 463 219 48 47 182 0
 0 +17 463 0 379 86 184 87 217 215 0 0 -17 219 0 379 184 86 45 224 218 0 181 +17
 47 0 231 44 50 45 184 182 0 219 -17 50 0 231 47 53 48 187 185 0 217 -17 53 0 23
1 50 56 51 190 188 0 214 -17 187 0 377 464 217 51 50 185 0 0 +17 217 0 377 187 8
9 48 463 215 0 184 +15 377 503 0 187 372 0 17 89 0 377 217 464 87 465 466 0 467
 -17 464 0 377 89 187 90 214 212 0 0 -17 465 0 29 468 467 90 89 466 0 464 +16 46
6 100 0 ?465 469 470 471 0 0 1 17 467 0 29 465 225 87 86 470 0 463 +17 225 0 29
 467 227 82 81 226 0 224 +17 86 0 379 219 463 82 467 470 0 225 -16 470 95 0 ?467
 466 226 472 0 0 1 16 226 90 0 ?225 470 473 474 0 0 1 30 472 96 0 470 474 471 0
 +-.0752240235522653 -1035012295327724e-32 .054 137590658735318e-30 -1 0 31 474
 91 0 226 475 472 0 +-.0692240235522653 -.00618745207944441 .054 0 0 1 1 0 0 .00
6 31 471 101 0 466 472 476 0 +-.0692240235522653 -.1070503154116932 .054 0 0 1 1
 0 0 .006 30 476 106 0 469 471 477 0 +0 -.1130503154116932 .054 1 0 0 16 469 105
 0 ?468 478 466 476 0 0 1 31 477 111 0 478 476 126 0 +.1973997955860745 -.105550
3154116932 .054 0 0 1 1 0 0 .0075 16 478 110 0 ?108 109 469 477 0 0 1 30 126 116
 0 109 477 113 0 +.2163979958284745 -.03494118415304435 .054 .1594026501424935 .
987213652218986 0 16 109 115 0 ?102 103 478 126 0 0 1 17 108 0 29 102 468 96 95
 478 0 479 +17 468 0 29 108 465 93 92 469 0 480 +17 95 0 369 211 479 93 108 478
 0 468 -17 479 0 369 95 193 96 208 206 0 0 -15 369 499 0 193 364 0 17 193 0 369
 479 211 57 56 191 0 0 +17 208 0 365 196 98 57 479 206 0 193 +15 365 497 0 196 3
61 0 17 196 0 365 110 208 60 59 194 0 0 +17 98 0 365 208 110 96 102 109 0 108 -1
7 110 0 365 98 196 99 112 121 0 0 -17 112 0 111 114 100 60 110 121 0 196 +17 59
 0 231 56 62 57 196 194 0 208 -17 56 0 231 53 59 54 193 191 0 211 -17 62 0 231 5
9 118 60 114 117 0 112 -17 118 0 231 62 70 63 120 198 0 0 +17 70 0 231 118 175 6
5 68 200 0 120 -17 120 0 119 35 64 65 118 198 0 0 -17 68 0 67 34 66 21 70 200 0
 175 +15 67 491 0 68 299 0 17 34 0 67 32 68 11 71 76 0 75 -17 32 0 67 66 34 27 2
6 33 0 31 -17 75 0 73 71 77 11 30 481 0 0 +17 30 0 29 227 26 72 75 481 0 0 -16 4
81 80 0 ?75 473 482 483 0 0 1 16 473 85 0 ?227 226 481 475 0 0 1 16 482 76 0 ?48
4 481 485 486 0 0 1 31 483 81 0 481 486 475 0 +0 0 .054 0 0 1 1 0 0 .0605 31 486
 77 0 482 487 483 0 +.1871845758535775 .01640441741778145 .054 0 0 1 1 0 0 .0025
5 31 475 86 0 473 483 474 0 +-.0768300615786607 -.01524570372927215 .054 0 0 1 1
 0 0 .0178280910298568 31 487 73 0 485 488 486 0 +.179366064021821 .006945513002
53977 .054 0 0 1 1 0 0 .00255 16 485 72 0 ?489 482 490 487 0 0 1 31 488 69 0 490
 491 487 0 +.2154335271503275 -.00694551300253986 .054 0 0 1 1 0 0 .00255 16 490
 68 0 ?492 485 493 488 0 0 1 31 491 65 0 493 494 488 0 +.207615015318571 -.01640
44174177815 .054 0 0 1 1 0 0 .00255 16 493 64 0 ?495 490 496 491 0 0 1 31 494 61
 0 496 497 491 0 +.0658833493638774 -.1070503154116932 .054 0 0 1 1 0 0 .00255 1
6 496 60 0 ?498 493 499 494 0 0 1 31 497 57 0 499 500 494 0 +-.0692240235522653
 -.1070503154116932 .054 0 0 1 1 0 0 .00255 16 499 56 0 ?501 496 502 497 0 0 1 3
1 500 53 0 502 503 497 0 +.1973997955860745 -.1055503154116932 .054 0 0 1 1 0 0
 .00255 16 502 52 0 ?504 499 505 500 0 0 1 31 503 49 0 505 506 500 0 +0 -.0695 .
054 0 0 1 1 0 0 .00255 16 505 48 0 ?507 502 508 503 0 0 1 31 506 45 0 508 509 50
3 0 +.13779852098193 -.0517025 .054 0 0 1 1 0 0 .0025 16 508 44 0 ?510 505 511 5
06 0 0 1 31 509 41 0 511 512 506 0 +.10479852098193 -.0901926286046175 .054 0 0
 1 1 0 0 .0025 16 511 40 0 ?513 508 514 509 0 0 1 31 512 37 0 514 515 509 0 +.07
17985209819299 -.0517025 .054 0 0 1 1 0 0 .0025 16 514 36 0 ?516 511 517 512 0 0
 1 31 515 33 0 517 518 512 0 +.0629330708661418 -.0294903135174447 .054 0 0 1 1
 0 0 .00255 16 517 32 0 ?519 514 520 515 0 0 1 31 518 29 0 520 521 515 0 +.19739
97955860745 -2523458731219835e-41 .054 0 0 1 1 0 0 .014325 16 520 28 0 ?522 517
 304 518 0 0 1 31 521 25 0 304 523 518 0 +.10479852098193 -.0502025 .054 0 0 1 1
 0 0 .014325 16 304 24 0 ?301 520 202 521 0 0 1 31 523 21 0 202 0 521 0 +-.06922
40235522653 -.00618745207944441 .054 0 0 1 1 0 0 .00255 16 202 20 0 ?524 304 200
 523 0 0 1 17 524 0 300 524 524 0 525 202 0 0 +15 300 569 0 524 18 526 17 525 0
 352 525 525 0 524 202 0 0 -15 352 4 0 525 105 527 15 527 5 0 303 105 528 17 303
 0 527 303 303 0 301 304 0 0 -15 528 6 0 529 105 530 17 529 0 528 529 529 0 522
 520 0 0 -15 530 7 0 531 105 532 17 531 0 530 531 531 0 519 517 0 0 -15 532 8 0
 533 105 534 17 533 0 532 533 533 0 516 514 0 0 -15 534 9 0 535 105 536 17 535 0
 534 535 535 0 513 511 0 0 -15 536 10 0 537 105 538 17 537 0 536 537 537 0 510 5
08 0 0 -15 538 11 0 539 105 540 17 539 0 538 539 539 0 507 505 0 0 -15 540 12 0
 541 105 542 17 541 0 540 541 541 0 504 502 0 0 -15 542 13 0 543 105 544 17 543
 0 542 543 543 0 501 499 0 0 -15 544 14 0 545 105 546 17 545 0 544 545 545 0 498
 496 0 0 -15 546 15 0 547 105 548 17 547 0 546 547 547 0 495 493 0 0 -15 548 16
 0 549 105 550 17 549 0 548 549 549 0 492 490 0 0 -15 550 17 0 551 105 552 17 55
1 0 550 551 551 0 489 485 0 0 -15 552 18 0 553 105 29 17 553 0 552 553 553 0 484
 482 0 0 -17 484 0 246 484 484 0 553 482 0 0 +15 246 513 0 484 242 336 17 489 0
 250 489 489 0 551 485 0 0 +15 250 517 0 489 245 337 17 492 0 254 492 492 0 549
 490 0 0 +15 254 521 0 492 249 338 17 495 0 258 495 495 0 547 493 0 0 +15 258 52
5 0 495 253 339 17 498 0 262 498 498 0 545 496 0 0 +15 262 529 0 498 257 340 17
 501 0 266 501 501 0 543 499 0 0 +15 266 533 0 501 261 341 17 504 0 270 504 504
 0 541 502 0 0 +15 270 537 0 504 265 342 17 507 0 274 507 507 0 539 505 0 0 +15
 274 541 0 507 269 343 17 510 0 278 510 510 0 537 508 0 0 +15 278 545 0 510 273
 344 17 513 0 282 513 513 0 535 511 0 0 +15 282 549 0 513 277 345 17 516 0 286 5
16 516 0 533 514 0 0 +15 286 553 0 516 281 346 17 519 0 290 519 519 0 531 517 0
 0 +15 290 557 0 519 285 347 17 522 0 293 522 522 0 529 520 0 0 +15 293 561 0 52
2 289 348 15 526 571 0 554 18 0 17 554 0 526 554 554 0 130 128 0 0 -17 130 0 309
 130 130 0 554 128 0 0 +17 227 0 29 225 30 78 80 473 0 222 +17 80 0 228 24 222 7
2 227 473 0 30 -17 211 0 369 193 95 54 480 209 0 190 +17 480 0 373 92 190 93 211
 209 0 0 -17 190 0 373 480 214 54 53 188 0 0 +15 373 501 0 190 368 0 17 214 0 37
3 190 92 51 464 212 0 187 +17 92 0 373 214 480 90 468 469 0 465 -17 224 0 221 81
 181 82 219 218 0 0 -82 1 351 -86571981 82 1 298 -74120141 82 1 238 -77790157 19
 17 611 0 1 0 9 5 S0 74 4 CI16 index_map_offset0 0 1 dCCZ20 15 10 0 0 555 556 55
7 380 558 559 560 349 13 2 0 0 0 0 0 0 0 0 0 0 81 2 555 167 561 1 0 556 0 0 0 56
2 81 5 556 168 563 1 555 557 0 0 564 0 0 0 0 81 2 557 793 565 1 556 558 0 0 0 56
6 81 1 558 822 567 1 557 559 0 0 568 81 2 559 852 569 1 558 560 0 0 0 570 81 2 5
60 855 571 1 559 13 0 0 0 0 81 2 13 953 572 1 560 2 0 0 573 0 80 2 572 574 575 8
004 0 0 0 0 3 5 0 0 0 FFTFFFFFFFFFFF2 3 83 1 573 1070 79 16 575 SDL/TYSA_DENSITY
80 2 571 576 577 9000 0 0 0 0 3 5 0 0 0 FFTFFFFFFFFFFF9 1 79 16 577 BODY_RECIPE_
200180 2 569 578 579 9000 0 0 0 0 3 5 0 0 0 FFTFFFFFFFFFFF9 1 82 1 570 1 79 24 5
79 BODY_IN_LIGHTWEIGHT_PERM80 1 567 580 581 9000 1 1 1 1 1 1 1 1 0 FFTFFFFFFFFFF
F1 82 1 568 2685137 79 10 581 BODY_MATCH80 2 565 582 583 9000 0 0 0 0 3 5 0 0 0
 FFTFFFFFFFFFFF9 1 82 1 566 66 79 30 583 LAST_BODY_MODIFYING_FEATURE_ID80 5 563
 584 585 9000 0 0 0 0 3 6 0 0 0 FFTTTTTTFTTFTT2 2 2 2 2 83 1 564 1 79 19 585 BOD
Y_SCALING_FACTOR80 2 561 586 587 9000 0 0 0 0 3 5 0 0 0 FFTFFFFFFFFFFT9 1 82 1 5
62 246 79 19 587 ENT_TIME_STAMP_200180 2 12 588 589 9000 0 0 0 0 3 5 0 0 0 FFTFF
FFFFFFFFF9 1 82 1 14 101 79 12 589 ATOM_ID_20011 0 
