**ABCDEFGHIJKLMNOPQRSTUVWXYZabcdefghijklmnopqrstuvwxyz**************************
**PARASOLID !"#$%&'()*+,-./:;<=>?@[\]^_`{|}~0123456789**************************
**PART1;
MC=AMD64;
MC_MODEL=Intel64 Family 6 Model 58 Stepping 9, GenuineIntel;
MC_ID=unknown;
OS=Windows_NT;
OS_RELEASE=unknown;
FRU=Parasolid Version 31.0, build 264, 12-10-2018;
APPL=SOLIDWORKS 2019-2019057;
SITE=;
USER=unknown;
FORMAT=text;
GUISE=transmit;
KEY=1690-20-8391;
FILE=1690-20-8391.x_t;
DATE=Sun Apr  5 23:02:02 2020;
**PART2;
SCH=SCH_3100264_31001;
USFLD_SIZE=0;
**PART3;
**END_OF_HEADER*****************************************************************
T51 : TRANSMIT FILE created by modeller version 310026423 SCH_3100264_31001_1300
6215 0 12 34 CCCCCCI4 mesh1006 0 I8 polyline1008 0 CCCCCCCDI5 owner1040 0 CCCCCC
I13 boundary_mesh1006 0 I17 boundary_polyline1008 0 CCCA16 index_map_offset0 0 1
 dA9 index_map82 0 A17 node_id_index_map82 0 A20 schema_embedding_map82 0 A5 chi
ld12 0 A14 lowest_node_id0 0 1 dA16 mesh_offset_data206 0 Z1 1841 2 3 0 0 0 0 0
 0 1e3 1e-8 0 4 0 1 0 1 1 5 6 7 8 0 0 9 10 11 0 0 0 0 0 0 0 81 255 2 2 1799 12 1
 13 0 0 0 0 14 70 11 CI9 list_type0 0 1 uI10 notransmit0 0 1 lCCCDCCDI12 finger_
index0 0 1 dI12 finger_block1012 0 CZ3 0 4 T1 0 0 9 20 1 15 15 13 255 5 77 0 1 0
 16 0 0 17 0 54 255 6 1358 0 18 19 0 0 +.10479852098193 .003172144385112375 -.00
85 0 -1 0 .002 5e-4 0 0 -1 30 255 7 1411 0 10 20 0 0 +.0983985209819299 -.00645
 -.02813782217350895 -1 -349375488078411e-30 0 29 255 8 1437 0 11 21 0 .11224633
9454476 1474514954580286e-32 -.02813782217350895 19 8 CCCCCCCA5 owner12 0 Z9 81
 0 1 17 0 22 V0 16 255 10 1409 0 ?23 0 24 7 0 0 1 18 255 11 1435 0 25 0 26 8 ?1
 17 255 25 0 27 28 29 11 30 31 0 32 -18 26 1428 0 33 11 34 21 ?1 17 33 0 35 36 3
2 26 37 38 0 39 -18 34 1421 0 40 26 41 42 ?1 29 21 1430 0 26 42 8 .1085224302182
03 .00645 -.02813782217350895 29 42 1423 0 34 43 21 .101074611745657 .00645 -.02
813782217350895 29 43 1416 0 41 44 42 .0973507025093838 -2401507812055395e-32 -.
02813782217350895 18 41 1414 0 45 34 46 43 ?1 29 44 1405 0 46 47 43 .10852243021
8203 -.00645 -.02813782217350895 18 46 1403 0 48 41 49 44 ?1 29 47 1300 0 49 50
 44 .10329852098193 .003172144385112375 -.0085 18 49 1298 0 51 46 52 47 ?1 29 50
 1287 0 52 53 47 .1065318543152632 .002749191800430725 -.0085 18 52 1285 0 54 49
 55 50 ?1 29 53 1284 0 55 56 50 .1030651876485966 .002749191800430715 -.0085 18
 55 1282 0 57 52 58 53 ?1 29 56 1276 0 58 59 53 .10629852098193 .003172144385112
375 -.0085 18 58 1274 0 60 55 61 56 ?1 29 59 1268 0 61 62 56 .1065318543152632 .
00274919180043073 .0085 18 61 1266 0 63 58 64 59 ?1 29 62 1265 0 64 65 59 .10306
51876485966 .00274919180043073 .0085 18 64 1263 0 66 61 67 62 ?1 29 65 1257 0 67
 68 62 .10629852098193 .003172144385112375 .0085 18 67 1255 0 69 64 70 65 ?1 29
 68 1254 0 70 71 65 .10329852098193 .003172144385112375 .0085 18 70 1252 0 72 67
 73 68 ?1 29 71 1045 0 73 74 68 .10329852098193 .00826135582092913 .0085 18 73 1
043 0 75 70 76 71 ?1 29 74 1037 0 76 77 71 .10629852098193 .00826135582092913 .0
085 18 76 1035 0 78 73 79 74 ?1 29 77 1015 0 79 80 74 .1069161680407534 .0087473
1792804261 -.0085 18 79 1013 0 81 76 82 77 ?1 29 80 1010 0 82 83 77 .10691616804
07534 .00874731792804261 .0085 18 82 1008 0 84 79 85 80 ?1 29 83 1006 0 85 86 80
 .1026808739231064 .00874731792804261 -.0085 18 85 1004 0 87 82 88 83 ?1 29 86 1
003 0 88 89 83 .1026808739231064 .00874731792804261 .0085 18 88 1001 0 90 85 91
 86 ?1 29 89 994 0 91 92 86 .10629852098193 .00826135582092913 -.0085 18 91 992
 0 93 88 94 89 ?1 29 92 991 0 94 95 89 .10329852098193 .00826135582092913 -.0085
 18 94 989 0 96 91 97 92 ?1 29 95 457 0 97 98 92 .108522430218203 -.00645 -.0464
6 18 97 455 0 99 94 100 95 ?1 29 98 264 0 100 101 95 .108522430218203 -.00645 .0
4646 18 100 262 0 102 97 103 98 ?1 29 101 412 0 104 105 98 .112246339454476 1478
230955958032e-32 .02043782217350895 18 104 326 0 106 107 108 101 ?1 29 105 413 0
 109 110 101 .101074611745657 .00645 .02043782217350895 18 109 324 0 111 108 112
 105 ?1 29 110 414 0 112 113 105 .0973507025093838 -208166817117217e-31 .0204378
2217350895 18 112 323 0 114 109 115 110 ?1 29 113 415 0 115 116 110 .10107461174
56568 -.00645 .02043782217350895 18 115 322 0 117 112 118 113 ?1 29 116 416 0 11
8 119 113 .108522430218203 -.00645 .02043782217350895 18 118 321 0 120 115 121 1
16 ?1 29 119 417 0 103 122 116 .112246339454476 1478230955958032e-32 .04646 18 1
03 332 0 123 100 124 119 ?1 29 122 418 0 107 125 119 .108522430218203 .00645 .04
646 18 107 327 0 126 127 104 122 ?1 29 125 419 0 127 128 122 .101074611745657 .0
0645 .04646 18 127 328 0 129 130 107 125 ?1 29 128 420 0 130 131 125 .0973507025
093838 -201819874228946e-31 .04646 18 130 329 0 132 124 127 128 ?1 29 131 421 0
 124 133 128 .1010746117456568 -.00645 .04646 18 124 330 0 134 103 130 131 ?1 29
 133 423 0 108 135 131 .108522430218203 .00645 .02043782217350895 18 108 325 0 1
36 104 109 133 ?1 29 135 609 0 137 138 133 .112246339454476 1474514954580286e-32
 -.04646 18 137 519 0 28 139 140 135 ?1 29 138 610 0 139 141 135 .10852243021820
3 .00645 -.04646 18 139 521 0 36 142 137 138 ?1 29 141 611 0 142 143 138 .101074
611745657 .00645 -.04646 18 142 523 0 144 145 139 141 ?1 29 143 612 0 145 146 14
1 .0973507025093838 -2401507812055395e-32 -.04646 18 145 525 0 147 121 142 143 ?
1 29 146 613 0 121 148 143 .1010746117456568 -.00645 -.04646 18 121 527 0 149 11
8 145 146 ?1 29 148 1546 0 140 0 146 .1010746117456568 -.00645 -.028137822173508
95 18 140 1487 0 150 137 0 148 ?1 17 150 0 151 48 152 140 149 153 0 154 -15 255
 151 1410 0 48 155 0 17 48 0 151 99 150 46 23 10 0 29 -17 152 0 151 150 99 121 1
56 157 0 158 -17 149 0 159 160 154 121 150 153 0 152 +16 153 1407 0 ?149 157 161
 162 0 0 1 17 154 0 159 149 163 140 164 165 0 23 -15 159 1418 0 154 166 0 17 163
 0 159 154 160 41 147 167 0 164 -17 164 0 168 169 23 41 154 165 0 0 +16 165 1471
 0 ?164 170 171 172 0 0 1 17 23 0 168 164 30 140 48 10 0 0 +15 168 1505 0 37 173
 174 17 30 0 168 23 37 46 25 31 0 0 +17 37 0 168 30 175 11 33 38 0 0 +16 31 1469
 0 ?30 176 38 177 0 0 1 16 176 1349 0 ?72 178 31 179 0 0 1 16 38 1468 0 ?37 31 1
80 181 0 0 1 30 177 1527 0 31 181 182 0 +.1087843848363394 -.0059962812921102 -.
02813782217350895 -.5 -.866025403784439 0 30 181 1528 0 38 183 177 0 +.108784384
8363394 .00599628129211021 -.02813782217350895 .5 -.866025403784439 0 31 255 182
 956 0 184 177 185 0 +.10479852098193 0 .0085 0 0 1 1 0 0 .00325 16 184 1264 0 ?
186 187 188 182 0 0 1 31 185 955 0 187 182 189 0 +.10479852098193 0 -.0085 0 0 1
 1 0 0 .00325 16 187 1283 0 ?190 191 184 185 0 0 1 31 189 953 0 191 185 192 0 -.
10479852098193 0 .0105766559657295 0 0 -1 -1 0 0 .0025 16 191 914 0 ?193 194 187
 189 0 0 1 31 192 950 0 194 189 195 0 -.10479852098193 0 -.0105766559657295 0 0
 1 1 0 0 .0025 16 194 910 0 ?196 197 191 192 0 0 1 30 195 817 0 197 192 198 0 +.
10629852098193 .0125 -.0085 0 -1 0 16 197 993 0 ?199 200 194 195 0 0 1 30 198 81
6 0 200 195 201 0 +.10629852098193 .0125 .0085 0 -1 0 16 200 1036 0 ?202 203 197
 198 0 0 1 30 201 815 0 203 198 204 0 +.10329852098193 .0125 .0085 0 -1 0 16 203
 1044 0 ?205 206 200 201 0 0 1 30 204 814 0 206 201 207 0 +.10329852098193 .0125
 -.0085 0 -1 0 16 206 990 0 ?208 209 203 204 0 0 1 30 207 607 0 157 204 210 0 +.
0983985209819299 -.00645 -.04646 1 349375488078411e-30 0 16 157 513 0 ?156 211 1
53 207 0 0 1 30 210 606 0 161 207 212 0 +.0976126571275203 -.00045371870788979 -
.04646 .5 -.866025403784439 0 16 161 509 0 ?158 153 167 210 0 0 1 30 212 605 0 2
13 210 214 0 +.0976126571275203 .00045371870788978 -.04646 -.5 -.866025403784439
 0 16 213 505 0 ?215 167 216 212 0 0 1 30 214 604 0 217 212 218 0 +.098398520981
9299 .00645 -.04646 -1 -232916992052274e-30 0 16 217 501 0 ?219 216 220 214 0 0
 1 30 218 603 0 221 214 222 0 +.1087843848363394 .00599628129211021 -.04646 -.5
 .866025403784438 0 16 221 497 0 ?223 220 224 218 0 0 1 30 222 602 0 225 218 226
 0 +.1087843848363394 -.0059962812921102 -.04646 .5 .866025403784439 0 16 225 49
3 0 ?227 224 209 222 0 0 1 30 226 595 0 224 222 228 0 +.112246339454476 14745149
54580286e-32 -.000732746685198848 0 0 -1 16 224 1436 0 ?28 221 225 226 0 0 1 30
 228 594 0 220 226 229 0 +.108522430218203 .00645 -.000732746685198848 0 0 -1 16
 220 1429 0 ?36 217 221 228 0 0 1 30 229 593 0 216 228 230 0 +.101074611745657 .
00645 -.000732746685198848 0 0 -1 16 216 1422 0 ?144 213 217 229 0 0 1 30 230 59
2 0 167 229 162 0 +.0973507025093838 -2401507812055395e-32 -.000732746685198848
 0 0 -1 16 167 1415 0 ?147 161 213 230 0 0 1 30 162 591 0 153 230 231 0 +.101074
6117456568 -.00645 -.000732746685198848 0 0 -1 30 231 590 0 209 162 232 0 +.1085
22430218203 -.00645 -.000732746685198848 0 0 -1 16 209 1404 0 ?99 225 206 231 0
 0 1 30 232 411 0 233 231 234 0 +.1010746117456568 -.00645 .04646 1 349375488078
411e-30 0 16 233 303 0 ?102 235 236 232 0 0 1 30 234 410 0 236 232 237 0 +.09735
07025093838 -201819874228946e-31 .04646 .5 -.866025403784439 0 16 236 300 0 ?238
 233 239 234 0 0 1 30 237 409 0 239 234 240 0 +.101074611745657 .00645 .04646 -.
5 -.866025403784439 0 16 239 297 0 ?241 236 242 237 0 0 1 30 240 408 0 242 237 2
43 0 +.108522430218203 .00645 .04646 -1 -232916992052274e-30 0 16 242 294 0 ?244
 239 245 240 0 0 1 30 243 407 0 245 240 246 0 +.112246339454476 1478230955958032
e-32 .04646 -.5 .866025403784438 0 16 245 291 0 ?247 242 211 243 0 0 1 30 246 40
6 0 211 243 248 0 +.108522430218203 -.00645 .04646 .5 .866025403784439 0 16 211
 288 0 ?249 245 157 246 0 0 1 30 248 405 0 235 246 250 0 +.112246339454476 14782
30955958032e-32 .02043782217350895 -.5 .866025403784439 0 16 235 309 0 ?251 252
 233 248 0 0 1 30 250 404 0 253 248 254 0 +.108522430218203 -.00645 .02043782217
350895 .5 .866025403784439 0 16 253 319 0 ?255 256 257 250 0 0 1 30 254 403 0 25
8 250 259 0 +.1010746117456568 -.00645 .02043782217350895 1 349375488078411e-30
 0 16 258 317 0 ?260 257 261 254 0 0 1 30 259 402 0 262 254 263 0 +.097350702509
3838 -201819874228946e-31 .02043782217350895 .5 -.866025403784439 0 16 262 315 0
 ?264 261 265 259 0 0 1 30 263 401 0 266 259 267 0 +.101074611745657 .00645 .020
43782217350895 -.5 -.866025403784439 0 16 266 313 0 ?268 265 269 263 0 0 1 30 26
7 400 0 270 263 271 0 +.108522430218203 .00645 .02043782217350895 -1 -2329169920
52274e-30 0 16 270 311 0 ?272 269 252 267 0 0 1 30 271 399 0 257 267 273 0 +.108
522430218203 -.00645 .000732746685198848 0 0 1 16 257 318 0 ?274 253 258 271 0 0
 1 30 273 398 0 261 271 275 0 +.1010746117456568 -.00645 .000732746685198848 0 0
 1 16 261 316 0 ?134 258 262 273 0 0 1 30 275 397 0 265 273 276 0 +.097350702509
3838 -201819874228946e-31 .000732746685198848 0 0 1 16 265 314 0 ?132 262 266 27
5 0 0 1 30 276 396 0 269 275 277 0 +.101074611745657 .00645 .000732746685198848
 0 0 1 16 269 312 0 ?129 266 270 276 0 0 1 30 277 395 0 252 276 278 0 +.10852243
0218203 .00645 .000732746685198848 0 0 1 16 252 310 0 ?126 270 235 277 0 0 1 30
 278 394 0 256 277 279 0 +.112246339454476 1478230955958032e-32 .000732746685198
848 0 0 1 16 256 320 0 ?123 280 253 278 0 0 1 31 279 155 0 280 278 281 0 +.10479
852098193 0 -.04646 0 0 1 1 0 0 .0125 16 280 83 0 ?282 283 256 279 0 0 1 31 281
 159 0 283 279 284 0 +.10479852098193 0 .02043782217350895 0 0 1 1 0 0 .0025 16
 283 100 0 ?285 286 280 281 0 0 1 31 284 162 0 286 281 287 0 +.10479852098193 0
 .04646 0 0 1 1 0 0 .0125 16 286 115 0 ?288 289 283 284 0 0 1 38 12 CCCCCCCCCCCA
17 intersection_data204 0 Z287 997 0 289 284 290 0 +291 292 293 294 295 296 16 2
89 995 0 ?297 298 286 287 0 0 1 30 290 1007 0 298 287 299 0 -.1026808739231064 .
00874731792804261 0 0 0 1 59 255 291 998 0 1 300 301 302 +1 303 51 255 292 804 0
 304 305 306 307 -.10479852098193 .0125 -.0085 0 -1 0 .0015 0 0 -1 40 255 11 293
 0 1 11 894560677261669e-19 .35061234175801 ??.10629852098193 .00826135582092913
 -.0085 .1062854870100388 .00826554369052636 -.00869731201496674 .10613439758443
7 .00831128375727827 -.00918222701710932 .1058330005288706 .00838734253418258 -.
00958620995528539 .1054254779285036 .00845879423896472 -.00986269034895788 .1049
524955171378 .00849752035387133 -.00999207635277406 .104452615894773 .0084874783
2418021 -.0099595717422172 .103984880247073 .00843048581751111 -.009760154258248
45 .1036154138091024 .00835233911802 -.00942209403945812 .103380349319637 .00828
70087498466 -.00898866055321596 .10329852098193 .00826135582092913 -.0085 41 3 C
I8 term_use0 0 1 cCZ1 294 L?.10629852098193 .00826135582092913 -.0085 41 1 295 L
?.10329852098193 .00826135582092913 -.0085 204 2 17 INTERSECTION_DATA17 Intersec
tion data7 uv_type0 0 1 u6 values0 1 1 fT22 296 3 1.570796326794895 .00423864417
9070865 1.438872652905398 .00423445630947364 1.098628470716572 .0041887162427217
25 .761009797444261 .004112657465817415 .431211048111802 .004041205761035285 .10
2830819569614 .00400247964612867 6.05048756523164 .004012521675819785 5.70986176
505549 .004069514182488885 5.3744317701593 .00414766088198 5.04421893788678 .004
212991250153405 4.71238898038469 .004238644179070865 14 255 304 891 308 ?309 310
 311 5 292 +0 0 309 310 22 50 255 305 805 0 312 313 292 0 +.10329852098193 .0125
 -.0085 1 0 0 0 0 -1 50 306 585 0 155 292 314 0 +.0983985209819299 -.00645 -.000
732746685198848 -349375488078411e-30 1 0 -1 -349375488078411e-30 0 141 255 307 2
87 315 315 292 141 315 303 307 307 292 56 255 303 1145 0 316 317 318 319 +R292 3
20 321 -5e-4 5e-4 1 1 0 0 0 0 14 316 1114 322 ?323 324 325 5 303 +0 0 323 324 22
 59 317 1049 0 1 326 303 327 +1 328 51 318 1144 0 1 303 329 330 -.10479852098193
 .0125 -.0085 0 -1 0 .002 0 0 -1 141 319 291 331 331 303 51 320 152 0 332 333 33
4 335 -.10479852098193 0 0 0 0 1 .009 1 0 0 38 321 1149 0 1 336 337 338 -318 329
 339 340 341 342 31 336 1150 0 343 344 321 0 +.10679852098193 .00826135582092913
 -.0085 0 0 -1 -1 0 0 5e-4 31 337 1148 0 345 321 346 0 +.10279852098193 .0082613
5582092913 .0085 0 0 -1 -1 0 0 5e-4 141 338 303 338 338 321 51 329 1143 0 1 318
 347 348 -.10479852098193 0 0 0 0 1 .0085 1 0 0 40 13 339 -.00066111714080521 1
 13 .000117277409399977 .345779446962341 ??.102907625432206 .0082870087498466 -.
00784845259571206 .10279852098193 .00826135582092913 -.0085 .102907625432206 .00
82870087498466 -.00915154740428795 .1032210447514932 .00835233911802 -.009729458
7192775 .1037136666687874 .00843048581751111 -.0101802056776646 .104337314199054
 .00848747832418021 -.0104460956562896 .105003820362207 .00849752035387133 -.010
48943513703206 .1056344635773616 .00845879423896472 -.01031692046527716 .1061778
270445176 .00838734253418258 -.00994827994038052 .1065796897852728 .008311283757
27827 -.00940963602281243 .1067811423527416 .00826554369052636 -.008763082686622
32 .10679852098193 .00826135582092913 -.0085 .1066894165316538 .0082870087498466
 -.00784845259571206 41 1 340 L?.102907625432206 .0082870087498466 -.00784845259
571206 41 1 341 L?.1066894165316538 .0082870087498466 -.00784845259571206 204 52
 342 4 4.3805590228826 .004212991250153405 1.79513155778376 -.00784845259571206
 4.71238898038469 .004238644179070865 1.808317497576345 -.0085 5.04421893788678
 .004212991250153405 1.79513155778376 -.00915154740428795 5.3744317701593 .00414
766088198 1.757463944484675 -.0097294587192775 5.70986176505549 .004069514182488
885 1.69877531322187 -.0101802056776646 6.05048756523164 .004012521675819785 1.6
2508260799584 -.0104460956562896 .1028308195696116 .00400247964612867 1.54664110
960324 -.01048943513703206 .4312110481118055 .004041205761035285 1.4722909114925
66 -.01031692046527716 .761009797444262 .004112657465817415 1.407804298059296 -.
00994827994038052 1.09862847071657 .004188716242721725 1.359682353108402 -.00940
963602281243 1.438872652905396 .00423445630947364 1.335378227163706 -.0087630826
8662232 1.570796326794895 .004238644179070865 1.33327515601345 -.0085 1.90262628
429699 .004212991250153405 1.346461095806032 -.00784845259571206 51 347 1142 0 3
24 329 349 0 +.10279852098193 .00826135582092913 0 0 0 1 5e-4 1 0 0 141 348 321
 348 348 329 14 324 1112 350 ?316 351 352 5 347 +0 0 316 351 22 51 349 1141 0 35
1 347 328 0 +.10679852098193 .00826135582092913 0 0 0 1 5e-4 1 0 0 14 351 1110 3
53 ?324 354 355 5 349 +0 0 324 354 22 56 328 1140 0 354 349 356 357 +R313 320 35
8 -5e-4 5e-4 1 1 0 0 0 0 14 354 1108 359 ?351 360 361 5 328 +0 0 351 360 22 51 3
56 1139 0 1 328 362 363 -.10479852098193 .0125 .0085 0 -1 0 .002 0 0 -1 141 357
 301 364 364 328 51 313 806 0 309 365 305 366 -.10479852098193 .0125 .0085 0 -1
 0 .0015 0 0 -1 38 358 1146 0 1 346 367 368 -356 362 369 370 371 372 31 346 1147
 0 188 337 358 0 +.10679852098193 .00826135582092913 .0085 0 0 -1 -1 0 0 5e-4 31
 367 1260 0 373 358 374 0 +.10479852098193 .003172144385112375 .0085 0 -1 0 0 0
 -1 .0015 141 368 328 368 368 358 51 362 1138 0 1 356 375 376 -.10479852098193 0
 0 0 0 1 .0085 1 0 0 40 13 369 -.00066111714080521 1 13 .000117277409399977 .345
779446962341 ??.1066894165316538 .0082870087498466 .00784845259571206 .106798520
98193 .00826135582092913 .0085 .1066894165316538 .0082870087498466 .009151547404
28795 .1063759972123664 .00835233911802 .0097294587192775 .1058833752950722 .008
43048581751111 .0101802056776646 .1052597277648058 .00848747832418021 .010446095
6562896 .1045932216016528 .00849752035387133 .01048943513703206 .103962578386498
2 .00845879423896472 .01031692046527716 .103419214919342 .00838734253418258 .009
94827994038052 .103017352178587 .00831128375727827 .00940963602281243 .102815899
611118 .00826554369052636 .00876308268662232 .10279852098193 .00826135582092913
 .0085 .102907625432206 .0082870087498466 .00784845259571206 41 1 370 L?.1066894
165316538 .0082870087498466 .00784845259571206 41 1 371 L?.102907625432206 .0082
870087498466 .00784845259571206 204 52 372 4 1.238966369292806 .0042129912501534
05 1.346461095806032 .00784845259571206 1.570796326794895 .004238644179070865 1.
33327515601345 .0085 1.90262628429699 .004212991250153405 1.346461095806032 .009
15154740428795 2.232839116569505 .00414766088198 1.384128709105116 .009729458719
2775 2.5682691114657 .004069514182488885 1.442817340367926 .0101802056776646 2.9
0889491164185 .004012521675819785 1.51651004559395 .0104460956562896 3.244423473
159405 .00400247964612867 1.59495154398655 .01048943513703206 3.5728037017016 .0
04041205761035285 1.66930174209723 .01031692046527716 3.902602451034055 .0041126
57465817415 1.733788355530495 .00994827994038052 4.240221124306365 .004188716242
721725 1.78191030048139 .00940963602281243 4.58046530649519 .00423445630947364 1
.806214426426085 .00876308268662232 4.71238898038469 .004238644179070865 1.80831
7497576345 .0085 5.04421893788678 .004212991250153405 1.79513155778376 .00784845
259571206 54 375 1174 0 323 362 377 0 +.10479852098193 0 -.01482148566749842 0 0
 -1 .012 5e-4 -1 0 0 141 376 358 376 376 362 14 323 1167 378 ?379 316 380 5 375
 +0 0 379 316 22 54 377 1187 0 379 375 381 0 +.10479852098193 0 -.01311633650601
052 0 0 1 .0095 5e-4 1 0 0 14 379 1180 382 ?383 323 384 5 377 -0 0 383 323 22 54
 381 1200 0 383 377 385 0 +.10479852098193 0 .01311633650601052 0 0 1 .0095 5e-4
 1 0 0 14 383 1193 386 ?387 379 388 5 381 -0 0 387 379 22 54 385 1213 0 387 381
 389 0 +.10479852098193 0 .01482148566749842 0 0 -1 .012 5e-4 -1 0 0 14 387 1206
 390 ?18 383 391 5 385 +0 0 18 383 22 54 389 1361 0 392 385 393 0 +.104798520981
93 .003172144385112375 .0085 0 -1 0 .002 5e-4 0 0 -1 14 392 1334 394 ?173 395 39
6 5 389 +0 0 173 395 22 51 393 1360 0 395 389 19 0 +.10279852098193 .00317214438
5112375 0 0 0 1 5e-4 1 0 0 14 395 1332 397 ?392 398 399 5 393 +0 0 392 398 22 51
 19 1359 0 398 393 6 0 +.10679852098193 .003172144385112375 0 0 0 1 5e-4 1 0 0 1
4 398 1330 400 ?395 18 401 5 19 +0 0 395 18 22 81 1 400 1811 402 398 403 0 397 4
04 405 14 18 1328 404 ?398 387 406 5 6 +0 0 398 387 22 15 401 1331 0 407 398 0 1
3 22 80 0 0 0 0 0 0 9 16 14 16 901 408 ?310 0 409 5 410 -310 310 310 0 22 81 1 4
08 1813 402 16 411 0 404 412 413 14 310 896 412 ?304 16 414 5 410 -16 16 304 16
 22 15 409 900 0 415 16 416 51 410 146 0 16 417 418 0 +.10479852098193 0 0 0 0 1
 .0025 1 0 0 50 417 143 0 419 420 410 0 +.0983985209819299 0 -.04646 0 0 1 1 0 0
 50 418 147 0 421 410 422 0 +.0983985209819299 0 .02043782217350895 0 0 -1 -1 0
 0 14 421 108 423 ?424 425 426 5 418 -0 0 424 425 22 50 422 149 0 425 418 427 0
 +.0922985209819299 0 .04646 0 0 -1 -1 0 0 14 425 118 428 ?421 429 430 5 422 -0
 0 421 429 22 51 427 150 0 429 422 333 0 -.10479852098193 0 0 0 0 1 .0125 1 0 0
 14 429 123 431 ?425 432 433 5 427 -0 0 425 432 22 52 255 333 151 0 432 427 320
 0 -.10479852098193 0 .0135 0 0 1 .009 .965925826289068 .258819045102521 1 0 0 1
4 432 128 434 ?429 435 436 5 333 -0 0 429 435 22 81 1 434 1818 402 432 437 0 431
 438 439 14 435 138 438 ?432 440 441 5 334 -0 0 432 440 22 15 436 1077 0 442 432
 443 17 442 0 436 442 442 0 444 445 0 0 +15 443 1071 0 446 432 0 17 446 0 443 44
6 446 0 447 448 0 0 +17 447 0 391 447 447 0 446 448 0 0 -16 448 1070 0 ?446 445
 449 450 0 0 1 16 445 1076 0 ?442 451 448 452 0 0 1 16 449 1064 0 ?453 448 454 4
55 0 0 1 31 450 1073 0 448 455 452 0 +.10479852098193 0 .01433852275435388 0 0 -
1 -1 0 0 .01212940952255126 31 455 1067 0 449 456 450 0 +.10479852098193 0 -.014
82148566749842 0 0 -1 -1 0 0 .0125 31 452 1079 0 445 450 457 0 +.10479852098193
 0 .01359929941915504 0 0 1 1 0 0 .00937059047744872 31 457 1085 0 451 452 458 0
 -.10479852098193 0 .01482148566749842 0 0 -1 -1 0 0 .0125 16 451 1082 0 ?459 46
0 445 457 0 0 1 30 458 1090 0 460 457 344 0 -.10329852098193 .00826135582092913
 .0085 0 0 -1 16 460 1088 0 ?75 373 451 458 0 0 1 31 344 1151 0 461 458 336 0 +.
10279852098193 .00826135582092913 -.0085 0 0 -1 -1 0 0 5e-4 16 461 1129 0 ?96 34
3 462 344 0 0 1 17 96 0 325 463 464 94 465 461 0 466 +16 343 1127 0 ?81 345 461
 336 0 0 1 16 462 1341 0 ?407 461 467 20 0 0 1 17 407 0 401 468 469 52 470 462 0
 0 +16 467 1344 0 ?471 462 178 472 0 0 1 31 20 1362 0 462 472 7 0 +.106798520981
93 .003172144385112375 -.0085 0 0 1 1 0 0 5e-4 31 472 1363 0 467 473 20 0 +.1027
9852098193 .003172144385112375 -.0085 0 0 1 1 0 0 5e-4 31 473 1364 0 178 179 472
 0 +.10679852098193 .003172144385112375 .0085 0 0 1 1 0 0 5e-4 16 178 1347 0 ?63
 467 176 473 0 0 1 31 179 1365 0 176 474 473 0 +.10279852098193 .003172144385112
375 .0085 0 0 1 1 0 0 5e-4 30 474 1313 0 24 475 179 0 -.10329852098193 .00317214
4385112375 -.0085 0 0 1 16 24 1311 0 ?51 10 476 474 0 0 1 31 475 1308 0 476 477
 474 0 -.10479852098193 .002749191800430725 -.0085 0 -1 0 0 0 -1 .00173333333333
3335 16 476 1306 0 ?57 24 478 475 0 0 1 31 477 1303 0 478 479 475 0 +.1047985209
8193 .003172144385112375 -.0085 0 -1 0 0 0 -1 .0015 16 478 1301 0 ?60 476 480 47
7 0 0 1 30 479 1295 0 480 481 477 0 -.1065318543152632 .002749191800430725 0 0 0
 1 16 480 1293 0 ?54 478 482 479 0 0 1 30 481 1290 0 482 483 479 0 +.10306518764
85966 .002749191800430725 0 0 0 1 16 482 1288 0 ?66 480 484 481 0 0 1 30 483 127
9 0 484 374 481 0 +.10629852098193 .003172144385112375 -.0085 0 0 1 16 484 1277
 0 ?69 482 485 483 0 0 1 31 374 1271 0 485 367 483 0 -.10479852098193 .002749191
800430725 .0085 0 -1 0 0 0 -1 .001733333333333335 16 485 1269 0 ?486 484 373 374
 0 0 1 17 486 0 487 488 488 61 489 485 0 186 +16 373 1258 0 ?490 485 460 367 0 0
 1 17 490 0 491 492 202 70 493 373 0 205 +15 491 767 0 202 309 0 17 492 0 491 78
 490 73 205 203 0 494 -17 202 0 491 490 78 67 495 200 0 496 +17 493 0 396 63 72
 67 490 373 0 0 -17 205 0 497 51 75 70 492 203 0 0 +15 497 759 0 205 312 0 17 51
 0 497 498 205 49 499 24 0 208 +17 75 0 497 205 498 73 466 460 0 492 +17 498 0 4
97 75 51 94 208 206 0 0 -17 466 0 352 465 500 94 75 460 0 297 -15 352 1113 0 500
 324 0 17 465 0 352 501 466 85 96 461 0 0 -17 500 0 352 466 501 73 502 345 0 0 +
17 297 0 311 208 503 94 463 289 0 498 +15 311 751 0 208 304 0 17 208 0 311 60 29
7 49 498 206 0 504 +17 503 0 311 297 60 91 199 197 0 505 -17 463 0 325 81 96 91
 297 289 0 0 -15 325 1115 0 81 316 0 17 81 0 325 464 463 79 505 343 0 506 +17 46
4 0 325 96 81 85 507 508 0 465 -17 505 0 355 509 506 91 81 343 0 463 -17 506 0 3
55 505 510 79 84 511 0 507 -15 355 1111 0 510 351 0 17 510 0 355 506 509 82 512
 188 0 0 +17 84 0 513 90 507 82 506 511 0 514 +16 511 1014 0 ?84 508 515 516 0 0
 1 17 507 0 513 84 87 79 464 508 0 0 +15 513 1002 0 87 332 0 17 87 0 513 507 90
 85 501 298 0 464 +16 508 1017 0 ?507 517 511 518 0 0 1 16 517 1023 0 ?519 520 5
08 521 0 0 1 38 518 1019 0 508 516 521 0 +326 320 522 523 524 525 30 516 1016 0
 511 299 518 0 +.1069161680407534 .00874731792804261 0 0 0 1 31 521 1026 0 517 5
18 526 0 -.10479852098193 0 .01311633650601052 0 0 1 1 0 0 .009 59 326 1020 0 1
 301 317 527 +0 303 40 11 522 0 1 11 .0001240389146797144 .3617457923609575 ??.1
026808739231064 .00874731792804261 -.0085 .1027963962822222 .00877447985277875 -
.00915154740428795 .1031282520320558 .00884365318378588 -.0097294587192775 .1036
49851709191 .00892639674795294 -.0101802056776646 .1043101843882966 .00898674175
501434 -.0104460956562896 .105015896796341 .00899737449233435 -.0104894351370320
6 .1056836366712104 .00895637037066852 -.01031692046527716 .106258962695258 .008
88071562442862 -.00994827994038052 .1066844644207636 .00880018280182406 -.009409
63602281243 .10689776713926 .00875175214291026 -.00876308268662232 .106916168040
7534 .00874731792804261 -.0085 41 1 523 L?.1026808739231064 .00874731792804261 -
.0085 41 1 524 L?.1069161680407534 .00874731792804261 -.0085 204 22 525 3 1.8083
17497576345 -.0085 1.79513155778376 -.00915154740428795 1.757463944484675 -.0097
294587192775 1.698775313221865 -.0101802056776646 1.62508260799584 -.01044609565
62896 1.54664110960324 -.01048943513703206 1.472290911492566 -.01031692046527716
 1.407804298059296 -.00994827994038052 1.359682353108402 -.00940963602281243 1.3
35378227163706 -.00876308268662232 1.333275156013448 -.0085 59 301 1012 0 1 291
 326 528 +0 328 141 527 518 527 527 326 141 528 299 528 528 301 38 299 1011 0 51
5 290 516 0 +301 320 529 530 531 532 16 515 1009 0 ?90 511 298 299 0 0 1 40 11 5
29 0 1 11 .0001240389146797144 .3617457923609575 ??.1069161680407534 .0087473179
2804261 .0085 .1068006456816376 .00877447985277875 .00915154740428795 .106468789
931804 .00884365318378588 .0097294587192775 .105947190254669 .00892639674795294
 .0101802056776646 .1052868575755632 .00898674175501434 .0104460956562896 .10458
11451675188 .00899737449233435 .01048943513703206 .1039134052926492 .00895637037
066852 .01031692046527716 .1033380792686016 .00888071562442862 .0099482799403805
2 .1029125775430962 .00880018280182406 .00940963602281243 .1026992748245998 .008
75175214291026 .00876308268662232 .1026808739231064 .00874731792804261 .0085 41
 1 530 L?.1069161680407534 .00874731792804261 .0085 41 1 531 L?.1026808739231064
 .00874731792804261 .0085 204 22 532 3 1.33327515601345 .0085 1.346461095806032
 .00915154740428795 1.384128709105116 .0097294587192775 1.442817340367926 .01018
02056776646 1.51651004559395 .0104460956562896 1.59495154398655 .010489435137032
06 1.669301742097225 .01031692046527716 1.733788355530495 .00994827994038052 1.7
8191030048139 .00940963602281243 1.806214426426085 .00876308268662232 1.80831749
7576345 .0085 17 90 0 513 87 84 88 514 515 0 502 +16 298 1005 0 ?87 515 289 290
 0 0 1 17 514 0 361 512 502 82 90 515 0 510 -17 502 0 361 514 494 88 500 345 0 5
01 -15 361 1109 0 502 354 0 17 494 0 361 502 512 73 78 533 0 500 -16 345 1124 0
 ?500 188 343 337 0 0 1 17 501 0 352 500 465 88 87 298 0 0 -16 188 1121 0 ?510 1
84 345 346 0 0 1 17 512 0 361 494 514 76 510 188 0 509 -17 78 0 491 202 492 76 4
94 533 0 495 +16 533 1046 0 ?78 534 535 536 0 0 1 16 534 1052 0 ?537 454 533 538
 0 0 1 16 535 1038 0 ?93 533 520 539 0 0 1 38 536 1048 0 533 539 538 0 +317 313
 540 541 542 543 30 539 1040 0 535 526 536 0 +.10629852098193 .00826135582092913
 -.0085 0 0 -1 31 538 1055 0 534 536 456 0 +.10479852098193 0 -.0135992994191550
4 0 0 -1 -1 0 0 .00937059047744872 40 11 540 0 1 11 894560677261669e-19 .3506123
4175801 ??.10329852098193 .00826135582092913 .0085 .103311554953821 .00826554369
052636 .00869731201496674 .1034626443794226 .00831128375727827 .0091822270171093
2 .103764041434989 .00838734253418258 .00958620995528539 .1041715640353562 .0084
5879423896472 .00986269034895788 .104644546446722 .00849752035387133 .0099920763
5277406 .105144426069087 .00848747832418021 .0099595717422172 .1056121617167866
 .00843048581751111 .00976015425824845 .1059816281547574 .00835233911802 .009422
09403945812 .1062166926442228 .0082870087498466 .00898866055321596 .106298520981
93 .00826135582092913 .0085 41 1 541 L?.10329852098193 .00826135582092913 .0085
 41 1 542 L?.10629852098193 .00826135582092913 .0085 204 22 543 3 4.712388980384
69 .004238644179070865 4.58046530649519 .00423445630947364 4.240221124306365 .00
4188716242721725 3.902602451034055 .004112657465817415 3.572803701701595 .004041
205761035285 3.244423473159405 .00400247964612867 2.90889491164185 .004012521675
819785 2.568269111465695 .004069514182488885 2.232839116569505 .00414766088198 1
.90262628429699 .004212991250153405 1.570796326794895 .004238644179070865 31 456
 1061 0 454 538 455 0 +.10479852098193 0 -.01433852275435388 0 0 1 1 0 0 .012129
40952255126 16 454 1058 0 ?544 449 534 456 0 0 1 17 544 0 441 544 544 0 545 454
 0 0 +15 441 1059 0 544 435 546 17 545 0 547 545 545 0 544 454 0 0 -15 547 1169
 0 545 323 0 15 546 1053 0 537 435 0 17 537 0 546 537 537 0 548 534 0 0 +17 548
 0 384 548 548 0 537 534 0 0 -15 384 1181 0 548 379 549 15 549 1182 0 550 379 0
 17 550 0 549 550 550 0 551 520 0 0 -17 551 0 552 551 551 0 550 520 0 0 +16 520
 1029 0 ?551 535 517 526 0 0 1 31 526 1032 0 520 521 539 0 +.10479852098193 0 -.
01311633650601052 0 0 1 1 0 0 .009 15 552 1030 0 551 332 553 14 332 685 554 ?419
 309 552 5 320 -0 0 419 309 22 15 553 1024 0 519 332 513 17 519 0 553 519 519 0
 555 517 0 0 +17 555 0 388 555 555 0 519 517 0 0 -15 388 1194 0 555 383 556 15 5
56 1195 0 444 383 0 17 444 0 556 444 444 0 442 445 0 0 -81 1 554 1820 402 332 55
7 0 438 558 559 14 419 481 558 ?440 332 560 5 417 -0 0 440 332 22 14 309 880 561
 ?332 304 491 5 313 +0 0 332 304 22 81 1 561 1822 402 309 562 0 558 563 564 80 2
55 1 402 565 566 9000 1 1 1 1 1 1 1 1 0 FFFFTFTFFFFFFF1 81 1 562 1672 567 309 0
 561 568 557 569 81 1 558 1821 402 419 570 0 554 561 571 81 1 563 1823 402 440 5
72 0 561 573 574 82 255 1 564 1765803051 14 440 141 563 ?435 419 575 5 300 -0 0
 435 419 22 81 1 572 1675 567 440 0 563 570 576 577 81 1 573 1824 402 578 579 0
 563 580 581 82 1 574 1508115501 14 578 545 573 ?582 583 27 5 584 +0 0 582 583 2
2 81 1 579 1687 567 578 0 573 585 586 587 81 1 580 1825 402 582 586 0 573 588 58
9 82 1 581 1683751981 14 582 549 580 ?590 578 35 5 591 +0 0 590 578 22 81 1 586
 1688 567 582 0 580 579 592 593 81 1 588 1826 402 590 592 0 580 594 595 82 1 589
 1683293229 14 590 553 588 ?596 582 597 5 598 +0 0 596 582 22 81 1 592 1689 567
 590 0 588 586 599 600 81 1 594 1827 402 596 599 0 588 601 602 82 1 595 16825067
97 14 596 557 594 ?166 590 603 5 604 +0 0 166 590 22 81 1 599 1690 567 596 0 594
 592 605 606 81 1 601 1828 402 166 605 0 594 607 608 82 1 602 1681720365 14 166
 561 601 ?155 596 159 5 314 +0 0 155 596 22 81 1 605 1691 567 166 0 601 599 609
 610 81 1 607 1829 402 155 609 0 601 611 612 82 1 608 1680933933 14 155 565 607
 ?312 166 151 5 306 +0 0 312 166 22 81 1 609 1692 567 155 0 607 605 613 614 81 1
 611 1830 402 173 615 0 607 616 617 82 1 612 1677657133 14 173 1503 611 ?0 392 1
68 5 618 +0 0 0 392 22 81 1 615 1710 567 173 0 611 619 0 620 81 1 616 1831 402 6
21 622 0 611 623 624 82 1 617 1833894957 14 621 929 616 ?360 625 487 5 626 +0 0
 360 625 22 81 1 622 1696 567 621 0 616 627 628 629 81 1 623 1832 402 360 628 0
 616 630 631 82 1 624 1762985003 14 360 939 623 ?354 621 632 5 633 +0 0 354 621
 22 81 1 628 1697 567 360 0 623 622 634 635 81 1 630 1833 402 625 627 0 623 636
 637 82 1 631 1758004267 14 625 919 630 ?621 638 639 5 640 +0 0 621 638 22 81 1
 627 1695 567 625 0 630 641 622 642 81 1 636 1834 402 638 641 0 630 643 644 82 1
 637 1765082155 14 638 772 636 ?625 312 645 5 365 +0 0 625 312 22 81 1 641 1694
 567 638 0 636 613 627 646 81 1 643 1835 402 312 613 0 636 647 648 82 1 644 1727
988779 14 312 756 643 ?638 155 497 5 305 +0 0 638 155 22 81 1 613 1693 567 312 0
 643 609 641 649 81 1 647 1836 402 583 585 0 643 650 651 82 1 648 1731265579 14
 583 377 647 ?578 652 653 5 654 -0 0 578 652 22 81 1 585 1686 567 583 0 647 655
 579 656 81 1 650 1837 402 652 655 0 647 657 658 82 1 651 1564148772 14 652 373
 650 ?583 659 660 5 661 -0 0 583 659 22 81 1 655 1685 567 652 0 650 662 585 663
 81 1 657 1838 402 659 662 0 650 664 665 82 1 658 1563690020 14 659 369 657 ?652
 666 667 5 668 -0 0 652 666 22 81 1 662 1684 567 659 0 657 669 655 670 81 1 664
 1839 402 666 669 0 657 671 672 82 1 665 1562903588 14 666 365 664 ?659 673 674
 5 675 -0 0 659 673 22 81 1 669 1683 567 666 0 664 676 662 677 81 1 671 1840 402
 673 676 0 664 678 679 82 1 672 1562117156 14 673 361 671 ?666 424 680 5 681 -0
 0 666 424 22 81 1 676 1682 567 673 0 671 682 669 683 81 1 678 1841 402 424 682
 0 671 0 684 82 1 679 1561330724 14 424 357 678 ?673 421 685 5 420 -0 0 673 421
 22 81 1 682 1681 567 424 0 678 686 676 687 82 1 684 1558053924 80 1 567 0 688 8
001 0 0 0 0 3 5 0 0 0 FFFFTFTFFFFFFF2 81 1 686 1680 567 421 0 423 689 682 690 83
 255 3 687 1 1 1 81 1 423 1815 402 421 686 0 412 428 691 81 1 689 1679 567 425 0
 428 692 686 693 83 3 690 1 1 1 81 1 428 1816 402 425 689 0 423 431 694 81 1 692
 1678 567 429 0 431 437 689 695 83 3 693 1 1 1 81 1 431 1817 402 429 692 0 428 4
34 696 81 1 437 1677 567 432 0 434 576 692 697 83 3 695 1 1 1 81 1 576 1676 567
 435 0 438 572 437 698 83 3 697 1 1 1 81 1 438 1819 402 435 576 0 434 554 699 83
 3 698 1 1 1 82 1 699 1507787818 82 1 696 1506018346 82 1 694 1505428516 81 1 41
2 1814 402 310 700 0 408 423 701 82 1 691 1504248868 81 1 700 1670 567 310 0 412
 411 568 702 82 1 701 1767375913 81 1 411 1669 567 16 0 408 0 700 703 81 1 568 1
671 567 304 0 308 700 562 704 83 3 702 1 1 1 81 1 308 1800 402 304 568 0 0 322 7
05 83 3 704 1 1 1 81 1 322 1801 402 316 706 0 308 350 707 82 1 705 1766917163 81
 1 706 1701 567 316 0 322 708 709 710 81 1 350 1802 402 324 708 0 322 353 711 82
 1 707 1772880938 81 1 708 1700 567 324 0 350 712 706 713 81 1 353 1803 402 351
 712 0 350 359 714 82 1 711 1774453802 81 1 712 1699 567 351 0 353 634 708 715 8
1 1 359 1804 402 354 634 0 353 378 716 82 1 714 1775830058 81 1 634 1698 567 354
 0 359 628 712 717 81 1 378 1805 402 323 709 0 359 382 718 82 1 716 1776944170 8
1 1 709 1702 567 323 0 378 706 719 720 81 1 382 1806 402 379 719 0 378 386 721 8
2 1 718 1778320426 81 1 719 1703 567 379 0 382 709 722 723 81 1 386 1807 402 383
 722 0 382 390 724 82 1 721 1779565610 81 1 722 1704 567 383 0 386 719 725 726 8
1 1 390 1808 402 387 725 0 386 394 727 82 1 724 1780810794 81 1 725 1705 567 387
 0 390 722 728 729 81 1 394 1809 402 392 619 0 390 397 730 82 1 727 1782055978 8
1 1 619 1709 567 392 0 394 731 615 732 81 1 397 1810 402 395 731 0 394 400 733 8
2 1 730 1799095339 81 1 731 1708 567 395 0 397 403 619 734 82 1 733 1800668203 8
1 1 403 1707 567 398 0 400 728 731 735 83 3 734 1 1 1 81 1 728 1706 567 18 0 404
 725 403 736 83 3 735 1 1 1 81 1 404 1812 402 18 728 0 400 408 737 83 3 736 1 1
 1 82 1 737 1802961963 83 3 732 1 1 1 83 3 729 1 1 1 83 3 726 1 1 1 83 3 723 1 1
 1 83 3 720 1 1 1 83 3 717 1 1 1 83 3 715 1 1 1 83 3 713 1 1 1 83 3 710 1 1 1 83
 3 703 1 1 1 79 255 15 688 SDL/TYSA_COLOUR15 685 360 0 123 424 0 50 420 384 0 42
4 681 417 0 +.112246339454476 1478230955958032e-32 .000732746685198848 .86602540
3784439 .5 0 -.5 .866025403784439 0 50 681 385 0 673 675 420 0 +.108522430218203
 .00645 .000732746685198848 -232916992052274e-30 1 0 -1 -232916992052274e-30 0 5
0 675 386 0 666 668 681 0 +.101074611745657 .00645 .000732746685198848 -.8660254
03784439 .5 0 -.5 -.866025403784439 0 50 668 387 0 659 661 675 0 +.0973507025093
838 -201819874228946e-31 .000732746685198848 -.866025403784439 -.5 0 .5 -.866025
403784439 0 50 661 388 0 652 654 668 0 +.1010746117456568 -.00645 .0007327466851
98848 349375488078411e-30 -1 0 1 349375488078411e-30 0 50 654 389 0 583 584 661
 0 +.108522430218203 -.00645 .000732746685198848 .866025403784439 -.5 0 .5 .8660
25403784439 0 50 584 580 0 578 591 654 0 +.1087843848363394 -.0059962812921102 -
.000732746685198848 -.866025403784439 .5 0 -.5 -.866025403784439 0 50 591 581 0
 582 598 584 0 +.1087843848363394 .00599628129211021 -.000732746685198848 -.8660
25403784439 -.5 0 .5 -.866025403784439 0 50 598 582 0 590 604 591 0 +.0983985209
819299 .00645 -.000732746685198848 232916992052274e-30 -1 0 1 232916992052274e-3
0 0 50 604 583 0 596 314 598 0 +.0976126571275203 .00045371870788978 -.000732746
685198848 .866025403784439 -.5 0 .5 .866025403784439 0 50 314 584 0 166 306 604
 0 +.0976126571275203 -.00045371870788979 -.000732746685198848 .866025403784439
 .5 0 -.5 .866025403784439 0 17 123 0 685 247 106 103 738 256 0 249 +17 247 0 68
5 739 123 107 740 245 0 741 +17 106 0 685 123 739 104 251 235 0 255 -17 738 0 65
3 120 249 104 123 256 0 0 -17 249 0 653 738 274 103 742 211 0 740 +15 653 380 0
 274 583 0 17 274 0 653 249 120 100 743 257 0 742 +17 742 0 430 744 740 100 249
 211 0 0 -17 740 0 430 742 741 103 247 245 0 0 -15 430 260 0 741 425 745 17 741
 0 430 740 746 107 244 242 0 0 -17 746 0 430 741 747 127 241 239 0 0 -17 244 0 6
80 748 126 127 741 242 0 746 +15 680 364 0 126 673 0 17 748 0 680 136 244 109 12
9 269 0 272 -17 126 0 680 244 136 107 739 252 0 247 +17 136 0 680 126 748 108 27
2 270 0 739 -17 739 0 685 106 247 108 126 252 0 251 -17 251 0 749 272 255 108 10
6 235 0 0 +15 749 341 0 255 421 0 17 272 0 749 268 251 109 136 270 0 0 +17 255 0
 749 251 260 104 120 253 0 738 +17 260 0 749 255 264 118 117 258 0 0 +17 120 0 6
53 274 738 118 255 253 0 743 -17 743 0 660 117 102 118 274 257 0 260 -15 660 376
 0 134 652 0 17 117 0 660 134 743 115 260 258 0 750 -17 102 0 660 743 134 100 74
4 233 0 274 +17 134 0 660 102 117 124 750 261 0 238 +17 744 0 430 747 742 124 10
2 233 0 0 -17 747 0 430 746 744 130 238 236 0 0 -17 238 0 667 750 132 124 747 23
6 0 744 +15 667 372 0 132 659 0 17 750 0 667 114 238 115 134 261 0 264 -17 132 0
 667 238 114 130 751 265 0 241 +17 114 0 667 132 750 112 264 262 0 751 -17 751 0
 674 111 241 112 132 265 0 268 -17 241 0 674 751 129 130 746 239 0 747 +15 674 3
68 0 129 666 0 17 129 0 674 241 111 127 748 269 0 244 +17 111 0 674 129 751 109
 268 266 0 748 -17 268 0 749 264 272 112 111 266 0 0 +17 264 0 749 260 268 115 1
14 262 0 0 +15 745 117 0 288 425 0 17 288 0 745 288 288 0 752 286 0 0 +17 752 0
 753 752 752 0 288 286 0 0 -15 753 222 0 752 429 0 83 3 683 1 1 1 83 3 677 1 1 1
 83 3 670 1 1 1 83 3 663 1 1 1 83 3 656 1 1 1 83 3 649 1 1 1 83 3 646 1 1 1 15 6
45 775 0 199 638 0 50 365 807 0 638 640 313 0 +.10629852098193 .0125 -.0085 -1 0
 0 0 0 1 53 255 640 947 0 625 633 365 0 -.10479852098193 0 -.0085 .00325 0 0 1 -
1 0 0 51 633 948 0 360 626 640 0 -.10479852098193 0 0 0 0 1 .00325 1 0 0 53 626
 949 0 621 618 633 0 -.10479852098193 0 .0085 .00325 0 0 1 -1 0 0 50 618 1525 0
 173 0 626 0 +.10479852098193 0 -.02813782217350895 0 0 -1 -1 0 0 17 199 0 645 6
9 93 58 503 197 0 470 +17 69 0 645 495 199 67 469 484 0 202 +17 93 0 645 199 495
 91 509 535 0 503 +17 470 0 406 504 754 58 407 462 0 469 -15 406 1329 0 755 18 0
 17 504 0 406 755 470 49 60 478 0 471 -17 754 0 406 470 755 52 57 476 0 407 -17
 469 0 401 407 496 58 69 484 0 0 -17 496 0 401 469 468 67 63 178 0 493 -17 468 0
 401 496 407 61 54 480 0 486 -17 63 0 396 489 493 61 496 178 0 468 +15 396 1335
 0 63 392 0 17 489 0 396 72 63 64 486 485 0 756 -17 72 0 396 493 489 70 756 176
 0 499 +17 756 0 399 757 499 64 72 176 0 0 -15 399 1333 0 471 395 0 17 757 0 399
 471 756 55 66 482 0 0 -17 499 0 399 756 471 70 51 24 0 490 -17 471 0 399 499 75
7 49 755 467 0 0 +17 755 0 406 754 504 55 471 467 0 757 -17 66 0 632 186 758 64
 757 482 0 488 +15 632 941 0 186 360 0 17 186 0 632 54 66 61 488 184 0 0 +17 758
 0 632 66 54 55 190 187 0 755 -17 488 0 487 486 486 64 186 184 0 489 -15 487 931
 0 488 621 759 15 759 932 0 193 621 0 17 193 0 759 193 193 0 760 191 0 0 +17 760
 0 761 760 760 0 193 191 0 0 -15 761 895 0 760 310 0 17 54 0 632 758 186 52 468
 480 0 190 +17 190 0 639 57 57 52 758 187 0 754 +15 639 921 0 190 625 762 17 57
 0 639 190 190 55 754 476 0 758 +15 762 922 0 196 625 0 17 196 0 762 196 196 0 4
15 194 0 0 +17 415 0 409 415 415 0 196 194 0 0 -17 60 0 311 503 208 58 504 478 0
 199 +17 495 0 645 93 69 76 202 200 0 512 -17 509 0 355 510 505 76 93 535 0 0 -8
3 3 642 1 1 1 83 3 635 1 1 1 83 3 629 1 1 1 83 3 620 1 1 1 83 3 614 1 1 1 83 3 6
10 1 1 1 83 3 606 1 1 1 15 603 1425 0 45 596 0 17 45 0 603 147 763 41 169 170 0
 163 -17 147 0 603 764 45 145 163 167 0 160 +17 763 0 603 45 764 34 144 216 0 16
9 -17 169 0 168 175 164 34 45 170 0 0 +16 170 1472 0 ?169 180 165 765 0 0 1 16 1
80 1473 0 ?175 38 170 183 0 0 1 30 765 1530 0 170 172 183 0 +.0976126571275203 .
00045371870788978 -.02813782217350895 .5 .866025403784439 0 30 172 1531 0 165 76
6 765 0 +.0976126571275203 -.00045371870788979 -.02813782217350895 -.5 .86602540
3784439 0 30 183 1529 0 180 765 181 0 +.0983985209819299 .00645 -.02813782217350
895 1 232916992052274e-30 0 31 766 1541 0 171 0 172 0 +.10479852098193 0 -.02813
782217350895 0 0 -1 -1 0 0 .0025 16 171 1480 0 ?767 165 0 766 0 0 1 17 767 0 416
 767 767 0 768 171 0 0 +15 416 1519 0 767 16 0 17 768 0 174 768 768 0 767 171 0
 0 -15 174 1506 0 768 173 0 17 175 0 168 37 169 26 40 180 0 0 +17 40 0 597 144 3
9 34 175 180 0 763 -15 597 1432 0 40 590 0 17 144 0 597 769 40 142 763 216 0 764
 +17 39 0 597 40 769 26 36 220 0 175 -17 769 0 597 39 144 139 219 217 0 223 -17
 36 0 35 770 33 139 39 220 0 769 +15 35 1439 0 33 582 0 17 770 0 35 32 36 137 22
3 221 0 227 -17 32 0 35 33 770 11 28 224 0 37 -17 223 0 771 219 227 139 770 221
 0 0 +17 227 0 771 223 156 137 772 225 0 0 +15 771 479 0 227 419 0 17 156 0 771
 227 158 97 152 157 0 0 +17 772 0 27 29 28 97 227 225 0 156 -15 27 1443 0 25 578
 0 17 29 0 27 25 772 46 99 209 0 30 -17 28 0 27 772 25 137 32 224 0 770 +17 99 0
 151 152 48 97 29 209 0 772 +17 158 0 771 156 215 121 160 161 0 0 +17 215 0 771
 158 219 145 764 213 0 0 +17 160 0 159 163 149 145 158 161 0 215 -17 219 0 771 2
15 223 142 769 217 0 0 +17 764 0 603 763 147 142 215 213 0 219 -83 3 600 1 1 1 8
3 3 593 1 1 1 83 3 587 1 1 1 81 1 570 1674 567 419 0 558 557 572 773 83 3 577 1
 1 1 81 1 557 1673 567 332 0 554 562 570 774 83 3 773 1 1 1 83 3 774 1 1 1 15 57
5 140 0 282 440 775 51 300 154 0 440 334 291 0 -.10479852098193 0 0 0 0 1 .0125
 1 0 0 52 334 153 0 435 320 300 0 -.10479852098193 0 -.01443782217350894 0 0 -1
 .0125 .965925826289068 .258819045102521 -1 0 0 17 282 0 575 282 282 0 776 280 0
 0 +15 775 1065 0 453 440 0 17 453 0 775 453 453 0 777 449 0 0 +17 777 0 380 777
 777 0 453 449 0 0 -15 380 1168 0 777 323 547 17 776 0 560 776 776 0 282 280 0 0
 -15 560 215 0 776 419 771 82 1 571 1695613989 83 3 569 1 1 1 79 14 566 SWEntUnc
hanged82 1 559 1733887018 17 459 0 433 459 459 0 778 451 0 0 +15 433 1083 0 459
 429 753 17 778 0 779 778 778 0 459 451 0 0 -15 779 1208 0 778 387 0 15 391 1207
 0 447 387 779 82 1 439 1506608170 15 426 219 0 780 421 749 17 780 0 426 780 780
 0 285 283 0 0 -17 285 0 414 285 285 0 780 283 0 0 +15 414 102 0 285 310 761 82
 1 413 1767834669 82 1 405 1801847851 141 366 536 781 781 313 141 781 328 366 36
6 313 141 364 317 357 357 328 141 363 358 363 363 356 141 335 518 782 783 320 14
1 782 299 784 335 320 141 783 303 335 784 320 141 784 328 783 782 320 141 331 32
6 319 319 303 141 330 321 330 330 318 141 327 536 327 327 317 141 302 287 302 30
2 291 19 17 76 0 1 0 9 5 S0 74 4 CI16 index_map_offset0 0 1 dCCZ20 15 9 0 0 678
 785 786 787 788 789 615 13 2 0 0 0 0 0 0 0 0 0 0 0 81 2 785 1563 790 1 0 786 0
 0 0 791 81 2 786 1567 792 1 785 787 0 0 0 793 81 1 787 1577 794 1 786 788 0 0 7
95 81 2 788 1621 796 1 787 789 0 0 0 797 81 2 789 1624 798 1 788 13 0 0 0 0 81 2
 13 1798 799 1 789 2 0 0 800 0 80 2 799 801 802 8004 0 0 0 0 3 5 0 0 0 FFTFFFFFF
FFFFF2 3 83 1 800 1150 79 16 802 SDL/TYSA_DENSITY80 2 798 803 804 9000 0 0 0 0 3
 5 0 0 0 FFTFFFFFFFFFFF9 1 79 16 804 BODY_RECIPE_200180 2 796 805 806 9000 0 0 0
 0 3 5 0 0 0 FFTFFFFFFFFFFF9 1 82 1 797 1 79 24 806 BODY_IN_LIGHTWEIGHT_PERM80 1
 794 807 808 9000 1 1 1 1 1 1 1 1 0 FFTFFFFFFFFFFF1 82 1 795 2709787 79 10 808 B
ODY_MATCH80 2 792 809 810 9000 0 0 0 0 3 5 0 0 0 FFTFFFFFFFFFFF9 1 82 1 793 212
 79 30 810 LAST_BODY_MODIFYING_FEATURE_ID80 2 790 811 812 9000 0 0 0 0 3 5 0 0 0
 FFTFFFFFFFFFFT9 1 82 1 791 441 79 19 812 ENT_TIME_STAMP_200180 2 12 813 814 900
0 0 0 0 0 3 5 0 0 0 FFTFFFFFFFFFFF9 1 82 1 14 111 79 12 814 ATOM_ID_20011 0 
