**ABCDEFGHIJKLMNOPQRSTUVWXYZabcdefghijklmnopqrstuvwxyz**************************
**PARASOLID !"#$%&'()*+,-./:;<=>?@[\]^_`{|}~0123456789**************************
**PART1;
MC=AMD64;
MC_MODEL=Intel64 Family 6 Model 58 Stepping 9, GenuineIntel;
MC_ID=unknown;
OS=Windows_NT;
OS_RELEASE=unknown;
FRU=Parasolid Version 31.0, build 264, 12-10-2018;
APPL=SOLIDWORKS 2019-2019057;
SITE=;
USER=unknown;
FORMAT=text;
GUISE=transmit;
KEY=1690-20-8311;
FILE=1690-20-8311.x_t;
DATE=Sun Apr  5 22:59:00 2020;
**PART2;
SCH=SCH_3100264_31001;
USFLD_SIZE=0;
**PART3;
**END_OF_HEADER*****************************************************************
T51 : TRANSMIT FILE created by modeller version 310026423 SCH_3100264_31001_1300
6215 0 12 34 CCCCCCI4 mesh1006 0 I8 polyline1008 0 CCCCCCCDI5 owner1040 0 CCCCCC
I13 boundary_mesh1006 0 I17 boundary_polyline1008 0 CCCA16 index_map_offset0 0 1
 dA9 index_map82 0 A17 node_id_index_map82 0 A20 schema_embedding_map82 0 A5 chi
ld12 0 A14 lowest_node_id0 0 1 dA16 mesh_offset_data206 0 Z1 1494 2 3 0 0 0 0 0
 0 1e3 1e-8 0 4 0 1 0 1 1 5 6 7 8 0 0 9 10 11 0 0 0 0 0 0 0 81 255 2 2 1463 12 1
 13 0 0 0 0 14 70 11 CI9 list_type0 0 1 uI10 notransmit0 0 1 lCCCDCCDI12 finger_
index0 0 1 dI12 finger_block1012 0 CZ3 0 4 T1 0 0 9 20 1 15 15 13 255 5 371 0 1
 0 16 0 0 17 0 51 255 6 1130 0 18 19 0 0 +.0594357284597666 -.0432393823089194 -
.0095 0 0 -1 .02 -1 0 0 31 255 7 1083 0 10 20 0 0 -.0594357284597666 -.043239382
3089194 -.0095 0 0 1 1 0 0 .02 29 255 8 1054 0 11 21 0 .04326274112377565 -.0314
735639935672 -.0095 19 8 CCCCCCCA5 owner12 0 Z9 107 0 1 17 0 22 V0 16 255 10 107
5 0 ?23 0 24 7 0 0 1 18 255 11 1052 0 25 0 26 8 ?1 17 255 25 0 27 28 29 11 30 31
 0 32 +18 26 1049 0 33 11 34 21 ?1 17 33 0 35 36 37 26 38 24 0 29 +18 34 1036 0
 23 26 39 40 ?1 29 21 1051 0 26 40 8 .04326274112377565 -.0314735639935672 -.013
5 29 40 1038 0 34 41 21 .0560867410864417 -.02352176877245635 -.0095 29 41 1035
 0 39 42 40 .1193162986757764 -.01278238646353694 -.0095 18 39 1033 0 43 34 44 4
1 ?1 29 42 1032 0 44 45 41 .0560867410864417 -.02352176877245635 -.0135 18 44 10
30 0 38 39 46 42 ?1 29 45 1029 0 46 47 42 .1193162986757764 -.01278238646353694
 -.0135 18 46 1027 0 48 44 49 45 ?1 29 47 1021 0 49 50 45 .1226652860491012 -.01
25 -.0095 18 49 1019 0 51 46 52 47 ?1 29 50 1018 0 52 53 47 .1226652860491012 -.
0125 -.0135 18 52 1016 0 54 49 55 50 ?1 29 53 570 0 55 56 50 .191034712140447 -.
00177535207775806 -.0095 18 55 568 0 57 52 58 53 ?1 29 56 520 0 58 59 53 .192679
7538632605 -.00462464792224183 -.0135 18 58 518 0 60 55 61 56 ?1 29 59 283 0 62
 63 56 -.047291300888758 -.025015652305086 -.0135 18 62 256 0 64 65 66 59 ?1 29
 63 284 0 66 67 59 -.04233531916587845 -.01622024257250075 -.0135 18 66 257 0 68
 62 69 63 ?1 29 67 285 0 69 70 63 .0870787823018981 .012088052776921 -.0135 18 6
9 258 0 71 66 72 67 ?1 29 70 286 0 72 73 67 .0892636544176856 .0125 -.0135 18 72
 259 0 74 69 75 70 ?1 29 73 287 0 75 76 70 .2317909281641095 .0125 -.0135 18 75
 260 0 77 72 78 73 ?1 29 76 288 0 78 79 73 .2339807308915275 .000913877551020376
 -.0135 18 78 261 0 80 75 81 76 ?1 29 79 289 0 81 82 76 .201961884601528 -.01163
775510204082 -.0135 18 81 262 0 83 78 84 79 ?1 29 82 290 0 84 85 79 .19739979558
60745 -.0125 -.0135 18 84 263 0 86 81 87 82 ?1 29 85 99 0 61 88 82 -.04729130088
8758 -.025015652305086 -.0095 18 61 97 0 89 58 90 85 ?1 29 88 96 0 90 91 85 -.04
233531916587845 -.01622024257250075 -.0095 18 90 94 0 92 61 93 88 ?1 29 91 93 0
 93 94 88 .0870787823018981 .012088052776921 -.0095 18 93 91 0 95 90 96 91 ?1 29
 94 90 0 96 97 91 .0892636544176856 .0125 -.0095 18 96 88 0 98 93 99 94 ?1 29 97
 87 0 99 100 94 .2317909281641095 .0125 -.0095 18 99 85 0 101 96 102 97 ?1 29 10
0 84 0 102 103 97 .2339807308915275 .000913877551020376 -.0095 18 102 82 0 104 9
9 105 100 ?1 29 103 81 0 105 106 100 .201961884601528 -.01163775510204082 -.0095
 18 105 79 0 107 102 65 103 ?1 29 106 78 0 65 108 103 .1973997955860745 -.0125 -
.0095 18 65 76 0 109 105 62 106 ?1 29 108 926 0 87 110 106 .191034712140447 .001
77535207775813 -.0135 18 87 744 0 111 84 112 108 ?1 29 110 927 0 112 113 108 .19
26797538632605 .00462464792224193 -.0135 18 112 746 0 114 87 115 110 ?1 29 113 9
28 0 115 116 110 .1957547538632605 .0064 -.0135 18 115 748 0 117 112 118 113 ?1
 29 116 929 0 118 119 113 .199044837308888 .00639999999999992 -.0135 18 118 750
 0 120 115 121 116 ?1 29 119 930 0 121 122 116 .202119837308888 .004624647922241
84 -.0135 18 121 752 0 123 118 124 119 ?1 29 122 931 0 124 125 119 .203764879031
7015 .001775352077757955 -.0135 18 124 754 0 126 121 127 122 ?1 29 125 932 0 127
 128 122 .2037648790317015 -.001775352077758155 -.0135 18 127 756 0 129 124 130
 125 ?1 29 128 933 0 130 131 125 .2021198373088875 -.00462464792224201 -.0135 18
 130 758 0 132 127 133 128 ?1 29 131 934 0 133 134 128 .199044837308888 -.0064 -
.0135 18 133 760 0 135 130 136 131 ?1 29 134 935 0 136 137 131 .1957547538632605
 -.0064 -.0135 18 136 762 0 138 133 139 134 ?1 29 137 937 0 139 140 134 .1910347
12140447 -.00177535207775807 -.0135 18 139 731 0 141 136 142 137 ?1 29 140 938 0
 142 143 137 .191034712140447 .00177535207775813 -.0095 18 142 733 0 144 139 145
 140 ?1 29 143 939 0 145 146 140 .1926797538632605 .00462464792224193 -.0095 18
 145 734 0 147 142 148 143 ?1 29 146 940 0 148 149 143 .1957547538632605 .0064 -
.0095 18 148 735 0 150 145 151 146 ?1 29 149 941 0 151 152 146 .199044837308888
 .00639999999999992 -.0095 18 151 736 0 153 148 154 149 ?1 29 152 942 0 154 155
 149 .202119837308888 .00462464792224184 -.0095 18 154 737 0 156 151 157 152 ?1
 29 155 943 0 157 158 152 .2037648790317015 .001775352077757955 -.0095 18 157 73
8 0 159 154 160 155 ?1 29 158 944 0 160 161 155 .2037648790317015 -.001775352077
758155 -.0095 18 160 739 0 162 157 163 158 ?1 29 161 945 0 163 164 158 .20211983
73088875 -.00462464792224201 -.0095 18 163 740 0 165 160 166 161 ?1 29 164 946 0
 166 167 161 .199044837308888 -.0064 -.0095 18 166 741 0 168 163 169 164 ?1 29 1
67 947 0 169 170 164 .1957547538632605 -.0064 -.0095 18 169 742 0 171 166 172 16
7 ?1 29 170 948 0 172 0 167 .1926797538632605 -.00462464792224182 -.0095 18 172
 743 0 173 169 0 170 ?1 17 173 0 174 175 176 172 60 177 0 178 +15 255 174 813 0
 173 179 0 17 175 0 174 180 173 169 181 182 0 183 +17 176 0 174 173 180 58 184 1
85 0 186 -17 60 0 187 141 178 58 173 177 0 176 -16 177 646 0 ?173 188 189 190 0
 0 1 17 178 0 187 60 191 172 192 193 0 181 +15 187 817 0 191 194 0 17 191 0 187
 178 141 55 195 189 0 192 +17 192 0 196 197 181 55 178 193 0 0 -16 193 698 0 ?17
8 182 198 199 0 0 1 17 181 0 196 192 183 172 175 182 0 0 -15 196 616 0 197 200 2
01 17 183 0 196 181 202 169 203 204 0 0 -16 182 701 0 ?175 204 193 205 0 0 1 16
 204 704 0 ?203 206 182 207 0 0 1 31 205 911 0 182 199 207 0 +.1947297538632605
 -.00462464792224186 -.0095 0 0 1 1 0 0 .00205 30 255 199 912 0 193 208 205 0 +.
1926797538632605 -.00462464792224182 -.0095 .499999999999993 -.866025403784443 0
 30 207 910 0 204 205 209 0 +.199044837308888 -.0064 -.0095 1 -1186330950400454e
-29 0 31 209 909 0 206 207 210 0 +.200069837308888 -.00462464792224195 -.0095 0
 0 1 1 0 0 .002049999999999955 16 206 707 0 ?211 212 204 209 0 0 1 30 210 908 0
 212 209 213 0 +.2037648790317015 -.00177535207775819 -.0095 .500000000000029 .8
66025403784422 0 16 212 710 0 ?214 215 206 210 0 0 1 31 213 907 0 215 210 216 0
 +.2027398790317015 -780625564189563e-31 -.0095 0 0 1 1 0 0 .00204999999999997 1
6 215 713 0 ?217 218 212 213 0 0 1 30 216 906 0 218 213 219 0 +.202119837308888
 .00462464792224184 -.0095 -.499999999999968 .866025403784457 0 16 218 716 0 ?22
0 221 215 216 0 0 1 31 219 905 0 221 216 222 0 +.200069837308888 .00462464792224
186 -.0095 0 0 1 1 0 0 .00205 16 221 719 0 ?223 224 218 219 0 0 1 30 222 904 0 2
24 219 225 0 +.1957547538632605 .0064 -.0095 -1 2662653910898865e-29 0 16 224 72
2 0 ?226 227 221 222 0 0 1 31 225 903 0 227 222 228 0 +.1947297538632605 .004624
64792224192 -.0095 0 0 1 1 0 0 .00205 16 227 725 0 ?229 230 224 225 0 0 1 30 228
 902 0 230 225 231 0 +.191034712140447 .00177535207775813 -.0095 -.5 -.866025403
784436 0 16 230 728 0 ?232 189 227 228 0 0 1 30 231 901 0 233 228 234 0 +.191034
712140447 .00177535207775813 -.0195 0 0 1 16 233 626 0 ?144 235 236 231 0 0 1 30
 234 900 0 236 231 237 0 +.1926797538632605 .00462464792224193 -.0195 0 0 1 16 2
36 628 0 ?147 233 238 234 0 0 1 30 237 899 0 238 234 239 0 +.1957547538632605 .0
064 -.0195 0 0 1 16 238 630 0 ?150 236 240 237 0 0 1 30 239 898 0 240 237 241 0
 +.199044837308888 .00639999999999992 -.0195 0 0 1 16 240 632 0 ?153 238 242 239
 0 0 1 30 241 897 0 242 239 243 0 +.202119837308888 .00462464792224184 -.0195 0
 0 1 16 242 634 0 ?156 240 244 241 0 0 1 30 243 896 0 244 241 245 0 +.2037648790
317015 .001775352077757955 -.0195 0 0 1 16 244 636 0 ?159 242 246 243 0 0 1 30 2
45 895 0 246 243 247 0 +.2037648790317015 -.001775352077758155 -.0195 0 0 1 16 2
46 638 0 ?162 244 248 245 0 0 1 30 247 894 0 248 245 249 0 +.2021198373088875 -.
00462464792224201 -.0195 0 0 1 16 248 640 0 ?165 246 250 247 0 0 1 30 249 893 0
 250 247 251 0 +.199044837308888 -.0064 -.0195 0 0 1 16 250 642 0 ?168 248 188 2
49 0 0 1 30 251 892 0 188 249 190 0 +.1957547538632605 -.0064 -.0195 0 0 1 16 18
8 644 0 ?171 250 177 251 0 0 1 30 190 891 0 177 251 252 0 +.1926797538632605 -.0
0462464792224182 -.0195 0 0 1 30 252 890 0 189 190 253 0 +.191034712140447 -.001
77535207775807 -.0195 0 0 1 16 189 624 0 ?191 177 230 252 0 0 1 31 253 11 0 254
 252 255 0 +.2317909281641095 .0065 -.0095 0 0 1 1 0 0 .00255 16 254 10 0 ?256 2
57 258 253 0 0 1 31 255 19 0 257 253 259 0 +.1605272912908975 -.0065 -.0095 0 0
 1 1 0 0 .00255 16 257 18 0 ?260 261 254 255 0 0 1 31 259 23 0 261 255 262 0 +.0
892636544176856 .0065 -.0095 0 0 1 1 0 0 .00254999999315466 16 261 22 0 ?263 264
 257 259 0 0 1 31 262 27 0 264 259 265 0 +.04198760359282255 -.02221015858862775
 -.0095 0 0 1 1 0 0 .00255 16 264 26 0 ?266 267 261 262 0 0 1 30 265 31 0 267 26
2 268 0 +-3404938858480625e-33 -.0125 -.0095 1 -272395108678451e-30 0 16 267 102
0 0 ?109 269 264 265 0 0 1 31 268 35 0 269 265 270 0 +.1973997955860745 -2523458
731219835e-41 -.0095 0 0 1 1 0 0 .0125 16 269 34 0 ?107 271 267 268 0 0 1 30 270
 39 0 271 268 272 0 +.0308559391050986 -.0787125945005073 -.0095 .93102040816326
6 .3649671212362925 0 16 271 38 0 ?104 273 269 270 0 0 1 31 272 43 0 273 270 274
 0 +.2317909281641095 .0065 -.0095 0 0 1 1 0 0 .006 16 273 42 0 ?101 275 271 272
 0 0 1 30 274 48 0 275 272 276 0 +-252205051991327e-32 .0125 -.0095 1 2017640415
93062e-30 0 16 275 47 0 ?277 278 273 274 0 0 1 31 276 53 0 278 274 279 0 +.08926
36544176856 .0065 -.0095 0 0 1 1 0 0 .006 16 278 52 0 ?95 280 275 276 0 0 1 31 2
79 57 0 280 276 281 0 +-.0668293115975096 .405725074042725 -.0095 0 0 1 1 0 0 .4
2265565875635 16 280 56 0 ?282 283 278 279 0 0 1 31 281 61 0 283 279 284 0 +-.04
198760359282255 -.02221015858862775 -.0095 0 0 1 1 0 0 .006 16 283 60 0 ?89 285
 280 281 0 0 1 31 284 65 0 285 281 286 0 +0 0 -.0095 0 0 1 1 0 0 .0535 16 285 64
 0 ?32 287 283 284 0 0 1 30 286 69 0 287 284 288 0 +.00545572593570314 -.0321213
2013930305 -.0095 -.985880676823152 -.167449368666245 0 16 287 1034 0 ?289 290 2
85 286 0 0 1 31 288 73 0 290 286 291 0 +-.04198760359282255 -.02221015858862775
 -.0095 0 0 1 1 0 0 .00255 16 290 72 0 ?292 293 287 288 0 0 1 31 291 280 0 235 2
88 294 0 +.2317909281641095 .0065 -.0135 0 0 1 1 0 0 .00255 16 235 249 0 ?295 29
6 233 291 0 0 1 31 294 278 0 296 291 297 0 +.1605272912908975 -.0065 -.0135 0 0
 1 1 0 0 .00255 16 296 239 0 ?298 299 235 294 0 0 1 31 297 277 0 299 294 300 0 +
.0892636544176856 .0065 -.0135 0 0 1 1 0 0 .00254999999315466 16 299 234 0 ?301
 302 296 297 0 0 1 31 300 276 0 302 297 303 0 +.04198760359282255 -.022210158588
62775 -.0135 0 0 1 1 0 0 .00255 16 302 229 0 ?304 305 299 300 0 0 1 30 303 275 0
 305 300 306 0 +-3404938858480625e-33 -.0125 -.0135 1 -272395108678451e-30 0 16
 305 1017 0 ?86 307 302 303 0 0 1 31 306 274 0 307 303 308 0 +.1973997955860745
 -2523458731219835e-41 -.0135 0 0 1 1 0 0 .0125 16 307 219 0 ?83 309 305 306 0 0
 1 30 308 273 0 309 306 310 0 +.0308559391050986 -.0787125945005073 -.0135 .9310
20408163266 .3649671212362925 0 16 309 214 0 ?80 311 307 308 0 0 1 31 310 272 0
 311 308 312 0 +.2317909281641095 .0065 -.0135 0 0 1 1 0 0 .006 16 311 208 0 ?31
3 314 309 310 0 0 1 30 312 271 0 314 310 315 0 +-252205051991327e-32 .0125 -.013
5 1 201764041593062e-30 0 16 314 202 0 ?316 317 311 312 0 0 1 31 315 270 0 317 3
12 318 0 +.0892636544176856 .0065 -.0135 0 0 1 1 0 0 .006 16 317 197 0 ?319 320
 314 315 0 0 1 31 318 269 0 320 315 321 0 +-.0668293115975096 .405725074042725 -
.0135 0 0 1 1 0 0 .42265565875635 16 320 192 0 ?322 323 317 318 0 0 1 31 321 268
 0 323 318 324 0 +-.04198760359282255 -.02221015858862775 -.0135 0 0 1 1 0 0 .00
6 16 323 187 0 ?64 325 320 321 0 0 1 31 324 267 0 325 321 326 0 +0 0 -.0135 0 0
 1 1 0 0 .0535 16 325 182 0 ?29 327 323 324 0 0 1 30 326 266 0 327 324 328 0 +.0
0545572593570314 -.03212132013930305 -.0135 -.985880676823152 -.167449368666245
 0 16 327 1028 0 ?37 258 325 326 0 0 1 31 328 265 0 258 326 329 0 +-.04198760359
282255 -.02221015858862775 -.0135 0 0 1 1 0 0 .00255 16 258 172 0 ?330 254 327 3
28 0 0 1 30 329 363 0 293 328 331 0 +-.047291300888758 -.025015652305086 -.0095
 0 0 -1 16 293 293 0 ?332 333 290 329 0 0 1 30 331 364 0 333 329 334 0 +-.042335
31916587845 -.01622024257250075 -.0095 0 0 -1 16 333 294 0 ?68 335 293 331 0 0 1
 30 334 365 0 335 331 336 0 +.0870787823018981 .012088052776921 -.0095 0 0 -1 16
 335 295 0 ?71 337 333 334 0 0 1 30 336 366 0 337 334 338 0 +.0892636544176856 .
0125 -.0095 0 0 -1 16 337 296 0 ?74 339 335 336 0 0 1 30 338 367 0 339 336 340 0
 +.2317909281641095 .0125 -.0095 0 0 -1 16 339 297 0 ?77 341 337 338 0 0 1 30 34
0 368 0 341 338 342 0 +.2339807308915275 .000913877551020376 -.0095 0 0 -1 16 34
1 298 0 ?343 344 339 340 0 0 1 30 342 369 0 344 340 345 0 +.201961884601528 -.01
163775510204082 -.0095 0 0 -1 16 344 299 0 ?346 347 341 342 0 0 1 30 345 370 0 3
47 342 348 0 +.1973997955860745 -.0125 -.0095 0 0 -1 16 347 300 0 ?349 350 344 3
45 0 0 1 30 348 521 0 350 345 351 0 +.1425072841053366 .082276618839697 -.0135 .
499999999999993 -.866025403784443 0 16 350 519 0 ?186 185 347 348 0 0 1 31 351 5
25 0 185 348 352 0 +.1947297538632605 -.00462464792224186 -.0135 0 0 1 1 0 0 .00
205 16 185 523 0 ?184 353 350 351 0 0 1 30 352 529 0 353 351 354 0 +-75925180825
6014e-31 -.00639999999999767 -.0135 1 -1186330950400454e-29 0 16 353 527 0 ?355
 356 185 352 0 0 1 31 354 533 0 356 352 357 0 +.200069837308888 -.00462464792224
195 -.0135 0 0 1 1 0 0 .002049999999999955 16 356 531 0 ?358 359 353 354 0 0 1 3
0 357 537 0 359 354 360 0 +.1535924092737705 -.0886766188397013 -.0135 .50000000
0000029 .866025403784422 0 16 359 535 0 ?361 362 356 357 0 0 1 31 360 541 0 362
 357 363 0 +.2027398790317015 -780625564189563e-31 -.0135 0 0 1 1 0 0 .002049999
99999997 16 362 539 0 ?364 365 359 360 0 0 1 30 363 545 0 365 360 366 0 +.153592
4092737825 .088676618839694 -.0135 -.499999999999968 .866025403784457 0 16 365 5
43 0 ?367 368 362 363 0 0 1 31 366 549 0 368 363 369 0 +.200069837308888 .004624
64792224186 -.0135 0 0 1 1 0 0 .00205 16 368 547 0 ?370 371 365 366 0 0 1 30 369
 553 0 371 366 372 0 +1704098502976665e-31 .00640000000000522 -.0135 -1 26626539
10898865e-29 0 16 371 551 0 ?373 374 368 369 0 0 1 31 372 557 0 374 369 375 0 +.
1947297538632605 .00462464792224192 -.0135 0 0 1 1 0 0 .00205 16 374 555 0 ?376
 377 371 372 0 0 1 30 375 561 0 377 372 378 0 +.1425072841053342 -.0822766188396
984 -.0135 -.5 -.866025403784436 0 16 377 559 0 ?379 380 374 375 0 0 1 31 378 56
4 0 380 375 381 0 +.192059712140447 264545330086463e-31 -.0135 0 0 1 1 0 0 .0020
5 16 380 562 0 ?382 383 377 378 0 0 1 30 381 1024 0 383 378 384 0 +.122665286049
1012 -.0125 -.0095 0 0 -1 16 383 1022 0 ?385 386 380 381 0 0 1 30 384 1041 0 386
 381 387 0 +.0560867410864417 -.0235217687724564 -.0095 0 0 -1 16 386 1039 0 ?38
8 389 383 384 0 0 1 30 387 1046 0 389 384 390 0 -.1193162986757762 -.01278238646
353694 -.0095 0 0 -1 16 389 1044 0 ?43 31 386 387 0 0 1 30 390 1057 0 31 387 391
 0 -.04326274112377565 -.0314735639935672 -.0095 0 0 -1 16 31 1055 0 ?25 392 389
 390 0 0 1 31 391 1080 0 392 390 393 0 +.1226652860491012 -.0325 -.0135 0 0 1 1
 0 0 .02 16 392 1060 0 ?48 394 31 391 0 0 1 31 393 1081 0 394 391 20 0 -.1226652
860491012 -.0325 -.0095 0 0 1 1 0 0 .02 16 394 1065 0 ?51 24 392 393 0 0 1 31 20
 1082 0 24 393 7 0 +.0594357284597666 -.0432393823089194 -.0135 0 0 1 1 0 0 .02
 16 24 1070 0 ?33 10 394 20 0 0 1 17 51 0 395 109 396 49 397 394 0 398 +15 395 8
 0 396 200 399 17 109 0 395 107 51 65 398 267 0 400 +17 396 0 395 51 23 39 289 2
87 0 397 -17 397 0 401 402 403 39 51 394 0 0 -17 398 0 404 385 405 49 109 267 0
 403 -15 404 323 0 398 16 0 17 385 0 404 86 398 52 403 383 0 406 +17 405 0 404 3
98 86 65 349 347 0 0 -17 403 0 401 397 54 49 385 383 0 0 -15 401 1098 0 397 407
 0 17 54 0 401 403 402 52 48 392 0 385 -17 402 0 401 54 397 46 43 389 0 0 -17 48
 0 35 37 406 46 54 392 0 408 +15 35 170 0 406 409 410 17 37 0 35 33 48 44 408 32
7 0 0 +17 406 0 35 48 411 52 86 305 0 0 -17 408 0 412 43 388 46 37 327 0 402 -15
 412 305 0 408 413 0 17 43 0 412 289 408 39 402 389 0 396 +17 388 0 412 408 289
 44 414 386 0 37 +17 289 0 412 388 43 34 396 287 0 414 +17 414 0 415 416 38 34 3
88 386 0 0 -15 415 1119 0 416 18 0 17 416 0 415 30 414 11 23 10 0 0 -17 38 0 415
 414 30 44 33 24 0 388 -17 30 0 415 38 416 26 25 31 0 0 -17 23 0 395 396 32 34 4
16 10 0 289 +17 32 0 395 23 89 11 28 285 0 416 +17 89 0 395 32 417 61 418 283 0
 419 +17 28 0 27 332 25 61 32 285 0 0 -15 27 307 0 29 420 0 17 332 0 27 29 28 62
 419 293 0 36 +17 29 0 27 25 332 26 36 325 0 30 +17 419 0 421 418 64 61 332 293
 0 28 -17 36 0 35 422 33 62 29 325 0 0 -17 422 0 35 322 36 66 64 323 0 423 -17 3
22 0 35 424 422 69 423 320 0 0 +17 64 0 421 419 68 62 422 323 0 332 +17 423 0 42
5 92 71 66 322 320 0 0 -15 425 311 0 423 426 0 17 92 0 425 282 423 90 68 333 0 4
18 -17 71 0 425 423 282 69 427 335 0 319 +17 282 0 425 71 92 93 417 280 0 0 +17
 427 0 428 429 319 93 71 335 0 282 -17 319 0 428 427 74 69 424 317 0 322 +15 428
 313 0 319 430 0 17 74 0 428 319 429 72 98 337 0 424 +17 424 0 35 316 322 72 319
 317 0 431 -17 316 0 35 432 424 75 431 314 0 0 +17 431 0 433 98 77 72 316 314 0
 0 -15 433 315 0 431 434 0 17 98 0 433 277 431 96 74 337 0 429 -17 77 0 433 431
 277 75 435 339 0 313 +17 277 0 433 77 98 99 436 275 0 0 +17 435 0 437 438 313 9
9 77 339 0 277 -17 313 0 437 435 343 75 432 311 0 316 +15 437 317 0 313 439 0 17
 343 0 437 313 438 78 440 341 0 432 +17 432 0 35 441 316 78 313 311 0 0 -17 441
 0 35 411 432 81 80 309 0 0 -17 411 0 35 406 441 84 83 307 0 349 -17 80 0 442 44
0 346 78 441 309 0 343 +15 442 319 0 80 443 0 17 440 0 442 444 80 102 343 341 0
 438 -17 346 0 442 80 444 81 445 344 0 441 +17 444 0 442 346 440 105 104 271 0 0
 -17 445 0 446 400 83 105 346 344 0 444 -15 446 321 0 83 447 0 17 400 0 446 349
 445 65 107 269 0 405 -17 83 0 446 445 349 81 411 307 0 346 +17 349 0 446 83 400
 84 405 347 0 0 +17 107 0 395 104 109 105 400 269 0 445 +17 104 0 395 101 107 10
2 444 271 0 440 +17 101 0 395 436 104 99 438 273 0 435 +17 436 0 395 95 101 96 2
77 275 0 0 -17 438 0 437 343 435 102 101 273 0 0 -17 95 0 395 417 436 93 429 278
 0 427 +17 417 0 395 89 95 90 282 280 0 0 -17 429 0 428 74 427 96 95 278 0 436 -
14 255 447 322 448 ?443 16 446 5 449 -0 0 443 16 22 81 1 448 1464 450 447 451 0
 0 452 453 14 443 320 452 ?439 447 442 5 454 -0 0 439 447 22 14 16 324 455 ?447
 0 404 5 456 -0 0 447 0 22 51 449 354 0 447 454 456 0 -.1973997955860745 -252345
8731219835e-41 -.0095 0 0 -1 .0125 -1 0 0 13 22 108 0 0 0 0 0 0 9 16 50 255 454
 353 0 443 457 449 0 +.0308559391050986 -.0787125945005073 -.0095 -.364967121236
2925 .931020408163266 0 -.931020408163266 -.3649671212362925 0 50 456 355 0 16 4
49 458 0 +-3404938858480625e-33 -.0125 -.0095 272395108678451e-30 1 0 -1 2723951
08678451e-30 0 51 458 356 0 459 456 460 0 -.04198760359282255 -.0222101585886277
5 -.0095 0 0 -1 .00255 -1 0 0 14 459 326 461 ?462 413 463 5 458 +0 0 462 413 22
 51 460 357 0 462 458 464 0 -.0892636544176856 .0065 -.0095 0 0 -1 .002549999993
15466 -1 0 0 14 462 330 465 ?466 459 467 5 460 +0 0 466 459 22 51 464 358 0 466
 460 468 0 -.1605272912908975 -.0065 -.0095 0 0 -1 .00255 -1 0 0 14 466 334 469
 ?470 462 471 5 464 +0 0 470 462 22 51 468 360 0 470 464 19 0 -.2317909281641095
 .0065 -.0095 0 0 -1 .00255 -1 0 0 14 470 342 472 ?473 466 474 5 468 +0 0 473 46
6 22 51 19 1109 0 407 468 6 0 +.1226652860491012 -.0325 -.0095 0 0 -1 .02 -1 0 0
 14 407 1097 475 ?18 194 401 5 19 -0 0 18 194 22 81 1 475 1471 450 407 476 0 472
 477 478 14 18 1118 477 ?0 407 415 5 6 -0 0 0 407 22 14 194 814 479 ?407 179 187
 5 480 -0 0 407 179 22 81 1 479 1473 450 194 481 0 477 482 483 14 179 810 482 ?1
94 484 174 5 485 -0 0 194 484 22 50 480 876 0 194 485 486 0 +.1926797538632605 -
.00462464792224182 -.0195 -.866025403784443 -.499999999999993 0 .499999999999993
 -.866025403784443 0 51 485 877 0 179 487 480 0 +.1947297538632605 -.00462464792
224186 -.0195 0 0 1 .00205 1 0 0 51 486 875 0 488 480 489 0 +.192059712140447 26
4545330086463e-31 -.0195 0 0 1 .00205 1 0 0 14 488 770 490 ?491 409 492 5 486 -0
 0 491 409 22 50 489 2 0 200 486 493 0 +0 0 -.0095 0 0 1 1 0 0 14 200 1 494 ?409
 473 196 5 489 +0 0 409 473 22 50 493 264 0 409 489 495 0 +0 0 -.0135 0 0 1 1 0
 0 14 409 164 496 ?488 200 497 5 493 -0 0 488 200 22 51 495 345 0 473 493 498 0
 --.04198760359282255 -.02221015858862775 -.0095 0 0 -1 .00255 -1 0 0 14 473 302
 499 ?200 470 500 5 495 +0 0 200 470 22 50 498 346 0 413 495 501 0 +.00545572593
570314 -.03212132013930305 -.0095 .167449368666245 -.985880676823152 0 .98588067
6823152 .167449368666245 0 14 413 306 502 ?459 420 412 5 498 +0 0 459 420 22 51
 501 347 0 420 498 503 0 -0 0 -.0095 0 0 -1 .0535 -1 0 0 14 420 308 504 ?413 505
 27 5 501 -0 0 413 505 22 51 503 348 0 505 501 506 0 --.04198760359282255 -.0222
1015858862775 -.0095 0 0 -1 .006 -1 0 0 14 505 310 507 ?420 426 421 5 503 -0 0 4
20 426 22 51 506 349 0 426 503 508 0 --.0668293115975096 .405725074042725 -.0095
 0 0 -1 .42265565875635 -1 0 0 14 426 312 509 ?505 430 425 5 506 +0 0 505 430 22
 51 508 350 0 430 506 510 0 -.0892636544176856 .0065 -.0095 0 0 -1 .006 -1 0 0 1
4 430 314 511 ?426 434 428 5 508 -0 0 426 434 22 50 510 351 0 434 508 457 0 +-25
2205051991327e-32 .0125 -.0095 -201764041593062e-30 1 0 -1 -201764041593062e-30
 0 14 434 316 512 ?430 439 433 5 510 +0 0 430 439 22 51 457 352 0 439 510 454 0
 -.2317909281641095 .0065 -.0095 0 0 -1 .006 -1 0 0 14 439 318 513 ?434 443 437
 5 457 -0 0 434 443 22 81 1 513 1485 450 439 514 0 512 515 516 80 255 1 450 517
 518 9000 1 1 1 1 1 1 1 1 0 FFFFTFTFFFFFFF1 81 1 514 1368 519 439 0 513 520 521
 522 81 1 512 1484 450 434 521 0 511 513 523 81 1 515 1486 450 491 524 0 513 525
 526 82 255 1 516 -133036830 14 491 774 515 ?527 488 528 5 529 -0 0 527 488 22 8
1 1 524 1383 519 491 0 515 530 531 532 81 1 525 1487 450 527 531 0 515 533 534 8
2 1 526 1792673008 14 527 778 525 ?535 491 536 5 537 -0 0 535 491 22 81 1 531 13
84 519 527 0 525 524 538 539 81 1 533 1488 450 535 538 0 525 540 541 82 1 534 17
91886576 14 535 782 533 ?542 527 543 5 544 -0 0 542 527 22 81 1 538 1385 519 535
 0 533 531 545 546 81 1 540 1489 450 542 545 0 533 547 548 82 1 541 1791100144 1
4 542 786 540 ?549 535 550 5 551 -0 0 549 535 22 81 1 545 1386 519 542 0 540 538
 552 553 81 1 547 1490 450 549 552 0 540 554 555 82 1 548 1790313712 14 549 790
 547 ?556 542 557 5 558 -0 0 556 542 22 81 1 552 1387 519 549 0 547 545 559 560
 81 1 554 1491 450 556 559 0 547 561 562 82 1 555 1789527280 14 556 794 554 ?563
 549 564 5 565 -0 0 563 549 22 81 1 559 1388 519 556 0 554 552 566 567 81 1 561
 1492 450 563 566 0 554 568 569 82 1 562 1788740848 14 563 798 561 ?570 556 571
 5 572 -0 0 570 556 22 81 1 566 1389 519 563 0 561 559 573 574 81 1 568 1493 450
 570 573 0 561 575 576 82 1 569 1787954416 14 570 802 568 ?484 563 577 5 578 -0
 0 484 563 22 81 1 573 1390 519 570 0 568 566 579 580 81 1 575 1494 450 484 579
 0 568 0 581 82 1 576 1787167984 14 484 806 575 ?179 570 582 5 487 -0 0 179 570
 22 81 1 579 1391 519 484 0 575 573 583 584 82 1 581 1786381552 80 1 519 0 585 8
001 0 0 0 0 3 5 0 0 0 FFFFTFTFFFFFFF2 81 1 583 1392 519 179 0 482 579 481 586 83
 255 3 584 0 0 0 81 1 482 1474 450 179 583 0 479 490 587 81 1 481 1393 519 194 0
 479 583 476 588 83 3 586 0 0 0 81 1 476 1394 519 407 0 475 481 589 590 83 3 588
 0 0 0 81 1 589 1395 519 18 0 477 476 0 591 83 3 590 0 0 0 81 1 477 1472 450 18
 589 0 475 479 592 83 3 591 0 0 0 82 1 592 2053899513 81 1 490 1475 450 488 530
 0 482 494 593 82 1 587 1785595120 81 1 530 1382 519 488 0 490 594 524 595 81 1
 494 1476 450 200 596 0 490 496 597 82 1 593 1793131760 81 1 596 1380 519 200 0
 494 598 594 599 81 1 496 1477 450 409 594 0 494 499 600 82 1 597 -159513351 81
 1 594 1381 519 409 0 496 596 530 601 81 1 499 1478 450 473 598 0 496 502 602 82
 1 600 -138672903 81 1 598 1379 519 473 0 499 603 596 604 81 1 502 1479 450 413
 605 0 499 504 606 82 1 602 -134740766 81 1 605 1374 519 413 0 502 607 608 609 8
1 1 504 1480 450 420 607 0 502 507 610 82 1 606 -134478599 81 1 607 1373 519 420
 0 504 611 605 612 81 1 507 1481 450 505 611 0 504 509 613 82 1 610 -134347527 8
1 1 611 1372 519 505 0 507 614 607 615 81 1 509 1482 450 426 614 0 507 511 616 8
2 1 613 -134019870 81 1 614 1371 519 426 0 509 617 611 618 81 1 511 1483 450 430
 617 0 509 512 619 82 1 616 -133757726 81 1 617 1370 519 430 0 511 521 614 620 8
2 1 619 -133561118 81 1 521 1369 519 434 0 512 514 617 621 83 3 620 0 0 0 83 3 6
21 0 0 0 83 3 618 0 0 0 83 3 615 0 0 0 83 3 612 0 0 0 81 1 608 1375 519 459 0 46
1 605 622 623 83 3 609 0 0 0 81 1 461 1467 450 459 608 0 455 465 624 81 1 622 13
76 519 462 0 465 608 625 626 83 3 623 0 0 0 81 1 465 1468 450 462 622 0 461 469
 627 81 1 625 1377 519 466 0 469 622 603 628 83 3 626 0 0 0 81 1 469 1469 450 46
6 625 0 465 472 629 81 1 603 1378 519 470 0 472 625 598 630 83 3 628 0 0 0 81 1
 472 1470 450 470 603 0 469 475 631 83 3 630 0 0 0 82 1 631 -130808606 82 1 629
 -131332894 82 1 627 -131595038 81 1 455 1466 450 16 632 0 452 461 633 82 1 624
 -131857182 81 1 632 1365 519 16 0 455 0 451 634 81 1 452 1465 450 443 520 0 448
 455 635 82 1 633 -132184839 81 1 520 1367 519 443 0 452 451 514 636 82 1 635 -1
32709150 81 1 451 1366 519 447 0 448 632 520 637 83 3 636 0 0 0 83 3 637 0 0 0 8
3 3 634 0 0 0 83 3 604 0 0 0 83 3 601 0 0 0 83 3 599 0 0 0 83 3 595 0 0 0 79 255
 15 585 SDL/TYSA_COLOUR15 582 809 0 171 484 0 50 487 878 0 484 578 485 0 +.19904
4837308888 -.0064 -.0195 -1186330950400454e-29 -1 0 1 -1186330950400454e-29 0 51
 578 879 0 570 572 487 0 +.200069837308888 -.00462464792224195 -.0195 0 0 1 .002
049999999999955 1 0 0 50 572 880 0 563 565 578 0 +.2037648790317015 -.0017753520
7775819 -.0195 .866025403784422 -.500000000000029 0 .500000000000029 .8660254037
84422 0 51 565 881 0 556 558 572 0 +.2027398790317015 -780625564189563e-31 -.019
5 0 0 1 .00204999999999997 1 0 0 50 558 882 0 549 551 565 0 +.202119837308888 .0
0462464792224184 -.0195 .866025403784457 .499999999999968 0 -.499999999999968 .8
66025403784457 0 51 551 883 0 542 544 558 0 +.200069837308888 .00462464792224186
 -.0195 0 0 1 .00205 1 0 0 50 544 884 0 535 537 551 0 +.1957547538632605 .0064 -
.0195 2662653910898865e-29 1 0 -1 2662653910898865e-29 0 51 537 885 0 527 529 54
4 0 +.1947297538632605 .00462464792224192 -.0195 0 0 1 .00205 1 0 0 50 529 886 0
 491 0 537 0 +.191034712140447 .00177535207775813 -.0195 -.866025403784436 .5 0
 -.5 -.866025403784436 0 17 171 0 582 203 138 169 180 188 0 175 +17 203 0 582 63
8 171 166 183 204 0 202 +17 138 0 582 171 638 136 355 353 0 180 -17 180 0 174 17
6 175 136 171 188 0 184 -17 184 0 497 355 186 136 176 185 0 0 +15 497 516 0 379
 409 639 17 355 0 497 358 184 133 138 353 0 0 +17 186 0 497 184 382 58 141 350 0
 0 +17 382 0 497 186 379 139 111 380 0 0 +17 141 0 187 191 60 139 186 350 0 195
 -17 195 0 492 111 57 139 191 189 0 382 -15 492 773 0 144 488 0 17 111 0 492 144
 195 87 382 380 0 640 -17 57 0 492 195 144 55 197 198 0 191 +17 144 0 492 57 111
 142 640 233 0 232 +17 197 0 196 641 192 142 57 198 0 0 -16 198 695 0 ?57 193 0
 208 0 0 1 31 208 913 0 198 0 199 0 +.192059712140447 264545330086463e-31 -.0095
 0 0 1 1 0 0 .00205 17 641 0 196 642 197 145 232 230 0 0 -17 642 0 196 643 641 1
48 229 227 0 0 -17 232 0 528 640 147 142 641 230 0 197 +15 528 777 0 147 491 0 1
7 640 0 528 114 232 87 144 233 0 379 -17 147 0 528 232 114 145 644 236 0 229 +17
 114 0 528 147 640 112 379 377 0 644 -17 644 0 536 117 229 112 147 236 0 376 -17
 229 0 536 644 150 145 642 227 0 641 +15 536 781 0 150 527 0 17 150 0 536 229 11
7 148 645 238 0 226 +17 117 0 536 150 644 115 376 374 0 645 -17 645 0 543 120 22
6 115 150 238 0 373 -17 226 0 543 645 153 148 643 224 0 642 +15 543 785 0 153 53
5 0 17 153 0 543 226 120 151 646 240 0 223 +17 643 0 196 647 642 151 226 224 0 0
 -17 647 0 196 648 643 154 223 221 0 0 -17 648 0 196 649 647 157 220 218 0 0 -17
 223 0 550 646 156 151 647 221 0 643 +15 550 789 0 156 542 0 17 646 0 550 123 22
3 118 153 240 0 370 -17 156 0 550 223 123 154 650 242 0 220 +17 123 0 550 156 64
6 121 370 368 0 650 -17 650 0 557 126 220 121 156 242 0 367 -17 220 0 557 650 15
9 154 648 218 0 647 +15 557 793 0 159 549 0 17 159 0 557 220 126 157 651 244 0 2
17 +17 126 0 557 159 650 124 367 365 0 651 -17 651 0 564 129 217 124 159 244 0 3
64 -17 217 0 564 651 162 157 649 215 0 648 +15 564 797 0 162 556 0 17 162 0 564
 217 129 160 652 246 0 214 +17 649 0 196 653 648 160 217 215 0 0 -17 653 0 196 2
02 649 163 214 212 0 0 -17 202 0 196 183 653 166 211 206 0 0 -17 214 0 571 652 1
65 160 653 212 0 649 +15 571 801 0 165 563 0 17 652 0 571 132 214 127 162 246 0
 361 -17 165 0 571 214 132 163 654 248 0 211 +17 132 0 571 165 652 130 361 359 0
 654 -17 654 0 577 135 211 130 165 248 0 358 -17 211 0 577 654 168 163 202 206 0
 653 +15 577 805 0 168 570 0 17 168 0 577 211 135 166 638 250 0 203 +17 135 0 57
7 168 654 133 358 356 0 638 -17 638 0 582 138 203 133 168 250 0 355 -17 358 0 49
7 361 355 130 135 356 0 0 +17 361 0 497 364 358 127 132 359 0 0 +17 364 0 497 36
7 361 124 129 362 0 0 +17 367 0 497 370 364 121 126 365 0 0 +17 129 0 564 162 65
1 127 364 362 0 652 -17 370 0 497 373 367 118 123 368 0 0 +17 373 0 497 376 370
 115 120 371 0 0 +17 376 0 497 379 373 112 117 374 0 0 +17 120 0 543 153 645 118
 373 371 0 646 -17 379 0 497 382 376 87 114 377 0 0 +15 639 165 0 295 409 655 17
 295 0 639 295 295 0 656 235 0 0 +15 655 167 0 298 409 657 17 298 0 655 298 298
 0 658 296 0 0 +15 657 168 0 301 409 659 17 301 0 657 301 301 0 660 299 0 0 +15
 659 169 0 304 409 35 17 304 0 659 304 304 0 661 302 0 0 +17 661 0 662 661 661 0
 304 302 0 0 -15 662 327 0 661 459 0 17 660 0 663 660 660 0 301 299 0 0 -15 663
 331 0 660 462 0 17 658 0 664 658 658 0 298 296 0 0 -15 664 335 0 658 466 0 17 6
56 0 665 656 656 0 295 235 0 0 -15 665 343 0 656 470 0 83 3 580 0 0 0 83 3 574 0
 0 0 83 3 567 0 0 0 83 3 560 0 0 0 83 3 553 0 0 0 83 3 546 0 0 0 83 3 539 0 0 0
 83 3 532 0 0 0 82 1 523 -133233438 83 3 522 0 0 0 79 14 518 SWEntUnchanged15 42
1 309 0 64 505 0 15 500 301 0 292 473 666 17 292 0 500 292 292 0 667 290 0 0 +15
 666 303 0 668 473 0 17 668 0 666 668 668 0 330 258 0 0 -17 330 0 410 330 330 0
 668 258 0 0 +15 410 171 0 330 409 0 17 667 0 399 667 667 0 292 290 0 0 -15 399
 9 0 667 200 0 82 1 483 1784808688 82 1 478 2051933433 15 474 341 0 256 470 665
 17 256 0 474 256 256 0 669 254 0 0 +17 669 0 201 669 669 0 256 254 0 0 -15 201
 3 0 669 200 670 15 670 5 0 671 200 672 17 671 0 670 671 671 0 260 257 0 0 -15 6
72 6 0 673 200 674 17 673 0 672 673 673 0 263 261 0 0 -15 674 7 0 675 200 395 17
 675 0 674 675 675 0 266 264 0 0 -17 266 0 463 266 266 0 675 264 0 0 +15 463 325
 0 266 459 662 17 263 0 467 263 263 0 673 261 0 0 +15 467 329 0 263 462 663 17 2
60 0 471 260 260 0 671 257 0 0 +15 471 333 0 260 466 664 82 1 453 -132447006 17
 68 0 421 64 418 66 92 333 0 422 +17 418 0 421 68 419 90 89 283 0 417 -17 86 0 4
04 405 385 84 406 305 0 411 +19 17 372 0 1 0 9 5 S0 74 4 CI16 index_map_offset0
 0 1 dCCZ20 15 9 0 0 676 677 575 678 679 680 13 589 2 0 0 0 0 0 0 0 0 0 0 0 81 2
 676 106 681 1 0 677 0 0 0 682 81 2 677 478 683 1 676 678 0 0 0 684 81 1 678 114
7 685 1 677 679 0 0 686 81 2 679 1180 687 1 678 680 0 0 688 0 81 2 680 1325 689
 1 679 13 0 0 0 690 81 2 13 1362 691 1 680 2 0 0 0 0 80 2 691 692 693 9000 0 0 0
 0 3 5 0 0 0 FFTFFFFFFFFFFF9 1 79 16 693 BODY_RECIPE_200180 2 689 694 695 9000 0
 0 0 0 3 5 0 0 0 FFTFFFFFFFFFFF9 1 82 1 690 1 79 24 695 BODY_IN_LIGHTWEIGHT_PERM
80 2 687 696 697 8004 0 0 0 0 3 5 0 0 0 FFTFFFFFFFFFFF2 3 83 1 688 1070 79 16 69
7 SDL/TYSA_DENSITY80 1 685 698 699 9000 1 1 1 1 1 1 1 1 0 FFTFFFFFFFFFFF1 82 1 6
86 2356860 79 10 699 BODY_MATCH80 2 683 700 701 9000 0 0 0 0 3 5 0 0 0 FFTFFFFFF
FFFFF9 1 82 1 684 179 79 30 701 LAST_BODY_MODIFYING_FEATURE_ID80 2 681 702 703 9
000 0 0 0 0 3 5 0 0 0 FFTFFFFFFFFFFT9 1 82 1 682 304 79 19 703 ENT_TIME_STAMP_20
0180 2 12 704 705 9000 0 0 0 0 3 5 0 0 0 FFTFFFFFFFFFFF9 1 82 1 14 102 79 12 705
 ATOM_ID_20011 0 
