**ABCDEFGHIJKLMNOPQRSTUVWXYZabcdefghijklmnopqrstuvwxyz**************************
**PARASOLID !"#$%&'()*+,-./:;<=>?@[\]^_`{|}~0123456789**************************
**PART1;
MC=AMD64;
MC_MODEL=Intel64 Family 6 Model 58 Stepping 9, GenuineIntel;
MC_ID=unknown;
OS=Windows_NT;
OS_RELEASE=unknown;
FRU=Parasolid Version 31.0, build 264, 12-10-2018;
APPL=SOLIDWORKS 2019-2019057;
SITE=;
USER=unknown;
FORMAT=text;
GUISE=transmit;
KEY=1690-20-8323;
FILE=1690-20-8323.x_t;
DATE=Sun Apr  5 23:00:10 2020;
**PART2;
SCH=SCH_3100264_31001;
USFLD_SIZE=0;
**PART3;
**END_OF_HEADER*****************************************************************
T51 : TRANSMIT FILE created by modeller version 310026423 SCH_3100264_31001_1300
6215 0 12 34 CCCCCCI4 mesh1006 0 I8 polyline1008 0 CCCCCCCDI5 owner1040 0 CCCCCC
I13 boundary_mesh1006 0 I17 boundary_polyline1008 0 CCCA16 index_map_offset0 0 1
 dA9 index_map82 0 A17 node_id_index_map82 0 A20 schema_embedding_map82 0 A5 chi
ld12 0 A14 lowest_node_id0 0 1 dA16 mesh_offset_data206 0 Z1 265 2 3 0 0 0 0 0 0
 1e3 1e-8 0 4 0 1 0 1 1 5 6 7 8 0 0 9 10 11 0 0 0 0 0 0 0 81 255 2 2 258 12 1 13
 0 0 0 0 14 70 11 CI9 list_type0 0 1 uI10 notransmit0 0 1 lCCCDCCDI12 finger_ind
ex0 0 1 dI12 finger_block1012 0 CZ3 0 4 T1 0 0 9 20 1 15 15 13 255 5 29 0 1 0 16
 0 0 17 0 51 255 6 28 0 16 18 0 0 +.0629330708661418 -.0294903135174447 -.066970
5627484772 0 0 1 .006 1 0 0 31 255 7 38 0 10 19 0 0 -.0629330708661418 -.0294903
135174447 -.05 0 0 1 1 0 0 .006 29 255 8 164 0 11 20 0 .0629330708661418 -.02949
03135174447 -.02873819270004215 19 8 CCCCCCCA5 owner12 0 Z9 7 0 1 17 0 21 V0 16
 255 10 43 0 ?22 0 23 7 0 0 1 18 255 11 142 0 24 0 25 8 ?1 17 255 24 0 26 24 24
 11 0 0 0 0 ?18 25 189 0 27 11 0 20 ?1 17 27 0 28 27 27 25 0 0 0 0 ?29 20 211 0
 25 0 8 .0629330708661418 -.0294903135174447 .02873819270004215 15 255 28 197 0
 27 29 30 14 255 29 194 31 ?32 33 28 5 34 -0 0 32 33 21 15 30 198 0 35 29 0 17 3
5 0 30 35 35 0 36 37 0 0 +17 36 0 38 36 36 0 35 37 0 0 -16 37 188 0 ?35 39 40 41
 0 0 1 16 39 140 0 ?42 43 37 44 0 0 1 16 40 187 0 ?45 37 0 46 0 0 1 31 41 209 0
 37 46 44 0 +.0629330708661418 -.0294903135174447 .03 0 0 1 1 0 0 .0021 31 46 21
0 0 40 0 41 0 +.0629330708661418 -.0294903135174447 .05 0 0 1 1 0 0 .0021 31 44
 163 0 39 41 47 0 +.0629330708661418 -.0294903135174447 -.05 0 0 -1 -1 0 0 .0021
 31 47 162 0 43 44 19 0 +.0629330708661418 -.0294903135174447 -.03 0 0 -1 -1 0 0
 .0021 16 43 141 0 ?48 23 39 47 0 0 1 31 19 107 0 23 47 7 0 +.0629330708661418 -
.0294903135174447 .05 0 0 1 1 0 0 .006 16 23 88 0 ?49 10 43 19 0 0 1 17 49 0 50
 49 49 0 51 23 0 0 +15 50 101 0 49 52 0 17 51 0 53 51 51 0 49 23 0 0 -15 53 93 0
 51 16 0 14 16 25 54 ?55 0 56 5 6 +0 0 55 0 21 81 1 54 260 57 16 58 0 31 59 60 1
4 55 57 59 ?52 16 61 5 18 -0 0 52 16 21 15 56 37 0 62 16 53 13 21 8 0 0 0 0 0 0
 9 16 17 62 0 56 62 62 0 22 10 0 0 -17 22 0 63 22 22 0 62 10 0 0 +15 63 58 0 22
 55 0 81 1 59 261 57 55 64 0 54 65 66 14 52 97 65 ?67 55 68 5 69 +0 0 67 55 21 1
5 61 132 0 70 55 63 50 255 18 61 0 55 69 6 0 +0 0 -.05 0 0 1 1 0 0 50 69 104 0 5
2 71 18 0 +0 0 .05 0 0 1 1 0 0 52 255 71 160 0 67 72 69 0 +.0629330708661418 -.0
294903135174447 -.03 0 0 -1 .0021 .857167300702111 .515038074910056 -1 0 0 14 67
 147 73 ?33 52 26 5 71 -0 0 33 52 21 51 72 161 0 33 34 71 0 +.0629330708661418 -
.0294903135174447 -.05 0 0 -1 .0021 -1 0 0 14 33 152 74 ?29 67 75 5 72 -0 0 29 6
7 21 52 34 207 0 29 76 72 0 +.0629330708661418 -.0294903135174447 .03 0 0 1 .002
1 .857167300702111 .515038074910056 1 0 0 51 76 208 0 32 0 34 0 +.06293307086614
18 -.0294903135174447 .05 0 0 1 .0021 1 0 0 14 32 199 77 ?0 29 38 5 76 -0 0 0 29
 21 81 1 77 265 57 32 78 0 74 0 79 15 38 202 0 36 32 80 15 80 203 0 45 32 0 17 4
5 0 80 45 45 0 81 40 0 0 +17 81 0 68 81 81 0 45 40 0 0 -15 68 180 0 81 52 50 80
 255 1 57 82 83 9000 1 1 1 1 1 1 1 1 0 FFFFTFTFFFFFFF1 81 1 78 241 84 32 0 77 85
 0 86 81 1 74 264 57 33 87 0 73 77 88 82 255 1 79 -672988051 81 1 87 239 84 33 0
 74 89 85 90 81 1 73 263 57 67 89 0 65 74 91 82 1 88 -691796884 81 1 89 238 84 6
7 0 73 92 87 93 81 1 65 262 57 52 92 0 59 73 94 82 1 91 -691207060 81 1 92 237 8
4 52 0 65 64 89 95 82 1 94 -712047507 80 1 84 0 96 8001 0 0 0 0 3 5 0 0 0 FFFFTF
TFFFFFFF2 81 1 64 236 84 55 0 59 58 92 97 83 255 3 95 .898039215686275 .91764705
8823529 .929411764705882 81 1 58 235 84 16 0 54 0 64 98 83 3 97 .898039215686275
 .917647058823529 .929411764705882 83 3 98 .898039215686275 .917647058823529 .92
9411764705882 79 255 15 96 SDL/TYSA_COLOUR83 3 93 .898039215686275 .917647058823
529 .929411764705882 81 1 85 240 84 29 0 31 87 78 99 83 3 90 .898039215686275 .9
17647058823529 .929411764705882 81 1 31 259 57 29 85 0 0 54 100 83 3 99 .8980392
15686275 .917647058823529 .929411764705882 82 1 100 -672398227 83 3 86 .89803921
5686275 .917647058823529 .929411764705882 79 14 83 SWEntUnchanged15 75 155 0 101
 33 102 17 101 0 75 101 101 0 48 43 0 0 -15 102 156 0 42 33 0 17 42 0 102 42 42
 0 70 39 0 0 +17 70 0 61 70 70 0 42 39 0 0 -17 48 0 103 48 48 0 101 43 0 0 +15 1
03 151 0 48 67 0 15 26 150 0 24 67 103 82 1 66 -725875604 82 1 60 -735378325 19
 17 30 0 1 0 9 5 S0 74 4 CI16 index_map_offset0 0 1 dCCZ20 15 9 0 0 104 105 77 1
06 107 108 78 13 2 0 0 0 0 0 0 0 0 0 0 0 81 2 104 109 109 1 0 105 0 0 0 110 81 2
 105 122 111 1 104 106 0 0 0 112 81 1 106 219 113 1 105 107 0 0 114 81 2 107 229
 115 1 106 108 0 0 0 116 81 2 108 232 117 1 107 13 0 0 0 0 81 2 13 257 118 1 108
 2 0 0 119 0 80 2 118 120 121 8004 0 0 0 0 3 5 0 0 0 FFTFFFFFFFFFFF2 3 83 1 119
 27e2 79 16 121 SDL/TYSA_DENSITY80 2 117 122 123 9000 0 0 0 0 3 5 0 0 0 FFTFFFFF
FFFFFF9 1 79 16 123 BODY_RECIPE_200180 2 115 124 125 9000 0 0 0 0 3 5 0 0 0 FFTF
FFFFFFFFFF9 1 82 1 116 1 79 24 125 BODY_IN_LIGHTWEIGHT_PERM80 1 113 126 127 9000
 1 1 1 1 1 1 1 1 0 FFTFFFFFFFFFFF1 82 1 114 2675723 79 10 127 BODY_MATCH80 2 111
 128 129 9000 0 0 0 0 3 5 0 0 0 FFTFFFFFFFFFFF9 1 82 1 112 62 79 30 129 LAST_BOD
Y_MODIFYING_FEATURE_ID80 2 109 130 131 9000 0 0 0 0 3 5 0 0 0 FFTFFFFFFFFFFT9 1
 82 1 110 405 79 19 131 ENT_TIME_STAMP_200180 2 12 132 133 9000 0 0 0 0 3 5 0 0
 0 FFTFFFFFFFFFFF9 1 82 1 14 103 79 12 133 ATOM_ID_20011 0 
