**ABCDEFGHIJKLMNOPQRSTUVWXYZabcdefghijklmnopqrstuvwxyz**************************
**PARASOLID !"#$%&'()*+,-./:;<=>?@[\]^_`{|}~0123456789**************************
**PART1;
MC=AMD64;
MC_MODEL=Intel64 Family 6 Model 58 Stepping 9, GenuineIntel;
MC_ID=unknown;
OS=Windows_NT;
OS_RELEASE=unknown;
FRU=Parasolid Version 31.0, build 264, 12-10-2018;
APPL=SOLIDWORKS 2019-2019057;
SITE=;
USER=unknown;
FORMAT=text;
GUISE=transmit;
KEY=1690-20-8313;
FILE=1690-20-8313.x_t;
DATE=Sun Apr  5 22:59:31 2020;
**PART2;
SCH=SCH_3100264_31001;
USFLD_SIZE=0;
**PART3;
**END_OF_HEADER*****************************************************************
T51 : TRANSMIT FILE created by modeller version 310026423 SCH_3100264_31001_1300
6215 0 12 34 CCCCCCI4 mesh1006 0 I8 polyline1008 0 CCCCCCCDI5 owner1040 0 CCCCCC
I13 boundary_mesh1006 0 I17 boundary_polyline1008 0 CCCA16 index_map_offset0 0 1
 dA9 index_map82 0 A17 node_id_index_map82 0 A20 schema_embedding_map82 0 A5 chi
ld12 0 A14 lowest_node_id0 0 1 dA16 mesh_offset_data206 0 Z1 147 2 3 0 0 0 0 0 0
 1e3 1e-8 0 4 0 1 0 1 1 5 6 7 0 0 0 8 9 0 0 0 0 0 0 0 0 81 255 2 2 143 10 1 11 0
 0 0 0 12 70 11 CI9 list_type0 0 1 uI10 notransmit0 0 1 lCCCDCCDI12 finger_index
0 0 1 dI12 finger_block1012 0 CZ3 0 4 T1 0 0 9 20 1 13 13 13 255 5 5 0 1 0 14 0
 0 15 0 50 255 6 23 0 16 17 0 0 +0 0 .0075 0 0 1 1 0 0 31 255 7 24 0 9 18 0 0 +.
02110524649680565 -.0425537139426052 .0075 0 0 1 1 0 0 .006 19 8 CCCCCCCA5 owner
12 0 Z8 3 0 1 15 0 19 V0 16 255 9 9 0 ?20 0 21 7 0 0 1 17 255 20 0 22 20 20 0 23
 9 0 0 +16 21 30 0 ?24 9 25 18 0 0 1 17 24 0 26 24 24 0 27 21 0 0 +16 25 90 0 ?2
8 21 29 30 0 0 1 31 18 47 0 21 30 7 0 -.02110524649680565 -.0425537139426052 -.0
075 0 0 1 1 0 0 .006 31 30 109 0 25 31 18 0 +.02110524649680565 -.04255371394260
52 -.0075 0 0 1 1 0 0 .0025 31 31 110 0 29 0 30 0 +.02110524649680565 -.04255371
39426052 .0075 0 0 1 1 0 0 .0025 16 29 89 0 ?32 25 0 31 0 0 1 17 32 0 33 32 32 0
 34 29 0 0 +15 255 33 103 0 32 35 0 17 34 0 36 34 34 0 32 29 0 0 -15 36 82 0 34
 16 22 14 255 16 18 37 ?38 14 36 5 6 +0 0 38 14 19 15 22 19 0 20 16 0 81 1 37 14
4 39 16 40 0 0 41 42 14 38 39 41 ?35 16 43 5 44 -0 0 35 16 19 14 14 10 45 ?16 0
 46 5 17 -0 0 16 0 19 13 19 4 0 0 0 0 0 0 8 14 81 1 45 146 39 14 47 0 41 48 49 1
5 46 14 0 23 14 50 51 255 17 22 0 14 44 6 0 -.02110524649680565 -.04255371394260
52 .0304705627484771 0 0 -1 .006 -1 0 0 50 44 46 0 38 51 17 0 +0 0 -.0075 0 0 1
 1 0 0 51 51 108 0 35 0 44 0 +.02110524649680565 -.0425537139426052 .0075 0 0 1
 .0025 1 0 0 14 35 99 48 ?0 38 52 5 51 -0 0 0 38 19 81 1 48 147 39 35 53 0 45 0
 54 15 52 102 0 55 35 33 17 55 0 52 55 55 0 28 25 0 0 -17 28 0 43 28 28 0 55 25
 0 0 +15 43 73 0 28 38 26 15 26 41 0 24 38 0 80 255 1 39 56 57 9000 1 1 1 1 1 1
 1 1 0 FFFFTFTFFFFFFF1 81 1 53 132 58 35 0 48 59 0 60 82 255 1 54 -2146040650 80
 1 58 0 61 8001 0 0 0 0 3 5 0 0 0 FFFFTFTFFFFFFF2 81 1 59 131 58 38 0 41 40 53 6
2 83 255 3 60 .898039215686275 .917647058823529 .929411764705882 81 1 41 145 39
 38 59 0 37 45 63 81 1 40 130 58 16 0 37 47 59 64 83 3 62 .898039215686275 .9176
47058823529 .929411764705882 81 1 47 129 58 14 0 45 0 40 65 83 3 64 .89803921568
6275 .917647058823529 .929411764705882 83 3 65 .898039215686275 .917647058823529
 .929411764705882 82 1 63 2118714550 79 255 15 61 SDL/TYSA_COLOUR79 14 57 SWEntU
nchanged17 23 0 46 23 23 0 20 9 0 0 -15 50 34 0 27 14 0 17 27 0 50 27 27 0 24 21
 0 0 -82 1 49 2099053749 82 1 42 2099578038 19 15 1 0 1 0 8 5 S0 74 4 CI16 index
_map_offset0 0 1 dCCZ20 13 9 0 0 66 67 48 68 69 70 53 11 2 0 0 0 0 0 0 0 0 0 0 0
 81 2 66 2 71 1 0 67 0 0 0 72 81 2 67 61 73 1 66 68 0 0 0 74 81 1 68 116 75 1 67
 69 0 0 76 81 2 69 123 77 1 68 70 0 0 0 78 81 2 70 126 79 1 69 11 0 0 0 0 81 2 1
1 142 80 1 70 2 0 0 81 0 80 2 80 82 83 8004 0 0 0 0 3 5 0 0 0 FFTFFFFFFFFFFF2 3
 83 1 81 27e2 79 16 83 SDL/TYSA_DENSITY80 2 79 84 85 9000 0 0 0 0 3 5 0 0 0 FFTF
FFFFFFFFFF9 1 79 16 85 BODY_RECIPE_200180 2 77 86 87 9000 0 0 0 0 3 5 0 0 0 FFTF
FFFFFFFFFF9 1 82 1 78 1 79 24 87 BODY_IN_LIGHTWEIGHT_PERM80 1 75 88 89 9000 1 1
 1 1 1 1 1 1 0 FFTFFFFFFFFFFF1 82 1 76 2391356 79 10 89 BODY_MATCH80 2 73 90 91
 9000 0 0 0 0 3 5 0 0 0 FFTFFFFFFFFFFF9 1 82 1 74 59 79 30 91 LAST_BODY_MODIFYIN
G_FEATURE_ID80 2 71 92 93 9000 0 0 0 0 3 5 0 0 0 FFTFFFFFFFFFFT9 1 82 1 72 332 7
9 19 93 ENT_TIME_STAMP_200180 2 10 94 95 9000 0 0 0 0 3 5 0 0 0 FFTFFFFFFFFFFF9
 1 82 1 12 102 79 12 95 ATOM_ID_20011 0 
