**ABCDEFGHIJKLMNOPQRSTUVWXYZabcdefghijklmnopqrstuvwxyz**************************
**PARASOLID !"#$%&'()*+,-./:;<=>?@[\]^_`{|}~0123456789**************************
**PART1;
MC=AMD64;
MC_MODEL=Intel64 Family 6 Model 58 Stepping 9, GenuineIntel;
MC_ID=unknown;
OS=Windows_NT;
OS_RELEASE=unknown;
FRU=Parasolid Version 31.0, build 264, 12-10-2018;
APPL=SOLIDWORKS 2019-2019057;
SITE=;
USER=unknown;
FORMAT=text;
GUISE=transmit;
KEY=EMS22Q51-B28-LS4 Digikey EMS22Q51-B28-LS4-ND;
FILE=EMS22Q51-B28-LS4 Digikey EMS22Q51-B28-LS4-ND.x_t;
DATE=Sun Apr  5 22:57:31 2020;
**PART2;
SCH=SCH_3100264_31001;
USFLD_SIZE=0;
**PART3;
**END_OF_HEADER*****************************************************************
T51 : TRANSMIT FILE created by modeller version 310026423 SCH_3100264_31001_1300
6215 0 12 34 CCCCCCI4 mesh1006 0 I8 polyline1008 0 CCCCCCCDI5 owner1040 0 CCCCCC
I13 boundary_mesh1006 0 I17 boundary_polyline1008 0 CCCA16 index_map_offset0 0 1
 dA9 index_map82 0 A17 node_id_index_map82 0 A20 schema_embedding_map82 0 A5 chi
ld12 0 A14 lowest_node_id0 0 1 dA16 mesh_offset_data206 0 Z1 4402 2 3 0 0 0 0 0
 0 1e3 1e-8 0 4 0 1 0 1 1 5 6 7 8 0 0 9 10 11 0 0 0 0 0 0 0 81 255 2 2 4388 12 1
 13 0 0 0 0 14 70 11 CI9 list_type0 0 1 uI10 notransmit0 0 1 lCCCDCCDI12 finger_
index0 0 1 dI12 finger_block1012 0 CZ3 0 4 T1 0 0 9 20 1 15 15 13 255 5 94 0 1 0
 16 0 0 17 0 50 255 6 93 0 18 19 0 0 +.0079375 -.0106045 .0138938 -1 0 0 0 0 1 3
1 255 7 182 0 20 21 0 0 -0 0 .0154686 0 0 1 1 0 0 .0047625 29 255 8 70 0 22 23 0
 .0079375 -.0106045 0 19 8 CCCCCCCA5 owner12 0 Z9 28 0 1 17 0 24 V0 16 255 10 13
6 0 ?25 0 26 21 0 0 1 18 255 11 25 0 27 0 28 29 ?1 17 255 27 0 30 31 32 11 33 34
 0 35 +18 28 22 0 32 11 36 37 ?1 29 29 27 0 11 37 38 .0079375 -.0106045 .0138938
 29 37 24 0 28 39 29 -.0079375 -.0106045 .0138938 29 38 73 0 40 29 41 .0079375 .
0106045 0 18 40 64 0 42 43 0 38 ?1 29 41 72 0 43 38 23 -.0079375 .0106045 0 18 4
3 63 0 44 45 40 41 ?1 29 23 71 0 45 41 8 -.0079375 -.0106045 0 18 45 62 0 46 22
 43 23 ?1 17 46 0 47 48 49 45 50 51 0 52 +18 22 61 0 53 54 45 8 ?1 17 53 0 55 35
 52 22 56 57 0 58 +18 54 16 0 59 36 22 60 ?1 17 59 0 61 62 63 54 64 65 0 31 -18
 36 19 0 64 28 54 39 ?1 29 60 18 0 54 0 39 .0079375 .0106045 .0138938 29 39 21 0
 36 60 37 -.0079375 .0106045 .0138938 17 64 0 30 32 31 36 59 65 0 63 +15 255 30
 3 0 31 66 67 17 32 0 30 27 64 28 68 69 0 48 +17 31 0 30 64 27 54 70 71 0 72 +16
 65 7 0 ?64 69 71 73 0 0 1 17 63 0 61 59 44 36 49 74 0 68 -15 61 82 0 44 75 0 17
 44 0 61 63 62 43 42 76 0 49 +17 49 0 47 46 68 43 63 74 0 50 +16 74 76 0 ?49 26
 77 78 0 0 1 17 68 0 47 49 48 36 32 69 0 0 -15 47 80 0 46 79 0 17 48 0 47 68 46
 28 52 77 0 33 -16 69 10 0 ?32 34 65 80 0 0 1 16 34 13 0 ?27 81 69 82 0 0 1 30 2
55 80 11 0 69 73 82 0 +-.0079375 -.0106045 .0138938 0 -1 0 30 73 8 0 65 83 80 0
 +-.0079375 .0106045 .0138938 -1 0 0 30 82 14 0 34 80 84 0 +-.0079375 -.0106045
 .0138938 1 0 0 30 84 69 0 85 82 86 0 +.0079375 -.0106045 0 0 1 0 16 85 57 0 ?87
 76 88 84 0 0 1 30 86 68 0 76 84 89 0 +-.0079375 .0106045 0 -1 0 0 16 76 53 0 ?4
4 51 85 86 0 0 1 30 89 67 0 51 86 90 0 +-.0079375 -.0106045 0 0 -1 0 16 51 49 0
 ?46 57 76 89 0 0 1 30 90 66 0 57 89 91 0 +-.0079375 -.0106045 0 1 0 0 16 57 45
 0 ?53 71 51 90 0 0 1 30 91 86 0 81 90 92 0 +.0079375 -.0106045 .0138938 0 0 -1
 16 81 74 0 ?58 77 34 91 0 0 1 30 92 87 0 77 91 78 0 +-.0079375 -.0106045 .01389
38 0 0 -1 16 77 75 0 ?52 74 81 92 0 0 1 30 78 88 0 74 92 93 0 +-.0079375 .010604
5 .0138938 0 0 -1 30 93 89 0 26 78 21 0 +.0079375 .0106045 .0138938 0 0 -1 16 26
 77 0 ?62 10 74 93 0 0 1 31 21 139 0 10 93 7 0 -0 0 .0138938 0 0 -1 -1 0 0 .0051
435 17 62 0 61 44 59 40 72 26 0 87 +17 72 0 94 70 87 54 62 26 0 0 -17 87 0 94 72
 58 40 95 85 0 0 +15 94 84 0 87 18 0 17 58 0 94 87 70 22 35 81 0 95 +17 95 0 96
 56 42 22 87 85 0 0 -15 96 44 0 95 97 0 17 56 0 96 50 95 45 53 57 0 0 -17 42 0 9
6 95 50 40 44 76 0 62 -17 50 0 96 42 56 43 46 51 0 0 -14 255 97 43 98 ?99 100 96
 5 101 +0 0 99 100 24 81 1 98 4389 102 97 103 0 0 104 105 14 99 149 104 ?106 97
 107 5 108 -0 0 106 97 24 14 100 79 109 ?97 79 55 5 110 -0 0 97 79 24 50 101 65
 0 97 111 110 0 +0 0 0 0 0 -1 -1 0 0 13 24 29 0 0 0 0 0 0 9 16 14 16 235 112 ?11
3 0 114 5 115 +0 0 113 0 24 81 1 112 4392 102 16 116 0 109 117 118 14 113 183 11
7 ?66 16 119 5 120 +0 0 66 16 24 15 114 205 0 121 16 122 50 115 213 0 16 123 124
 0 +0 0 .0234188 0 0 1 1 0 0 51 255 123 263 0 125 126 115 0 -0 0 .0361188 0 0 -1
 .003175 -1 0 0 51 124 211 0 106 115 120 0 -0 0 .0234188 0 0 -1 .0047625 -1 0 0
 14 106 198 127 ?128 99 129 5 124 -0 0 128 99 24 50 120 164 0 113 124 108 0 +0 0
 .0154686 0 0 1 1 0 0 51 108 162 0 99 120 111 0 -0 0 .0154686 0 0 -1 .0051435 -1
 0 0 50 111 2 0 66 108 101 0 +0 0 .0138938 0 0 -1 -1 0 0 14 66 140 130 ?18 113 3
0 5 111 -0 0 18 113 24 81 1 130 4395 102 66 131 0 127 132 133 14 18 85 132 ?75 6
6 94 5 6 -0 0 75 66 24 81 1 132 4396 102 18 134 0 130 135 136 14 75 83 135 ?79 1
8 61 5 19 -0 0 79 18 24 81 1 135 4397 102 75 137 0 132 138 139 14 79 81 138 ?100
 75 47 5 140 -0 0 100 75 24 50 19 92 0 75 140 6 0 +-.0079375 .0106045 .0138938 0
 -1 0 0 0 -1 50 140 91 0 79 110 19 0 +-.0079375 -.0106045 .0138938 1 0 0 0 0 -1
 50 110 90 0 100 101 140 0 +-.0079375 -.0106045 .0138938 0 1 0 0 0 1 81 1 138 43
98 102 79 141 0 135 142 143 80 255 1 102 144 145 9000 1 1 1 1 1 1 1 1 0 FFFFTFTF
FFFFFF1 81 1 141 4348 146 79 0 138 137 147 148 81 1 142 4399 102 149 150 0 138 1
51 152 82 255 1 143 1195180136 14 149 255 142 ?125 153 154 5 126 +0 0 125 153 24
 81 1 150 4355 146 149 0 142 155 156 157 81 1 151 4400 102 128 158 0 142 159 160
 82 1 152 -714866553 14 128 294 151 ?153 106 161 5 162 -0 0 153 106 24 81 1 158
 4353 146 128 0 151 163 155 164 81 1 159 4401 102 153 155 0 151 165 166 82 1 160
 1542783114 14 153 298 159 ?149 128 167 5 168 -0 0 149 128 24 81 1 155 4354 146
 153 0 159 158 150 169 81 1 165 4402 102 125 156 0 159 0 170 82 1 166 1542193290
 14 125 250 165 ?0 149 171 5 123 -0 0 0 149 24 81 1 156 4356 146 125 0 165 150 0
 172 82 1 170 -712900470 80 1 146 0 173 8001 0 0 0 0 3 5 0 0 0 FFFFTFTFFFFFFF2 8
3 255 3 172 .752941176470588 .752941176470588 .752941176470588 79 255 15 173 SDL
/TYSA_COLOUR15 171 279 0 174 125 175 17 174 0 171 174 174 0 176 177 0 0 +15 175
 254 0 178 125 0 17 178 0 175 178 178 0 179 180 0 0 -17 179 0 154 179 179 0 178
 180 0 0 +16 180 242 0 ?179 181 177 182 0 0 1 16 181 190 0 ?121 20 180 183 0 0 1
 16 177 287 0 ?174 180 184 185 0 0 1 31 182 267 0 180 185 183 0 +0 0 .0361188 0
 0 1 1 0 0 .003175 31 185 312 0 177 186 182 0 +0 0 .0241554 0 0 1 1 0 0 .003175
 31 183 215 0 181 182 187 0 +0 0 .0234188 0 0 1 1 0 0 .0047625 31 187 166 0 88 1
83 83 0 +0 0 .0154686 0 0 1 1 0 0 .0051435 16 88 146 0 ?188 85 20 187 0 0 1 30 8
3 5 0 71 187 73 0 +.0079375 -.0106045 .0138938 0 1 0 16 71 4 0 ?31 65 57 83 0 0
 1 17 188 0 119 188 188 0 189 88 0 0 +16 20 189 0 ?190 88 181 7 0 0 1 17 190 0 1
91 190 190 0 192 20 0 0 +15 191 180 0 190 113 0 17 192 0 129 192 192 0 190 20 0
 0 -15 129 201 0 192 106 193 15 193 202 0 194 106 0 17 194 0 193 194 194 0 121 1
81 0 0 -17 121 0 114 121 121 0 194 181 0 0 +15 119 156 0 188 113 191 17 189 0 10
7 189 189 0 188 88 0 0 -15 107 152 0 189 99 195 15 195 153 0 25 99 0 17 25 0 195
 25 25 0 196 10 0 0 +17 196 0 67 196 196 0 25 10 0 0 -15 67 138 0 196 66 0 31 18
6 313 0 184 197 185 0 +0 0 .0241554 0 0 1 1 0 0 .002921 16 184 288 0 ?198 177 19
9 186 0 0 1 31 197 314 0 199 0 186 0 +0 0 .0234188 0 0 1 1 0 0 .002921 16 199 28
9 0 ?200 184 0 197 0 0 1 17 200 0 201 200 200 0 202 199 0 0 +15 201 301 0 200 15
3 0 17 202 0 122 202 202 0 200 199 0 0 -15 122 304 0 202 16 0 17 198 0 203 198 1
98 0 204 184 0 0 +15 203 297 0 198 128 0 17 204 0 167 204 204 0 198 184 0 0 -15
 167 300 0 204 153 201 15 154 257 0 179 149 0 17 176 0 161 176 176 0 174 177 0 0
 -15 161 296 0 176 128 203 83 3 169 .752941176470588 .752941176470588 .752941176
470588 51 168 310 0 153 0 162 0 -0 0 .0361188 0 0 1 .002921 1 0 0 50 162 309 0 1
28 168 126 0 +.003175 0 .0241554 0 0 1 1 0 0 50 126 265 0 149 162 123 0 +0 0 .03
61188 0 0 1 1 0 0 81 1 163 4352 146 106 0 127 205 158 206 83 3 164 .752941176470
588 .752941176470588 .752941176470588 81 1 127 4394 102 106 163 0 117 130 207 81
 1 205 4351 146 99 0 104 103 163 208 83 3 206 1 .823529411764706 .15686274509803
9 81 1 104 4390 102 99 205 0 98 109 209 81 1 103 4350 146 97 0 98 147 205 210 83
 3 208 1 .823529411764706 .156862745098039 81 1 147 4349 146 100 0 109 141 103 2
11 83 3 210 .898039215686275 .917647058823529 .929411764705882 81 1 109 4391 102
 100 147 0 104 112 212 83 3 211 .898039215686275 .917647058823529 .9294117647058
82 82 1 212 1194917992 82 1 209 -2050883472 81 1 117 4393 102 113 213 0 112 127
 214 82 1 207 -1197801340 81 1 213 4344 146 113 0 117 116 131 215 82 1 214 -1195
442044 81 1 116 4343 146 16 0 112 0 213 216 81 1 131 4345 146 66 0 130 213 134 2
17 83 3 215 1 .823529411764706 .156862745098039 81 1 134 4346 146 18 0 132 131 1
37 218 83 3 217 .898039215686275 .917647058823529 .929411764705882 81 1 137 4347
 146 75 0 135 134 141 219 83 3 218 .898039215686275 .917647058823529 .9294117647
05882 83 3 219 .898039215686275 .917647058823529 .929411764705882 83 3 216 1 .82
3529411764706 .156862745098039 83 3 157 .752941176470588 .752941176470588 .75294
1176470588 83 3 148 .898039215686275 .917647058823529 .929411764705882 79 14 145
 SWEntUnchanged82 1 139 1195442280 82 1 136 1195704424 82 1 133 -2048524176 82 1
 118 -710475638 15 55 78 0 53 100 0 82 1 105 1194000488 17 70 0 94 58 72 11 31 7
1 0 0 -17 35 0 55 33 53 11 58 81 0 70 -17 33 0 55 52 35 28 27 34 0 0 -17 52 0 55
 53 33 45 48 77 0 56 +19 17 95 0 1 0 9 5 S0 74 4 CI16 index_map_offset0 0 1 dCCZ
20 15 9 0 0 165 220 221 222 223 224 156 13 2 0 0 0 0 0 0 0 0 0 0 0 81 2 220 268
 225 1 0 221 0 0 0 226 81 2 221 272 227 1 220 222 0 0 0 228 81 1 222 331 229 1 2
21 223 0 0 230 81 2 223 580 231 1 222 224 0 0 0 232 81 2 224 4340 233 1 223 13 0
 0 0 0 81 2 13 4387 234 1 224 2 0 0 235 0 80 2 234 236 237 8004 0 0 0 0 3 5 0 0
 0 FFTFFFFFFFFFFF2 3 83 1 235 27e2 79 16 237 SDL/TYSA_DENSITY80 2 233 238 239 90
00 0 0 0 0 3 5 0 0 0 FFTFFFFFFFFFFF9 1 79 16 239 BODY_RECIPE_200180 2 231 240 24
1 9000 0 0 0 0 3 5 0 0 0 FFTFFFFFFFFFFF9 1 82 1 232 1 79 24 241 BODY_IN_LIGHTWEI
GHT_PERM80 1 229 242 243 9000 1 1 1 1 1 1 1 1 0 FFTFFFFFFFFFFF1 82 1 230 2574034
 79 10 243 BODY_MATCH80 2 227 244 245 9000 0 0 0 0 3 5 0 0 0 FFTFFFFFFFFFFF9 1 8
2 1 228 79 79 30 245 LAST_BODY_MODIFYING_FEATURE_ID80 2 225 246 247 9000 0 0 0 0
 3 5 0 0 0 FFTFFFFFFFFFFT9 1 82 1 226 130 79 19 247 ENT_TIME_STAMP_200180 2 12 2
48 249 9000 0 0 0 0 3 5 0 0 0 FFTFFFFFFFFFFF9 1 82 1 14 105 79 12 249 ATOM_ID_20
011 0 
