M48
;DRILL file {KiCad (5.0.1)-3} date 4/3/2020 5:54:13 PM
;FORMAT={-:-/ absolute / inch / decimal}
FMAT,2
INCH,TZ
T1C0.0315
T2C0.0394
T3C0.0472
T4C0.0520
T5C0.1260
%
G90
G05
M72
T1
X3.06Y-3.42
X3.075Y-3.8
X3.2Y-2.72
X3.2Y-3.925
X3.34Y-2.72
X3.34Y-4.02
X3.425Y-3.7243
X3.425Y-4.36
X3.65Y-3.55
X3.65Y-4.15
X3.75Y-3.55
X3.75Y-4.15
X3.85Y-3.55
X3.85Y-4.15
X3.95Y-3.55
X3.95Y-4.15
X4.05Y-3.55
X4.05Y-4.15
X4.15Y-3.55
X4.15Y-4.15
X4.25Y-3.55
X4.25Y-4.15
X4.35Y-3.55
X4.35Y-4.15
X4.45Y-3.55
X4.45Y-4.15
X4.55Y-3.55
X4.55Y-4.15
X4.65Y-3.55
X4.65Y-4.15
X4.75Y-3.55
X4.75Y-4.15
X4.85Y-3.55
X4.85Y-4.15
X4.95Y-3.55
X4.95Y-4.15
X5.05Y-3.55
X5.05Y-4.15
X3.3Y-4.22
X3.3Y-4.52
X5.525Y-2.725
X5.525Y-3.025
X5.1Y-2.7
X5.1Y-3.
X3.65Y-2.7
X3.65Y-3.
X4.9Y-2.7
X4.9Y-3.
X4.2Y-2.725
X4.2Y-3.025
X4.6Y-2.725
X4.6Y-3.025
X4.4Y-2.725
X4.4Y-3.025
X3.48Y-2.7
X3.48Y-3.
X3.85Y-2.7
X3.85Y-3.
X4.025Y-2.7
X4.025Y-3.
X5.275Y-2.7
X5.275Y-3.
T2
X2.88Y-3.32
X2.88Y-3.42
X2.88Y-3.52
X2.7Y-2.475
X2.8Y-2.475
X2.9Y-2.475
X3.Y-2.475
X3.1Y-2.475
X3.2Y-2.475
X3.3Y-2.475
X3.4Y-2.475
X3.5Y-2.475
X3.6Y-2.475
X3.7Y-2.475
X3.8Y-2.475
X3.9Y-2.475
X4.Y-2.475
X4.1Y-2.475
X4.2Y-2.475
X4.3Y-2.475
X4.4Y-2.475
X4.5Y-2.475
X4.6Y-2.475
X4.7Y-2.475
X4.8Y-2.475
X4.9Y-2.475
X5.Y-2.475
X5.1Y-2.475
X5.2Y-2.475
X5.3Y-2.475
X5.4Y-2.475
X5.5Y-2.475
X5.6Y-2.475
X2.9Y-3.825
X2.9Y-3.925
X2.9Y-4.025
X2.9Y-4.125
X3.74Y-4.6
X3.84Y-4.6
X3.94Y-4.6
T3
X5.3781Y-4.375
X5.575Y-4.375
T4
X5.525Y-3.7781
X5.525Y-3.975
T5
X2.4Y-2.325
X6.Y-2.325
X6.Y-4.775
X2.4Y-4.75
T0
M30
