G04 #@! TF.GenerationSoftware,KiCad,Pcbnew,(5.0.1)-3*
G04 #@! TF.CreationDate,2020-04-03T17:54:04+03:00*
G04 #@! TF.ProjectId,respirator-control,72657370697261746F722D636F6E7472,rev?*
G04 #@! TF.SameCoordinates,Original*
G04 #@! TF.FileFunction,Other,User*
%FSLAX46Y46*%
G04 Gerber Fmt 4.6, Leading zero omitted, Abs format (unit mm)*
G04 Created by KiCad (PCBNEW (5.0.1)-3) date 4/3/2020 5:54:04 PM*
%MOMM*%
%LPD*%
G01*
G04 APERTURE LIST*
%ADD10C,0.200000*%
%ADD11C,0.300000*%
G04 APERTURE END LIST*
D10*
X57150000Y-55245000D02*
X57150000Y-125095000D01*
X155575000Y-55245000D02*
X155575000Y-125095000D01*
X155575000Y-125095000D02*
X57150000Y-125095000D01*
D11*
X100291071Y-45568572D02*
X100576785Y-45568572D01*
X100719642Y-45497143D01*
X100791071Y-45425715D01*
X100933928Y-45211429D01*
X101005357Y-44925715D01*
X101005357Y-44354286D01*
X100933928Y-44211429D01*
X100862500Y-44140001D01*
X100719642Y-44068572D01*
X100433928Y-44068572D01*
X100291071Y-44140001D01*
X100219642Y-44211429D01*
X100148214Y-44354286D01*
X100148214Y-44711429D01*
X100219642Y-44854286D01*
X100291071Y-44925715D01*
X100433928Y-44997143D01*
X100719642Y-44997143D01*
X100862500Y-44925715D01*
X100933928Y-44854286D01*
X101005357Y-44711429D01*
X101862500Y-44711429D02*
X101719642Y-44640001D01*
X101648214Y-44568572D01*
X101576785Y-44425715D01*
X101576785Y-44354286D01*
X101648214Y-44211429D01*
X101719642Y-44140001D01*
X101862500Y-44068572D01*
X102148214Y-44068572D01*
X102291071Y-44140001D01*
X102362500Y-44211429D01*
X102433928Y-44354286D01*
X102433928Y-44425715D01*
X102362500Y-44568572D01*
X102291071Y-44640001D01*
X102148214Y-44711429D01*
X101862500Y-44711429D01*
X101719642Y-44782858D01*
X101648214Y-44854286D01*
X101576785Y-44997143D01*
X101576785Y-45282858D01*
X101648214Y-45425715D01*
X101719642Y-45497143D01*
X101862500Y-45568572D01*
X102148214Y-45568572D01*
X102291071Y-45497143D01*
X102362500Y-45425715D01*
X102433928Y-45282858D01*
X102433928Y-44997143D01*
X102362500Y-44854286D01*
X102291071Y-44782858D01*
X102148214Y-44711429D01*
X103076785Y-45425715D02*
X103148214Y-45497143D01*
X103076785Y-45568572D01*
X103005357Y-45497143D01*
X103076785Y-45425715D01*
X103076785Y-45568572D01*
X104433928Y-44568572D02*
X104433928Y-45568572D01*
X104076785Y-43997143D02*
X103719642Y-45068572D01*
X104648214Y-45068572D01*
X105148214Y-44211429D02*
X105219642Y-44140001D01*
X105362500Y-44068572D01*
X105719642Y-44068572D01*
X105862500Y-44140001D01*
X105933928Y-44211429D01*
X106005357Y-44354286D01*
X106005357Y-44497143D01*
X105933928Y-44711429D01*
X105076785Y-45568572D01*
X106005357Y-45568572D01*
X107362500Y-44068572D02*
X106648214Y-44068572D01*
X106576785Y-44782858D01*
X106648214Y-44711429D01*
X106791071Y-44640001D01*
X107148214Y-44640001D01*
X107291071Y-44711429D01*
X107362500Y-44782858D01*
X107433928Y-44925715D01*
X107433928Y-45282858D01*
X107362500Y-45425715D01*
X107291071Y-45497143D01*
X107148214Y-45568572D01*
X106791071Y-45568572D01*
X106648214Y-45497143D01*
X106576785Y-45425715D01*
X109219642Y-45568572D02*
X109219642Y-44568572D01*
X109219642Y-44711429D02*
X109291071Y-44640001D01*
X109433928Y-44568572D01*
X109648214Y-44568572D01*
X109791071Y-44640001D01*
X109862500Y-44782858D01*
X109862500Y-45568572D01*
X109862500Y-44782858D02*
X109933928Y-44640001D01*
X110076785Y-44568572D01*
X110291071Y-44568572D01*
X110433928Y-44640001D01*
X110505357Y-44782858D01*
X110505357Y-45568572D01*
X111219642Y-45568572D02*
X111219642Y-44568572D01*
X111219642Y-44711429D02*
X111291071Y-44640001D01*
X111433928Y-44568572D01*
X111648214Y-44568572D01*
X111791071Y-44640001D01*
X111862500Y-44782858D01*
X111862500Y-45568572D01*
X111862500Y-44782858D02*
X111933928Y-44640001D01*
X112076785Y-44568572D01*
X112291071Y-44568572D01*
X112433928Y-44640001D01*
X112505357Y-44782858D01*
X112505357Y-45568572D01*
X155575000Y-46990001D02*
X57150000Y-46990001D01*
X155575000Y-55245000D02*
X155575000Y-46403580D01*
X57150000Y-55245000D02*
X57150000Y-46403580D01*
X57150000Y-46990001D02*
X58276504Y-46403580D01*
X57150000Y-46990001D02*
X58276504Y-47576422D01*
X155575000Y-46990001D02*
X154448496Y-46403580D01*
X155575000Y-46990001D02*
X154448496Y-47576422D01*
X168656428Y-84670000D02*
X168656428Y-84384285D01*
X168585000Y-84241428D01*
X168513571Y-84170000D01*
X168299285Y-84027142D01*
X168013571Y-83955714D01*
X167442142Y-83955714D01*
X167299285Y-84027142D01*
X167227857Y-84098571D01*
X167156428Y-84241428D01*
X167156428Y-84527142D01*
X167227857Y-84670000D01*
X167299285Y-84741428D01*
X167442142Y-84812857D01*
X167799285Y-84812857D01*
X167942142Y-84741428D01*
X168013571Y-84670000D01*
X168085000Y-84527142D01*
X168085000Y-84241428D01*
X168013571Y-84098571D01*
X167942142Y-84027142D01*
X167799285Y-83955714D01*
X167156428Y-85527142D02*
X167156428Y-85812857D01*
X167227857Y-85955714D01*
X167299285Y-86027142D01*
X167513571Y-86170000D01*
X167799285Y-86241428D01*
X168370714Y-86241428D01*
X168513571Y-86170000D01*
X168585000Y-86098571D01*
X168656428Y-85955714D01*
X168656428Y-85670000D01*
X168585000Y-85527142D01*
X168513571Y-85455714D01*
X168370714Y-85384285D01*
X168013571Y-85384285D01*
X167870714Y-85455714D01*
X167799285Y-85527142D01*
X167727857Y-85670000D01*
X167727857Y-85955714D01*
X167799285Y-86098571D01*
X167870714Y-86170000D01*
X168013571Y-86241428D01*
X167299285Y-86884285D02*
X167227857Y-86955714D01*
X167156428Y-86884285D01*
X167227857Y-86812857D01*
X167299285Y-86884285D01*
X167156428Y-86884285D01*
X168013571Y-87812857D02*
X168085000Y-87670000D01*
X168156428Y-87598571D01*
X168299285Y-87527142D01*
X168370714Y-87527142D01*
X168513571Y-87598571D01*
X168585000Y-87670000D01*
X168656428Y-87812857D01*
X168656428Y-88098571D01*
X168585000Y-88241428D01*
X168513571Y-88312857D01*
X168370714Y-88384285D01*
X168299285Y-88384285D01*
X168156428Y-88312857D01*
X168085000Y-88241428D01*
X168013571Y-88098571D01*
X168013571Y-87812857D01*
X167942142Y-87670000D01*
X167870714Y-87598571D01*
X167727857Y-87527142D01*
X167442142Y-87527142D01*
X167299285Y-87598571D01*
X167227857Y-87670000D01*
X167156428Y-87812857D01*
X167156428Y-88098571D01*
X167227857Y-88241428D01*
X167299285Y-88312857D01*
X167442142Y-88384285D01*
X167727857Y-88384285D01*
X167870714Y-88312857D01*
X167942142Y-88241428D01*
X168013571Y-88098571D01*
X168656428Y-89741428D02*
X168656428Y-89027142D01*
X167942142Y-88955714D01*
X168013571Y-89027142D01*
X168085000Y-89170000D01*
X168085000Y-89527142D01*
X168013571Y-89670000D01*
X167942142Y-89741428D01*
X167799285Y-89812857D01*
X167442142Y-89812857D01*
X167299285Y-89741428D01*
X167227857Y-89670000D01*
X167156428Y-89527142D01*
X167156428Y-89170000D01*
X167227857Y-89027142D01*
X167299285Y-88955714D01*
X168656428Y-90741428D02*
X168656428Y-90884285D01*
X168585000Y-91027142D01*
X168513571Y-91098571D01*
X168370714Y-91170000D01*
X168085000Y-91241428D01*
X167727857Y-91241428D01*
X167442142Y-91170000D01*
X167299285Y-91098571D01*
X167227857Y-91027142D01*
X167156428Y-90884285D01*
X167156428Y-90741428D01*
X167227857Y-90598571D01*
X167299285Y-90527142D01*
X167442142Y-90455714D01*
X167727857Y-90384285D01*
X168085000Y-90384285D01*
X168370714Y-90455714D01*
X168513571Y-90527142D01*
X168585000Y-90598571D01*
X168656428Y-90741428D01*
X167156428Y-93027142D02*
X168156428Y-93027142D01*
X168013571Y-93027142D02*
X168085000Y-93098571D01*
X168156428Y-93241428D01*
X168156428Y-93455714D01*
X168085000Y-93598571D01*
X167942142Y-93670000D01*
X167156428Y-93670000D01*
X167942142Y-93670000D02*
X168085000Y-93741428D01*
X168156428Y-93884285D01*
X168156428Y-94098571D01*
X168085000Y-94241428D01*
X167942142Y-94312857D01*
X167156428Y-94312857D01*
X167156428Y-95027142D02*
X168156428Y-95027142D01*
X168013571Y-95027142D02*
X168085000Y-95098571D01*
X168156428Y-95241428D01*
X168156428Y-95455714D01*
X168085000Y-95598571D01*
X167942142Y-95670000D01*
X167156428Y-95670000D01*
X167942142Y-95670000D02*
X168085000Y-95741428D01*
X168156428Y-95884285D01*
X168156428Y-96098571D01*
X168085000Y-96241428D01*
X167942142Y-96312857D01*
X167156428Y-96312857D01*
X165735000Y-55245000D02*
X165735000Y-125095000D01*
X156845000Y-55245000D02*
X166321421Y-55245000D01*
X156845000Y-125095000D02*
X166321421Y-125095000D01*
X165735000Y-125095000D02*
X165148579Y-123968496D01*
X165735000Y-125095000D02*
X166321421Y-123968496D01*
X165735000Y-55245000D02*
X165148579Y-56371504D01*
X165735000Y-55245000D02*
X166321421Y-56371504D01*
D10*
X155575000Y-55245000D02*
X57150000Y-55245000D01*
M02*
