G04 #@! TF.GenerationSoftware,KiCad,Pcbnew,(5.0.1)-3*
G04 #@! TF.CreationDate,2020-04-03T17:54:04+03:00*
G04 #@! TF.ProjectId,respirator-control,72657370697261746F722D636F6E7472,rev?*
G04 #@! TF.SameCoordinates,Original*
G04 #@! TF.FileFunction,Copper,L1,Top,Signal*
G04 #@! TF.FilePolarity,Positive*
%FSLAX46Y46*%
G04 Gerber Fmt 4.6, Leading zero omitted, Abs format (unit mm)*
G04 Created by KiCad (PCBNEW (5.0.1)-3) date 4/3/2020 5:54:04 PM*
%MOMM*%
%LPD*%
G01*
G04 APERTURE LIST*
G04 #@! TA.AperFunction,ComponentPad*
%ADD10R,3.960000X1.980000*%
G04 #@! TD*
G04 #@! TA.AperFunction,ComponentPad*
%ADD11O,3.960000X1.980000*%
G04 #@! TD*
G04 #@! TA.AperFunction,ComponentPad*
%ADD12R,1.600000X1.600000*%
G04 #@! TD*
G04 #@! TA.AperFunction,ComponentPad*
%ADD13O,1.600000X1.600000*%
G04 #@! TD*
G04 #@! TA.AperFunction,ComponentPad*
%ADD14R,2.400000X2.400000*%
G04 #@! TD*
G04 #@! TA.AperFunction,ComponentPad*
%ADD15C,2.400000*%
G04 #@! TD*
G04 #@! TA.AperFunction,ComponentPad*
%ADD16O,1.700000X1.700000*%
G04 #@! TD*
G04 #@! TA.AperFunction,ComponentPad*
%ADD17R,1.700000X1.700000*%
G04 #@! TD*
G04 #@! TA.AperFunction,ComponentPad*
%ADD18C,1.600000*%
G04 #@! TD*
G04 #@! TA.AperFunction,ViaPad*
%ADD19C,1.400000*%
G04 #@! TD*
G04 #@! TA.AperFunction,Conductor*
%ADD20C,1.016000*%
G04 #@! TD*
G04 APERTURE END LIST*
D10*
G04 #@! TO.P,J1,1*
G04 #@! TO.N,Net-(A1-Pad30)*
X140335000Y-100965000D03*
D11*
G04 #@! TO.P,J1,2*
G04 #@! TO.N,GND*
X140335000Y-95965000D03*
G04 #@! TD*
D12*
G04 #@! TO.P,A1,1*
G04 #@! TO.N,Net-(A1-Pad1)*
X128270000Y-90170000D03*
D13*
G04 #@! TO.P,A1,17*
G04 #@! TO.N,+3V3*
X95250000Y-105410000D03*
G04 #@! TO.P,A1,2*
G04 #@! TO.N,Net-(A1-Pad2)*
X125730000Y-90170000D03*
G04 #@! TO.P,A1,18*
G04 #@! TO.N,Net-(A1-Pad18)*
X97790000Y-105410000D03*
G04 #@! TO.P,A1,3*
G04 #@! TO.N,Net-(A1-Pad3)*
X123190000Y-90170000D03*
G04 #@! TO.P,A1,19*
G04 #@! TO.N,/MOTOR_FB*
X100330000Y-105410000D03*
G04 #@! TO.P,A1,4*
G04 #@! TO.N,GND*
X120650000Y-90170000D03*
G04 #@! TO.P,A1,20*
G04 #@! TO.N,/ISENSE*
X102870000Y-105410000D03*
G04 #@! TO.P,A1,5*
G04 #@! TO.N,Net-(A1-Pad5)*
X118110000Y-90170000D03*
G04 #@! TO.P,A1,21*
G04 #@! TO.N,Net-(A1-Pad21)*
X105410000Y-105410000D03*
G04 #@! TO.P,A1,6*
G04 #@! TO.N,/MOTOR_PWM*
X115570000Y-90170000D03*
G04 #@! TO.P,A1,22*
G04 #@! TO.N,Net-(A1-Pad22)*
X107950000Y-105410000D03*
G04 #@! TO.P,A1,7*
G04 #@! TO.N,Net-(A1-Pad7)*
X113030000Y-90170000D03*
G04 #@! TO.P,A1,23*
G04 #@! TO.N,/SDA*
X110490000Y-105410000D03*
G04 #@! TO.P,A1,8*
G04 #@! TO.N,Net-(A1-Pad8)*
X110490000Y-90170000D03*
G04 #@! TO.P,A1,24*
G04 #@! TO.N,/SCL*
X113030000Y-105410000D03*
G04 #@! TO.P,A1,9*
G04 #@! TO.N,Net-(A1-Pad9)*
X107950000Y-90170000D03*
G04 #@! TO.P,A1,25*
G04 #@! TO.N,Net-(A1-Pad25)*
X115570000Y-105410000D03*
G04 #@! TO.P,A1,10*
G04 #@! TO.N,Net-(A1-Pad10)*
X105410000Y-90170000D03*
G04 #@! TO.P,A1,26*
G04 #@! TO.N,Net-(A1-Pad26)*
X118110000Y-105410000D03*
G04 #@! TO.P,A1,11*
G04 #@! TO.N,Net-(A1-Pad11)*
X102870000Y-90170000D03*
G04 #@! TO.P,A1,27*
G04 #@! TO.N,+5V*
X120650000Y-105410000D03*
G04 #@! TO.P,A1,12*
G04 #@! TO.N,Net-(A1-Pad12)*
X100330000Y-90170000D03*
G04 #@! TO.P,A1,28*
G04 #@! TO.N,Net-(A1-Pad28)*
X123190000Y-105410000D03*
G04 #@! TO.P,A1,13*
G04 #@! TO.N,Net-(A1-Pad13)*
X97790000Y-90170000D03*
G04 #@! TO.P,A1,29*
G04 #@! TO.N,GND*
X125730000Y-105410000D03*
G04 #@! TO.P,A1,14*
G04 #@! TO.N,Net-(A1-Pad14)*
X95250000Y-90170000D03*
G04 #@! TO.P,A1,30*
G04 #@! TO.N,Net-(A1-Pad30)*
X128270000Y-105410000D03*
G04 #@! TO.P,A1,15*
G04 #@! TO.N,Net-(A1-Pad15)*
X92710000Y-90170000D03*
G04 #@! TO.P,A1,16*
G04 #@! TO.N,Net-(A1-Pad16)*
X92710000Y-105410000D03*
G04 #@! TD*
D14*
G04 #@! TO.P,C1,1*
G04 #@! TO.N,Net-(A1-Pad30)*
X141605000Y-111125000D03*
D15*
G04 #@! TO.P,C1,2*
G04 #@! TO.N,GND*
X136605000Y-111125000D03*
G04 #@! TD*
D16*
G04 #@! TO.P,J3,3*
G04 #@! TO.N,GND*
X100076000Y-116840000D03*
G04 #@! TO.P,J3,2*
G04 #@! TO.N,/MOTOR_FB*
X97536000Y-116840000D03*
D17*
G04 #@! TO.P,J3,1*
G04 #@! TO.N,+5V*
X94996000Y-116840000D03*
G04 #@! TD*
G04 #@! TO.P,J4,1*
G04 #@! TO.N,/MOTOR_PWM*
X73152000Y-84328000D03*
D16*
G04 #@! TO.P,J4,2*
G04 #@! TO.N,+5V*
X73152000Y-86868000D03*
G04 #@! TO.P,J4,3*
G04 #@! TO.N,GND*
X73152000Y-89408000D03*
G04 #@! TD*
D17*
G04 #@! TO.P,J5,1*
G04 #@! TO.N,+3V3*
X73660000Y-104775000D03*
D16*
G04 #@! TO.P,J5,2*
G04 #@! TO.N,/SDA*
X73660000Y-102235000D03*
G04 #@! TO.P,J5,3*
G04 #@! TO.N,/SCL*
X73660000Y-99695000D03*
G04 #@! TO.P,J5,4*
G04 #@! TO.N,GND*
X73660000Y-97155000D03*
G04 #@! TD*
D17*
G04 #@! TO.P,J6,1*
G04 #@! TO.N,GND*
X142240000Y-62865000D03*
D16*
G04 #@! TO.P,J6,2*
G04 #@! TO.N,/CT1*
X139700000Y-62865000D03*
G04 #@! TO.P,J6,3*
G04 #@! TO.N,+5V*
X137160000Y-62865000D03*
G04 #@! TO.P,J6,4*
G04 #@! TO.N,GND*
X134620000Y-62865000D03*
G04 #@! TO.P,J6,5*
G04 #@! TO.N,/CT2*
X132080000Y-62865000D03*
G04 #@! TO.P,J6,6*
G04 #@! TO.N,+5V*
X129540000Y-62865000D03*
G04 #@! TO.P,J6,7*
G04 #@! TO.N,GND*
X127000000Y-62865000D03*
G04 #@! TO.P,J6,8*
G04 #@! TO.N,/CT3*
X124460000Y-62865000D03*
G04 #@! TO.P,J6,9*
G04 #@! TO.N,+5V*
X121920000Y-62865000D03*
G04 #@! TO.P,J6,10*
G04 #@! TO.N,GND*
X119380000Y-62865000D03*
G04 #@! TO.P,J6,11*
G04 #@! TO.N,/SW1*
X116840000Y-62865000D03*
G04 #@! TO.P,J6,12*
G04 #@! TO.N,GND*
X114300000Y-62865000D03*
G04 #@! TO.P,J6,13*
G04 #@! TO.N,/SW2*
X111760000Y-62865000D03*
G04 #@! TO.P,J6,14*
G04 #@! TO.N,GND*
X109220000Y-62865000D03*
G04 #@! TO.P,J6,15*
G04 #@! TO.N,/SW3*
X106680000Y-62865000D03*
G04 #@! TO.P,J6,16*
G04 #@! TO.N,GND*
X104140000Y-62865000D03*
G04 #@! TO.P,J6,17*
G04 #@! TO.N,/LED1*
X101600000Y-62865000D03*
G04 #@! TO.P,J6,18*
G04 #@! TO.N,+5V*
X99060000Y-62865000D03*
G04 #@! TO.P,J6,19*
G04 #@! TO.N,/LED2_R*
X96520000Y-62865000D03*
G04 #@! TO.P,J6,20*
G04 #@! TO.N,/LED2_G*
X93980000Y-62865000D03*
G04 #@! TO.P,J6,21*
G04 #@! TO.N,/LED2_B*
X91440000Y-62865000D03*
G04 #@! TO.P,J6,22*
G04 #@! TO.N,+5V*
X88900000Y-62865000D03*
G04 #@! TO.P,J6,23*
G04 #@! TO.N,/SDA*
X86360000Y-62865000D03*
G04 #@! TO.P,J6,24*
G04 #@! TO.N,/SCL*
X83820000Y-62865000D03*
G04 #@! TO.P,J6,25*
G04 #@! TO.N,GND*
X81280000Y-62865000D03*
G04 #@! TO.P,J6,26*
G04 #@! TO.N,+5V*
X78740000Y-62865000D03*
G04 #@! TO.P,J6,27*
G04 #@! TO.N,Net-(J6-Pad27)*
X76200000Y-62865000D03*
G04 #@! TO.P,J6,28*
G04 #@! TO.N,Net-(J6-Pad28)*
X73660000Y-62865000D03*
G04 #@! TO.P,J6,29*
G04 #@! TO.N,Net-(J6-Pad29)*
X71120000Y-62865000D03*
G04 #@! TO.P,J6,30*
G04 #@! TO.N,GND*
X68580000Y-62865000D03*
G04 #@! TD*
D18*
G04 #@! TO.P,R1,1*
G04 #@! TO.N,+5V*
X83820000Y-114808000D03*
D13*
G04 #@! TO.P,R1,2*
G04 #@! TO.N,/SDA*
X83820000Y-107188000D03*
G04 #@! TD*
D18*
G04 #@! TO.P,R2,1*
G04 #@! TO.N,Net-(A1-Pad12)*
X102235000Y-76200000D03*
D13*
G04 #@! TO.P,R2,2*
G04 #@! TO.N,/LED1*
X102235000Y-68580000D03*
G04 #@! TD*
G04 #@! TO.P,R3,2*
G04 #@! TO.N,/LED2_R*
X97790000Y-68580000D03*
D18*
G04 #@! TO.P,R3,1*
G04 #@! TO.N,Net-(A1-Pad13)*
X97790000Y-76200000D03*
G04 #@! TD*
G04 #@! TO.P,R4,1*
G04 #@! TO.N,Net-(A1-Pad14)*
X92710000Y-76200000D03*
D13*
G04 #@! TO.P,R4,2*
G04 #@! TO.N,/LED2_G*
X92710000Y-68580000D03*
G04 #@! TD*
G04 #@! TO.P,R5,2*
G04 #@! TO.N,/LED2_B*
X88392000Y-68580000D03*
D18*
G04 #@! TO.P,R5,1*
G04 #@! TO.N,Net-(A1-Pad15)*
X88392000Y-76200000D03*
G04 #@! TD*
D13*
G04 #@! TO.P,R6,2*
G04 #@! TO.N,/SCL*
X129540000Y-76200000D03*
D18*
G04 #@! TO.P,R6,1*
G04 #@! TO.N,+5V*
X129540000Y-68580000D03*
G04 #@! TD*
G04 #@! TO.P,R7,1*
G04 #@! TO.N,Net-(A1-Pad5)*
X116840000Y-76835000D03*
D13*
G04 #@! TO.P,R7,2*
G04 #@! TO.N,/SW1*
X116840000Y-69215000D03*
G04 #@! TD*
D18*
G04 #@! TO.P,R9,1*
G04 #@! TO.N,Net-(A1-Pad7)*
X111760000Y-76835000D03*
D13*
G04 #@! TO.P,R9,2*
G04 #@! TO.N,/SW2*
X111760000Y-69215000D03*
G04 #@! TD*
G04 #@! TO.P,R10,2*
G04 #@! TO.N,/SW3*
X106680000Y-69215000D03*
D18*
G04 #@! TO.P,R10,1*
G04 #@! TO.N,Net-(A1-Pad8)*
X106680000Y-76835000D03*
G04 #@! TD*
G04 #@! TO.P,R11,1*
G04 #@! TO.N,/CT1*
X140335000Y-69215000D03*
D13*
G04 #@! TO.P,R11,2*
G04 #@! TO.N,Net-(A1-Pad21)*
X140335000Y-76835000D03*
G04 #@! TD*
G04 #@! TO.P,R12,2*
G04 #@! TO.N,Net-(A1-Pad22)*
X133985000Y-76200000D03*
D18*
G04 #@! TO.P,R12,1*
G04 #@! TO.N,/CT2*
X133985000Y-68580000D03*
G04 #@! TD*
G04 #@! TO.P,R15,1*
G04 #@! TO.N,/CT3*
X124460000Y-68580000D03*
D13*
G04 #@! TO.P,R15,2*
G04 #@! TO.N,Net-(A1-Pad25)*
X124460000Y-76200000D03*
G04 #@! TD*
D19*
G04 #@! TO.N,GND*
X86995000Y-94596000D03*
X86995000Y-110744000D03*
G04 #@! TO.N,+5V*
X77724000Y-86868000D03*
X78105000Y-96520000D03*
G04 #@! TO.N,/SDA*
X84836000Y-69088000D03*
X84836000Y-102108000D03*
G04 #@! TO.N,/SCL*
X81280000Y-69088000D03*
X81280000Y-99695000D03*
G04 #@! TD*
D20*
G04 #@! TO.N,/MOTOR_FB*
X100330000Y-106541370D02*
X100330000Y-105410000D01*
X103377990Y-109589360D02*
X100330000Y-106541370D01*
X97536000Y-116840000D02*
X97536000Y-119126000D01*
X97536000Y-119126000D02*
X98425000Y-120015000D01*
X103505000Y-113157010D02*
X103377990Y-113030000D01*
X103377990Y-113030000D02*
X103377990Y-109589360D01*
X102235000Y-120015000D02*
X103505000Y-118745000D01*
X103505000Y-118745000D02*
X103505000Y-113157010D01*
X98425000Y-120015000D02*
X102235000Y-120015000D01*
G04 #@! TO.N,GND*
X100330000Y-116586000D02*
X100584000Y-116840000D01*
X125730000Y-105410000D02*
X125730000Y-99695000D01*
X120650000Y-94615000D02*
X120650000Y-90170000D01*
X100076000Y-115637919D02*
X95182081Y-110744000D01*
X100076000Y-116840000D02*
X100076000Y-115637919D01*
X72178478Y-89408000D02*
X69342010Y-86571532D01*
X73152000Y-89408000D02*
X72178478Y-89408000D01*
X68580000Y-64067081D02*
X68580000Y-62865000D01*
X69342010Y-64829091D02*
X68580000Y-64067081D01*
X69342010Y-71628000D02*
X76591522Y-71628000D01*
X69342010Y-71628000D02*
X69342010Y-64829091D01*
X69342010Y-86571532D02*
X69342010Y-71628000D01*
X104140000Y-64067081D02*
X104140000Y-62865000D01*
X104559001Y-64486082D02*
X104140000Y-64067081D01*
X104559001Y-69695521D02*
X104559001Y-64486082D01*
X102626522Y-71628000D02*
X104559001Y-69695521D01*
X76591522Y-71628000D02*
X102626522Y-71628000D01*
X109054001Y-63030999D02*
X109220000Y-62865000D01*
X109054001Y-70280521D02*
X109054001Y-63030999D01*
X107706522Y-71628000D02*
X109054001Y-70280521D01*
X102626522Y-71628000D02*
X107706522Y-71628000D01*
X119380000Y-64067081D02*
X119380000Y-62865000D01*
X119380000Y-70114522D02*
X119380000Y-64067081D01*
X117866522Y-71628000D02*
X119380000Y-70114522D01*
X127000000Y-64067081D02*
X127000000Y-62865000D01*
X127000000Y-69479522D02*
X127000000Y-64067081D01*
X124851522Y-71628000D02*
X127000000Y-69479522D01*
X117348000Y-71628000D02*
X124851522Y-71628000D01*
X117348000Y-71628000D02*
X117866522Y-71628000D01*
X134620000Y-64067081D02*
X134620000Y-62865000D01*
X136309001Y-65756082D02*
X134620000Y-64067081D01*
X136309001Y-69695521D02*
X136309001Y-65756082D01*
X135100521Y-70904001D02*
X136309001Y-69695521D01*
X125575521Y-70904001D02*
X135100521Y-70904001D01*
X124851522Y-71628000D02*
X125575521Y-70904001D01*
X135100521Y-70904001D02*
X137452001Y-70904001D01*
X137452001Y-70904001D02*
X138176000Y-71628000D01*
X141361522Y-71628000D02*
X143256000Y-69733522D01*
X138176000Y-71628000D02*
X141361522Y-71628000D01*
X142240000Y-64731000D02*
X142240000Y-62865000D01*
X143256000Y-65747000D02*
X142240000Y-64731000D01*
X143256000Y-69733522D02*
X143256000Y-65747000D01*
X81280000Y-64067081D02*
X81280000Y-62865000D01*
X79248000Y-66099081D02*
X81280000Y-64067081D01*
X76591522Y-71628000D02*
X79248000Y-68971522D01*
X79248000Y-68971522D02*
X79248000Y-66099081D01*
X80772000Y-94615000D02*
X80772000Y-94488000D01*
X75692000Y-89408000D02*
X73152000Y-89408000D01*
X80772000Y-94488000D02*
X75692000Y-89408000D01*
X114084001Y-71335999D02*
X113792000Y-71628000D01*
X114084001Y-64283080D02*
X114084001Y-71335999D01*
X114300000Y-64067081D02*
X114084001Y-64283080D01*
X114300000Y-62865000D02*
X114300000Y-64067081D01*
X107706522Y-71628000D02*
X113792000Y-71628000D01*
X113792000Y-71628000D02*
X117348000Y-71628000D01*
X136605000Y-111125000D02*
X127635000Y-111125000D01*
X125730000Y-109220000D02*
X125730000Y-105410000D01*
X127635000Y-111125000D02*
X125730000Y-109220000D01*
X123110000Y-95965000D02*
X122555000Y-96520000D01*
X140335000Y-95965000D02*
X123110000Y-95965000D01*
X125730000Y-99695000D02*
X122555000Y-96520000D01*
X122555000Y-96520000D02*
X120650000Y-94615000D01*
X86995000Y-94615000D02*
X86995000Y-94596000D01*
X86995000Y-94615000D02*
X80772000Y-94615000D01*
X120650000Y-94615000D02*
X86995000Y-94615000D01*
X95182081Y-110744000D02*
X86995000Y-110744000D01*
X71120000Y-97155000D02*
X73660000Y-97155000D01*
X69850000Y-98425000D02*
X71120000Y-97155000D01*
X69850000Y-107315000D02*
X69850000Y-98425000D01*
X74295000Y-111760000D02*
X69850000Y-107315000D01*
X86995000Y-110744000D02*
X85979000Y-111760000D01*
X85979000Y-111760000D02*
X74295000Y-111760000D01*
G04 #@! TO.N,Net-(A1-Pad5)*
X118110000Y-78105000D02*
X116840000Y-76835000D01*
X118110000Y-90170000D02*
X118110000Y-78105000D01*
G04 #@! TO.N,/CT1*
X139700000Y-68580000D02*
X139700000Y-62865000D01*
X140335000Y-69215000D02*
X139700000Y-68580000D01*
G04 #@! TO.N,/MOTOR_PWM*
X115570000Y-90170000D02*
X115570000Y-91301370D01*
X114377369Y-92494001D02*
X89319001Y-92494001D01*
X115570000Y-91301370D02*
X114377369Y-92494001D01*
X89319001Y-92494001D02*
X89319001Y-90335001D01*
X83312000Y-84328000D02*
X73152000Y-84328000D01*
X89319001Y-90335001D02*
X83312000Y-84328000D01*
G04 #@! TO.N,/CT2*
X132080000Y-66675000D02*
X132080000Y-62865000D01*
X133985000Y-68580000D02*
X132080000Y-66675000D01*
G04 #@! TO.N,Net-(A1-Pad7)*
X111760000Y-77966370D02*
X111760000Y-76835000D01*
X112522010Y-78728380D02*
X111760000Y-77966370D01*
X112522010Y-88530640D02*
X112522010Y-78728380D01*
X113030000Y-89038630D02*
X112522010Y-88530640D01*
X113030000Y-90170000D02*
X113030000Y-89038630D01*
G04 #@! TO.N,Net-(A1-Pad8)*
X110490000Y-90170000D02*
X110490000Y-85090000D01*
X106680000Y-81280000D02*
X106680000Y-76835000D01*
X110490000Y-85090000D02*
X106680000Y-81280000D01*
G04 #@! TO.N,Net-(A1-Pad25)*
X124460000Y-81280000D02*
X124460000Y-76200000D01*
X126365000Y-83185000D02*
X124460000Y-81280000D01*
X141732000Y-87884000D02*
X133223000Y-87884000D01*
X143938304Y-90090304D02*
X141732000Y-87884000D01*
X128524000Y-83185000D02*
X126365000Y-83185000D01*
X133223000Y-87884000D02*
X128524000Y-83185000D01*
X143938304Y-90090304D02*
X143938304Y-91868304D01*
X143938304Y-91868304D02*
X145415000Y-93345000D01*
X145415000Y-93345000D02*
X145415000Y-113665000D01*
X145415000Y-113665000D02*
X143510000Y-115570000D01*
X143510000Y-115570000D02*
X128270000Y-115570000D01*
X121920000Y-109220000D02*
X115570000Y-109220000D01*
X128270000Y-115570000D02*
X121920000Y-109220000D01*
X115570000Y-105410000D02*
X115570000Y-109220000D01*
G04 #@! TO.N,+5V*
X120650000Y-105410000D02*
X120650000Y-99695000D01*
X120650000Y-99695000D02*
X120015000Y-99695000D01*
X120015000Y-99695000D02*
X116840000Y-96520000D01*
X67310000Y-108966000D02*
X67310000Y-87376000D01*
X75184000Y-116840000D02*
X67310000Y-108966000D01*
X137160000Y-59436000D02*
X137160000Y-62865000D01*
X67310000Y-72898000D02*
X64516000Y-70104000D01*
X67310000Y-87376000D02*
X67310000Y-72898000D01*
X64516000Y-70104000D02*
X64516000Y-61468000D01*
X64516000Y-61468000D02*
X67564000Y-58420000D01*
X136144000Y-58420000D02*
X137160000Y-59436000D01*
X129540000Y-62865000D02*
X129540000Y-58420000D01*
X129540000Y-58420000D02*
X136144000Y-58420000D01*
X121920000Y-62865000D02*
X121920000Y-58928000D01*
X121920000Y-58928000D02*
X121920000Y-58420000D01*
X121920000Y-58420000D02*
X129540000Y-58420000D01*
X88900000Y-61662919D02*
X88900000Y-58420000D01*
X88900000Y-62865000D02*
X88900000Y-61662919D01*
X78740000Y-62865000D02*
X78740000Y-58420000D01*
X67564000Y-58420000D02*
X78740000Y-58420000D01*
X78740000Y-58420000D02*
X88900000Y-58420000D01*
X99060000Y-61662919D02*
X99060000Y-58420000D01*
X99060000Y-62865000D02*
X99060000Y-61662919D01*
X88900000Y-58420000D02*
X99060000Y-58420000D01*
X99060000Y-58420000D02*
X121920000Y-58420000D01*
X129540000Y-68580000D02*
X129540000Y-62865000D01*
X83820000Y-114808000D02*
X83820000Y-116840000D01*
X94996000Y-116840000D02*
X83820000Y-116840000D01*
X83820000Y-116840000D02*
X75184000Y-116840000D01*
X73152000Y-86868000D02*
X77724000Y-86868000D01*
X83820000Y-96520000D02*
X85090000Y-97790000D01*
X83820000Y-96520000D02*
X78105000Y-96520000D01*
X85090000Y-97790000D02*
X89535000Y-97790000D01*
X89535000Y-97790000D02*
X90805000Y-96520000D01*
X116840000Y-96520000D02*
X90805000Y-96520000D01*
X67310000Y-87630000D02*
X67310000Y-87376000D01*
X73660000Y-93980000D02*
X67310000Y-87630000D01*
X78105000Y-96520000D02*
X75565000Y-93980000D01*
X75565000Y-93980000D02*
X73660000Y-93980000D01*
G04 #@! TO.N,Net-(A1-Pad12)*
X100330000Y-78105000D02*
X102235000Y-76200000D01*
X100330000Y-90170000D02*
X100330000Y-78105000D01*
G04 #@! TO.N,Net-(A1-Pad13)*
X97790000Y-89038630D02*
X97790000Y-76200000D01*
X97790000Y-90170000D02*
X97790000Y-89038630D01*
G04 #@! TO.N,Net-(A1-Pad14)*
X95250000Y-90170000D02*
X95250000Y-85090000D01*
X92710000Y-82550000D02*
X92710000Y-76200000D01*
X95250000Y-85090000D02*
X92710000Y-82550000D01*
G04 #@! TO.N,Net-(A1-Pad15)*
X88392000Y-77331370D02*
X88392000Y-76200000D01*
X88392000Y-84720630D02*
X88392000Y-77331370D01*
X92710000Y-89038630D02*
X88392000Y-84720630D01*
X92710000Y-90170000D02*
X92710000Y-89038630D01*
G04 #@! TO.N,Net-(A1-Pad21)*
X105410000Y-111760000D02*
X105410000Y-105410000D01*
X118237010Y-116332010D02*
X109982010Y-116332010D01*
X145781088Y-121920000D02*
X123825000Y-121920000D01*
X139535001Y-77634999D02*
X139535001Y-80264000D01*
X123825000Y-121920000D02*
X118237010Y-116332010D01*
X140335000Y-76835000D02*
X139535001Y-77634999D01*
X139535001Y-80264000D02*
X140551001Y-81280000D01*
X109982010Y-116332010D02*
X105410000Y-111760000D01*
X140551001Y-81280000D02*
X146812000Y-81280000D01*
X151384000Y-116317088D02*
X145781088Y-121920000D01*
X146812000Y-81280000D02*
X151384000Y-85852000D01*
X151384000Y-85852000D02*
X151384000Y-116317088D01*
G04 #@! TO.N,Net-(A1-Pad22)*
X107950000Y-110490000D02*
X107950000Y-105410000D01*
X111760000Y-114300000D02*
X107950000Y-110490000D01*
X137160000Y-83185000D02*
X133985000Y-80010000D01*
X144653000Y-83185000D02*
X137160000Y-83185000D01*
X111760000Y-114300000D02*
X120015000Y-114300000D01*
X120015000Y-114300000D02*
X125349019Y-119634019D01*
X133985000Y-80010000D02*
X133985000Y-76200000D01*
X125349019Y-119634019D02*
X145193374Y-119634018D01*
X145193374Y-119634018D02*
X149352010Y-115475382D01*
X149352010Y-115475382D02*
X149352010Y-87884010D01*
X149352010Y-87884010D02*
X144653000Y-83185000D01*
G04 #@! TO.N,/SDA*
X110490000Y-104278630D02*
X110490000Y-105410000D01*
X108585000Y-102373630D02*
X90031370Y-102373630D01*
X108585000Y-102373630D02*
X110490000Y-104278630D01*
X90031370Y-102373630D02*
X89892740Y-102235000D01*
X83820000Y-107188000D02*
X83820000Y-102235000D01*
X89892740Y-102235000D02*
X83820000Y-102235000D01*
X83820000Y-102235000D02*
X73660000Y-102235000D01*
X84836000Y-69088000D02*
X85852000Y-68072000D01*
X86360000Y-64067081D02*
X86360000Y-62865000D01*
X85852000Y-64575081D02*
X86360000Y-64067081D01*
X85852000Y-68072000D02*
X85852000Y-64575081D01*
G04 #@! TO.N,/SCL*
X74930000Y-99695000D02*
X73660000Y-99695000D01*
X113030000Y-105410000D02*
X113030000Y-101600000D01*
X113030000Y-101600000D02*
X111125000Y-99695000D01*
X113030000Y-110490000D02*
X113030000Y-105410000D01*
X113792010Y-111252010D02*
X113030000Y-110490000D01*
X83820000Y-62865000D02*
X83820000Y-66548000D01*
X83820000Y-66548000D02*
X81280000Y-69088000D01*
X111125000Y-99695000D02*
X81280000Y-99695000D01*
X81280000Y-99695000D02*
X74930000Y-99695000D01*
X129540000Y-78740000D02*
X129540000Y-76200000D01*
X131651686Y-81152990D02*
X131651686Y-80851686D01*
X143557304Y-85645304D02*
X136144000Y-85645304D01*
X136144000Y-85645304D02*
X131651686Y-81152990D01*
X120777010Y-111252010D02*
X127127010Y-117602010D01*
X131651686Y-80851686D02*
X129540000Y-78740000D01*
X113792010Y-111252010D02*
X120777010Y-111252010D01*
X127127010Y-117602010D02*
X144351687Y-117602009D01*
X144351687Y-117602009D02*
X147320000Y-114633696D01*
X147320000Y-114633696D02*
X147320000Y-89408000D01*
X147320000Y-89408000D02*
X143557304Y-85645304D01*
G04 #@! TO.N,Net-(A1-Pad30)*
X141605000Y-111125000D02*
X141605000Y-107315000D01*
X140335000Y-106045000D02*
X140335000Y-100965000D01*
X141605000Y-107315000D02*
X140335000Y-106045000D01*
X132715000Y-106045000D02*
X132080000Y-105410000D01*
X140335000Y-106045000D02*
X132715000Y-106045000D01*
X132842000Y-105410000D02*
X132080000Y-105410000D01*
X132080000Y-105410000D02*
X128270000Y-105410000D01*
G04 #@! TO.N,/CT3*
X124460000Y-68580000D02*
X124460000Y-62865000D01*
G04 #@! TO.N,/SW1*
X116840000Y-69215000D02*
X116840000Y-62865000D01*
G04 #@! TO.N,/SW2*
X111760000Y-69215000D02*
X111760000Y-62865000D01*
G04 #@! TO.N,/SW3*
X106680000Y-69215000D02*
X106680000Y-62865000D01*
G04 #@! TO.N,/LED1*
X101600000Y-67945000D02*
X101600000Y-62865000D01*
X102235000Y-68580000D02*
X101600000Y-67945000D01*
G04 #@! TO.N,/LED2_R*
X96520000Y-67310000D02*
X96520000Y-62865000D01*
X97790000Y-68580000D02*
X96520000Y-67310000D01*
G04 #@! TO.N,/LED2_G*
X93980000Y-67310000D02*
X93980000Y-62865000D01*
X92710000Y-68580000D02*
X93980000Y-67310000D01*
G04 #@! TO.N,/LED2_B*
X91440000Y-65532000D02*
X91440000Y-62865000D01*
X88392000Y-68580000D02*
X91440000Y-65532000D01*
G04 #@! TO.N,+3V3*
X73660000Y-106641000D02*
X76874000Y-109855000D01*
X73660000Y-104775000D02*
X73660000Y-106641000D01*
X84592478Y-109855000D02*
X85862478Y-108585000D01*
X76874000Y-109855000D02*
X84592478Y-109855000D01*
X85862478Y-108585000D02*
X93980000Y-108585000D01*
X95250000Y-107315000D02*
X95250000Y-105410000D01*
X93980000Y-108585000D02*
X95250000Y-107315000D01*
G04 #@! TD*
M02*
